<?xml version="1.0" encoding="UTF-8" standalone="no"?>
<!-- Created with Inkscape (http://www.inkscape.org/) -->

<svg
   width="39.710011mm"
   height="11.136767mm"
   viewBox="0 0 39.710011 11.136767"
   version="1.1"
   id="svg2724"
   inkscape:version="1.1.2 (0a00cf5339, 2022-02-04)"
   sodipodi:docname="001.svg"
   xmlns:inkscape="http://www.inkscape.org/namespaces/inkscape"
   xmlns:sodipodi="http://sodipodi.sourceforge.net/DTD/sodipodi-0.dtd"
   xmlns="http://www.w3.org/2000/svg"
   xmlns:svg="http://www.w3.org/2000/svg">
  <sodipodi:namedview
     id="namedview2726"
     pagecolor="#ffffff"
     bordercolor="#666666"
     borderopacity="1.0"
     inkscape:pageshadow="2"
     inkscape:pageopacity="0.0"
     inkscape:pagecheckerboard="0"
     inkscape:document-units="mm"
     showgrid="false"
     inkscape:zoom="0.69664703"
     inkscape:cx="500.25334"
     inkscape:cy="322.25789"
     inkscape:window-width="1920"
     inkscape:window-height="1016"
     inkscape:window-x="0"
     inkscape:window-y="0"
     inkscape:window-maximized="1"
     inkscape:current-layer="layer1" />
  <defs
     id="defs2721" />
  <g
     inkscape:label="Layer 1"
     inkscape:groupmode="layer"
     id="layer1"
     transform="translate(27.450913,-63.174608)">
    <path
       fill="#faff58"
       d="m -24.517317,63.309312 -1.197951,0.321394 -1.554076,0.868008 0.803086,1.39351 0.807361,-0.377766 c 0.02618,0.256209 0.138924,0.803089 0.138924,0.803089 0.03046,1.558351 -0.09538,3.216619 -0.09538,3.216619 0.954833,0.125831 1.923026,0.138925 1.923026,0.138925 0,0 0.972199,-0.0131 1.922759,-0.138925 0,0 -0.125834,-1.658268 -0.09538,-3.216619 0,0 0.117284,-0.54688 0.143198,-0.803089 l 0.803087,0.377766 0.803087,-1.39351 -1.549803,-0.868008 -1.202225,-0.321394 c 0,0 -0.473142,0.06518 -0.824726,0.06518 -0.351852,0 -0.824994,-0.06518 -0.824994,-0.06518 z"
       fill-rule="evenodd"
       id="path115"
       style="fill:#88d4c8;fill-opacity:1;stroke:#000000;stroke-width:0.264583;stroke-opacity:1" />
    <path
       fill="#000000"
       d="m -25.61535,69.534166 c 0,0 -0.599242,1.732008 -0.746715,4.162904 -0.0043,0.05637 -0.0085,0.182203 -0.01309,0.238575 0,0 0.0088,0.0046 0.02191,0.0046 0.177929,0.0259 1.584266,0.238575 2.400443,0.238575 h 0.04328 c 0,0 0.0043,-0.125831 0.01736,-0.221208 0.03046,-0.338762 0.108467,-1.146122 0.130375,-1.571442 0.01737,0.42532 0.09538,1.23268 0.125833,1.571442 0.01282,0.09538 0.01736,0.221208 0.01736,0.221208 0.01469,2.64e-4 0.02939,2.64e-4 0.04435,2.64e-4 0.87335,0 2.421282,-0.243385 2.421282,-0.243385 -0.0045,-0.05637 -0.0088,-0.182202 -0.0088,-0.238575 -0.152015,-2.430896 -0.750991,-4.162903 -0.750991,-4.162903 z"
       fill-rule="evenodd"
       id="path119"
       style="stroke-width:0.264583" />
    <path
       fill="#faff58"
       d="m -16.469024,63.309312 -1.197948,0.321394 -1.554077,0.868008 0.803086,1.39351 0.80736,-0.377766 c 0.02619,0.256209 0.138925,0.803089 0.138925,0.803089 0.03046,1.558351 -0.09538,3.216619 -0.09538,3.216619 0.954834,0.125831 1.923026,0.138925 1.923026,0.138925 0,0 0.972201,-0.0131 1.922759,-0.138925 0,0 -0.125833,-1.658268 -0.09538,-3.216619 0,0 0.117284,-0.54688 0.1432,-0.803089 l 0.803085,0.377766 0.803086,-1.39351 -1.549801,-0.868008 -1.202225,-0.321394 c 0,0 -0.473143,0.06518 -0.824727,0.06518 -0.351851,0 -0.824995,-0.06518 -0.824995,-0.06518 z"
       fill-rule="evenodd"
       id="path827"
       style="fill:#b55768;fill-opacity:1;stroke:#000000;stroke-width:0.264583;stroke-opacity:1" />
    <path
       fill="#000000"
       d="m -17.567055,69.534166 c 0,0 -0.599242,1.732008 -0.746715,4.162904 -0.0043,0.05637 -0.0085,0.182203 -0.01309,0.238575 0,0 0.0088,0.0046 0.02191,0.0046 0.177929,0.0259 1.584267,0.238575 2.400443,0.238575 h 0.04328 c 0,0 0.0043,-0.125831 0.01736,-0.221208 0.03046,-0.338762 0.108468,-1.146122 0.130376,-1.571442 0.01736,0.42532 0.09537,1.23268 0.125831,1.571442 0.01283,0.09538 0.01736,0.221208 0.01736,0.221208 0.01469,2.64e-4 0.02939,2.64e-4 0.04435,2.64e-4 0.87335,0 2.421281,-0.243385 2.421281,-0.243385 -0.0046,-0.05637 -0.0088,-0.182202 -0.0088,-0.238575 -0.152013,-2.430896 -0.75099,-4.162903 -0.75099,-4.162903 z"
       fill-rule="evenodd"
       id="path831"
       style="fill:#ffffff;fill-opacity:1;stroke:#000000;stroke-width:0.264583;stroke-opacity:1" />
    <path
       fill="#faff58"
       d="m -8.4207282,63.309312 -1.1979513,0.321394 -1.5540775,0.868008 0.803087,1.39351 0.80736,-0.377766 c 0.026194,0.256209 0.1389248,0.803089 0.1389248,0.803089 0.030456,1.558351 -0.095377,3.216619 -0.095377,3.216619 0.9548336,0.125831 1.9230287,0.138925 1.9230287,0.138925 0,0 0.9722008,-0.0131 1.9227588,-0.138925 0,0 -0.1258358,-1.658268 -0.095377,-3.216619 0,0 0.1172845,-0.54688 0.1432004,-0.803089 l 0.8030845,0.377766 0.8030871,-1.39351 -1.5498021,-0.868008 -1.2022243,-0.321394 c 0,0 -0.4731438,0.06518 -0.8247274,0.06518 -0.3518509,0 -0.824992,-0.06518 -0.8249947,-0.06518 z"
       fill-rule="evenodd"
       id="path835"
       style="stroke:#000000;stroke-width:0.264583;stroke-opacity:1" />
    <path
       fill="#000000"
       d="m -9.5187622,69.534166 c 0,0 -0.5992418,1.732008 -0.7467148,4.162904 -0.0043,0.05637 -0.0085,0.182203 -0.0131,0.238575 0,0 0.0088,0.0046 0.02191,0.0046 0.177933,0.0259 1.5842672,0.238575 2.4004459,0.238575 h 0.043278 c 0,0 0.00429,-0.125831 0.017357,-0.221208 0.030456,-0.338762 0.1084685,-1.146122 0.130376,-1.571442 0.017357,0.42532 0.095374,1.23268 0.1258306,1.571442 0.012832,0.09538 0.017357,0.221208 0.017357,0.221208 0.014684,2.64e-4 0.02939,2.64e-4 0.04435,2.64e-4 0.8733499,0 2.4212814,-0.243385 2.4212814,-0.243385 -0.00455,-0.05637 -0.00881,-0.182202 -0.00881,-0.238575 -0.1520137,-2.430896 -0.7509907,-4.162903 -0.7509907,-4.162903 z"
       fill-rule="evenodd"
       id="path839"
       style="stroke-width:0.264583" />
    <path
       fill="#faff58"
       d="m 9.3255028,63.309312 1.1979492,0.321394 1.554077,0.868008 -0.803087,1.39351 -0.80736,-0.377766 c -0.02619,0.256209 -0.138925,0.803089 -0.138925,0.803089 -0.03046,1.558351 0.09538,3.216619 0.09538,3.216619 -0.9548334,0.125831 -1.9230258,0.138925 -1.9230258,0.138925 0,0 -0.9721982,-0.0131 -1.9227588,-0.138925 0,0 0.1258332,-1.658268 0.095377,-3.216619 0,0 -0.1172845,-0.54688 -0.1432004,-0.803089 l -0.8030872,0.377766 -0.8030871,-1.39351 1.5498021,-0.868008 1.2022244,-0.321394 c 0,0 0.4731437,0.06518 0.8247274,0.06518 0.3518508,0 0.8249946,-0.06518 0.8249972,-0.06518 z"
       fill-rule="evenodd"
       id="path843"
       style="fill:#de895b;fill-opacity:1;stroke:#000000;stroke-width:0.264583;stroke-opacity:1" />
    <path
       fill="#000000"
       d="m 10.423534,69.534166 c 0,0 0.599242,1.732008 0.746715,4.162904 0.0043,0.05637 0.0085,0.182203 0.0131,0.238575 0,0 -0.0088,0.0046 -0.02191,0.0046 -0.17793,0.0259 -1.5842645,0.238575 -2.4004432,0.238575 h -0.04328 c 0,0 -0.00429,-0.125831 -0.017357,-0.221208 -0.030456,-0.338762 -0.108466,-1.146122 -0.1303735,-1.571442 -0.017357,0.42532 -0.095377,1.23268 -0.1258331,1.571442 -0.012832,0.09538 -0.017357,0.221208 -0.017357,0.221208 -0.014684,2.64e-4 -0.029387,2.64e-4 -0.04435,2.64e-4 -0.8733498,0 -2.4212814,-0.243385 -2.4212814,-0.243385 0.00455,-0.05637 0.00881,-0.182202 0.00881,-0.238575 0.1520137,-2.430896 0.7509907,-4.162903 0.7509907,-4.162903 z"
       fill-rule="evenodd"
       id="path847"
       style="fill:#de895b;fill-opacity:1;stroke:#000000;stroke-width:0.264583;stroke-opacity:1" />
    <path
       fill="#faff58"
       d="m 1.2772087,63.309312 1.1979486,0.321394 1.5540778,0.868008 -0.8030871,1.39351 -0.8073601,-0.377766 c -0.026194,0.256209 -0.1389248,0.803089 -0.1389248,0.803089 -0.030456,1.558351 0.095377,3.216619 0.095377,3.216619 -0.9548336,0.125831 -1.92302606,0.138925 -1.92302606,0.138925 0,0 -0.97220086,-0.0131 -1.92275884,-0.138925 0,0 0.1258332,-1.658268 0.095377,-3.216619 0,0 -0.1172845,-0.54688 -0.1432004,-0.803089 l -0.8030845,0.377766 -0.8030871,-1.39351 1.5497995,-0.868008 1.20222429,-0.321394 c 0,0 0.47314379,0.06518 0.82472741,0.06518 0.35185085,0 0.8249946,-0.06518 0.8249973,-0.06518 z"
       fill-rule="evenodd"
       id="path851"
       style="fill:#3d3939;fill-opacity:1;stroke:#000000;stroke-width:0.264583;stroke-opacity:1" />
    <path
       fill="#000000"
       d="m 2.3752401,69.534166 c 0,0 0.5992415,1.732008 0.746715,4.162904 0.00429,0.05637 0.00855,0.182203 0.013097,0.238575 0,0 -0.00881,0.0046 -0.021907,0.0046 -0.1779297,0.0259 -1.5842668,0.238575 -2.40044288,0.238575 h -0.0432805 c 0,0 -0.004286,-0.125831 -0.0173567,-0.221208 C 0.62160882,73.61885 0.54359643,72.81149 0.52168893,72.38617 c -0.0173567,0.42532 -0.0953744,1.23268 -0.12583054,1.571442 -0.0128323,0.09538 -0.0173567,0.221208 -0.0173567,0.221208 -0.0146844,2.64e-4 -0.0293899,2.64e-4 -0.0443495,2.64e-4 -0.87334988,0 -2.42128149,-0.243385 -2.42128149,-0.243385 0.00455,-0.05637 0.00881,-0.182202 0.00881,-0.238575 0.1520137,-2.430896 0.7509906,-4.162903 0.7509906,-4.162903 z"
       fill-rule="evenodd"
       id="path855"
       style="stroke-width:0.264583" />
  </g>
</svg>
