<?xml version="1.0" encoding="UTF-8"?>
<!-- Created with Inkscape (http://www.inkscape.org/) -->
<svg id="svg2724" width="39.71mm" height="11.137mm" version="1.1" viewBox="0 0 39.71 11.137" xmlns="http://www.w3.org/2000/svg">
 <g id="layer1" transform="translate(27.451 -63.175)" fill-rule="evenodd" stroke-width=".26458">
  <path id="path115" d="m-24.517 63.309-1.198 0.32139-1.5541 0.86801 0.80309 1.3935 0.80736-0.37777c0.02618 0.25621 0.13892 0.80309 0.13892 0.80309 0.03046 1.5584-0.09538 3.2166-0.09538 3.2166 0.95483 0.12583 1.923 0.13892 1.923 0.13892s0.9722-0.0131 1.9228-0.13892c0 0-0.12583-1.6583-0.09538-3.2166 0 0 0.11728-0.54688 0.1432-0.80309l0.80309 0.37777 0.80309-1.3935-1.5498-0.86801-1.2022-0.32139s-0.47314 0.06518-0.82473 0.06518c-0.35185 0-0.82499-0.06518-0.82499-0.06518z" fill="#88d4c8" stroke="#000"/>
  <path id="path119" d="m-25.615 69.534s-0.59924 1.732-0.74672 4.1629c-0.0043 0.05637-0.0085 0.1822-0.01309 0.23858 0 0 0.0088 0.0046 0.02191 0.0046 0.17793 0.0259 1.5843 0.23858 2.4004 0.23858h0.04328s0.0043-0.12583 0.01736-0.22121c0.03046-0.33876 0.10847-1.1461 0.13038-1.5714 0.01737 0.42532 0.09538 1.2327 0.12583 1.5714 0.01282 0.09538 0.01736 0.22121 0.01736 0.22121 0.01469 2.64e-4 0.02939 2.64e-4 0.04435 2.64e-4 0.87335 0 2.4213-0.24338 2.4213-0.24338-0.0045-0.05637-0.0088-0.1822-0.0088-0.23858-0.15202-2.4309-0.75099-4.1629-0.75099-4.1629z"/>
  <path id="path827" d="m-16.469 63.309-1.1979 0.32139-1.5541 0.86801 0.80309 1.3935 0.80736-0.37777c0.02619 0.25621 0.13892 0.80309 0.13892 0.80309 0.03046 1.5584-0.09538 3.2166-0.09538 3.2166 0.95483 0.12583 1.923 0.13892 1.923 0.13892s0.9722-0.0131 1.9228-0.13892c0 0-0.12583-1.6583-0.09538-3.2166 0 0 0.11728-0.54688 0.1432-0.80309l0.80308 0.37777 0.80309-1.3935-1.5498-0.86801-1.2022-0.32139s-0.47314 0.06518-0.82473 0.06518c-0.35185 0-0.825-0.06518-0.825-0.06518z" fill="#b55768" stroke="#000"/>
  <path id="path831" d="m-17.567 69.534s-0.59924 1.732-0.74672 4.1629c-0.0043 0.05637-0.0085 0.1822-0.01309 0.23858 0 0 0.0088 0.0046 0.02191 0.0046 0.17793 0.0259 1.5843 0.23858 2.4004 0.23858h0.04328s0.0043-0.12583 0.01736-0.22121c0.03046-0.33876 0.10847-1.1461 0.13038-1.5714 0.01736 0.42532 0.09537 1.2327 0.12583 1.5714 0.01283 0.09538 0.01736 0.22121 0.01736 0.22121 0.01469 2.64e-4 0.02939 2.64e-4 0.04435 2.64e-4 0.87335 0 2.4213-0.24338 2.4213-0.24338-0.0046-0.05637-0.0088-0.1822-0.0088-0.23858-0.15201-2.4309-0.75099-4.1629-0.75099-4.1629z" fill="#fff" stroke="#000"/>
  <path id="path835" d="m-8.4207 63.309-1.198 0.32139-1.5541 0.86801 0.80309 1.3935 0.80736-0.37777c0.026194 0.25621 0.13892 0.80309 0.13892 0.80309 0.030456 1.5584-0.095377 3.2166-0.095377 3.2166 0.95483 0.12583 1.923 0.13892 1.923 0.13892s0.9722-0.0131 1.9228-0.13892c0 0-0.12584-1.6583-0.095377-3.2166 0 0 0.11728-0.54688 0.1432-0.80309l0.80308 0.37777 0.80309-1.3935-1.5498-0.86801-1.2022-0.32139s-0.47314 0.06518-0.82473 0.06518c-0.35185 0-0.82499-0.06518-0.82499-0.06518z" fill="#faff58" stroke="#000"/>
  <path id="path839" d="m-9.5188 69.534s-0.59924 1.732-0.74671 4.1629c-0.0043 0.05637-0.0085 0.1822-0.0131 0.23858 0 0 0.0088 0.0046 0.02191 0.0046 0.17793 0.0259 1.5843 0.23858 2.4004 0.23858h0.043278s0.00429-0.12583 0.017357-0.22121c0.030456-0.33876 0.10847-1.1461 0.13038-1.5714 0.017357 0.42532 0.095374 1.2327 0.12583 1.5714 0.012832 0.09538 0.017357 0.22121 0.017357 0.22121 0.014684 2.64e-4 0.02939 2.64e-4 0.04435 2.64e-4 0.87335 0 2.4213-0.24338 2.4213-0.24338-0.00455-0.05637-0.00881-0.1822-0.00881-0.23858-0.15201-2.4309-0.75099-4.1629-0.75099-4.1629z"/>
  <path id="path843" d="m9.3255 63.309 1.1979 0.32139 1.5541 0.86801-0.80309 1.3935-0.80736-0.37777c-0.02619 0.25621-0.13892 0.80309-0.13892 0.80309-0.03046 1.5584 0.09538 3.2166 0.09538 3.2166-0.95483 0.12583-1.923 0.13892-1.923 0.13892s-0.9722-0.0131-1.9228-0.13892c0 0 0.12583-1.6583 0.095377-3.2166 0 0-0.11728-0.54688-0.1432-0.80309l-0.80309 0.37777-0.80309-1.3935 1.5498-0.86801 1.2022-0.32139s0.47314 0.06518 0.82473 0.06518c0.35185 0 0.82499-0.06518 0.825-0.06518z" fill="#de895b" stroke="#000"/>
  <path id="path847" d="m10.424 69.534s0.59924 1.732 0.74672 4.1629c0.0043 0.05637 0.0085 0.1822 0.0131 0.23858 0 0-0.0088 0.0046-0.02191 0.0046-0.17793 0.0259-1.5843 0.23858-2.4004 0.23858h-0.04328s-0.00429-0.12583-0.017357-0.22121c-0.030456-0.33876-0.10847-1.1461-0.13037-1.5714-0.017357 0.42532-0.095377 1.2327-0.12583 1.5714-0.012832 0.09538-0.017357 0.22121-0.017357 0.22121-0.014684 2.64e-4 -0.029387 2.64e-4 -0.04435 2.64e-4 -0.87335 0-2.4213-0.24338-2.4213-0.24338 0.00455-0.05637 0.00881-0.1822 0.00881-0.23858 0.15201-2.4309 0.75099-4.1629 0.75099-4.1629z" fill="#de895b" stroke="#000"/>
  <path id="path851" d="m1.2772 63.309 1.1979 0.32139 1.5541 0.86801-0.80309 1.3935-0.80736-0.37777c-0.026194 0.25621-0.13892 0.80309-0.13892 0.80309-0.030456 1.5584 0.095377 3.2166 0.095377 3.2166-0.95483 0.12583-1.923 0.13892-1.923 0.13892s-0.9722-0.0131-1.9228-0.13892c0 0 0.12583-1.6583 0.095377-3.2166 0 0-0.11728-0.54688-0.1432-0.80309l-0.80308 0.37777-0.80309-1.3935 1.5498-0.86801 1.2022-0.32139s0.47314 0.06518 0.82473 0.06518c0.35185 0 0.82499-0.06518 0.825-0.06518z" fill="#3d3939" stroke="#000"/>
  <path id="path855" d="m2.3752 69.534s0.59924 1.732 0.74672 4.1629c0.00429 0.05637 0.00855 0.1822 0.013097 0.23858 0 0-0.00881 0.0046-0.021907 0.0046-0.17793 0.0259-1.5843 0.23858-2.4004 0.23858h-0.04328s-0.004286-0.12583-0.017357-0.22121c-0.030456-0.33876-0.10847-1.1461-0.13038-1.5714-0.017357 0.42532-0.095374 1.2327-0.12583 1.5714-0.012832 0.09538-0.017357 0.22121-0.017357 0.22121-0.014684 2.64e-4 -0.02939 2.64e-4 -0.04435 2.64e-4 -0.87335 0-2.4213-0.24338-2.4213-0.24338 0.00455-0.05637 0.00881-0.1822 0.00881-0.23858 0.15201-2.4309 0.75099-4.1629 0.75099-4.1629z"/>
 </g>
</svg>
