<?xml version="1.0" encoding="UTF-8"?>
<svg id="svg363" width="150.18" height="42.125" fill="none" stroke-linecap="square" stroke-miterlimit="10" version="1.1" viewBox="0 0 150.18 42.125" xmlns="http://www.w3.org/2000/svg">
 <clipPath id="g1f1130f6aa8_0_6014.0">
  <path id="path2" d="m0 0h960v540h-960z"/>
 </clipPath>
 <path id="path885" d="m6.9826 24.07s-2.2649 6.5462-2.8222 15.734c-0.01616 0.21306-0.03231 0.68864-0.04948 0.9017 0 0 0.03332 0.0172 0.0828 0.0172 0.67249 0.0979 5.9878 0.9017 9.0725 0.9017h0.16358s0.01616-0.47558 0.06563-0.83606c0.11511-1.2804 0.40996-4.3318 0.49276-5.9393 0.06563 1.6075 0.36048 4.659 0.47559 5.9393 0.04847 0.36048 0.06563 0.83606 0.06563 0.83606 0.05554 1e-3 0.11107 1e-3 0.16762 1e-3 3.3008 0 9.1513-0.91988 9.1513-0.91988-0.01717-0.21306-0.03332-0.68864-0.03332-0.9017-0.57454-9.1876-2.8384-15.734-2.8384-15.734z" fill="#000" fill-rule="evenodd"/>
 <path id="path889" d="m78.205 0.54253 4.5277 1.2147 5.8737 3.2807-3.0353 5.2668-3.0514-1.4278c-0.099 0.96835-0.52507 3.0353-0.52507 3.0353-0.11511 5.8898 0.36048 12.157 0.36048 12.157-3.6088 0.47558-7.2681 0.52507-7.2681 0.52507s-3.6745-0.0495-7.2671-0.52507c0 0 0.47559-6.2675 0.36048-12.157 0 0-0.44328-2.0669-0.54123-3.0353l-3.0353 1.4278-3.0353-5.2668 5.8575-3.2807 4.5438-1.2147s1.7883 0.24637 3.1171 0.24637c1.3298 0 3.1181-0.24637 3.1181-0.24637z" fill="#4b44a1" fill-rule="evenodd" stroke="#000"/>
 <path id="path893" d="m82.355 24.07s2.2648 6.5462 2.8222 15.734c0.0162 0.21306 0.0323 0.68864 0.0495 0.9017 0 0-0.0333 0.0172-0.0828 0.0172-0.67249 0.0979-5.9878 0.9017-9.0725 0.9017h-0.16358s-0.0162-0.47558-0.0656-0.83606c-0.11511-1.2804-0.40996-4.3318-0.49276-5.9393-0.0656 1.6075-0.36047 4.659-0.47558 5.9393-0.0485 0.36048-0.0656 0.83606-0.0656 0.83606-0.0555 1e-3 -0.11108 1e-3 -0.16762 1e-3 -3.3008 0-9.1513-0.91988-9.1513-0.91988 0.0172-0.21306 0.0333-0.68864 0.0333-0.9017 0.57454-9.1876 2.8384-15.734 2.8384-15.734z" fill="#4b44a1" fill-rule="evenodd" stroke="#000"/>
 <path id="path897" d="m47.786 0.54253 4.5277 1.2147 5.8737 3.2807-3.0353 5.2668-3.0514-1.4278c-0.099 0.96835-0.52507 3.0353-0.52507 3.0353-0.11511 5.8898 0.36048 12.157 0.36048 12.157-3.6088 0.47558-7.2681 0.52507-7.2681 0.52507s-3.6745-0.0495-7.2671-0.52507c0 0 0.4756-6.2675 0.36048-12.157 0 0-0.44328-2.0669-0.54123-3.0353l-3.0353 1.4278-3.0353-5.2668 5.8575-3.2807 4.5438-1.2147s1.7883 0.24637 3.1171 0.24637c1.3298 0 3.1181-0.24637 3.1181-0.24637z" fill="#949bd4" fill-rule="evenodd" stroke="#000"/>
 <path id="path901" d="m51.936 24.07s2.2648 6.5462 2.8222 15.734c0.0162 0.21306 0.0323 0.68864 0.0495 0.9017 0 0-0.0333 0.0172-0.0828 0.0172-0.6725 0.0979-5.9878 0.9017-9.0726 0.9017h-0.16357s-0.0162-0.47558-0.0656-0.83606c-0.11511-1.2804-0.40996-4.3318-0.49276-5.9393-0.0656 1.6075-0.36047 4.659-0.47558 5.9393-0.0485 0.36048-0.0656 0.83606-0.0656 0.83606-0.0555 1e-3 -0.11108 1e-3 -0.16762 1e-3 -3.3008 0-9.1513-0.91988-9.1513-0.91988 0.0172-0.21306 0.0333-0.68864 0.0333-0.9017 0.57454-9.1876 2.8384-15.734 2.8384-15.734z" fill="#fff" fill-rule="evenodd" stroke="#000"/>
 <path id="path905" d="m139.09 0.54253 4.5277 1.2147 5.8737 3.2807-3.0353 5.2668-3.0514-1.4278c-0.099 0.96835-0.52507 3.0353-0.52507 3.0353-0.11511 5.8898 0.36048 12.157 0.36048 12.157-3.6088 0.47558-7.2681 0.52507-7.2681 0.52507s-3.6744-0.0495-7.2671-0.52507c0 0 0.47559-6.2675 0.36048-12.157 0 0-0.44328-2.0669-0.54123-3.0353l-3.0353 1.4278-3.0353-5.2668 5.8575-3.2807 4.5438-1.2147s1.7883 0.24637 3.1171 0.24637c1.3298 0 3.1181-0.24637 3.1181-0.24637z" fill="#faff58" fill-rule="evenodd" stroke="#000"/>
 <path id="path909" d="m143.24 24.07s2.2648 6.5462 2.8222 15.734c0.0162 0.21306 0.0323 0.68864 0.0495 0.9017 0 0-0.0333 0.0172-0.0828 0.0172-0.67249 0.0979-5.9878 0.9017-9.0725 0.9017h-0.16358s-0.0162-0.47558-0.0656-0.83606c-0.11511-1.2804-0.40995-4.3318-0.49275-5.9393-0.0656 1.6075-0.36048 4.659-0.47559 5.9393-0.0485 0.36048-0.0656 0.83606-0.0656 0.83606-0.0555 1e-3 -0.11107 1e-3 -0.16762 1e-3 -3.3008 0-9.1513-0.91988-9.1513-0.91988 0.0172-0.21306 0.0333-0.68864 0.0333-0.9017 0.57454-9.1876 2.8384-15.734 2.8384-15.734z" fill="#faff58" fill-rule="evenodd" stroke="#000"/>
 <path id="path917" d="m112.82 24.07s2.2648 6.5462 2.8222 15.734c0.0162 0.21306 0.0323 0.68864 0.0495 0.9017 0 0-0.0333 0.0172-0.0828 0.0172-0.67249 0.0979-5.9878 0.9017-9.0725 0.9017h-0.16358s-0.0162-0.47558-0.0656-0.83606c-0.11511-1.2804-0.40996-4.3318-0.49276-5.9393-0.0656 1.6075-0.36047 4.659-0.47558 5.9393-0.0485 0.36048-0.0656 0.83606-0.0656 0.83606-0.0555 1e-3 -0.11108 1e-3 -0.16762 1e-3 -3.3008 0-9.1513-0.91988-9.1513-0.91988 0.0172-0.21306 0.0333-0.68864 0.0333-0.9017 0.57454-9.1876 2.8384-15.734 2.8384-15.734z" fill="#56ad59" fill-rule="evenodd" stroke="#000"/>
 <path id="path915" d="m108.67 0.54253 4.5277 1.2147 5.8737 3.2807-3.0353 5.2668-3.0514-1.4278c-0.099 0.96835-0.52507 3.0353-0.52507 3.0353-0.11511 5.8898 0.36048 12.157 0.36048 12.157-3.6088 0.47558-7.2681 0.52507-7.2681 0.52507s-3.6745-0.0495-7.2671-0.52507c0 0 0.4756-6.2675 0.36048-12.157 0 0-0.44327-2.0669-0.54123-3.0353l-3.0353 1.4278-3.0353-5.2668 5.8575-3.2807 4.5438-1.2147s1.7883 0.24637 3.1171 0.24637c1.3298 0 3.1181-0.24637 3.1181-0.24637z" fill="#56ad59" fill-rule="evenodd" stroke="#000" stroke-linecap="butt" stroke-miterlimit="16.248" stroke-width="1.0656"/>
 <path id="path883" d="m11.133 0.54253-4.5277 1.2147-5.8737 3.2807 3.0353 5.2668 3.0514-1.4278c0.09896 0.96835 0.52507 3.0353 0.52507 3.0353 0.11511 5.8898-0.36048 12.157-0.36048 12.157 3.6088 0.47558 7.2681 0.52507 7.2681 0.52507s3.6745-0.0495 7.2671-0.52507c0 0-0.47559-6.2675-0.36048-12.157 0 0 0.44328-2.0669 0.54122-3.0353l3.0353 1.4278 3.0353-5.2668-5.8575-3.2807-4.5438-1.2147s-1.7883 0.24637-3.1171 0.24637c-1.3298 0-3.1181-0.24637-3.1181-0.24637z" fill="#000" fill-rule="evenodd" stroke="#000" stroke-linecap="butt" stroke-miterlimit="16.248" stroke-width="1.0656"/>
</svg>
