<?xml version="1.0" encoding="UTF-8"?>
<!-- Created with Inkscape (http://www.inkscape.org/) -->
<svg id="svg3005" width="39.71mm" height="11.146mm" version="1.1" viewBox="0 0 39.71 11.146" xmlns="http://www.w3.org/2000/svg">
 <g id="layer1" transform="translate(134.17 -102.29)">
  <path id="path927" d="m-132.34 108.66s-0.59924 1.732-0.74672 4.1629c-4e-3 0.0564-9e-3 0.18221-0.0131 0.23858 0 0 9e-3 5e-3 0.0219 5e-3 0.17793 0.0259 1.5843 0.23857 2.4004 0.23857h0.0433s4e-3 -0.12583 0.0174-0.2212c0.0305-0.33876 0.10847-1.1461 0.13037-1.5714 0.0174 0.42533 0.0954 1.2327 0.12584 1.5714 0.0128 0.0954 0.0174 0.2212 0.0174 0.2212 0.0147 2.7e-4 0.0294 2.7e-4 0.0444 2.7e-4 0.87335 0 2.4213-0.24339 2.4213-0.24339-5e-3 -0.0564-9e-3 -0.1822-9e-3 -0.23857-0.15202-2.4309-0.75099-4.1629-0.75099-4.1629z" fill-rule="evenodd" stroke-width=".26458"/>
  <path id="path931" d="m-113.31 102.43 1.198 0.32139 1.5541 0.86801-0.80309 1.3935-0.80736-0.37777c-0.0262 0.25621-0.13892 0.80309-0.13892 0.80309-0.0305 1.5584 0.0954 3.2166 0.0954 3.2166-0.95484 0.12583-1.923 0.13893-1.923 0.13893s-0.9722-0.0131-1.9228-0.13893c0 0 0.12583-1.6583 0.0954-3.2166 0 0-0.11729-0.54688-0.1432-0.80309l-0.80309 0.37777-0.80308-1.3935 1.5498-0.86801 1.2022-0.32139s0.47315 0.0652 0.82473 0.0652c0.35185 0 0.82499-0.0652 0.82499-0.0652z" fill-rule="evenodd" stroke-width=".26458"/>
  <path id="path935" d="m-112.21 108.66s0.59924 1.732 0.74671 4.1629c4e-3 0.0564 9e-3 0.18221 0.0131 0.23858 0 0-9e-3 5e-3 -0.0219 5e-3 -0.17793 0.0259-1.5843 0.23857-2.4004 0.23857h-0.0433s-4e-3 -0.12583-0.0174-0.2212c-0.0305-0.33876-0.10847-1.1461-0.13038-1.5714-0.0174 0.42533-0.0954 1.2327-0.12583 1.5714-0.0128 0.0954-0.0173 0.2212-0.0173 0.2212-0.0147 2.7e-4 -0.0294 2.7e-4 -0.0444 2.7e-4 -0.87335 0-2.4213-0.24339-2.4213-0.24339 5e-3 -0.0564 9e-3 -0.1822 9e-3 -0.23857 0.15201-2.4309 0.75099-4.1629 0.75099-4.1629z" fill-rule="evenodd" stroke-width=".26458"/>
  <path id="path939" d="m-121.36 102.43 1.198 0.32139 1.5541 0.86801-0.80309 1.3935-0.80736-0.37777c-0.0262 0.25621-0.13892 0.80309-0.13892 0.80309-0.0305 1.5584 0.0954 3.2166 0.0954 3.2166-0.95483 0.12583-1.923 0.13893-1.923 0.13893s-0.97221-0.0131-1.9228-0.13893c0 0 0.12583-1.6583 0.0954-3.2166 0 0-0.11728-0.54688-0.1432-0.80309l-0.80308 0.37777-0.80309-1.3935 1.5498-0.86801 1.2022-0.32139s0.47314 0.0652 0.82473 0.0652c0.35185 0 0.82499-0.0652 0.82499-0.0652z" fill="#fff" fill-rule="evenodd" stroke="#000" stroke-width=".26458"/>
  <path id="path943" d="m-120.26 108.66s0.59925 1.732 0.74672 4.1629c4e-3 0.0564 9e-3 0.18221 0.0131 0.23858 0 0-9e-3 5e-3 -0.0219 5e-3 -0.17793 0.0259-1.5843 0.23857-2.4004 0.23857h-0.0433s-4e-3 -0.12583-0.0174-0.2212c-0.0305-0.33876-0.10847-1.1461-0.13038-1.5714-0.0173 0.42533-0.0954 1.2327-0.12583 1.5714-0.0128 0.0954-0.0174 0.2212-0.0174 0.2212-0.0147 2.7e-4 -0.0294 2.7e-4 -0.0443 2.7e-4 -0.87335 0-2.4213-0.24339-2.4213-0.24339 5e-3 -0.0564 9e-3 -0.1822 9e-3 -0.23857 0.15201-2.4309 0.75099-4.1629 0.75099-4.1629z" fill="#fff" fill-rule="evenodd" stroke="#000" stroke-width=".26458"/>
  <path id="path951" d="m-96.311 108.66s0.59924 1.732 0.74672 4.1629c0.0043 0.0564 0.0085 0.18221 0.0131 0.23858 0 0-0.0088 5e-3 -0.02191 5e-3 -0.17793 0.0259-1.5843 0.23857-2.4004 0.23857h-0.04328s-0.0043-0.12583-0.01736-0.2212c-0.03046-0.33876-0.10847-1.1461-0.13037-1.5714-0.01736 0.42533-0.09538 1.2327-0.12583 1.5714-0.01283 0.0954-0.01736 0.2212-0.01736 0.2212-0.01469 2.7e-4 -0.02939 2.7e-4 -0.04435 2.7e-4 -0.87335 0-2.4213-0.24339-2.4213-0.24339 5e-3 -0.0564 9e-3 -0.1822 9e-3 -0.23857 0.15202-2.4309 0.75099-4.1629 0.75099-4.1629z" fill="#83cabb" fill-rule="evenodd" stroke="#000" stroke-width=".26458"/>
  <path id="path955" d="m-105.46 102.43 1.198 0.32139 1.5541 0.86801-0.80308 1.3935-0.80736-0.37777c-0.0262 0.25621-0.13893 0.80309-0.13893 0.80309-0.0305 1.5584 0.0954 3.2166 0.0954 3.2166-0.95484 0.12583-1.923 0.13893-1.923 0.13893s-0.9722-0.0131-1.9228-0.13893c0 0 0.12584-1.6583 0.0954-3.2166 0 0-0.11728-0.54688-0.1432-0.80309l-0.80309 0.37777-0.80308-1.3935 1.5498-0.86801 1.2022-0.32139s0.47315 0.0652 0.82473 0.0652c0.35185 0 0.82499-0.0652 0.825-0.0652z" fill="#2f6536" fill-rule="evenodd" stroke="#000" stroke-width=".26458"/>
  <path id="path959" d="m-104.36 108.66s0.59924 1.732 0.74671 4.1629c4e-3 0.0564 9e-3 0.18221 0.0131 0.23858 0 0-9e-3 5e-3 -0.0219 5e-3 -0.17793 0.0259-1.5843 0.23857-2.4004 0.23857h-0.0433s-4e-3 -0.12583-0.0174-0.2212c-0.0305-0.33876-0.10847-1.1461-0.13037-1.5714-0.0174 0.42533-0.0954 1.2327-0.12583 1.5714-0.0128 0.0954-0.0174 0.2212-0.0174 0.2212-0.0147 2.7e-4 -0.0294 2.7e-4 -0.0444 2.7e-4 -0.87335 0-2.4213-0.24339-2.4213-0.24339 5e-3 -0.0564 9e-3 -0.1822 9e-3 -0.23857 0.15201-2.4309 0.75099-4.1629 0.75099-4.1629z" fill="#2f6536" fill-rule="evenodd" stroke="#000" stroke-width=".26458"/>
  <path id="path213473" d="m-120.97 102.56v6.0969h-0.7316v-6.1729l0.3461-0.0558z" fill="#000211" stroke="#000" stroke-width=".26458px"/>
  <path id="path213588" d="m-123.36 102.56v6.0969h0.7316v-6.1729l-0.3461-0.0558z" fill="#000211" stroke="#000" stroke-width=".26458px"/>
  <path id="path923" d="m-131.24 102.43-1.198 0.32139-1.5541 0.86801 0.80308 1.3935 0.80736-0.37777c0.0262 0.25621 0.13893 0.80309 0.13893 0.80309 0.0305 1.5584-0.0954 3.2166-0.0954 3.2166 0.95483 0.12583 1.923 0.13893 1.923 0.13893s0.9722-0.0131 1.9228-0.13893c0 0-0.12584-1.6583-0.0954-3.2166 0 0 0.11728-0.54688 0.1432-0.80309l0.80308 0.37777 0.80309-1.3935-1.5498-0.86801-1.2022-0.32139s-0.47314 0.0652-0.82472 0.0652c-0.35185 0-0.825-0.0652-0.825-0.0652z" fill="#faff58" fill-rule="evenodd" stroke="#000" stroke-width=".26458"/>
  <path id="path949" d="m-97.409 102.43 1.1979 0.32139 1.5541 0.86801-0.80309 1.3935-0.80736-0.37777c-0.02619 0.25621-0.13892 0.80309-0.13892 0.80309-0.03046 1.5584 0.09538 3.2166 0.09538 3.2166-0.95483 0.12583-1.923 0.13893-1.923 0.13893s-0.9722-0.0131-1.9228-0.13893c0 0 0.12583-1.6583 0.0954-3.2166 0 0-0.11728-0.54688-0.1432-0.80309l-0.80308 0.37777-0.80309-1.3935 1.5498-0.86801 1.2022-0.32139s0.47314 0.0652 0.82473 0.0652c0.35185 0 0.825-0.0652 0.825-0.0652z" fill="#83cabb" fill-rule="evenodd" stroke="#000" stroke-miterlimit="16.248" stroke-width=".28194"/>
 </g>
</svg>
