<?xml version="1.0" encoding="UTF-8" standalone="no"?>
<!-- Created with Inkscape (http://www.inkscape.org/) -->

<svg
   width="39.710011mm"
   height="11.145997mm"
   viewBox="0 0 39.710011 11.145997"
   version="1.1"
   id="svg3005"
   inkscape:version="1.1.2 (0a00cf5339, 2022-02-04)"
   sodipodi:docname="003.svg"
   xmlns:inkscape="http://www.inkscape.org/namespaces/inkscape"
   xmlns:sodipodi="http://sodipodi.sourceforge.net/DTD/sodipodi-0.dtd"
   xmlns="http://www.w3.org/2000/svg"
   xmlns:svg="http://www.w3.org/2000/svg">
  <sodipodi:namedview
     id="namedview3007"
     pagecolor="#ffffff"
     bordercolor="#666666"
     borderopacity="1.0"
     inkscape:pageshadow="2"
     inkscape:pageopacity="0.0"
     inkscape:pagecheckerboard="0"
     inkscape:document-units="mm"
     showgrid="false"
     inkscape:zoom="7.8022412"
     inkscape:cx="75.04254"
     inkscape:cy="21.083685"
     inkscape:window-width="1920"
     inkscape:window-height="1016"
     inkscape:window-x="0"
     inkscape:window-y="0"
     inkscape:window-maximized="1"
     inkscape:current-layer="layer1" />
  <defs
     id="defs3002" />
  <g
     inkscape:label="Layer 1"
     inkscape:groupmode="layer"
     id="layer1"
     transform="translate(134.17342,-102.28912)">
    <path
       fill="#000000"
       d="m -132.33786,108.65751 c 0,0 -0.59924,1.73201 -0.74672,4.1629 -0.004,0.0564 -0.009,0.18221 -0.0131,0.23858 0,0 0.009,0.005 0.0219,0.005 0.17793,0.0259 1.58427,0.23857 2.40044,0.23857 h 0.0433 c 0,0 0.004,-0.12583 0.0174,-0.2212 0.0305,-0.33876 0.10847,-1.14612 0.13037,-1.57145 0.0174,0.42533 0.0954,1.23269 0.12584,1.57145 0.0128,0.0954 0.0174,0.2212 0.0174,0.2212 0.0147,2.7e-4 0.0294,2.7e-4 0.0444,2.7e-4 0.87335,0 2.42128,-0.24339 2.42128,-0.24339 -0.005,-0.0564 -0.009,-0.1822 -0.009,-0.23857 -0.15202,-2.4309 -0.75099,-4.16291 -0.75099,-4.16291 z"
       fill-rule="evenodd"
       id="path927"
       style="stroke-width:0.264583" />
    <path
       fill="#faff58"
       d="m -113.31203,102.43266 1.19795,0.32139 1.55408,0.86801 -0.80309,1.39351 -0.80736,-0.37777 c -0.0262,0.25621 -0.13892,0.80309 -0.13892,0.80309 -0.0305,1.55835 0.0954,3.21662 0.0954,3.21662 -0.95484,0.12583 -1.92303,0.13893 -1.92303,0.13893 0,0 -0.9722,-0.0131 -1.92276,-0.13893 0,0 0.12583,-1.65827 0.0954,-3.21662 0,0 -0.11729,-0.54688 -0.1432,-0.80309 l -0.80309,0.37777 -0.80308,-1.39351 1.5498,-0.86801 1.20222,-0.32139 c 0,0 0.47315,0.0652 0.82473,0.0652 0.35185,0 0.82499,-0.0652 0.82499,-0.0652 z"
       fill-rule="evenodd"
       id="path931"
       style="fill:#000000;fill-opacity:1;stroke-width:0.264583" />
    <path
       fill="#000000"
       d="m -112.21399,108.65751 c 0,0 0.59924,1.73201 0.74671,4.1629 0.004,0.0564 0.009,0.18221 0.0131,0.23858 0,0 -0.009,0.005 -0.0219,0.005 -0.17793,0.0259 -1.58427,0.23857 -2.40044,0.23857 h -0.0433 c 0,0 -0.004,-0.12583 -0.0174,-0.2212 -0.0305,-0.33876 -0.10847,-1.14612 -0.13038,-1.57145 -0.0174,0.42533 -0.0954,1.23269 -0.12583,1.57145 -0.0128,0.0954 -0.0173,0.2212 -0.0173,0.2212 -0.0147,2.7e-4 -0.0294,2.7e-4 -0.0444,2.7e-4 -0.87335,0 -2.42128,-0.24339 -2.42128,-0.24339 0.005,-0.0564 0.009,-0.1822 0.009,-0.23857 0.15201,-2.4309 0.75099,-4.16291 0.75099,-4.16291 z"
       fill-rule="evenodd"
       id="path935"
       style="fill:#000000;fill-opacity:1;stroke-width:0.264583" />
    <path
       fill="#faff58"
       d="m -121.36032,102.43266 1.19795,0.32139 1.55408,0.86801 -0.80309,1.39351 -0.80736,-0.37777 c -0.0262,0.25621 -0.13892,0.80309 -0.13892,0.80309 -0.0305,1.55835 0.0954,3.21662 0.0954,3.21662 -0.95483,0.12583 -1.92302,0.13893 -1.92302,0.13893 0,0 -0.97221,-0.0131 -1.92276,-0.13893 0,0 0.12583,-1.65827 0.0954,-3.21662 0,0 -0.11728,-0.54688 -0.1432,-0.80309 l -0.80308,0.37777 -0.80309,-1.39351 1.5498,-0.86801 1.20223,-0.32139 c 0,0 0.47314,0.0652 0.82473,0.0652 0.35185,0 0.82499,-0.0652 0.82499,-0.0652 z"
       fill-rule="evenodd"
       id="path939"
       style="fill:#ffffff;fill-opacity:1;stroke:#000000;stroke-width:0.264583;stroke-opacity:1" />
    <path
       fill="#000000"
       d="m -120.26229,108.65751 c 0,0 0.59925,1.73201 0.74672,4.1629 0.004,0.0564 0.009,0.18221 0.0131,0.23858 0,0 -0.009,0.005 -0.0219,0.005 -0.17793,0.0259 -1.58427,0.23857 -2.40045,0.23857 h -0.0433 c 0,0 -0.004,-0.12583 -0.0174,-0.2212 -0.0305,-0.33876 -0.10847,-1.14612 -0.13038,-1.57145 -0.0173,0.42533 -0.0954,1.23269 -0.12583,1.57145 -0.0128,0.0954 -0.0174,0.2212 -0.0174,0.2212 -0.0147,2.7e-4 -0.0294,2.7e-4 -0.0443,2.7e-4 -0.87335,0 -2.42129,-0.24339 -2.42129,-0.24339 0.005,-0.0564 0.009,-0.1822 0.009,-0.23857 0.15201,-2.4309 0.75099,-4.16291 0.75099,-4.16291 z"
       fill-rule="evenodd"
       id="path943"
       style="fill:#ffffff;fill-opacity:1;stroke:#000000;stroke-width:0.264583;stroke-opacity:1" />
    <path
       fill="#000000"
       d="m -96.310887,108.65751 c 0,0 0.599241,1.73201 0.746715,4.1629 0.0043,0.0564 0.0085,0.18221 0.0131,0.23858 0,0 -0.0088,0.005 -0.02191,0.005 -0.17793,0.0259 -1.584264,0.23857 -2.400443,0.23857 h -0.04328 c 0,0 -0.0043,-0.12583 -0.01736,-0.2212 -0.03046,-0.33876 -0.108466,-1.14612 -0.130373,-1.57145 -0.01736,0.42533 -0.09538,1.23269 -0.125834,1.57145 -0.01283,0.0954 -0.01736,0.2212 -0.01736,0.2212 -0.01469,2.7e-4 -0.02939,2.7e-4 -0.04435,2.7e-4 -0.87335,0 -2.421288,-0.24339 -2.421288,-0.24339 0.005,-0.0564 0.009,-0.1822 0.009,-0.23857 0.15202,-2.4309 0.75099,-4.16291 0.75099,-4.16291 z"
       fill-rule="evenodd"
       id="path951"
       style="fill:#83cabb;fill-opacity:1;stroke:#000000;stroke-width:0.264583;stroke-opacity:1" />
    <path
       fill="#faff58"
       d="m -105.45721,102.43266 1.19795,0.32139 1.55407,0.86801 -0.80308,1.39351 -0.80736,-0.37777 c -0.0262,0.25621 -0.13893,0.80309 -0.13893,0.80309 -0.0305,1.55835 0.0954,3.21662 0.0954,3.21662 -0.95484,0.12583 -1.92303,0.13893 -1.92303,0.13893 0,0 -0.9722,-0.0131 -1.92276,-0.13893 0,0 0.12584,-1.65827 0.0954,-3.21662 0,0 -0.11728,-0.54688 -0.1432,-0.80309 l -0.80309,0.37777 -0.80308,-1.39351 1.5498,-0.86801 1.20222,-0.32139 c 0,0 0.47315,0.0652 0.82473,0.0652 0.35185,0 0.82499,-0.0652 0.825,-0.0652 z"
       fill-rule="evenodd"
       id="path955"
       style="fill:#2f6536;fill-opacity:1;stroke:#000000;stroke-width:0.264583;stroke-opacity:1" />
    <path
       fill="#000000"
       d="m -104.35918,108.65751 c 0,0 0.59924,1.73201 0.74671,4.1629 0.004,0.0564 0.009,0.18221 0.0131,0.23858 0,0 -0.009,0.005 -0.0219,0.005 -0.17793,0.0259 -1.58426,0.23857 -2.40044,0.23857 h -0.0433 c 0,0 -0.004,-0.12583 -0.0174,-0.2212 -0.0305,-0.33876 -0.10847,-1.14612 -0.13037,-1.57145 -0.0174,0.42533 -0.0954,1.23269 -0.12583,1.57145 -0.0128,0.0954 -0.0174,0.2212 -0.0174,0.2212 -0.0147,2.7e-4 -0.0294,2.7e-4 -0.0444,2.7e-4 -0.87335,0 -2.42128,-0.24339 -2.42128,-0.24339 0.005,-0.0564 0.009,-0.1822 0.009,-0.23857 0.15201,-2.4309 0.75099,-4.16291 0.75099,-4.16291 z"
       fill-rule="evenodd"
       id="path959"
       style="fill:#2f6536;fill-opacity:1;stroke:#000000;stroke-width:0.264583;stroke-opacity:1" />
    <path
       style="fill:#000211;fill-opacity:1;stroke:#000000;stroke-width:0.264583px;stroke-linecap:butt;stroke-linejoin:miter;stroke-opacity:1"
       d="m -120.97482,102.5644 v 6.09691 h -0.7316 v -6.1729 l 0.3461,-0.0558 z"
       id="path213473" />
    <path
       style="fill:#000211;fill-opacity:1;stroke:#000000;stroke-width:0.264583px;stroke-linecap:butt;stroke-linejoin:miter;stroke-opacity:1"
       d="m -123.35614,102.5644 v 6.09691 h 0.7316 v -6.1729 l -0.3461,-0.0558 z"
       id="path213588" />
    <path
       fill="#faff58"
       d="m -131.23983,102.43266 -1.19795,0.32139 -1.55407,0.86801 0.80308,1.39351 0.80736,-0.37777 c 0.0262,0.25621 0.13893,0.80309 0.13893,0.80309 0.0305,1.55835 -0.0954,3.21662 -0.0954,3.21662 0.95483,0.12583 1.92303,0.13893 1.92303,0.13893 0,0 0.9722,-0.0131 1.92276,-0.13893 0,0 -0.12584,-1.65827 -0.0954,-3.21662 0,0 0.11728,-0.54688 0.1432,-0.80309 l 0.80308,0.37777 0.80309,-1.39351 -1.5498,-0.86801 -1.20223,-0.32139 c 0,0 -0.47314,0.0652 -0.82472,0.0652 -0.35185,0 -0.825,-0.0652 -0.825,-0.0652 z"
       fill-rule="evenodd"
       id="path923"
       style="stroke:#000000;stroke-width:0.264583;stroke-opacity:1" />
    <path
       stroke="#000000"
       stroke-width="0.281945"
       stroke-miterlimit="16.2479"
       stroke-linecap="butt"
       d="m -97.408919,102.43266 1.197949,0.32139 1.554078,0.86801 -0.803087,1.39351 -0.807361,-0.37777 c -0.02619,0.25621 -0.138924,0.80309 -0.138924,0.80309 -0.03046,1.55835 0.09538,3.21662 0.09538,3.21662 -0.954834,0.12583 -1.923026,0.13893 -1.923026,0.13893 0,0 -0.972199,-0.0131 -1.92276,-0.13893 0,0 0.12583,-1.65827 0.0954,-3.21662 0,0 -0.11728,-0.54688 -0.1432,-0.80309 l -0.80308,0.37777 -0.80309,-1.39351 1.5498,-0.86801 1.20223,-0.32139 c 0,0 0.473143,0.0652 0.824727,0.0652 0.351851,0 0.824995,-0.0652 0.824997,-0.0652 z"
       fill-rule="evenodd"
       id="path949"
       style="fill:#83cabb;fill-opacity:1;stroke:#000000;stroke-opacity:1" />
  </g>
</svg>
