<?xml version="1.0" encoding="UTF-8"?>
<!-- Created with Inkscape (http://www.inkscape.org/) -->
<svg id="svg3270" width="39.722mm" height="11.146mm" version="1.1" viewBox="0 0 39.722 11.146" xmlns="http://www.w3.org/2000/svg">
 <g id="layer1" transform="translate(76.45 -215.09)" fill-rule="evenodd">
  <path id="path969" d="m-74.615 221.46s-0.59924 1.732-0.74672 4.1629c-0.0043 0.0564-0.0085 0.1822-0.01309 0.23857 0 0 0.0088 5e-3 0.02191 5e-3 0.17793 0.0259 1.5843 0.23858 2.4004 0.23858h0.04328s0.0043-0.12583 0.01736-0.22121c0.03046-0.33876 0.10847-1.1461 0.13038-1.5714 0.01736 0.42532 0.09538 1.2327 0.12583 1.5714 0.01282 0.0954 0.01736 0.22121 0.01736 0.22121 0.01469 2.6e-4 0.02939 2.6e-4 0.04435 2.6e-4 0.87335 0 2.4213-0.24338 2.4213-0.24338-0.0045-0.0564-0.0088-0.18221-0.0088-0.23858-0.15202-2.4309-0.75099-4.1629-0.75099-4.1629z" stroke="#000" stroke-width=".26458"/>
  <path id="path977" d="m-66.567 221.46s-0.59924 1.732-0.74672 4.1629c-0.0043 0.0564-0.0085 0.1822-0.01309 0.23857 0 0 0.0088 5e-3 0.02191 5e-3 0.17793 0.0259 1.5843 0.23858 2.4004 0.23858h0.04328s0.0043-0.12583 0.01736-0.22121c0.03046-0.33876 0.10847-1.1461 0.13038-1.5714 0.01736 0.42532 0.09537 1.2327 0.12583 1.5714 0.01283 0.0954 0.01736 0.22121 0.01736 0.22121 0.01469 2.6e-4 0.02939 2.6e-4 0.04435 2.6e-4 0.87335 0 2.4213-0.24338 2.4213-0.24338-0.0046-0.0564-0.0088-0.18221-0.0088-0.23858-0.15201-2.4309-0.75099-4.1629-0.75099-4.1629z" fill="#68d8e2" stroke="#000" stroke-width=".26458"/>
  <path id="path985" d="m-58.518 221.46s-0.59924 1.732-0.74672 4.1629c-0.0043 0.0564-0.0085 0.1822-0.0131 0.23857 0 0 0.0088 5e-3 0.02191 5e-3 0.17793 0.0259 1.5843 0.23858 2.4004 0.23858h0.04328s0.0043-0.12583 0.01736-0.22121c0.03046-0.33876 0.10847-1.1461 0.13038-1.5714 0.01736 0.42532 0.09537 1.2327 0.12583 1.5714 0.01283 0.0954 0.01736 0.22121 0.01736 0.22121 0.01468 2.6e-4 0.02939 2.6e-4 0.04435 2.6e-4 0.87335 0 2.4213-0.24338 2.4213-0.24338-0.0046-0.0564-0.0088-0.18221-0.0088-0.23858-0.15201-2.4309-0.75099-4.1629-0.75099-4.1629z" fill="#d4122b" stroke="#000" stroke-width=".26458"/>
  <path id="path993" d="m-38.576 221.46s0.59924 1.732 0.74672 4.1629c0.0043 0.0564 0.0085 0.1822 0.0131 0.23857 0 0-0.0088 5e-3 -0.02191 5e-3 -0.17793 0.0259-1.5843 0.23858-2.4004 0.23858h-0.04328s-0.0043-0.12583-0.01736-0.22121c-0.03046-0.33876-0.10847-1.1461-0.13037-1.5714-0.01736 0.42532-0.09538 1.2327-0.12583 1.5714-0.01283 0.0954-0.01736 0.22121-0.01736 0.22121-0.01469 2.6e-4 -0.02939 2.6e-4 -0.04435 2.6e-4 -0.87335 0-2.4213-0.24338-2.4213-0.24338 0.0046-0.0564 0.0088-0.18221 0.0088-0.23858 0.15201-2.4309 0.75099-4.1629 0.75099-4.1629z"/>
  <path id="path1001" d="m-46.624 221.46s0.59924 1.732 0.74672 4.1629c0.0043 0.0564 0.0085 0.1822 0.0131 0.23857 0 0-0.0088 5e-3 -0.02191 5e-3 -0.17793 0.0259-1.5843 0.23858-2.4004 0.23858h-0.04328s-0.0043-0.12583-0.01736-0.22121c-0.03046-0.33876-0.10847-1.1461-0.13038-1.5714-0.01736 0.42532-0.09537 1.2327-0.12583 1.5714-0.01283 0.0954-0.01736 0.22121-0.01736 0.22121-0.01468 2.6e-4 -0.02939 2.6e-4 -0.04435 2.6e-4 -0.87335 0-2.4213-0.24338-2.4213-0.24338 0.0046-0.0564 0.0088-0.18221 0.0088-0.23858 0.15201-2.4309 0.75099-4.1629 0.75099-4.1629z" fill="#65ff74" stroke="#000" stroke-width=".26458"/>
  <path id="path965" d="m-73.517 215.23-1.198 0.32139-1.5541 0.86801 0.80309 1.3935 0.80736-0.37777c0.02618 0.25621 0.13892 0.80309 0.13892 0.80309 0.03046 1.5584-0.09538 3.2166-0.09538 3.2166 0.95483 0.12583 1.923 0.13893 1.923 0.13893s0.9722-0.0131 1.9228-0.13893c0 0-0.12583-1.6583-0.09538-3.2166 0 0 0.11728-0.54688 0.1432-0.80309l0.80309 0.37777 0.80309-1.3935-1.5498-0.86801-1.2022-0.32139s-0.47314 0.0652-0.82473 0.0652c-0.35185 0-0.82499-0.0652-0.82499-0.0652z" fill="#faff58" stroke="#000" stroke-width=".26458"/>
  <path id="path975" d="m-65.469 215.23-1.1979 0.32139-1.5541 0.86801 0.80309 1.3935 0.80736-0.37777c0.02619 0.25621 0.13892 0.80309 0.13892 0.80309 0.03046 1.5584-0.09538 3.2166-0.09538 3.2166 0.95483 0.12583 1.923 0.13893 1.923 0.13893s0.9722-0.0131 1.9228-0.13893c0 0-0.12583-1.6583-0.09538-3.2166 0 0 0.11728-0.54688 0.1432-0.80309l0.80308 0.37777 0.80309-1.3935-1.5498-0.86801-1.2022-0.32139s-0.47314 0.0652-0.82473 0.0652c-0.35185 0-0.825-0.0652-0.825-0.0652z" fill="#68d8e2" stroke="#000" stroke-miterlimit="16.248" stroke-width=".28194"/>
  <path id="path981" d="m-57.42 215.23-1.198 0.32139-1.5541 0.86801 0.80309 1.3935 0.80736-0.37777c0.02619 0.25621 0.13892 0.80309 0.13892 0.80309 0.03046 1.5584-0.09538 3.2166-0.09538 3.2166 0.95483 0.12583 1.923 0.13893 1.923 0.13893s0.9722-0.0131 1.9228-0.13893c0 0-0.12584-1.6583-0.09538-3.2166 0 0 0.11728-0.54688 0.1432-0.80309l0.80308 0.37777 0.80309-1.3935-1.5498-0.86801-1.2022-0.32139s-0.47314 0.0652-0.82473 0.0652c-0.35185 0-0.82499-0.0652-0.82499-0.0652z" fill="#d4122b" stroke="#000" stroke-width=".26458"/>
  <path id="path991" d="m-39.674 215.23 1.1979 0.32139 1.5541 0.86801-0.80309 1.3935-0.80736-0.37777c-0.02619 0.25621-0.13892 0.80309-0.13892 0.80309-0.03046 1.5584 0.09538 3.2166 0.09538 3.2166-0.95483 0.12583-1.923 0.13893-1.923 0.13893s-0.9722-0.0131-1.9228-0.13893c0 0 0.12583-1.6583 0.09538-3.2166 0 0-0.11728-0.54688-0.1432-0.80309l-0.80309 0.37777-0.80309-1.3935 1.5498-0.86801 1.2022-0.32139s0.47314 0.0652 0.82473 0.0652c0.35185 0 0.825-0.0652 0.825-0.0652z" stroke="#000" stroke-miterlimit="16.248" stroke-width=".28194"/>
  <path id="path999" d="m-47.722 215.23 1.1979 0.32139 1.5541 0.86801-0.80309 1.3935-0.80736-0.37777c-0.02619 0.25621-0.13892 0.80309-0.13892 0.80309-0.03046 1.5584 0.09538 3.2166 0.09538 3.2166-0.95483 0.12583-1.923 0.13893-1.923 0.13893s-0.9722-0.0131-1.9228-0.13893c0 0 0.12584-1.6583 0.09538-3.2166 0 0-0.11728-0.54688-0.1432-0.80309l-0.80308 0.37777-0.80309-1.3935 1.5498-0.86801 1.2022-0.32139s0.47314 0.0652 0.82473 0.0652c0.35185 0 0.82499-0.0652 0.825-0.0652z" fill="#65ff74" stroke="#000" stroke-miterlimit="16.248" stroke-width=".28194"/>
 </g>
</svg>
