<?xml version="1.0" encoding="UTF-8" standalone="no"?>
<!-- Created with Inkscape (http://www.inkscape.org/) -->

<svg
   width="39.721924mm"
   height="11.146006mm"
   viewBox="0 0 39.721924 11.146006"
   version="1.1"
   id="svg3270"
   inkscape:version="1.1.2 (0a00cf5339, 2022-02-04)"
   sodipodi:docname="004.svg"
   xmlns:inkscape="http://www.inkscape.org/namespaces/inkscape"
   xmlns:sodipodi="http://sodipodi.sourceforge.net/DTD/sodipodi-0.dtd"
   xmlns="http://www.w3.org/2000/svg"
   xmlns:svg="http://www.w3.org/2000/svg">
  <sodipodi:namedview
     id="namedview3272"
     pagecolor="#ffffff"
     bordercolor="#666666"
     borderopacity="1.0"
     inkscape:pageshadow="2"
     inkscape:pageopacity="0.0"
     inkscape:pagecheckerboard="0"
     inkscape:document-units="mm"
     showgrid="false"
     inkscape:zoom="7.7999012"
     inkscape:cx="75.065054"
     inkscape:cy="21.090011"
     inkscape:window-width="1920"
     inkscape:window-height="1016"
     inkscape:window-x="0"
     inkscape:window-y="0"
     inkscape:window-maximized="1"
     inkscape:current-layer="layer1" />
  <defs
     id="defs3267" />
  <g
     inkscape:label="Layer 1"
     inkscape:groupmode="layer"
     id="layer1"
     transform="translate(76.450476,-215.08835)">
    <path
       fill="#000000"
       d="m -74.614913,221.45674 c 0,0 -0.599242,1.73201 -0.746715,4.16291 -0.0043,0.0564 -0.0085,0.1822 -0.01309,0.23857 0,0 0.0088,0.005 0.02191,0.005 0.177929,0.0259 1.584266,0.23858 2.400443,0.23858 h 0.04328 c 0,0 0.0043,-0.12583 0.01736,-0.22121 0.03046,-0.33876 0.108467,-1.14612 0.130375,-1.57144 0.01736,0.42532 0.09538,1.23268 0.125833,1.57144 0.01282,0.0954 0.01736,0.22121 0.01736,0.22121 0.01469,2.6e-4 0.02939,2.6e-4 0.04435,2.6e-4 0.87335,0 2.421282,-0.24338 2.421282,-0.24338 -0.0045,-0.0564 -0.0088,-0.18221 -0.0088,-0.23858 -0.152015,-2.43089 -0.750991,-4.1629 -0.750991,-4.1629 z"
       fill-rule="evenodd"
       id="path969"
       style="stroke:#000000;stroke-width:0.264583;stroke-opacity:1" />
    <path
       fill="#000000"
       d="m -66.566618,221.45674 c 0,0 -0.599242,1.73201 -0.746715,4.16291 -0.0043,0.0564 -0.0085,0.1822 -0.01309,0.23857 0,0 0.0088,0.005 0.02191,0.005 0.177929,0.0259 1.584267,0.23858 2.400443,0.23858 h 0.04328 c 0,0 0.0043,-0.12583 0.01736,-0.22121 0.03046,-0.33876 0.108468,-1.14612 0.130376,-1.57144 0.01736,0.42532 0.09537,1.23268 0.125831,1.57144 0.01283,0.0954 0.01736,0.22121 0.01736,0.22121 0.01469,2.6e-4 0.02939,2.6e-4 0.04435,2.6e-4 0.87335,0 2.421281,-0.24338 2.421281,-0.24338 -0.0046,-0.0564 -0.0088,-0.18221 -0.0088,-0.23858 -0.152013,-2.43089 -0.75099,-4.1629 -0.75099,-4.1629 z"
       fill-rule="evenodd"
       id="path977"
       style="fill:#68d8e2;fill-opacity:1;stroke:#000000;stroke-width:0.264583;stroke-opacity:1" />
    <path
       fill="#000000"
       d="m -58.518325,221.45674 c 0,0 -0.599242,1.73201 -0.746715,4.16291 -0.0043,0.0564 -0.0085,0.1822 -0.0131,0.23857 0,0 0.0088,0.005 0.02191,0.005 0.177933,0.0259 1.584267,0.23858 2.400446,0.23858 h 0.04328 c 0,0 0.0043,-0.12583 0.01736,-0.22121 0.03046,-0.33876 0.108469,-1.14612 0.130377,-1.57144 0.01736,0.42532 0.09537,1.23268 0.12583,1.57144 0.01283,0.0954 0.01736,0.22121 0.01736,0.22121 0.01468,2.6e-4 0.02939,2.6e-4 0.04435,2.6e-4 0.87335,0 2.421282,-0.24338 2.421282,-0.24338 -0.0046,-0.0564 -0.0088,-0.18221 -0.0088,-0.23858 -0.152014,-2.43089 -0.750991,-4.1629 -0.750991,-4.1629 z"
       fill-rule="evenodd"
       id="path985"
       style="fill:#d4122b;fill-opacity:1;stroke:#000000;stroke-width:0.264583;stroke-opacity:1" />
    <path
       fill="#000000"
       d="m -38.576031,221.45674 c 0,0 0.599241,1.73201 0.746715,4.16291 0.0043,0.0564 0.0085,0.1822 0.0131,0.23857 0,0 -0.0088,0.005 -0.02191,0.005 -0.17793,0.0259 -1.584264,0.23858 -2.400443,0.23858 h -0.04328 c 0,0 -0.0043,-0.12583 -0.01736,-0.22121 -0.03046,-0.33876 -0.108466,-1.14612 -0.130373,-1.57144 -0.01736,0.42532 -0.09538,1.23268 -0.125834,1.57144 -0.01283,0.0954 -0.01736,0.22121 -0.01736,0.22121 -0.01469,2.6e-4 -0.02939,2.6e-4 -0.04435,2.6e-4 -0.87335,0 -2.421281,-0.24338 -2.421281,-0.24338 0.0046,-0.0564 0.0088,-0.18221 0.0088,-0.23858 0.152014,-2.43089 0.750991,-4.1629 0.750991,-4.1629 z"
       fill-rule="evenodd"
       id="path993"
       style="stroke:none;stroke-width:0.264583;stroke-opacity:1" />
    <path
       fill="#000000"
       d="m -46.624326,221.45674 c 0,0 0.599242,1.73201 0.746715,4.16291 0.0043,0.0564 0.0085,0.1822 0.0131,0.23857 0,0 -0.0088,0.005 -0.02191,0.005 -0.17793,0.0259 -1.584267,0.23858 -2.400443,0.23858 h -0.04328 c 0,0 -0.0043,-0.12583 -0.01736,-0.22121 -0.03046,-0.33876 -0.108469,-1.14612 -0.130376,-1.57144 -0.01736,0.42532 -0.09537,1.23268 -0.125831,1.57144 -0.01283,0.0954 -0.01736,0.22121 -0.01736,0.22121 -0.01468,2.6e-4 -0.02939,2.6e-4 -0.04435,2.6e-4 -0.87335,0 -2.421281,-0.24338 -2.421281,-0.24338 0.0046,-0.0564 0.0088,-0.18221 0.0088,-0.23858 0.152014,-2.43089 0.750991,-4.1629 0.750991,-4.1629 z"
       fill-rule="evenodd"
       id="path1001"
       style="fill:#65ff74;fill-opacity:1;stroke:#000000;stroke-width:0.264583;stroke-opacity:1" />
    <path
       fill="#faff58"
       d="m -73.51688,215.23189 -1.197951,0.32139 -1.554076,0.86801 0.803086,1.39351 0.807361,-0.37777 c 0.02618,0.25621 0.138924,0.80309 0.138924,0.80309 0.03046,1.55836 -0.09538,3.21662 -0.09538,3.21662 0.954833,0.12583 1.923026,0.13893 1.923026,0.13893 0,0 0.972199,-0.0131 1.922759,-0.13893 0,0 -0.125834,-1.65826 -0.09538,-3.21662 0,0 0.117284,-0.54688 0.143198,-0.80309 l 0.803087,0.37777 0.803087,-1.39351 -1.549803,-0.86801 -1.202225,-0.32139 c 0,0 -0.473142,0.0652 -0.824726,0.0652 -0.351852,0 -0.824994,-0.0652 -0.824994,-0.0652 z"
       fill-rule="evenodd"
       id="path965"
       style="stroke:#000000;stroke-width:0.264583;stroke-opacity:1" />
    <path
       stroke="#000000"
       stroke-width="0.281945"
       stroke-miterlimit="16.2479"
       stroke-linecap="butt"
       d="m -65.468587,215.23189 -1.197948,0.32139 -1.554077,0.86801 0.803086,1.39351 0.80736,-0.37777 c 0.02619,0.25621 0.138925,0.80309 0.138925,0.80309 0.03046,1.55836 -0.09538,3.21662 -0.09538,3.21662 0.954834,0.12583 1.923026,0.13893 1.923026,0.13893 0,0 0.972201,-0.0131 1.922759,-0.13893 0,0 -0.125833,-1.65826 -0.09538,-3.21662 0,0 0.117284,-0.54688 0.1432,-0.80309 l 0.803085,0.37777 0.803086,-1.39351 -1.549801,-0.86801 -1.202225,-0.32139 c 0,0 -0.473143,0.0652 -0.824727,0.0652 -0.351851,0 -0.824995,-0.0652 -0.824995,-0.0652 z"
       fill-rule="evenodd"
       id="path975"
       style="fill:#68d8e2;fill-opacity:1;stroke:#000000;stroke-opacity:1" />
    <path
       fill="#faff58"
       d="m -57.420291,215.23189 -1.197951,0.32139 -1.554078,0.86801 0.803087,1.39351 0.80736,-0.37777 c 0.02619,0.25621 0.138925,0.80309 0.138925,0.80309 0.03046,1.55836 -0.09538,3.21662 -0.09538,3.21662 0.954833,0.12583 1.923028,0.13893 1.923028,0.13893 0,0 0.972201,-0.0131 1.922759,-0.13893 0,0 -0.125836,-1.65826 -0.09538,-3.21662 0,0 0.117285,-0.54688 0.143201,-0.80309 l 0.803084,0.37777 0.803087,-1.39351 -1.549802,-0.86801 -1.202224,-0.32139 c 0,0 -0.473144,0.0652 -0.824728,0.0652 -0.35185,0 -0.824992,-0.0652 -0.824994,-0.0652 z"
       fill-rule="evenodd"
       id="path981"
       style="fill:#d4122b;fill-opacity:1;stroke:#000000;stroke-width:0.264583;stroke-opacity:1" />
    <path
       stroke="#000000"
       stroke-width="0.281945"
       stroke-miterlimit="16.2479"
       stroke-linecap="butt"
       d="m -39.674063,215.23189 1.197949,0.32139 1.554078,0.86801 -0.803087,1.39351 -0.807361,-0.37777 c -0.02619,0.25621 -0.138924,0.80309 -0.138924,0.80309 -0.03046,1.55836 0.09538,3.21662 0.09538,3.21662 -0.954834,0.12583 -1.923026,0.13893 -1.923026,0.13893 0,0 -0.972199,-0.0131 -1.922759,-0.13893 0,0 0.125833,-1.65826 0.09538,-3.21662 0,0 -0.117285,-0.54688 -0.143201,-0.80309 l -0.803087,0.37777 -0.803087,-1.39351 1.549802,-0.86801 1.202225,-0.32139 c 0,0 0.473143,0.0652 0.824727,0.0652 0.351851,0 0.824995,-0.0652 0.824997,-0.0652 z"
       fill-rule="evenodd"
       id="path991"
       style="fill:#000000;fill-opacity:1" />
    <path
       stroke="#000000"
       stroke-width="0.281945"
       stroke-miterlimit="16.2479"
       stroke-linecap="butt"
       d="m -47.722357,215.23189 1.197949,0.32139 1.554077,0.86801 -0.803087,1.39351 -0.80736,-0.37777 c -0.02619,0.25621 -0.138925,0.80309 -0.138925,0.80309 -0.03046,1.55836 0.09538,3.21662 0.09538,3.21662 -0.954833,0.12583 -1.923026,0.13893 -1.923026,0.13893 0,0 -0.972203,-0.0131 -1.922761,-0.13893 0,0 0.125836,-1.65826 0.09538,-3.21662 0,0 -0.117282,-0.54688 -0.1432,-0.80309 l -0.803085,0.37777 -0.803087,-1.39351 1.549802,-0.86801 1.202224,-0.32139 c 0,0 0.473144,0.0652 0.824728,0.0652 0.351851,0 0.824994,-0.0652 0.824997,-0.0652 z"
       fill-rule="evenodd"
       id="path999"
       style="fill:#65ff74;fill-opacity:1" />
  </g>
</svg>
