<?xml version="1.0" encoding="UTF-8"?>
<!-- Created with Inkscape (http://www.inkscape.org/) -->
<svg id="svg3537" width="39.71mm" height="11.608mm" version="1.1" viewBox="0 0 39.71 11.608" xmlns="http://www.w3.org/2000/svg">
 <g id="layer1" transform="translate(-85.158 -142.51)">
  <path id="path1011" d="m86.994 148.87s-0.59924 1.732-0.74672 4.1629c-0.0043 0.0564-0.0085 0.1822-0.01309 0.23857 0 0 0.0088 5e-3 0.02191 5e-3 0.17793 0.0259 1.5843 0.23858 2.4004 0.23858h0.04328s0.0043-0.12583 0.01736-0.22121c0.03046-0.33876 0.10847-1.1461 0.13038-1.5714 0.01736 0.42532 0.09538 1.2327 0.12583 1.5714 0.01282 0.0954 0.01736 0.22121 0.01736 0.22121 0.01469 2.6e-4 0.02939 2.6e-4 0.04435 2.6e-4 0.87335 0 2.4213-0.24338 2.4213-0.24338-0.0045-0.0564-0.0088-0.18221-0.0088-0.23858-0.15202-2.4309-0.75099-4.1629-0.75099-4.1629z" fill-rule="evenodd" stroke="#000" stroke-width=".26458"/>
  <path id="path1035" d="m123.02 148.87s0.59924 1.732 0.74671 4.1629c4e-3 0.0564 9e-3 0.1822 0.0131 0.23857 0 0-9e-3 5e-3 -0.0219 5e-3 -0.17793 0.0259-1.5843 0.23858-2.4004 0.23858h-0.0433s-4e-3 -0.12583-0.0174-0.22121c-0.0305-0.33876-0.10847-1.1461-0.13037-1.5714-0.0174 0.42532-0.0954 1.2327-0.12584 1.5714-0.0128 0.0954-0.0173 0.22121-0.0173 0.22121-0.0147 2.6e-4 -0.0294 2.6e-4 -0.0443 2.6e-4 -0.87335 0-2.4213-0.24338-2.4213-0.24338 5e-3 -0.0564 9e-3 -0.18221 9e-3 -0.23858 0.15201-2.4309 0.75099-4.1629 0.75099-4.1629z" fill="#56ad59" fill-rule="evenodd" stroke="#000" stroke-width=".26458"/>
  <path id="path1039" d="m113.87 142.65 1.198 0.32139 1.5541 0.86801-0.80309 1.3935-0.80736-0.37777c-0.0262 0.25621-0.13893 0.80309-0.13893 0.80309-0.0305 1.5584 0.0954 3.2166 0.0954 3.2166-0.95483 0.12583-1.923 0.13893-1.923 0.13893s-0.97221-0.0131-1.9228-0.13893c0 0 0.12584-1.6583 0.0954-3.2166 0 0-0.11728-0.54688-0.1432-0.80309l-0.80308 0.37777-0.80309-1.3935 1.5498-0.86801 1.2022-0.32139s0.47314 0.0652 0.82472 0.0652c0.35185 0 0.825-0.0652 0.825-0.0652z" fill="#6c5bc1" fill-rule="evenodd" stroke="#000" stroke-width=".26458"/>
  <path id="path1043" d="m114.97 148.87s0.59924 1.732 0.74672 4.1629c4e-3 0.0564 9e-3 0.1822 0.0131 0.23857 0 0-9e-3 5e-3 -0.0219 5e-3 -0.17793 0.0259-1.5843 0.23858-2.4004 0.23858h-0.0433s-4e-3 -0.12583-0.0174-0.22121c-0.0305-0.33876-0.10847-1.1461-0.13038-1.5714-0.0174 0.42532-0.0954 1.2327-0.12583 1.5714-0.0128 0.0954-0.0174 0.22121-0.0174 0.22121-0.0147 2.6e-4 -0.0294 2.6e-4 -0.0444 2.6e-4 -0.87335 0-2.4213-0.24338-2.4213-0.24338 5e-3 -0.0564 9e-3 -0.18221 9e-3 -0.23858 0.15202-2.4309 0.75099-4.1629 0.75099-4.1629z" fill="#6c5bc1" fill-rule="evenodd" stroke="#000" stroke-width=".26458"/>
  <path id="path931-3" d="m105.84 143.11 1.198 0.32139 1.5541 0.86801-0.80309 1.3935-0.80736-0.37777c-0.0262 0.25621-0.13892 0.80309-0.13892 0.80309-0.0305 1.5584 0.0954 3.2166 0.0954 3.2166-0.95483 0.12583-1.923 0.13893-1.923 0.13893s-0.9722-0.0131-1.9228-0.13893c0 0 0.12583-1.6583 0.0954-3.2166 0 0-0.11729-0.54688-0.1432-0.80309l-0.80309 0.37777-0.80308-1.3935 1.5498-0.86801 1.2022-0.32139s0.47314 0.0652 0.82473 0.0652c0.35185 0 0.82499-0.0652 0.82499-0.0652z" fill-rule="evenodd" stroke="#000" stroke-width=".26458"/>
  <path id="path935-7" d="m106.93 149.34s0.59925 1.732 0.74672 4.1629c4e-3 0.0564 9e-3 0.18221 0.0131 0.23858 0 0-9e-3 5e-3 -0.0219 5e-3 -0.17793 0.0259-1.5843 0.23857-2.4004 0.23857h-0.0433s-4e-3 -0.12583-0.0174-0.2212c-0.0305-0.33876-0.10847-1.1461-0.13038-1.5714-0.0174 0.42533-0.0954 1.2327-0.12583 1.5714-0.0128 0.0954-0.0173 0.2212-0.0173 0.2212-0.0147 2.7e-4 -0.0294 2.7e-4 -0.0444 2.7e-4 -0.87335 0-2.4213-0.24339-2.4213-0.24339 5e-3 -0.0564 9e-3 -0.1822 9e-3 -0.23857 0.15201-2.4309 0.75099-4.1629 0.75099-4.1629z" fill="#fff" fill-rule="evenodd" stroke="#000" stroke-width=".26458"/>
  <path id="path6070" d="m105.86 142.97 1.2191 0.32724c0.01 4e-3 1.694 0.93504 1.7035 0.93939l-0.11415 0.21733" fill="#f00"/>
  <path id="path6982" d="m104.15 142.98-1.2191 0.32724c-0.01 4e-3 -1.694 0.93504-1.7035 0.93938l0.11415 0.21734" fill="#f00"/>
  <path id="path3868" d="m98.174 143.18v6.0969h-0.7316v-6.1729l0.3461-0.0558z" fill="#fe0211"/>
  <path id="path3870" d="m95.792 143.18v6.0969h0.73161v-6.1729l-0.3461-0.0558z" fill="#fe0211"/>
  <path id="path5221" d="m98.518 149.31v-5.9658l-0.01048 5e-3 0.83388 0.2695 1.1588 0.67083-0.78936 1.3582-0.74141-0.28784-0.14912 0.83639v3.0691z" fill="#ff0200"/>
  <path id="path5369" d="m95.444 149.27v-5.9658l0.01048 5e-3 -0.83388 0.2695-1.1588 0.67083 0.78936 1.3582 0.74141-0.28785 0.14912 0.8364v3.0691z" fill="#ff0200"/>
  <path id="path983-5" d="m97.788 143.11 1.1979 0.32139 1.5541 0.86801-0.80309 1.3935-0.80736-0.37777c-0.02619 0.25621-0.13892 0.80309-0.13892 0.80309-0.03046 1.5584 0.09538 3.2166 0.09538 3.2166-0.95483 0.12583-1.923 0.13893-1.923 0.13893s-0.9722-0.0131-1.9228-0.13893c0 0 0.12584-1.6583 0.09538-3.2166 0 0-0.11728-0.54688-0.1432-0.80309l-0.80308 0.37777-0.80309-1.3935 1.5498-0.86801 1.2022-0.32139s0.47314 0.0652 0.82473 0.0652c0.35185 0 0.825-0.0652 0.825-0.0652z" fill="none" fill-rule="evenodd" stroke="#000" stroke-miterlimit="16.248" stroke-width=".28194"/>
  <path id="path985-3" d="m98.886 149.34s0.59924 1.732 0.74672 4.1629c0.0043 0.0564 0.0085 0.18221 0.0131 0.23858 0 0-0.0088 5e-3 -0.02191 5e-3 -0.17793 0.0259-1.5843 0.23857-2.4004 0.23857h-0.04328s-0.0043-0.12583-0.01736-0.2212c-0.03046-0.33876-0.10847-1.1461-0.13038-1.5714-0.01736 0.42533-0.09537 1.2327-0.12583 1.5714-0.01283 0.0954-0.01736 0.2212-0.01736 0.2212-0.01469 2.7e-4 -0.02939 2.7e-4 -0.04435 2.7e-4 -0.87335 0-2.4213-0.24339-2.4213-0.24339 0.0046-0.0564 0.0088-0.1822 0.0088-0.23857 0.15201-2.4309 0.75099-4.1629 0.75099-4.1629z" fill-rule="evenodd"/>
  <path id="path1033" d="m121.92 142.65 1.198 0.32139 1.5541 0.86801-0.80309 1.3935-0.80736-0.37777c-0.0262 0.25621-0.13892 0.80309-0.13892 0.80309-0.0305 1.5584 0.0954 3.2166 0.0954 3.2166-0.95484 0.12583-1.923 0.13893-1.923 0.13893s-0.9722-0.0131-1.9228-0.13893c0 0 0.12583-1.6583 0.0954-3.2166 0 0-0.11729-0.54688-0.1432-0.80309l-0.80309 0.37777-0.80309-1.3935 1.5498-0.86801 1.2022-0.32139s0.47314 0.0652 0.82473 0.0652c0.35185 0 0.82499-0.0652 0.82499-0.0652z" fill="#56ad59" fill-rule="evenodd" stroke="#000" stroke-miterlimit="16.248" stroke-width=".28194"/>
  <path id="path1007" d="m88.092 142.65-1.198 0.32139-1.5541 0.86801 0.80309 1.3935 0.80736-0.37777c0.02618 0.25621 0.13892 0.80309 0.13892 0.80309 0.03046 1.5584-0.09538 3.2166-0.09538 3.2166 0.95483 0.12583 1.923 0.13893 1.923 0.13893s0.9722-0.0131 1.9228-0.13893c0 0-0.12583-1.6583-0.09538-3.2166 0 0 0.11728-0.54688 0.1432-0.80309l0.80309 0.37777 0.80309-1.3935-1.5498-0.86801-1.2022-0.32139s-0.47314 0.0652-0.82473 0.0652c-0.35185 0-0.82499-0.0652-0.82499-0.0652z" fill="#faff58" fill-rule="evenodd" stroke="#000" stroke-width=".26458"/>
 </g>
</svg>
