<?xml version="1.0" encoding="UTF-8" standalone="no"?>
<svg
   version="1.1"
   viewBox="0 0 150.13013 42.124947"
   fill="none"
   stroke="none"
   stroke-linecap="square"
   stroke-miterlimit="10"
   id="svg363"
   width="150.13013"
   height="42.124947"
   sodipodi:docname="out.svg"
   inkscape:version="1.1.2 (0a00cf5339, 2022-02-04)"
   xmlns:inkscape="http://www.inkscape.org/namespaces/inkscape"
   xmlns:sodipodi="http://sodipodi.sourceforge.net/DTD/sodipodi-0.dtd"
   xmlns="http://www.w3.org/2000/svg"
   xmlns:svg="http://www.w3.org/2000/svg">
  <sodipodi:namedview
     id="namedview2106"
     pagecolor="#ffffff"
     bordercolor="#666666"
     borderopacity="1.0"
     inkscape:pageshadow="2"
     inkscape:pageopacity="0.0"
     inkscape:pagecheckerboard="0"
     showgrid="false"
     inkscape:zoom="3.6203867"
     inkscape:cx="88.112134"
     inkscape:cy="95.431795"
     inkscape:window-width="1920"
     inkscape:window-height="1016"
     inkscape:window-x="0"
     inkscape:window-y="0"
     inkscape:window-maximized="1"
     inkscape:current-layer="svg363" />
  <defs
     id="defs367">
    <rect
       x="-303.37631"
       y="20.480339"
       width="207.87022"
       height="233.52013"
       id="rect390031" />
    <rect
       x="-303.37631"
       y="20.480339"
       width="207.87022"
       height="233.52013"
       id="rect398229" />
    <rect
       x="-303.37631"
       y="20.480339"
       width="207.87022"
       height="233.52013"
       id="rect398337" />
    <rect
       x="-303.37631"
       y="20.480339"
       width="207.87022"
       height="233.52013"
       id="rect398445" />
    <rect
       x="-303.37631"
       y="20.480339"
       width="207.87022"
       height="233.52013"
       id="rect398553" />
    <rect
       x="-303.37631"
       y="20.480339"
       width="207.87022"
       height="233.52013"
       id="rect398661" />
    <rect
       x="-303.37631"
       y="20.480339"
       width="207.87022"
       height="233.52013"
       id="rect398769" />
    <rect
       x="-303.37631"
       y="20.480339"
       width="207.87022"
       height="233.52013"
       id="rect398877" />
    <rect
       x="-303.37631"
       y="20.480339"
       width="207.87022"
       height="233.52013"
       id="rect398985" />
    <rect
       x="-303.37631"
       y="20.480339"
       width="207.87022"
       height="233.52013"
       id="rect400281" />
    <rect
       x="-303.37631"
       y="20.480339"
       width="207.87022"
       height="233.52013"
       id="rect401151" />
    <rect
       x="-303.37631"
       y="20.480339"
       width="207.87022"
       height="233.52013"
       id="rect401153" />
    <rect
       x="-303.37631"
       y="20.480339"
       width="207.87022"
       height="233.52013"
       id="rect401155" />
    <rect
       x="-303.37631"
       y="20.480339"
       width="207.87022"
       height="233.52013"
       id="rect401157" />
    <rect
       x="-303.37631"
       y="20.480339"
       width="207.87022"
       height="233.52013"
       id="rect401159" />
    <rect
       x="-303.37631"
       y="20.480339"
       width="207.87022"
       height="233.52013"
       id="rect401161" />
    <rect
       x="-303.37631"
       y="20.480339"
       width="207.87022"
       height="233.52013"
       id="rect401163" />
    <rect
       x="-303.37631"
       y="20.480339"
       width="207.87022"
       height="233.52013"
       id="rect401165" />
    <rect
       x="-303.37631"
       y="20.480339"
       width="207.87022"
       height="233.52013"
       id="rect401167" />
    <rect
       x="-303.37631"
       y="20.480339"
       width="207.87022"
       height="233.52013"
       id="rect401169" />
    <rect
       x="-303.37631"
       y="20.480339"
       width="207.87022"
       height="233.52013"
       id="rect418629" />
    <rect
       x="-303.37631"
       y="20.480339"
       width="207.87022"
       height="233.52013"
       id="rect418631" />
    <rect
       x="-303.37631"
       y="20.480339"
       width="207.87022"
       height="233.52013"
       id="rect418633" />
    <rect
       x="-303.37631"
       y="20.480339"
       width="207.87022"
       height="233.52013"
       id="rect418635" />
    <rect
       x="-303.37631"
       y="20.480339"
       width="207.87022"
       height="233.52013"
       id="rect418637" />
    <rect
       x="-303.37631"
       y="20.480339"
       width="207.87022"
       height="233.52013"
       id="rect418639" />
    <rect
       x="-303.37631"
       y="20.480339"
       width="207.87022"
       height="233.52013"
       id="rect418641" />
    <rect
       x="-303.37631"
       y="20.480339"
       width="207.87022"
       height="233.52013"
       id="rect418643" />
    <rect
       x="-303.37631"
       y="20.480339"
       width="207.87022"
       height="233.52013"
       id="rect418645" />
    <rect
       x="-303.37631"
       y="20.480339"
       width="207.87022"
       height="233.52013"
       id="rect418647" />
    <rect
       x="-303.37631"
       y="20.480339"
       width="207.87022"
       height="233.52013"
       id="rect418649" />
    <rect
       x="-303.37631"
       y="20.480339"
       width="207.87022"
       height="233.52013"
       id="rect418651" />
    <rect
       x="-303.37631"
       y="20.480339"
       width="207.87022"
       height="233.52013"
       id="rect418653" />
    <rect
       x="-303.37631"
       y="20.480339"
       width="207.87022"
       height="233.52013"
       id="rect418655" />
    <rect
       x="-303.37631"
       y="20.480339"
       width="207.87022"
       height="233.52013"
       id="rect418657" />
    <rect
       x="-303.37631"
       y="20.480339"
       width="207.87022"
       height="233.52013"
       id="rect418659" />
    <rect
       x="-303.37631"
       y="20.480339"
       width="207.87022"
       height="233.52013"
       id="rect418661" />
    <rect
       x="-303.37631"
       y="20.480339"
       width="207.87022"
       height="233.52013"
       id="rect418663" />
    <rect
       x="-303.37631"
       y="20.480339"
       width="207.87022"
       height="233.52013"
       id="rect418665" />
    <rect
       x="-303.37631"
       y="20.480339"
       width="207.87022"
       height="233.52013"
       id="rect418667" />
    <rect
       x="-303.37631"
       y="20.480339"
       width="207.87022"
       height="233.52013"
       id="rect390031-3" />
    <rect
       x="-303.37631"
       y="20.480339"
       width="207.87022"
       height="233.52013"
       id="rect398229-6" />
    <rect
       x="-303.37631"
       y="20.480339"
       width="207.87022"
       height="233.52013"
       id="rect398337-7" />
    <rect
       x="-303.37631"
       y="20.480339"
       width="207.87022"
       height="233.52013"
       id="rect398445-5" />
    <rect
       x="-303.37631"
       y="20.480339"
       width="207.87022"
       height="233.52013"
       id="rect398553-3" />
    <rect
       x="-303.37631"
       y="20.480339"
       width="207.87022"
       height="233.52013"
       id="rect398661-5" />
    <rect
       x="-303.37631"
       y="20.480339"
       width="207.87022"
       height="233.52013"
       id="rect398769-6" />
    <rect
       x="-303.37631"
       y="20.480339"
       width="207.87022"
       height="233.52013"
       id="rect398877-2" />
    <rect
       x="-303.37631"
       y="20.480339"
       width="207.87022"
       height="233.52013"
       id="rect398985-9" />
    <rect
       x="-303.37631"
       y="20.480339"
       width="207.87022"
       height="233.52013"
       id="rect400281-1" />
    <rect
       x="-303.37631"
       y="20.480339"
       width="207.87022"
       height="233.52013"
       id="rect401151-2" />
    <rect
       x="-303.37631"
       y="20.480339"
       width="207.87022"
       height="233.52013"
       id="rect401153-7" />
    <rect
       x="-303.37631"
       y="20.480339"
       width="207.87022"
       height="233.52013"
       id="rect401155-0" />
    <rect
       x="-303.37631"
       y="20.480339"
       width="207.87022"
       height="233.52013"
       id="rect401157-9" />
    <rect
       x="-303.37631"
       y="20.480339"
       width="207.87022"
       height="233.52013"
       id="rect401159-3" />
    <rect
       x="-303.37631"
       y="20.480339"
       width="207.87022"
       height="233.52013"
       id="rect401161-6" />
    <rect
       x="-303.37631"
       y="20.480339"
       width="207.87022"
       height="233.52013"
       id="rect401163-0" />
    <rect
       x="-303.37631"
       y="20.480339"
       width="207.87022"
       height="233.52013"
       id="rect401165-6" />
    <rect
       x="-303.37631"
       y="20.480339"
       width="207.87022"
       height="233.52013"
       id="rect401167-2" />
    <rect
       x="-303.37631"
       y="20.480339"
       width="207.87022"
       height="233.52013"
       id="rect401169-6" />
    <rect
       x="-303.37631"
       y="20.480339"
       width="207.87022"
       height="233.52013"
       id="rect418629-1" />
    <rect
       x="-303.37631"
       y="20.480339"
       width="207.87022"
       height="233.52013"
       id="rect418631-8" />
    <rect
       x="-303.37631"
       y="20.480339"
       width="207.87022"
       height="233.52013"
       id="rect418633-7" />
    <rect
       x="-303.37631"
       y="20.480339"
       width="207.87022"
       height="233.52013"
       id="rect418635-9" />
    <rect
       x="-303.37631"
       y="20.480339"
       width="207.87022"
       height="233.52013"
       id="rect418637-2" />
    <rect
       x="-303.37631"
       y="20.480339"
       width="207.87022"
       height="233.52013"
       id="rect418639-0" />
    <rect
       x="-303.37631"
       y="20.480339"
       width="207.87022"
       height="233.52013"
       id="rect418641-2" />
    <rect
       x="-303.37631"
       y="20.480339"
       width="207.87022"
       height="233.52013"
       id="rect418643-3" />
    <rect
       x="-303.37631"
       y="20.480339"
       width="207.87022"
       height="233.52013"
       id="rect418645-7" />
    <rect
       x="-303.37631"
       y="20.480339"
       width="207.87022"
       height="233.52013"
       id="rect418647-5" />
    <rect
       x="-303.37631"
       y="20.480339"
       width="207.87022"
       height="233.52013"
       id="rect418649-9" />
    <rect
       x="-303.37631"
       y="20.480339"
       width="207.87022"
       height="233.52013"
       id="rect418651-2" />
    <rect
       x="-303.37631"
       y="20.480339"
       width="207.87022"
       height="233.52013"
       id="rect418653-2" />
    <rect
       x="-303.37631"
       y="20.480339"
       width="207.87022"
       height="233.52013"
       id="rect418655-8" />
    <rect
       x="-303.37631"
       y="20.480339"
       width="207.87022"
       height="233.52013"
       id="rect418657-9" />
    <rect
       x="-303.37631"
       y="20.480339"
       width="207.87022"
       height="233.52013"
       id="rect418659-7" />
    <rect
       x="-303.37631"
       y="20.480339"
       width="207.87022"
       height="233.52013"
       id="rect418661-3" />
    <rect
       x="-303.37631"
       y="20.480339"
       width="207.87022"
       height="233.52013"
       id="rect418663-6" />
    <rect
       x="-303.37631"
       y="20.480339"
       width="207.87022"
       height="233.52013"
       id="rect418665-1" />
    <rect
       x="-303.37631"
       y="20.480339"
       width="207.87022"
       height="233.52013"
       id="rect418667-2" />
    <rect
       x="-303.37631"
       y="20.480339"
       width="207.87022"
       height="233.52013"
       id="rect390031-7" />
    <rect
       x="-303.37631"
       y="20.480339"
       width="207.87022"
       height="233.52013"
       id="rect398229-8" />
    <rect
       x="-303.37631"
       y="20.480339"
       width="207.87022"
       height="233.52013"
       id="rect398337-6" />
    <rect
       x="-303.37631"
       y="20.480339"
       width="207.87022"
       height="233.52013"
       id="rect398445-8" />
    <rect
       x="-303.37631"
       y="20.480339"
       width="207.87022"
       height="233.52013"
       id="rect398553-8" />
    <rect
       x="-303.37631"
       y="20.480339"
       width="207.87022"
       height="233.52013"
       id="rect398661-4" />
    <rect
       x="-303.37631"
       y="20.480339"
       width="207.87022"
       height="233.52013"
       id="rect398769-3" />
    <rect
       x="-303.37631"
       y="20.480339"
       width="207.87022"
       height="233.52013"
       id="rect398877-1" />
    <rect
       x="-303.37631"
       y="20.480339"
       width="207.87022"
       height="233.52013"
       id="rect398985-4" />
    <rect
       x="-303.37631"
       y="20.480339"
       width="207.87022"
       height="233.52013"
       id="rect400281-9" />
    <rect
       x="-303.37631"
       y="20.480339"
       width="207.87022"
       height="233.52013"
       id="rect401151-20" />
    <rect
       x="-303.37631"
       y="20.480339"
       width="207.87022"
       height="233.52013"
       id="rect401153-6" />
    <rect
       x="-303.37631"
       y="20.480339"
       width="207.87022"
       height="233.52013"
       id="rect401155-8" />
    <rect
       x="-303.37631"
       y="20.480339"
       width="207.87022"
       height="233.52013"
       id="rect401157-92" />
    <rect
       x="-303.37631"
       y="20.480339"
       width="207.87022"
       height="233.52013"
       id="rect401159-6" />
    <rect
       x="-303.37631"
       y="20.480339"
       width="207.87022"
       height="233.52013"
       id="rect401161-64" />
    <rect
       x="-303.37631"
       y="20.480339"
       width="207.87022"
       height="233.52013"
       id="rect401163-9" />
    <rect
       x="-303.37631"
       y="20.480339"
       width="207.87022"
       height="233.52013"
       id="rect401165-5" />
    <rect
       x="-303.37631"
       y="20.480339"
       width="207.87022"
       height="233.52013"
       id="rect401167-0" />
    <rect
       x="-303.37631"
       y="20.480339"
       width="207.87022"
       height="233.52013"
       id="rect401169-4" />
    <rect
       x="-303.37631"
       y="20.480339"
       width="207.87022"
       height="233.52013"
       id="rect418629-8" />
    <rect
       x="-303.37631"
       y="20.480339"
       width="207.87022"
       height="233.52013"
       id="rect418631-7" />
    <rect
       x="-303.37631"
       y="20.480339"
       width="207.87022"
       height="233.52013"
       id="rect418633-1" />
    <rect
       x="-303.37631"
       y="20.480339"
       width="207.87022"
       height="233.52013"
       id="rect418635-7" />
    <rect
       x="-303.37631"
       y="20.480339"
       width="207.87022"
       height="233.52013"
       id="rect418637-27" />
    <rect
       x="-303.37631"
       y="20.480339"
       width="207.87022"
       height="233.52013"
       id="rect418639-2" />
    <rect
       x="-303.37631"
       y="20.480339"
       width="207.87022"
       height="233.52013"
       id="rect418641-26" />
    <rect
       x="-303.37631"
       y="20.480339"
       width="207.87022"
       height="233.52013"
       id="rect418643-1" />
    <rect
       x="-303.37631"
       y="20.480339"
       width="207.87022"
       height="233.52013"
       id="rect418645-0" />
    <rect
       x="-303.37631"
       y="20.480339"
       width="207.87022"
       height="233.52013"
       id="rect418647-6" />
    <rect
       x="-303.37631"
       y="20.480339"
       width="207.87022"
       height="233.52013"
       id="rect418649-1" />
    <rect
       x="-303.37631"
       y="20.480339"
       width="207.87022"
       height="233.52013"
       id="rect418651-5" />
    <rect
       x="-303.37631"
       y="20.480339"
       width="207.87022"
       height="233.52013"
       id="rect418653-9" />
    <rect
       x="-303.37631"
       y="20.480339"
       width="207.87022"
       height="233.52013"
       id="rect418655-4" />
    <rect
       x="-303.37631"
       y="20.480339"
       width="207.87022"
       height="233.52013"
       id="rect418657-90" />
    <rect
       x="-303.37631"
       y="20.480339"
       width="207.87022"
       height="233.52013"
       id="rect418659-9" />
    <rect
       x="-303.37631"
       y="20.480339"
       width="207.87022"
       height="233.52013"
       id="rect418661-1" />
    <rect
       x="-303.37631"
       y="20.480339"
       width="207.87022"
       height="233.52013"
       id="rect418663-7" />
    <rect
       x="-303.37631"
       y="20.480339"
       width="207.87022"
       height="233.52013"
       id="rect418665-7" />
    <rect
       x="-303.37631"
       y="20.480339"
       width="207.87022"
       height="233.52013"
       id="rect418667-1" />
  </defs>
  <clipPath
     id="g1f1130f6aa8_0_6014.0">
    <path
       d="M 0,0 H 960 V 540 H 0 Z"
       clip-rule="nonzero"
       id="path2" />
  </clipPath>
  <path
     fill="#000000"
     d="m 6.9375654,24.069538 c 0,0 -2.264853,6.54617 -2.822231,15.73381 -0.01616,0.21306 -0.03231,0.68864 -0.04948,0.9017 0,0 0.03332,0.0172 0.0828,0.0172 0.672488,0.0979 5.9877756,0.9017 9.0725396,0.9017 h 0.16358 c 0,0 0.01616,-0.47558 0.06563,-0.83606 0.11511,-1.28036 0.409956,-4.3318 0.492756,-5.93931 0.06563,1.60751 0.360477,4.65895 0.475588,5.93931 0.04847,0.36048 0.06563,0.83606 0.06563,0.83606 0.05554,0.001 0.111073,0.001 0.167618,0.001 3.30085,0 9.1513,-0.91988 9.1513,-0.91988 -0.01717,-0.21306 -0.03332,-0.68864 -0.03332,-0.9017 -0.574543,-9.18764 -2.838389,-15.73381 -2.838389,-15.73381 z"
     fill-rule="evenodd"
     id="path1263" />
  <path
     fill="#000000"
     d="m 82.355042,24.069538 c 0,0 2.26485,6.54617 2.82223,15.73381 0.0162,0.21306 0.0323,0.68864 0.0495,0.9017 0,0 -0.0333,0.0172 -0.0828,0.0172 -0.67249,0.0979 -5.98778,0.9017 -9.07254,0.9017 h -0.16358 c 0,0 -0.0162,-0.47558 -0.0656,-0.83606 -0.11511,-1.28036 -0.40996,-4.3318 -0.49276,-5.93931 -0.0656,1.60751 -0.36047,4.65895 -0.47558,5.93931 -0.0485,0.36048 -0.0656,0.83606 -0.0656,0.83606 -0.0555,0.001 -0.11108,0.001 -0.16762,0.001 -3.30085,0 -9.1513,-0.91988 -9.1513,-0.91988 0.0172,-0.21306 0.0333,-0.68864 0.0333,-0.9017 0.57454,-9.18764 2.83839,-15.73381 2.83839,-15.73381 z"
     fill-rule="evenodd"
     id="path1271"
     style="fill:#4b44a1;fill-opacity:1;stroke:#000000;stroke-opacity:1" />
  <path
     fill="#000000"
     d="m 51.936295,24.069538 c 0,0 2.26485,6.54617 2.82223,15.73381 0.0162,0.21306 0.0323,0.68864 0.0495,0.9017 0,0 -0.0333,0.0172 -0.0828,0.0172 -0.6725,0.0979 -5.98778,0.9017 -9.07255,0.9017 h -0.16357 c 0,0 -0.0162,-0.47558 -0.0656,-0.83606 -0.11511,-1.28036 -0.40996,-4.3318 -0.49276,-5.93931 -0.0656,1.60751 -0.36047,4.65895 -0.47558,5.93931 -0.0485,0.36048 -0.0656,0.83606 -0.0656,0.83606 -0.0555,0.001 -0.11108,0.001 -0.16762,0.001 -3.30085,0 -9.1513,-0.91988 -9.1513,-0.91988 0.0172,-0.21306 0.0333,-0.68864 0.0333,-0.9017 0.57454,-9.18764 2.83839,-15.73381 2.83839,-15.73381 z"
     fill-rule="evenodd"
     id="path1279"
     style="fill:#ffffff;fill-opacity:1;stroke:#000000;stroke-opacity:1" />
  <path
     fill="#000000"
     d="m 143.19255,24.069538 c 0,0 2.26485,6.54617 2.82223,15.73381 0.0162,0.21306 0.0323,0.68864 0.0495,0.9017 0,0 -0.0333,0.0172 -0.0828,0.0172 -0.67249,0.0979 -5.98777,0.9017 -9.07254,0.9017 h -0.16358 c 0,0 -0.0162,-0.47558 -0.0656,-0.83606 -0.11511,-1.28036 -0.40995,-4.3318 -0.49275,-5.93931 -0.0656,1.60751 -0.36048,4.65895 -0.47559,5.93931 -0.0485,0.36048 -0.0656,0.83606 -0.0656,0.83606 -0.0555,0.001 -0.11107,0.001 -0.16762,0.001 -3.30085,0 -9.1513,-0.91988 -9.1513,-0.91988 0.0172,-0.21306 0.0333,-0.68864 0.0333,-0.9017 0.57454,-9.18764 2.83839,-15.73381 2.83839,-15.73381 z"
     fill-rule="evenodd"
     id="path1287"
     style="fill:#faff58;fill-opacity:1;stroke:#000000;stroke-opacity:1" />
  <path
     fill="#000000"
     d="m 112.7738,24.069538 c 0,0 2.26485,6.54617 2.82223,15.73381 0.0162,0.21306 0.0323,0.68864 0.0495,0.9017 0,0 -0.0333,0.0172 -0.0828,0.0172 -0.67249,0.0979 -5.98778,0.9017 -9.07254,0.9017 h -0.16358 c 0,0 -0.0162,-0.47558 -0.0656,-0.83606 -0.11511,-1.28036 -0.40996,-4.3318 -0.49276,-5.93931 -0.0656,1.60751 -0.36047,4.65895 -0.47558,5.93931 -0.0485,0.36048 -0.0656,0.83606 -0.0656,0.83606 -0.0555,0.001 -0.11108,0.001 -0.16762,0.001 -3.30085,0 -9.151298,-0.91988 -9.151298,-0.91988 0.0172,-0.21306 0.0333,-0.68864 0.0333,-0.9017 0.57454,-9.18764 2.83839,-15.73381 2.83839,-15.73381 z"
     fill-rule="evenodd"
     id="path1295"
     style="fill:#65ff74;fill-opacity:1;stroke:#000000;stroke-opacity:1" />
  <path
     fill="#faff58"
     d="m 78.205002,0.54252823 4.52768,1.21471997 5.87368,3.28066 -3.03529,5.2668098 -3.05144,-1.4277798 c -0.099,0.96835 -0.52507,3.0352998 -0.52507,3.0352998 -0.11511,5.88983 0.36048,12.1573 0.36048,12.1573 -3.60882,0.47558 -7.26813,0.52507 -7.26813,0.52507 0,0 -3.67446,-0.0495 -7.26712,-0.52507 0,0 0.47559,-6.26747 0.36048,-12.1573 0,0 -0.44328,-2.0669498 -0.54123,-3.0352998 l -3.03528,1.4277798 -3.03529,-5.2668098 5.85752,-3.28066 4.54384,-1.21471997 c 0,0 1.78826,0.24637 3.11708,0.24637 1.32983,0 3.11809,-0.24637 3.11809,-0.24637 z"
     fill-rule="evenodd"
     id="path1267"
     style="fill:#4b44a1;fill-opacity:1;stroke:#000000;stroke-opacity:1" />
  <path
     stroke="#000000"
     stroke-width="1.06562"
     stroke-miterlimit="16.2479"
     stroke-linecap="butt"
     d="m 47.786245,0.54252823 4.52769,1.21471997 5.873677,3.28066 -3.035287,5.2668098 -3.05144,-1.4277798 c -0.099,0.96835 -0.52507,3.0352998 -0.52507,3.0352998 -0.11511,5.88983 0.36048,12.1573 0.36048,12.1573 -3.60882,0.47558 -7.26814,0.52507 -7.26814,0.52507 0,0 -3.67446,-0.0495 -7.26712,-0.52507 0,0 0.4756,-6.26747 0.36048,-12.1573 0,0 -0.44328,-2.0669498 -0.54123,-3.0352998 l -3.03528,1.4277798 -3.03529,-5.2668098 5.85752,-3.28066 4.54384,-1.21471997 c 0,0 1.78826,0.24637 3.11708,0.24637 1.32983,0 3.11808,-0.24637 3.11809,-0.24637 z"
     fill-rule="evenodd"
     id="path1277"
     style="fill:#ff0000;fill-opacity:1" />
  <path
     fill="#faff58"
     d="M 11.087609,0.54252823 6.5599224,1.7572482 0.68624738,5.0379082 3.7215354,10.304718 6.7729784,8.8769382 c 0.09896,0.96835 0.525067,3.0352998 0.525067,3.0352998 0.11511,5.88983 -0.360479,12.1573 -0.360479,12.1573 3.6088206,0.47558 7.2681306,0.52507 7.2681306,0.52507 0,0 3.674454,-0.0495 7.26712,-0.52507 0,0 -0.47559,-6.26747 -0.360479,-12.1573 0,0 0.443277,-2.0669498 0.541223,-3.0352998 l 3.035286,1.4277798 3.03529,-5.2668098 -5.857521,-3.28066 -4.543842,-1.21471997 c 0,0 -1.788256,0.24637 -3.117077,0.24637 -1.329832,0 -3.118088,-0.24637 -3.118088,-0.24637 z"
     fill-rule="evenodd"
     id="path1259"
     style="fill:#000000;fill-opacity:1;stroke:#000000;stroke-opacity:1" />
  <path
     fill="#faff58"
     d="m 139.04251,0.54252823 4.52768,1.21471997 5.87368,3.28066 -3.03529,5.2668098 -3.05144,-1.4277798 c -0.099,0.96835 -0.52507,3.0352998 -0.52507,3.0352998 -0.11511,5.88983 0.36048,12.1573 0.36048,12.1573 -3.60882,0.47558 -7.26813,0.52507 -7.26813,0.52507 0,0 -3.67445,-0.0495 -7.26712,-0.52507 0,0 0.47559,-6.26747 0.36048,-12.1573 0,0 -0.44328,-2.0669498 -0.54123,-3.0352998 l -3.03529,1.4277798 -3.03529,-5.2668098 5.85752,-3.28066 4.54384,-1.21471997 c 0,0 1.78826,0.24637 3.11708,0.24637 1.32983,0 3.11809,-0.24637 3.1181,-0.24637 z"
     fill-rule="evenodd"
     id="path1283"
     style="stroke:#000000;stroke-opacity:1" />
  <path
     stroke="#000000"
     stroke-width="1.06562"
     stroke-miterlimit="16.2479"
     stroke-linecap="butt"
     d="m 108.62376,0.54252823 4.52768,1.21471997 5.87368,3.28066 -3.03529,5.2668098 -3.05144,-1.4277798 c -0.099,0.96835 -0.52507,3.0352998 -0.52507,3.0352998 -0.11511,5.88983 0.36048,12.1573 0.36048,12.1573 -3.60882,0.47558 -7.26813,0.52507 -7.26813,0.52507 0,0 -3.67447,-0.0495 -7.267128,-0.52507 0,0 0.4756,-6.26747 0.36048,-12.1573 0,0 -0.44327,-2.0669498 -0.54123,-3.0352998 l -3.03528,1.4277798 -3.03529,-5.2668098 5.85752,-3.28066 4.543838,-1.21471997 c 0,0 1.78826,0.24637 3.11708,0.24637 1.32983,0 3.11809,-0.24637 3.1181,-0.24637 z"
     fill-rule="evenodd"
     id="path1293"
     style="fill:#65ff74;fill-opacity:1;stroke:#000000;stroke-opacity:1" />
</svg>
