<?xml version="1.0" encoding="UTF-8" standalone="no"?>
<!-- Created with Inkscape (http://www.inkscape.org/) -->

<svg
   width="39.528435mm"
   height="11.146016mm"
   viewBox="0 0 39.528435 11.146016"
   version="1.1"
   id="svg3822"
   inkscape:version="1.1.2 (0a00cf5339, 2022-02-04)"
   sodipodi:docname="019.svg"
   xmlns:inkscape="http://www.inkscape.org/namespaces/inkscape"
   xmlns:sodipodi="http://sodipodi.sourceforge.net/DTD/sodipodi-0.dtd"
   xmlns="http://www.w3.org/2000/svg"
   xmlns:svg="http://www.w3.org/2000/svg">
  <sodipodi:namedview
     id="namedview3824"
     pagecolor="#ffffff"
     bordercolor="#666666"
     borderopacity="1.0"
     inkscape:pageshadow="2"
     inkscape:pageopacity="0.0"
     inkscape:pagecheckerboard="0"
     inkscape:document-units="mm"
     showgrid="false"
     inkscape:zoom="0.69664703"
     inkscape:cx="807.43903"
     inkscape:cy="-29.426667"
     inkscape:window-width="1920"
     inkscape:window-height="1016"
     inkscape:window-x="0"
     inkscape:window-y="0"
     inkscape:window-maximized="1"
     inkscape:current-layer="layer1" />
  <defs
     id="defs3819" />
  <g
     inkscape:label="Layer 1"
     inkscape:groupmode="layer"
     id="layer1"
     transform="translate(108.63634,-156.22006)">
    <path
       fill="#000000"
       d="m -106.98235,162.58846 c 0,0 -0.59924,1.73201 -0.74672,4.1629 -0.004,0.0564 -0.009,0.1822 -0.0131,0.23858 0,0 0.009,0.005 0.0219,0.005 0.17793,0.0259 1.58427,0.23857 2.40044,0.23857 h 0.0433 c 0,0 0.004,-0.12583 0.0174,-0.2212 0.0305,-0.33877 0.10847,-1.14613 0.13037,-1.57145 0.0174,0.42532 0.0954,1.23268 0.12584,1.57145 0.0128,0.0954 0.0174,0.2212 0.0174,0.2212 0.0147,2.7e-4 0.0294,2.7e-4 0.0444,2.7e-4 0.87335,0 2.42128,-0.24339 2.42128,-0.24339 -0.005,-0.0564 -0.009,-0.1822 -0.009,-0.23857 -0.15202,-2.4309 -0.75099,-4.16291 -0.75099,-4.16291 z"
       fill-rule="evenodd"
       id="path1599"
       style="stroke-width:0.264583" />
    <path
       fill="#000000"
       d="m -98.934055,162.58846 c 0,0 -0.599242,1.73201 -0.746715,4.1629 -0.0043,0.0564 -0.0085,0.1822 -0.01309,0.23858 0,0 0.0088,0.005 0.02191,0.005 0.177929,0.0259 1.584267,0.23857 2.400443,0.23857 h 0.04328 c 0,0 0.0043,-0.12583 0.01736,-0.2212 0.03046,-0.33877 0.108468,-1.14613 0.130376,-1.57145 0.01736,0.42532 0.09537,1.23268 0.125831,1.57145 0.01283,0.0954 0.01736,0.2212 0.01736,0.2212 0.01469,2.7e-4 0.02939,2.7e-4 0.04435,2.7e-4 0.87335,0 2.421281,-0.24339 2.421281,-0.24339 -0.0046,-0.0564 -0.0088,-0.1822 -0.0088,-0.23857 -0.152013,-2.4309 -0.75099,-4.16291 -0.75099,-4.16291 z"
       fill-rule="evenodd"
       id="path1607"
       style="fill:#cf122a;fill-opacity:1;stroke:#000000;stroke-width:0.264583;stroke-opacity:1" />
    <path
       fill="#000000"
       d="m -90.885762,162.58846 c 0,0 -0.599242,1.73201 -0.746715,4.1629 -0.0043,0.0564 -0.0085,0.1822 -0.0131,0.23858 0,0 0.0088,0.005 0.02191,0.005 0.177933,0.0259 1.584267,0.23857 2.400446,0.23857 h 0.04328 c 0,0 0.0043,-0.12583 0.01736,-0.2212 0.03046,-0.33877 0.108469,-1.14613 0.130377,-1.57145 0.01736,0.42532 0.09537,1.23268 0.12583,1.57145 0.01283,0.0954 0.01736,0.2212 0.01736,0.2212 0.01468,2.7e-4 0.02939,2.7e-4 0.04435,2.7e-4 0.87335,0 2.421282,-0.24339 2.421282,-0.24339 -0.0046,-0.0564 -0.0088,-0.1822 -0.0088,-0.23857 -0.152014,-2.4309 -0.750991,-4.16291 -0.750991,-4.16291 z"
       fill-rule="evenodd"
       id="path1615"
       style="fill:#19b1ed;fill-opacity:1;stroke:#000000;stroke-width:0.264583;stroke-opacity:1" />
    <path
       fill="#000000"
       d="m -82.837465,162.58846 c 0,0 -0.599242,1.73201 -0.746715,4.1629 -0.0043,0.0564 -0.0085,0.1822 -0.0131,0.23858 0,0 0.0088,0.005 0.02191,0.005 0.17793,0.0259 1.584264,0.23857 2.400443,0.23857 h 0.04328 c 0,0 0.0043,-0.12583 0.01736,-0.2212 0.03046,-0.33877 0.108466,-1.14613 0.130374,-1.57145 0.01736,0.42532 0.09538,1.23268 0.125833,1.57145 0.01283,0.0954 0.01736,0.2212 0.01736,0.2212 0.01468,2.7e-4 0.02939,2.7e-4 0.04435,2.7e-4 0.87335,0 2.421281,-0.24339 2.421281,-0.24339 -0.0045,-0.0564 -0.0088,-0.1822 -0.0088,-0.23857 -0.152014,-2.4309 -0.750991,-4.16291 -0.750991,-4.16291 z"
       fill-rule="evenodd"
       id="path1623"
       style="fill:#ffffff;fill-opacity:1;stroke:#000000;stroke-width:0.264583;stroke-opacity:1" />
    <path
       fill="#000000"
       d="m -74.789171,162.58846 c 0,0 -0.599242,1.73201 -0.746715,4.1629 -0.0043,0.0564 -0.0085,0.1822 -0.0131,0.23858 0,0 0.0088,0.005 0.02191,0.005 0.17793,0.0259 1.584267,0.23857 2.400443,0.23857 h 0.04328 c 0,0 0.0043,-0.12583 0.01736,-0.2212 0.03046,-0.33877 0.108469,-1.14613 0.130377,-1.57145 0.01736,0.42532 0.09537,1.23268 0.12583,1.57145 0.01283,0.0954 0.01736,0.2212 0.01736,0.2212 0.01468,2.7e-4 0.02939,2.7e-4 0.04435,2.7e-4 0.87335,0 2.421282,-0.24339 2.421282,-0.24339 -0.0046,-0.0564 -0.0088,-0.1822 -0.0088,-0.23857 -0.152014,-2.4309 -0.750991,-4.16291 -0.750991,-4.16291 z"
       fill-rule="evenodd"
       id="path1631"
       style="fill:#feff59;fill-opacity:1;stroke:#000000;stroke-width:0.264583;stroke-opacity:1" />
    <path
       fill="#faff58"
       d="m -105.88432,156.3636 -1.19795,0.3214 -1.55407,0.86801 0.80308,1.39351 0.80736,-0.37777 c 0.0262,0.25621 0.13893,0.80309 0.13893,0.80309 0.0305,1.55835 -0.0954,3.21662 -0.0954,3.21662 0.95483,0.12583 1.92303,0.13892 1.92303,0.13892 0,0 0.9722,-0.0131 1.92276,-0.13892 0,0 -0.12584,-1.65827 -0.0954,-3.21662 0,0 0.11728,-0.54688 0.1432,-0.80309 l 0.80308,0.37777 0.80309,-1.39351 -1.5498,-0.86801 -1.20223,-0.3214 c 0,0 -0.47314,0.0652 -0.82472,0.0652 -0.35185,0 -0.825,-0.0652 -0.825,-0.0652 z"
       fill-rule="evenodd"
       id="path1595"
       style="fill:#000000;fill-opacity:1;stroke-width:0.264583" />
    <path
       stroke="#000000"
       stroke-width="0.281945"
       stroke-miterlimit="16.2479"
       stroke-linecap="butt"
       d="m -81.739434,156.3636 -1.197949,0.3214 -1.554077,0.86801 0.803087,1.39351 0.80736,-0.37777 c 0.02619,0.25621 0.138925,0.80309 0.138925,0.80309 0.03046,1.55835 -0.09538,3.21662 -0.09538,3.21662 0.954833,0.12583 1.923026,0.13892 1.923026,0.13892 0,0 0.972198,-0.0131 1.922758,-0.13892 0,0 -0.125833,-1.65827 -0.09538,-3.21662 0,0 0.117285,-0.54688 0.143201,-0.80309 l 0.803087,0.37777 0.803087,-1.39351 -1.549802,-0.86801 -1.202224,-0.3214 c 0,0 -0.473144,0.0652 -0.824728,0.0652 -0.351851,0 -0.824994,-0.0652 -0.824997,-0.0652 z"
       fill-rule="evenodd"
       id="path1621"
       style="fill:#ffffff;fill-opacity:1;stroke:#000000;stroke-opacity:1" />
    <path
       fill="#faff58"
       d="m -73.69114,156.3636 -1.197948,0.3214 -1.554078,0.86801 0.803087,1.39351 0.80736,-0.37777 c 0.02619,0.25621 0.138925,0.80309 0.138925,0.80309 0.03046,1.55835 -0.09538,3.21662 -0.09538,3.21662 0.954833,0.12583 1.923026,0.13892 1.923026,0.13892 0,0 0.972203,-0.0131 1.922761,-0.13892 0,0 -0.125836,-1.65827 -0.09538,-3.21662 0,0 0.117282,-0.54688 0.143201,-0.80309 l 0.803084,0.37777 0.803087,-1.39351 -1.549802,-0.86801 -1.202224,-0.3214 c 0,0 -0.473144,0.0652 -0.824728,0.0652 -0.35185,0 -0.824994,-0.0652 -0.824997,-0.0652 z"
       fill-rule="evenodd"
       id="path1627"
       style="fill:#feff59;fill-opacity:1;stroke:#000000;stroke-width:0.264583;stroke-opacity:1" />
    <path
       stroke="#000000"
       stroke-width="0.281945"
       stroke-miterlimit="16.2479"
       stroke-linecap="butt"
       d="m -89.787728,156.3636 -1.197951,0.3214 -1.554078,0.86801 0.803087,1.39351 0.80736,-0.37777 c 0.02619,0.25621 0.138925,0.80309 0.138925,0.80309 0.03046,1.55835 -0.09538,3.21662 -0.09538,3.21662 0.954833,0.12583 1.923028,0.13892 1.923028,0.13892 0,0 0.972201,-0.0131 1.922759,-0.13892 0,0 -0.125836,-1.65827 -0.09538,-3.21662 0,0 0.117285,-0.54688 0.143201,-0.80309 l 0.803084,0.37777 0.803087,-1.39351 -1.549802,-0.86801 -1.202224,-0.3214 c 0,0 -0.473144,0.0652 -0.824728,0.0652 -0.35185,0 -0.824992,-0.0652 -0.824994,-0.0652 z"
       fill-rule="evenodd"
       id="path1613"
       style="fill:#19b1ed;fill-opacity:1;stroke:#000000;stroke-opacity:1" />
    <path
       stroke="#000000"
       stroke-width="0.281945"
       stroke-miterlimit="16.2479"
       stroke-linecap="butt"
       d="m -97.836024,156.36361 -1.197948,0.3214 -1.554078,0.86801 0.803087,1.39351 0.80736,-0.37777 c 0.02619,0.25621 0.138925,0.80309 0.138925,0.80309 0.03046,1.55835 -0.09538,3.21662 -0.09538,3.21662 0.954834,0.12583 1.923026,0.13892 1.923026,0.13892 0,0 0.972201,-0.0131 1.922759,-0.13892 0,0 -0.125833,-1.65827 -0.09538,-3.21662 0,0 0.117284,-0.54688 0.1432,-0.80309 l 0.803085,0.37777 0.803086,-1.39351 -1.549801,-0.86801 -1.202225,-0.3214 c 0,0 -0.473143,0.0652 -0.824727,0.0652 -0.351851,0 -0.824995,-0.0652 -0.824995,-0.0652 z"
       fill-rule="evenodd"
       id="path1605"
       style="fill:#cf122a;fill-opacity:1;stroke:#000000;stroke-opacity:1" />
  </g>
</svg>
