<?xml version="1.0" encoding="UTF-8"?>
<!-- Created with Inkscape (http://www.inkscape.org/) -->
<svg id="svg3822" width="39.528mm" height="11.146mm" version="1.1" viewBox="0 0 39.528 11.146" xmlns="http://www.w3.org/2000/svg">
 <g id="layer1" transform="translate(108.64 -156.22)" fill-rule="evenodd">
  <path id="path1599" d="m-106.98 162.59s-0.59924 1.732-0.74672 4.1629c-4e-3 0.0564-9e-3 0.1822-0.0131 0.23858 0 0 9e-3 5e-3 0.0219 5e-3 0.17793 0.0259 1.5843 0.23857 2.4004 0.23857h0.0433s4e-3 -0.12583 0.0174-0.2212c0.0305-0.33877 0.10847-1.1461 0.13037-1.5714 0.0174 0.42532 0.0954 1.2327 0.12584 1.5714 0.0128 0.0954 0.0174 0.2212 0.0174 0.2212 0.0147 2.7e-4 0.0294 2.7e-4 0.0444 2.7e-4 0.87335 0 2.4213-0.24339 2.4213-0.24339-5e-3 -0.0564-9e-3 -0.1822-9e-3 -0.23857-0.15202-2.4309-0.75099-4.1629-0.75099-4.1629z" stroke-width=".26458"/>
  <path id="path1607" d="m-98.934 162.59s-0.59924 1.732-0.74672 4.1629c-0.0043 0.0564-0.0085 0.1822-0.01309 0.23858 0 0 0.0088 5e-3 0.02191 5e-3 0.17793 0.0259 1.5843 0.23857 2.4004 0.23857h0.04328s0.0043-0.12583 0.01736-0.2212c0.03046-0.33877 0.10847-1.1461 0.13038-1.5714 0.01736 0.42532 0.09537 1.2327 0.12583 1.5714 0.01283 0.0954 0.01736 0.2212 0.01736 0.2212 0.01469 2.7e-4 0.02939 2.7e-4 0.04435 2.7e-4 0.87335 0 2.4213-0.24339 2.4213-0.24339-0.0046-0.0564-0.0088-0.1822-0.0088-0.23857-0.15201-2.4309-0.75099-4.1629-0.75099-4.1629z" fill="#cf122a" stroke="#000" stroke-width=".26458"/>
  <path id="path1615" d="m-90.886 162.59s-0.59924 1.732-0.74672 4.1629c-0.0043 0.0564-0.0085 0.1822-0.0131 0.23858 0 0 0.0088 5e-3 0.02191 5e-3 0.17793 0.0259 1.5843 0.23857 2.4004 0.23857h0.04328s0.0043-0.12583 0.01736-0.2212c0.03046-0.33877 0.10847-1.1461 0.13038-1.5714 0.01736 0.42532 0.09537 1.2327 0.12583 1.5714 0.01283 0.0954 0.01736 0.2212 0.01736 0.2212 0.01468 2.7e-4 0.02939 2.7e-4 0.04435 2.7e-4 0.87335 0 2.4213-0.24339 2.4213-0.24339-0.0046-0.0564-0.0088-0.1822-0.0088-0.23857-0.15201-2.4309-0.75099-4.1629-0.75099-4.1629z" fill="#19b1ed" stroke="#000" stroke-width=".26458"/>
  <path id="path1623" d="m-82.837 162.59s-0.59924 1.732-0.74672 4.1629c-0.0043 0.0564-0.0085 0.1822-0.0131 0.23858 0 0 0.0088 5e-3 0.02191 5e-3 0.17793 0.0259 1.5843 0.23857 2.4004 0.23857h0.04328s0.0043-0.12583 0.01736-0.2212c0.03046-0.33877 0.10847-1.1461 0.13037-1.5714 0.01736 0.42532 0.09538 1.2327 0.12583 1.5714 0.01283 0.0954 0.01736 0.2212 0.01736 0.2212 0.01468 2.7e-4 0.02939 2.7e-4 0.04435 2.7e-4 0.87335 0 2.4213-0.24339 2.4213-0.24339-0.0045-0.0564-0.0088-0.1822-0.0088-0.23857-0.15201-2.4309-0.75099-4.1629-0.75099-4.1629z" fill="#fff" stroke="#000" stroke-width=".26458"/>
  <path id="path1631" d="m-74.789 162.59s-0.59924 1.732-0.74672 4.1629c-0.0043 0.0564-0.0085 0.1822-0.0131 0.23858 0 0 0.0088 5e-3 0.02191 5e-3 0.17793 0.0259 1.5843 0.23857 2.4004 0.23857h0.04328s0.0043-0.12583 0.01736-0.2212c0.03046-0.33877 0.10847-1.1461 0.13038-1.5714 0.01736 0.42532 0.09537 1.2327 0.12583 1.5714 0.01283 0.0954 0.01736 0.2212 0.01736 0.2212 0.01468 2.7e-4 0.02939 2.7e-4 0.04435 2.7e-4 0.87335 0 2.4213-0.24339 2.4213-0.24339-0.0046-0.0564-0.0088-0.1822-0.0088-0.23857-0.15201-2.4309-0.75099-4.1629-0.75099-4.1629z" fill="#feff59" stroke="#000" stroke-width=".26458"/>
  <path id="path1595" d="m-105.88 156.36-1.198 0.3214-1.5541 0.86801 0.80308 1.3935 0.80736-0.37777c0.0262 0.25621 0.13893 0.80309 0.13893 0.80309 0.0305 1.5584-0.0954 3.2166-0.0954 3.2166 0.95483 0.12583 1.923 0.13892 1.923 0.13892s0.9722-0.0131 1.9228-0.13892c0 0-0.12584-1.6583-0.0954-3.2166 0 0 0.11728-0.54688 0.1432-0.80309l0.80308 0.37777 0.80309-1.3935-1.5498-0.86801-1.2022-0.3214s-0.47314 0.0652-0.82472 0.0652c-0.35185 0-0.825-0.0652-0.825-0.0652z" stroke-width=".26458"/>
  <path id="path1621" d="m-81.739 156.36-1.1979 0.3214-1.5541 0.86801 0.80309 1.3935 0.80736-0.37777c0.02619 0.25621 0.13892 0.80309 0.13892 0.80309 0.03046 1.5584-0.09538 3.2166-0.09538 3.2166 0.95483 0.12583 1.923 0.13892 1.923 0.13892s0.9722-0.0131 1.9228-0.13892c0 0-0.12583-1.6583-0.09538-3.2166 0 0 0.11728-0.54688 0.1432-0.80309l0.80309 0.37777 0.80309-1.3935-1.5498-0.86801-1.2022-0.3214s-0.47314 0.0652-0.82473 0.0652c-0.35185 0-0.82499-0.0652-0.825-0.0652z" fill="#fff" stroke="#000" stroke-miterlimit="16.248" stroke-width=".28194"/>
  <path id="path1627" d="m-73.691 156.36-1.1979 0.3214-1.5541 0.86801 0.80309 1.3935 0.80736-0.37777c0.02619 0.25621 0.13892 0.80309 0.13892 0.80309 0.03046 1.5584-0.09538 3.2166-0.09538 3.2166 0.95483 0.12583 1.923 0.13892 1.923 0.13892s0.9722-0.0131 1.9228-0.13892c0 0-0.12584-1.6583-0.09538-3.2166 0 0 0.11728-0.54688 0.1432-0.80309l0.80308 0.37777 0.80309-1.3935-1.5498-0.86801-1.2022-0.3214s-0.47314 0.0652-0.82473 0.0652c-0.35185 0-0.82499-0.0652-0.825-0.0652z" fill="#feff59" stroke="#000" stroke-width=".26458"/>
  <path id="path1613" d="m-89.788 156.36-1.198 0.3214-1.5541 0.86801 0.80309 1.3935 0.80736-0.37777c0.02619 0.25621 0.13892 0.80309 0.13892 0.80309 0.03046 1.5584-0.09538 3.2166-0.09538 3.2166 0.95483 0.12583 1.923 0.13892 1.923 0.13892s0.9722-0.0131 1.9228-0.13892c0 0-0.12584-1.6583-0.09538-3.2166 0 0 0.11728-0.54688 0.1432-0.80309l0.80308 0.37777 0.80309-1.3935-1.5498-0.86801-1.2022-0.3214s-0.47314 0.0652-0.82473 0.0652c-0.35185 0-0.82499-0.0652-0.82499-0.0652z" fill="#19b1ed" stroke="#000" stroke-miterlimit="16.248" stroke-width=".28194"/>
  <path id="path1605" d="m-97.836 156.36-1.1979 0.3214-1.5541 0.86801 0.80309 1.3935 0.80736-0.37777c0.02619 0.25621 0.13892 0.80309 0.13892 0.80309 0.03046 1.5584-0.09538 3.2166-0.09538 3.2166 0.95483 0.12583 1.923 0.13892 1.923 0.13892s0.9722-0.0131 1.9228-0.13892c0 0-0.12583-1.6583-0.09538-3.2166 0 0 0.11728-0.54688 0.1432-0.80309l0.80308 0.37777 0.80309-1.3935-1.5498-0.86801-1.2022-0.3214s-0.47314 0.0652-0.82473 0.0652c-0.35185 0-0.825-0.0652-0.825-0.0652z" fill="#cf122a" stroke="#000" stroke-miterlimit="16.248" stroke-width=".28194"/>
 </g>
</svg>
