<?xml version="1.0" encoding="UTF-8"?>
<!-- Created with Inkscape (http://www.inkscape.org/) -->
<svg id="svg4081" width="39.734mm" height="11.146mm" version="1.1" viewBox="0 0 39.734 11.146" xmlns="http://www.w3.org/2000/svg">
 <g id="layer1" transform="translate(-85.146 -142.74)" fill-rule="evenodd">
  <path id="path1639" d="m88.092 142.88-1.198 0.32139-1.5541 0.86801 0.80309 1.3935 0.80736-0.37777c0.02618 0.25621 0.13892 0.80309 0.13892 0.80309 0.03046 1.5584-0.09538 3.2166-0.09538 3.2166 0.95483 0.12583 1.923 0.13893 1.923 0.13893s0.9722-0.0131 1.9228-0.13893c0 0-0.12583-1.6583-0.09538-3.2166 0 0 0.11728-0.54688 0.1432-0.80309l0.80309 0.37777 0.80309-1.3935-1.5498-0.86801-1.2022-0.32139s-0.47314 0.0652-0.82473 0.0652c-0.35185 0-0.82499-0.0652-0.82499-0.0652z" stroke="#000" stroke-miterlimit="16.248" stroke-width=".28194"/>
  <path id="path1663" d="m112.24 142.88-1.198 0.32139-1.5541 0.86801 0.80308 1.3935 0.80736-0.37777c0.0262 0.25621 0.13893 0.80309 0.13893 0.80309 0.0305 1.5584-0.0954 3.2166-0.0954 3.2166 0.95484 0.12583 1.923 0.13893 1.923 0.13893s0.9722-0.0131 1.9228-0.13893c0 0-0.12584-1.6583-0.0954-3.2166 0 0 0.11728-0.54688 0.1432-0.80309l0.80309 0.37777 0.80308-1.3935-1.5498-0.86801-1.2022-0.32139s-0.47315 0.0652-0.82473 0.0652c-0.35185 0-0.82499-0.0652-0.825-0.0652z" fill="#53a345" stroke="#000" stroke-miterlimit="16.248" stroke-width=".28194"/>
  <path id="path1671" d="m120.29 142.88-1.198 0.32139-1.5541 0.86801 0.80309 1.3935 0.80736-0.37777c0.0262 0.25621 0.13892 0.80309 0.13892 0.80309 0.0305 1.5584-0.0954 3.2166-0.0954 3.2166 0.95483 0.12583 1.923 0.13893 1.923 0.13893s0.97221-0.0131 1.9228-0.13893c0 0-0.12583-1.6583-0.0954-3.2166 0 0 0.11728-0.54688 0.1432-0.80309l0.80308 0.37777 0.80309-1.3935-1.5498-0.86801-1.2022-0.32139s-0.47314 0.0652-0.82473 0.0652c-0.35185 0-0.82499-0.0652-0.82499-0.0652z" fill="#ad1e32" stroke="#000" stroke-miterlimit="16.248" stroke-width=".28194"/>
  <path id="path1653" d="m104.19 142.88-1.198 0.32139-1.5541 0.86801 0.80309 1.3935 0.80736-0.37777c0.0262 0.25621 0.13892 0.80309 0.13892 0.80309 0.0305 1.5584-0.0954 3.2166-0.0954 3.2166 0.95484 0.12583 1.923 0.13893 1.923 0.13893s0.9722-0.0131 1.9228-0.13893c0 0-0.12583-1.6583-0.0954-3.2166 0 0 0.11728-0.54688 0.1432-0.80309l0.80308 0.37777 0.80309-1.3935-1.5498-0.86801-1.2022-0.32139s-0.47314 0.0652-0.82473 0.0652c-0.35185 0-0.82499-0.0652-0.82499-0.0652z" fill="#f1ff6e" stroke="#000" stroke-width=".26458"/>
  <path id="path1647" d="m96.14 142.88-1.1979 0.32139-1.5541 0.86801 0.80309 1.3935 0.80736-0.37777c0.02619 0.25621 0.13892 0.80309 0.13892 0.80309 0.03046 1.5584-0.09538 3.2166-0.09538 3.2166 0.95483 0.12583 1.923 0.13893 1.923 0.13893s0.9722-0.0131 1.9228-0.13893c0 0-0.12583-1.6583-0.09538-3.2166 0 0 0.11728-0.54688 0.1432-0.80309l0.80308 0.37777 0.80308-1.3935-1.5498-0.86801-1.2022-0.32139s-0.47314 0.0652-0.82473 0.0652c-0.35185 0-0.825-0.0652-0.825-0.0652z" fill="#8ec3ee" stroke="#000" stroke-miterlimit="16.248" stroke-width=".28194"/>
  <path id="path1641" d="m86.994 149.11s-0.59924 1.732-0.74672 4.1629c-0.0043 0.0564-0.0085 0.1822-0.01309 0.23857 0 0 0.0088 5e-3 0.02191 5e-3 0.17793 0.0259 1.5843 0.23858 2.4004 0.23858h0.04328s0.0043-0.12583 0.01736-0.22121c0.03046-0.33876 0.10847-1.1461 0.13038-1.5714 0.01736 0.42532 0.09538 1.2327 0.12583 1.5714 0.01282 0.0954 0.01736 0.22121 0.01736 0.22121 0.0147 2.6e-4 0.02939 2.6e-4 0.04435 2.6e-4 0.87335 0 2.4213-0.24338 2.4213-0.24338-0.0045-0.0564-0.0088-0.18221-0.0088-0.23858-0.15202-2.4309-0.75099-4.1629-0.75099-4.1629z" stroke-width=".26458"/>
  <path id="path1649" d="m95.042 149.11s-0.59924 1.732-0.74672 4.1629c-0.0043 0.0564-0.0085 0.1822-0.01309 0.23857 0 0 0.0088 5e-3 0.02191 5e-3 0.17793 0.0259 1.5843 0.23858 2.4004 0.23858h0.04328s0.0043-0.12583 0.01736-0.22121c0.03046-0.33876 0.10847-1.1461 0.13038-1.5714 0.01736 0.42532 0.09537 1.2327 0.12583 1.5714 0.01283 0.0954 0.01736 0.22121 0.01736 0.22121 0.01469 2.6e-4 0.02939 2.6e-4 0.04435 2.6e-4 0.87335 0 2.4213-0.24338 2.4213-0.24338-0.0046-0.0564-0.0088-0.18221-0.0088-0.23858-0.15201-2.4309-0.75099-4.1629-0.75099-4.1629z" fill="#8ec3ee" stroke="#000" stroke-width=".26458"/>
  <path id="path1657" d="m103.09 149.11s-0.59924 1.732-0.74671 4.1629c-4e-3 0.0564-9e-3 0.1822-0.0131 0.23857 0 0 9e-3 5e-3 0.0219 5e-3 0.17793 0.0259 1.5843 0.23858 2.4004 0.23858h0.0433s4e-3 -0.12583 0.0174-0.22121c0.0305-0.33876 0.10847-1.1461 0.13038-1.5714 0.0173 0.42532 0.0954 1.2327 0.12583 1.5714 0.0128 0.0954 0.0174 0.22121 0.0174 0.22121 0.0147 2.6e-4 0.0294 2.6e-4 0.0443 2.6e-4 0.87335 0 2.4213-0.24338 2.4213-0.24338-5e-3 -0.0564-9e-3 -0.18221-9e-3 -0.23858-0.15201-2.4309-0.75099-4.1629-0.75099-4.1629z" fill="#f1ff6e" stroke="#000" stroke-width=".26458"/>
  <path id="path1665" d="m111.14 149.11s-0.59924 1.732-0.74671 4.1629c-4e-3 0.0564-9e-3 0.1822-0.0131 0.23857 0 0 9e-3 5e-3 0.0219 5e-3 0.17793 0.0259 1.5843 0.23858 2.4004 0.23858h0.0433s4e-3 -0.12583 0.0174-0.22121c0.0305-0.33876 0.10846-1.1461 0.13037-1.5714 0.0174 0.42532 0.0954 1.2327 0.12583 1.5714 0.0128 0.0954 0.0174 0.22121 0.0174 0.22121 0.0147 2.6e-4 0.0294 2.6e-4 0.0443 2.6e-4 0.87335 0 2.4213-0.24338 2.4213-0.24338-5e-3 -0.0564-9e-3 -0.18221-9e-3 -0.23858-0.15201-2.4309-0.75099-4.1629-0.75099-4.1629z" fill="#53a345" stroke="#000" stroke-width=".26458"/>
  <path id="path1673" d="m119.19 149.11s-0.59925 1.732-0.74672 4.1629c-4e-3 0.0564-9e-3 0.1822-0.0131 0.23857 0 0 9e-3 5e-3 0.0219 5e-3 0.17793 0.0259 1.5843 0.23858 2.4004 0.23858h0.0433s4e-3 -0.12583 0.0174-0.22121c0.0305-0.33876 0.10847-1.1461 0.13038-1.5714 0.0174 0.42532 0.0954 1.2327 0.12583 1.5714 0.0128 0.0954 0.0173 0.22121 0.0173 0.22121 0.0147 2.6e-4 0.0294 2.6e-4 0.0444 2.6e-4 0.87335 0 2.4213-0.24338 2.4213-0.24338-5e-3 -0.0564-9e-3 -0.18221-9e-3 -0.23858-0.15201-2.4309-0.75099-4.1629-0.75099-4.1629z" fill="#ad1e32" stroke="#000" stroke-width=".26458"/>
  <path id="path466626" d="m119.08 143.2-1.5529 0.86819 0.80609 1.3945 0.80328-0.37888c0.0953-0.26459 0.87242-1.3282-0.0564-1.8838z" fill="#5b1a21" stroke="#000" stroke-miterlimit="16.248" stroke-width=".28194"/>
  <path id="path466630" d="m123.13 143.2c-0.92887 0.55563-0.1517 1.6192-0.0568 1.8838l0.80751 0.37888 0.80363-1.3945z" fill="#5b1a21" stroke="#000" stroke-miterlimit="16.248" stroke-width=".28194"/>
 </g>
</svg>
