<?xml version="1.0" encoding="UTF-8" standalone="no"?>
<!-- Created with Inkscape (http://www.inkscape.org/) -->

<svg
   width="39.709972mm"
   height="11.146026mm"
   viewBox="0 0 39.709972 11.146026"
   version="1.1"
   id="svg4348"
   inkscape:version="1.1.2 (0a00cf5339, 2022-02-04)"
   sodipodi:docname="022.svg"
   xmlns:inkscape="http://www.inkscape.org/namespaces/inkscape"
   xmlns:sodipodi="http://sodipodi.sourceforge.net/DTD/sodipodi-0.dtd"
   xmlns="http://www.w3.org/2000/svg"
   xmlns:svg="http://www.w3.org/2000/svg">
  <sodipodi:namedview
     id="namedview4350"
     pagecolor="#ffffff"
     bordercolor="#666666"
     borderopacity="1.0"
     inkscape:pageshadow="2"
     inkscape:pageopacity="0.0"
     inkscape:pagecheckerboard="0"
     inkscape:document-units="mm"
     showgrid="false"
     inkscape:zoom="0.69664703"
     inkscape:cx="75.360976"
     inkscape:cy="20.813984"
     inkscape:window-width="1920"
     inkscape:window-height="1016"
     inkscape:window-x="0"
     inkscape:window-y="0"
     inkscape:window-maximized="1"
     inkscape:current-layer="layer1" />
  <defs
     id="defs4345" />
  <g
     inkscape:label="Layer 1"
     inkscape:groupmode="layer"
     id="layer1"
     transform="translate(-85.158419,-142.73735)">
    <path
       fill="#faff58"
       d="m 88.092016,142.88089 -1.197951,0.32141 -1.554076,0.86799 0.803086,1.39351 0.807361,-0.37777 c 0.02618,0.25622 0.138924,0.80309 0.138924,0.80309 0.03046,1.55837 -0.09538,3.21662 -0.09538,3.21662 0.954833,0.12583 1.923026,0.13893 1.923026,0.13893 0,0 0.972199,-0.0132 1.922759,-0.13893 0,0 -0.125834,-1.65825 -0.09538,-3.21662 0,0 0.117284,-0.54687 0.143198,-0.80309 l 0.803087,0.37777 0.803087,-1.39351 -1.549803,-0.86799 -1.202225,-0.32141 c 0,0 -0.473142,0.0652 -0.824726,0.0652 -0.351852,0 -0.824994,-0.0652 -0.824994,-0.0652 z"
       fill-rule="evenodd"
       id="path1721"
       style="fill:#ebcf03;fill-opacity:1;stroke:#000000;stroke-width:0.264583;stroke-opacity:1" />
    <path
       fill="#000000"
       d="m 86.993983,149.10574 c 0,0 -0.599242,1.73201 -0.746715,4.16293 -0.0043,0.0564 -0.0085,0.18219 -0.01309,0.23857 0,0 0.0088,0.005 0.02191,0.005 0.177929,0.0259 1.584266,0.23857 2.400443,0.23857 h 0.04328 c 0,0 0.0043,-0.12583 0.01736,-0.22121 0.03046,-0.33878 0.108467,-1.14613 0.130375,-1.57144 0.01736,0.42531 0.09538,1.23266 0.125833,1.57144 0.01282,0.0954 0.01736,0.22121 0.01736,0.22121 0.01469,2.7e-4 0.02939,2.7e-4 0.04435,2.7e-4 0.87335,0 2.421282,-0.24339 2.421282,-0.24339 -0.0045,-0.0564 -0.0088,-0.18222 -0.0088,-0.23858 -0.152015,-2.43091 -0.750991,-4.1629 -0.750991,-4.1629 z"
       fill-rule="evenodd"
       id="path1725"
       style="stroke-width:0.264583" />
    <path
       fill="#000000"
       d="m 95.042278,149.10574 c 0,0 -0.599242,1.73201 -0.746715,4.16293 -0.0043,0.0564 -0.0085,0.18219 -0.01309,0.23857 0,0 0.0088,0.005 0.02191,0.005 0.177929,0.0259 1.584267,0.23857 2.400443,0.23857 h 0.04328 c 0,0 0.0043,-0.12583 0.01736,-0.22121 0.03046,-0.33878 0.108468,-1.14613 0.130376,-1.57144 0.01736,0.42531 0.09537,1.23266 0.125831,1.57144 0.01283,0.0954 0.01736,0.22121 0.01736,0.22121 0.01469,2.7e-4 0.02939,2.7e-4 0.04435,2.7e-4 0.87335,0 2.421281,-0.24339 2.421281,-0.24339 -0.0046,-0.0564 -0.0088,-0.18222 -0.0088,-0.23858 -0.152013,-2.43091 -0.75099,-4.1629 -0.75099,-4.1629 z"
       fill-rule="evenodd"
       id="path1733"
       style="fill:#39548a;fill-opacity:1;stroke:#000000;stroke-width:0.264583;stroke-opacity:1" />
    <path
       fill="#faff58"
       d="m 104.1886,142.88089 -1.19795,0.32141 -1.55407,0.86799 0.80308,1.39351 0.80736,-0.37777 c 0.0262,0.25622 0.13893,0.80309 0.13893,0.80309 0.0304,1.55837 -0.0954,3.21662 -0.0954,3.21662 0.95483,0.12583 1.92303,0.13893 1.92303,0.13893 0,0 0.9722,-0.0132 1.92276,-0.13893 0,0 -0.12584,-1.65825 -0.0954,-3.21662 0,0 0.11729,-0.54687 0.1432,-0.80309 l 0.80309,0.37777 0.80308,-1.39351 -1.5498,-0.86799 -1.20222,-0.32141 c 0,0 -0.47315,0.0652 -0.82473,0.0652 -0.35185,0 -0.82499,-0.0652 -0.825,-0.0652 z"
       fill-rule="evenodd"
       id="path1737"
       style="fill:#ffffff;fill-opacity:1;stroke:#000000;stroke-width:0.264583;stroke-opacity:1" />
    <path
       fill="#000000"
       d="m 103.09057,149.10574 c 0,0 -0.59924,1.73201 -0.74671,4.16293 -0.004,0.0564 -0.009,0.18219 -0.0131,0.23857 0,0 0.009,0.005 0.0219,0.005 0.17793,0.0259 1.58426,0.23857 2.40044,0.23857 h 0.0433 c 0,0 0.004,-0.12583 0.0174,-0.22121 0.0305,-0.33878 0.10847,-1.14613 0.13037,-1.57144 0.0174,0.42531 0.0954,1.23266 0.12583,1.57144 0.0128,0.0954 0.0174,0.22121 0.0174,0.22121 0.0147,2.7e-4 0.0294,2.7e-4 0.0443,2.7e-4 0.87335,0 2.42128,-0.24339 2.42128,-0.24339 -0.005,-0.0564 -0.009,-0.18222 -0.009,-0.23858 -0.15201,-2.43091 -0.75099,-4.1629 -0.75099,-4.1629 z"
       fill-rule="evenodd"
       id="path1741"
       style="fill:#ffffff;fill-opacity:1;stroke:#000000;stroke-width:0.264583;stroke-opacity:1" />
    <path
       fill="#000000"
       d="m 111.13887,149.10574 c 0,0 -0.59924,1.73201 -0.74672,4.16293 -0.004,0.0564 -0.009,0.18219 -0.0131,0.23857 0,0 0.009,0.005 0.0219,0.005 0.17793,0.0259 1.58427,0.23857 2.40045,0.23857 h 0.0433 c 0,0 0.004,-0.12583 0.0173,-0.22121 0.0305,-0.33878 0.10847,-1.14613 0.13038,-1.57144 0.0174,0.42531 0.0954,1.23266 0.12583,1.57144 0.0128,0.0954 0.0174,0.22121 0.0174,0.22121 0.0147,2.7e-4 0.0294,2.7e-4 0.0443,2.7e-4 0.87335,0 2.42128,-0.24339 2.42128,-0.24339 -0.005,-0.0564 -0.009,-0.18222 -0.009,-0.23858 -0.15202,-2.43091 -0.75099,-4.1629 -0.75099,-4.1629 z"
       fill-rule="evenodd"
       id="path1749"
       style="fill:#f1ff6e;fill-opacity:1;stroke:#000000;stroke-width:0.264583;stroke-opacity:1" />
    <path
       fill="#000000"
       d="m 119.18716,149.10574 c 0,0 -0.59924,1.73201 -0.74671,4.16293 -0.004,0.0564 -0.009,0.18219 -0.0131,0.23857 0,0 0.009,0.005 0.0219,0.005 0.17793,0.0259 1.58426,0.23857 2.40044,0.23857 h 0.0433 c 0,0 0.004,-0.12583 0.0174,-0.22121 0.0305,-0.33878 0.10847,-1.14613 0.13037,-1.57144 0.0174,0.42531 0.0954,1.23266 0.12583,1.57144 0.0128,0.0954 0.0174,0.22121 0.0174,0.22121 0.0147,2.7e-4 0.0294,2.7e-4 0.0444,2.7e-4 0.87335,0 2.42128,-0.24339 2.42128,-0.24339 -0.005,-0.0564 -0.009,-0.18222 -0.009,-0.23858 -0.15201,-2.43091 -0.75099,-4.1629 -0.75099,-4.1629 z"
       fill-rule="evenodd"
       id="path1757"
       style="fill:#6e2675;fill-opacity:1;stroke:#000000;stroke-width:0.264583;stroke-opacity:1" />
    <path
       style="fill:#ad1e32;fill-opacity:1;stroke:none;stroke-width:0.264583px;stroke-linecap:butt;stroke-linejoin:miter;stroke-opacity:1"
       d="m 104.2141,142.97759 1.64245,0.004 0.95698,0.22762 0.17065,1.87711 -0.15995,0.56912 0.0109,3.34761 -3.84665,-5.71759 z"
       id="path564637" />
    <path
       stroke="#000000"
       stroke-width="0.281945"
       stroke-miterlimit="16.2479"
       stroke-linecap="butt"
       d="m 96.140312,142.88089 -1.197951,0.32141 -1.554077,0.86799 0.803086,1.39351 0.80736,-0.37777 c 0.02619,0.25622 0.138925,0.80309 0.138925,0.80309 0.03046,1.55837 -0.09538,3.21662 -0.09538,3.21662 0.954834,0.12583 1.923026,0.13893 1.923026,0.13893 0,0 0.972201,-0.0132 1.922759,-0.13893 0,0 -0.125833,-1.65825 -0.09538,-3.21662 0,0 0.117284,-0.54687 0.1432,-0.80309 l 0.803085,0.37777 0.803085,-1.39351 -1.5498,-0.86799 -1.202225,-0.32141 c 0,0 -0.473143,0.0652 -0.824727,0.0652 -0.351851,0 -0.824992,-0.0652 -0.824992,-0.0652 z"
       fill-rule="evenodd"
       id="path1731"
       style="fill:#39548a;fill-opacity:1" />
    <path
       stroke="#000000"
       stroke-width="0.281945"
       stroke-miterlimit="16.2479"
       stroke-linecap="butt"
       d="m 112.2369,142.88089 -1.19795,0.32141 -1.55408,0.86799 0.80309,1.39351 0.80736,-0.37777 c 0.0262,0.25622 0.13892,0.80309 0.13892,0.80309 0.0305,1.55837 -0.0954,3.21662 -0.0954,3.21662 0.95483,0.12583 1.92302,0.13893 1.92302,0.13893 0,0 0.9722,-0.0132 1.92276,-0.13893 0,0 -0.12583,-1.65825 -0.0954,-3.21662 0,0 0.11728,-0.54687 0.1432,-0.80309 l 0.80308,0.37777 0.80309,-1.39351 -1.5498,-0.86799 -1.20223,-0.32141 c 0,0 -0.47314,0.0652 -0.82472,0.0652 -0.35185,0 -0.825,-0.0652 -0.825,-0.0652 z"
       fill-rule="evenodd"
       id="path1747"
       style="fill:#f1ff6e;fill-opacity:1;stroke:#000000;stroke-opacity:1" />
    <path
       fill="#faff58"
       d="m 120.28519,142.88086 -1.19795,0.32142 -1.55407,0.86799 0.80308,1.39351 0.80736,-0.37778 c 0.0262,0.25623 0.13893,0.80309 0.13893,0.80309 0.0305,1.55837 -0.0954,3.21662 -0.0954,3.21662 0.95484,0.12584 1.92303,0.13893 1.92303,0.13893 0,0 0.9722,-0.0132 1.92276,-0.13893 0,0 -0.12584,-1.65825 -0.0954,-3.21662 0,0 0.11728,-0.54686 0.1432,-0.80309 l 0.80309,0.37778 0.80308,-1.39351 -1.5498,-0.86799 -1.20222,-0.32142 c 0,0 -0.47315,0.0652 -0.82473,0.0652 -0.35185,0 -0.82499,-0.0652 -0.825,-0.0652 z"
       fill-rule="evenodd"
       id="path1753"
       style="fill:#6e2675;fill-opacity:1;stroke:#000000;stroke-width:0.264583;stroke-opacity:1" />
  </g>
</svg>
