<?xml version="1.0" encoding="UTF-8" standalone="no"?>
<!-- Created with Inkscape (http://www.inkscape.org/) -->

<svg
   width="39.721905mm"
   height="11.146017mm"
   viewBox="0 0 39.721905 11.146017"
   version="1.1"
   id="svg4612"
   inkscape:version="1.1.2 (0a00cf5339, 2022-02-04)"
   sodipodi:docname="023.svg"
   xmlns:inkscape="http://www.inkscape.org/namespaces/inkscape"
   xmlns:sodipodi="http://sodipodi.sourceforge.net/DTD/sodipodi-0.dtd"
   xmlns="http://www.w3.org/2000/svg"
   xmlns:svg="http://www.w3.org/2000/svg">
  <sodipodi:namedview
     id="namedview4614"
     pagecolor="#ffffff"
     bordercolor="#666666"
     borderopacity="1.0"
     inkscape:pageshadow="2"
     inkscape:pageopacity="0.0"
     inkscape:pagecheckerboard="0"
     inkscape:document-units="mm"
     showgrid="false"
     inkscape:zoom="0.5"
     inkscape:cx="917"
     inkscape:cy="-387"
     inkscape:window-width="1920"
     inkscape:window-height="1016"
     inkscape:window-x="0"
     inkscape:window-y="0"
     inkscape:window-maximized="1"
     inkscape:current-layer="layer1" />
  <defs
     id="defs4609" />
  <g
     inkscape:label="Layer 1"
     inkscape:groupmode="layer"
     id="layer1"
     transform="translate(137.59753,-250.40934)">
    <path
       fill="#000000"
       d="m -135.75006,256.77773 c 0,0 -0.59924,1.73202 -0.74672,4.16293 -0.004,0.0564 -0.009,0.18219 -0.0131,0.23857 0,0 0.009,0.005 0.0219,0.005 0.17793,0.0259 1.58427,0.23858 2.40044,0.23858 h 0.0433 c 0,0 0.004,-0.12584 0.0174,-0.22122 0.0305,-0.33878 0.10847,-1.14612 0.13037,-1.57144 0.0174,0.42532 0.0954,1.23266 0.12584,1.57144 0.0128,0.0954 0.0174,0.22122 0.0174,0.22122 0.0147,2.6e-4 0.0294,2.6e-4 0.0444,2.6e-4 0.87335,0 2.42128,-0.24339 2.42128,-0.24339 -0.005,-0.0564 -0.009,-0.18222 -0.009,-0.23858 -0.15202,-2.43091 -0.75099,-4.1629 -0.75099,-4.1629 z"
       fill-rule="evenodd"
       id="path1767"
       style="stroke-width:0.264583" />
    <path
       fill="#000000"
       d="m -127.70177,256.77773 c 0,0 -0.59924,1.73202 -0.74671,4.16293 -0.004,0.0564 -0.009,0.18219 -0.0131,0.23857 0,0 0.009,0.005 0.0219,0.005 0.17792,0.0259 1.58426,0.23858 2.40044,0.23858 h 0.0433 c 0,0 0.004,-0.12584 0.0174,-0.22122 0.0304,-0.33878 0.10846,-1.14612 0.13037,-1.57144 0.0174,0.42532 0.0954,1.23266 0.12583,1.57144 0.0128,0.0954 0.0174,0.22122 0.0174,0.22122 0.0147,2.6e-4 0.0294,2.6e-4 0.0444,2.6e-4 0.87335,0 2.42128,-0.24339 2.42128,-0.24339 -0.005,-0.0564 -0.009,-0.18222 -0.009,-0.23858 -0.15201,-2.43091 -0.75099,-4.1629 -0.75099,-4.1629 z"
       fill-rule="evenodd"
       id="path1775"
       style="stroke:none;stroke-width:0.264583;stroke-opacity:1" />
    <path
       fill="#000000"
       d="m -119.65347,256.77773 c 0,0 -0.59924,1.73202 -0.74672,4.16293 -0.004,0.0564 -0.009,0.18219 -0.0131,0.23857 0,0 0.009,0.005 0.0219,0.005 0.17794,0.0259 1.58427,0.23858 2.40045,0.23858 h 0.0433 c 0,0 0.004,-0.12584 0.0173,-0.22122 0.0305,-0.33878 0.10847,-1.14612 0.13038,-1.57144 0.0174,0.42532 0.0954,1.23266 0.12583,1.57144 0.0128,0.0954 0.0174,0.22122 0.0174,0.22122 0.0147,2.6e-4 0.0294,2.6e-4 0.0443,2.6e-4 0.87335,0 2.42128,-0.24339 2.42128,-0.24339 -0.005,-0.0564 -0.009,-0.18222 -0.009,-0.23858 -0.15202,-2.43091 -0.75099,-4.1629 -0.75099,-4.1629 z"
       fill-rule="evenodd"
       id="path1783"
       style="fill:#141e98;fill-opacity:1;stroke:#000000;stroke-width:0.264583;stroke-opacity:1" />
    <path
       fill="#000000"
       d="m -111.60518,256.77773 c 0,0 -0.59924,1.73202 -0.74671,4.16293 -0.004,0.0564 -0.009,0.18219 -0.0131,0.23857 0,0 0.009,0.005 0.0219,0.005 0.17793,0.0259 1.58426,0.23858 2.40044,0.23858 h 0.0433 c 0,0 0.004,-0.12584 0.0174,-0.22122 0.0305,-0.33878 0.10847,-1.14612 0.13037,-1.57144 0.0174,0.42532 0.0954,1.23266 0.12584,1.57144 0.0128,0.0954 0.0173,0.22122 0.0173,0.22122 0.0147,2.6e-4 0.0294,2.6e-4 0.0444,2.6e-4 0.87335,0 2.42128,-0.24339 2.42128,-0.24339 -0.005,-0.0564 -0.009,-0.18222 -0.009,-0.23858 -0.15201,-2.43091 -0.75099,-4.1629 -0.75099,-4.1629 z"
       fill-rule="evenodd"
       id="path1791"
       style="fill:#ad1e32;fill-opacity:1;stroke:#000000;stroke-width:0.264583;stroke-opacity:1" />
    <path
       fill="#000000"
       d="m -103.55688,256.77773 c 0,0 -0.59924,1.73202 -0.74672,4.16293 -0.004,0.0564 -0.009,0.18219 -0.0131,0.23857 0,0 0.009,0.005 0.0219,0.005 0.17793,0.0259 1.58427,0.23858 2.40045,0.23858 h 0.0433 c 0,0 0.004,-0.12584 0.0174,-0.22122 0.0305,-0.33878 0.10847,-1.14612 0.13038,-1.57144 0.0174,0.42532 0.0954,1.23266 0.12583,1.57144 0.0128,0.0954 0.0174,0.22122 0.0174,0.22122 0.0147,2.6e-4 0.0294,2.6e-4 0.0444,2.6e-4 0.87335,0 2.421279,-0.24339 2.421279,-0.24339 -0.0046,-0.0564 -0.0088,-0.18222 -0.0088,-0.23858 -0.152014,-2.43091 -0.750991,-4.1629 -0.750991,-4.1629 z"
       fill-rule="evenodd"
       id="path1799"
       style="fill:#4290a4;fill-opacity:1;stroke:#000000;stroke-width:0.264583;stroke-opacity:1" />
    <path
       fill="#faff58"
       d="m -118.55544,250.55288 -1.19795,0.32141 -1.55408,0.868 0.80309,1.3935 0.80736,-0.37777 c 0.0262,0.25622 0.13892,0.80309 0.13892,0.80309 0.0305,1.55837 -0.0954,3.21662 -0.0954,3.21662 0.95483,0.12584 1.92303,0.13893 1.92303,0.13893 0,0 0.9722,-0.0132 1.92276,-0.13893 0,0 -0.12584,-1.65825 -0.0954,-3.21662 0,0 0.11728,-0.54687 0.1432,-0.80309 l 0.80308,0.37777 0.80309,-1.3935 -1.5498,-0.868 -1.20223,-0.32141 c 0,0 -0.47314,0.0652 -0.82472,0.0652 -0.35185,0 -0.825,-0.0652 -0.825,-0.0652 z"
       fill-rule="evenodd"
       id="path1779"
       style="fill:#ffffff;fill-opacity:1;stroke:#000000;stroke-width:0.264583;stroke-opacity:1" />
    <path
       style="fill:#141e98;fill-opacity:1;stroke:none;stroke-width:0.264583px;stroke-linecap:butt;stroke-linejoin:miter;stroke-opacity:1"
       d="m -118.90154,250.68464 v 6.0969 h 0.7316 v -6.17289 l -0.3461,-0.0558 z"
       id="path598570" />
    <path
       style="fill:#141e98;fill-opacity:1;stroke:none;stroke-width:0.264583px;stroke-linecap:butt;stroke-linejoin:miter;stroke-opacity:1"
       d="m -116.52022,250.68464 v 6.0969 h -0.7316 v -6.17289 l 0.3461,-0.0558 z"
       id="path598572" />
    <path
       stroke="#000000"
       stroke-width="0.281945"
       stroke-miterlimit="16.2479"
       stroke-linecap="butt"
       d="m -134.65203,250.55288 -1.19795,0.32141 -1.55407,0.868 0.80308,1.3935 0.80736,-0.37777 c 0.0262,0.25622 0.13893,0.80309 0.13893,0.80309 0.0305,1.55837 -0.0954,3.21662 -0.0954,3.21662 0.95483,0.12584 1.92303,0.13893 1.92303,0.13893 0,0 0.9722,-0.0132 1.92276,-0.13893 0,0 -0.12584,-1.65825 -0.0954,-3.21662 0,0 0.11728,-0.54687 0.1432,-0.80309 l 0.80308,0.37777 0.80309,-1.3935 -1.5498,-0.868 -1.20223,-0.32141 c 0,0 -0.47314,0.0652 -0.82472,0.0652 -0.35185,0 -0.825,-0.0652 -0.825,-0.0652 z"
       fill-rule="evenodd"
       id="path1765"
       style="fill:#ebcf03;fill-opacity:1" />
    <path
       fill="#faff58"
       d="m -126.60373,250.55288 -1.19795,0.32141 -1.55408,0.868 0.80309,1.3935 0.80736,-0.37777 c 0.0262,0.25622 0.13892,0.80309 0.13892,0.80309 0.0305,1.55837 -0.0954,3.21662 -0.0954,3.21662 0.95484,0.12584 1.92303,0.13893 1.92303,0.13893 0,0 0.9722,-0.0132 1.92276,-0.13893 0,0 -0.12583,-1.65825 -0.0954,-3.21662 0,0 0.11729,-0.54687 0.1432,-0.80309 l 0.80309,0.37777 0.80308,-1.3935 -1.5498,-0.868 -1.20222,-0.32141 c 0,0 -0.47315,0.0652 -0.82473,0.0652 -0.35185,0 -0.82499,-0.0652 -0.82499,-0.0652 z"
       fill-rule="evenodd"
       id="path1771"
       style="fill:#000000;fill-opacity:1;stroke:#000000;stroke-width:0.264583;stroke-opacity:1" />
    <path
       fill="#faff58"
       d="m -110.50714,250.55288 -1.19795,0.32141 -1.55408,0.868 0.80309,1.3935 0.80736,-0.37777 c 0.0262,0.25622 0.13892,0.80309 0.13892,0.80309 0.0305,1.55837 -0.0954,3.21662 -0.0954,3.21662 0.95484,0.12584 1.92303,0.13893 1.92303,0.13893 0,0 0.9722,-0.0132 1.92276,-0.13893 0,0 -0.12583,-1.65825 -0.0954,-3.21662 0,0 0.11729,-0.54687 0.1432,-0.80309 l 0.80309,0.37777 0.80309,-1.3935 -1.5498,-0.868 -1.20223,-0.32141 c 0,0 -0.47314,0.0652 -0.82473,0.0652 -0.35185,0 -0.82499,-0.0652 -0.82499,-0.0652 z"
       fill-rule="evenodd"
       id="path1787"
       style="fill:#ad1e32;fill-opacity:1;stroke:#000000;stroke-width:0.264583;stroke-opacity:1" />
    <path
       fill="#faff58"
       d="m -102.45885,250.55288 -1.19795,0.32141 -1.55408,0.868 0.80309,1.3935 0.80736,-0.37777 c 0.0262,0.25622 0.13893,0.80309 0.13893,0.80309 0.0305,1.55837 -0.0954,3.21662 -0.0954,3.21662 0.95483,0.12584 1.92302,0.13893 1.92302,0.13893 0,0 0.97221,-0.0132 1.922766,-0.13893 0,0 -0.125836,-1.65825 -0.09538,-3.21662 0,0 0.117282,-0.54687 0.143201,-0.80309 l 0.803084,0.37777 0.803087,-1.3935 -1.549802,-0.868 -1.202226,-0.32141 c 0,0 -0.47314,0.0652 -0.82472,0.0652 -0.35185,0 -0.825,-0.0652 -0.825,-0.0652 z"
       fill-rule="evenodd"
       id="path1795"
       style="fill:#4290a4;fill-opacity:1;stroke:#000000;stroke-width:0.264583;stroke-opacity:1" />
  </g>
</svg>
