<?xml version="1.0" encoding="UTF-8"?>
<!-- Created with Inkscape (http://www.inkscape.org/) -->
<svg id="svg4612" width="39.722mm" height="11.146mm" version="1.1" viewBox="0 0 39.722 11.146" xmlns="http://www.w3.org/2000/svg">
 <g id="layer1" transform="translate(137.6 -250.41)">
  <path id="path1767" d="m-135.75 256.78s-0.59924 1.732-0.74672 4.1629c-4e-3 0.0564-9e-3 0.18219-0.0131 0.23857 0 0 9e-3 5e-3 0.0219 5e-3 0.17793 0.0259 1.5843 0.23858 2.4004 0.23858h0.0433s4e-3 -0.12584 0.0174-0.22122c0.0305-0.33878 0.10847-1.1461 0.13037-1.5714 0.0174 0.42532 0.0954 1.2327 0.12584 1.5714 0.0128 0.0954 0.0174 0.22122 0.0174 0.22122 0.0147 2.6e-4 0.0294 2.6e-4 0.0444 2.6e-4 0.87335 0 2.4213-0.24339 2.4213-0.24339-5e-3 -0.0564-9e-3 -0.18222-9e-3 -0.23858-0.15202-2.4309-0.75099-4.1629-0.75099-4.1629z" fill-rule="evenodd" stroke-width=".26458"/>
  <path id="path1775" d="m-127.7 256.78s-0.59924 1.732-0.74671 4.1629c-4e-3 0.0564-9e-3 0.18219-0.0131 0.23857 0 0 9e-3 5e-3 0.0219 5e-3 0.17792 0.0259 1.5843 0.23858 2.4004 0.23858h0.0433s4e-3 -0.12584 0.0174-0.22122c0.0304-0.33878 0.10846-1.1461 0.13037-1.5714 0.0174 0.42532 0.0954 1.2327 0.12583 1.5714 0.0128 0.0954 0.0174 0.22122 0.0174 0.22122 0.0147 2.6e-4 0.0294 2.6e-4 0.0444 2.6e-4 0.87335 0 2.4213-0.24339 2.4213-0.24339-5e-3 -0.0564-9e-3 -0.18222-9e-3 -0.23858-0.15201-2.4309-0.75099-4.1629-0.75099-4.1629z" fill-rule="evenodd"/>
  <path id="path1783" d="m-119.65 256.78s-0.59924 1.732-0.74672 4.1629c-4e-3 0.0564-9e-3 0.18219-0.0131 0.23857 0 0 9e-3 5e-3 0.0219 5e-3 0.17794 0.0259 1.5843 0.23858 2.4004 0.23858h0.0433s4e-3 -0.12584 0.0173-0.22122c0.0305-0.33878 0.10847-1.1461 0.13038-1.5714 0.0174 0.42532 0.0954 1.2327 0.12583 1.5714 0.0128 0.0954 0.0174 0.22122 0.0174 0.22122 0.0147 2.6e-4 0.0294 2.6e-4 0.0443 2.6e-4 0.87335 0 2.4213-0.24339 2.4213-0.24339-5e-3 -0.0564-9e-3 -0.18222-9e-3 -0.23858-0.15202-2.4309-0.75099-4.1629-0.75099-4.1629z" fill="#141e98" fill-rule="evenodd" stroke="#000" stroke-width=".26458"/>
  <path id="path1791" d="m-111.61 256.78s-0.59924 1.732-0.74671 4.1629c-4e-3 0.0564-9e-3 0.18219-0.0131 0.23857 0 0 9e-3 5e-3 0.0219 5e-3 0.17793 0.0259 1.5843 0.23858 2.4004 0.23858h0.0433s4e-3 -0.12584 0.0174-0.22122c0.0305-0.33878 0.10847-1.1461 0.13037-1.5714 0.0174 0.42532 0.0954 1.2327 0.12584 1.5714 0.0128 0.0954 0.0173 0.22122 0.0173 0.22122 0.0147 2.6e-4 0.0294 2.6e-4 0.0444 2.6e-4 0.87335 0 2.4213-0.24339 2.4213-0.24339-5e-3 -0.0564-9e-3 -0.18222-9e-3 -0.23858-0.15201-2.4309-0.75099-4.1629-0.75099-4.1629z" fill="#ad1e32" fill-rule="evenodd" stroke="#000" stroke-width=".26458"/>
  <path id="path1799" d="m-103.56 256.78s-0.59924 1.732-0.74672 4.1629c-4e-3 0.0564-9e-3 0.18219-0.0131 0.23857 0 0 9e-3 5e-3 0.0219 5e-3 0.17793 0.0259 1.5843 0.23858 2.4004 0.23858h0.0433s4e-3 -0.12584 0.0174-0.22122c0.0305-0.33878 0.10847-1.1461 0.13038-1.5714 0.0174 0.42532 0.0954 1.2327 0.12583 1.5714 0.0128 0.0954 0.0174 0.22122 0.0174 0.22122 0.0147 2.6e-4 0.0294 2.6e-4 0.0444 2.6e-4 0.87335 0 2.4213-0.24339 2.4213-0.24339-0.0046-0.0564-0.0088-0.18222-0.0088-0.23858-0.15201-2.4309-0.75099-4.1629-0.75099-4.1629z" fill="#4290a4" fill-rule="evenodd" stroke="#000" stroke-width=".26458"/>
  <path id="path1779" d="m-118.56 250.55-1.198 0.32141-1.5541 0.868 0.80309 1.3935 0.80736-0.37777c0.0262 0.25622 0.13892 0.80309 0.13892 0.80309 0.0305 1.5584-0.0954 3.2166-0.0954 3.2166 0.95483 0.12584 1.923 0.13893 1.923 0.13893s0.9722-0.0132 1.9228-0.13893c0 0-0.12584-1.6582-0.0954-3.2166 0 0 0.11728-0.54687 0.1432-0.80309l0.80308 0.37777 0.80309-1.3935-1.5498-0.868-1.2022-0.32141s-0.47314 0.0652-0.82472 0.0652c-0.35185 0-0.825-0.0652-0.825-0.0652z" fill="#fff" fill-rule="evenodd" stroke="#000" stroke-width=".26458"/>
  <path id="path598570" d="m-118.9 250.68v6.0969h0.7316v-6.1729l-0.3461-0.0558z" fill="#141e98"/>
  <path id="path598572" d="m-116.52 250.68v6.0969h-0.7316v-6.1729l0.3461-0.0558z" fill="#141e98"/>
  <path id="path1765" d="m-134.65 250.55-1.198 0.32141-1.5541 0.868 0.80308 1.3935 0.80736-0.37777c0.0262 0.25622 0.13893 0.80309 0.13893 0.80309 0.0305 1.5584-0.0954 3.2166-0.0954 3.2166 0.95483 0.12584 1.923 0.13893 1.923 0.13893s0.9722-0.0132 1.9228-0.13893c0 0-0.12584-1.6582-0.0954-3.2166 0 0 0.11728-0.54687 0.1432-0.80309l0.80308 0.37777 0.80309-1.3935-1.5498-0.868-1.2022-0.32141s-0.47314 0.0652-0.82472 0.0652c-0.35185 0-0.825-0.0652-0.825-0.0652z" fill="#ebcf03" fill-rule="evenodd" stroke="#000" stroke-miterlimit="16.248" stroke-width=".28194"/>
  <path id="path1771" d="m-126.6 250.55-1.198 0.32141-1.5541 0.868 0.80309 1.3935 0.80736-0.37777c0.0262 0.25622 0.13892 0.80309 0.13892 0.80309 0.0305 1.5584-0.0954 3.2166-0.0954 3.2166 0.95484 0.12584 1.923 0.13893 1.923 0.13893s0.9722-0.0132 1.9228-0.13893c0 0-0.12583-1.6582-0.0954-3.2166 0 0 0.11729-0.54687 0.1432-0.80309l0.80309 0.37777 0.80308-1.3935-1.5498-0.868-1.2022-0.32141s-0.47315 0.0652-0.82473 0.0652c-0.35185 0-0.82499-0.0652-0.82499-0.0652z" fill-rule="evenodd" stroke="#000" stroke-width=".26458"/>
  <path id="path1787" d="m-110.51 250.55-1.198 0.32141-1.5541 0.868 0.80309 1.3935 0.80736-0.37777c0.0262 0.25622 0.13892 0.80309 0.13892 0.80309 0.0305 1.5584-0.0954 3.2166-0.0954 3.2166 0.95484 0.12584 1.923 0.13893 1.923 0.13893s0.9722-0.0132 1.9228-0.13893c0 0-0.12583-1.6582-0.0954-3.2166 0 0 0.11729-0.54687 0.1432-0.80309l0.80309 0.37777 0.80309-1.3935-1.5498-0.868-1.2022-0.32141s-0.47314 0.0652-0.82473 0.0652c-0.35185 0-0.82499-0.0652-0.82499-0.0652z" fill="#ad1e32" fill-rule="evenodd" stroke="#000" stroke-width=".26458"/>
  <path id="path1795" d="m-102.46 250.55-1.198 0.32141-1.5541 0.868 0.80309 1.3935 0.80736-0.37777c0.0262 0.25622 0.13893 0.80309 0.13893 0.80309 0.0305 1.5584-0.0954 3.2166-0.0954 3.2166 0.95483 0.12584 1.923 0.13893 1.923 0.13893s0.97221-0.0132 1.9228-0.13893c0 0-0.12584-1.6582-0.09538-3.2166 0 0 0.11728-0.54687 0.1432-0.80309l0.80308 0.37777 0.80309-1.3935-1.5498-0.868-1.2022-0.32141s-0.47314 0.0652-0.82472 0.0652c-0.35185 0-0.825-0.0652-0.825-0.0652z" fill="#4290a4" fill-rule="evenodd" stroke="#000" stroke-width=".26458"/>
 </g>
</svg>
