<?xml version="1.0" encoding="UTF-8"?>
<svg id="svg363" width="150.09" height="42.09" fill="none" stroke-linecap="square" stroke-miterlimit="10" version="1.1" viewBox="0 0 150.09 42.09" xmlns="http://www.w3.org/2000/svg">
 <clipPath id="g1f1130f6aa8_0_6014.0">
  <path id="path2" d="m0 0h960v540h-960z"/>
 </clipPath>
 <path id="path1805" d="m11.088 0.50912-4.5277 1.2148-5.8737 3.2806 3.0353 5.2668 3.0514-1.4278c0.09896 0.9684 0.52507 3.0353 0.52507 3.0353 0.11511 5.8899-0.36048 12.157-0.36048 12.157 3.6088 0.4756 7.2681 0.5251 7.2681 0.5251s3.6745-0.049 7.2671-0.5251c0 0-0.47559-6.2674-0.36048-12.157 0 0 0.44328-2.0669 0.54122-3.0353l3.0353 1.4278 3.0353-5.2668-5.8575-3.2806-4.5438-1.2148s-1.7883 0.2464-3.1171 0.2464c-1.3298 0-3.1181-0.2464-3.1181-0.2464z" fill="#000" fill-rule="evenodd" stroke="#000"/>
 <path id="path1809" d="m6.9376 24.036s-2.2649 6.5462-2.8222 15.734c-0.01616 0.213-0.03231 0.6886-0.04948 0.9017 0 0 0.03332 0.017 0.0828 0.017 0.67249 0.098 5.9878 0.9017 9.0725 0.9017h0.16358s0.01616-0.4756 0.06563-0.8361c0.11511-1.2804 0.40996-4.3318 0.49276-5.9393 0.06563 1.6075 0.36048 4.6589 0.47559 5.9393 0.04847 0.3605 0.06563 0.8361 0.06563 0.8361h0.16762c3.3008 0 9.1513-0.9199 9.1513-0.9199-0.01717-0.2131-0.03332-0.6887-0.03332-0.9017-0.57454-9.1877-2.8384-15.734-2.8384-15.734z" fill="#000" fill-rule="evenodd"/>
 <path id="path1813" d="m41.506 0.50912-4.5277 1.2148-5.8737 3.2806 3.0353 5.2668 3.0514-1.4278c0.099 0.9684 0.52507 3.0353 0.52507 3.0353 0.11511 5.8899-0.36048 12.157-0.36048 12.157 3.6088 0.4756 7.2681 0.5251 7.2681 0.5251s3.6745-0.049 7.2671-0.5251c0 0-0.47559-6.2674-0.36048-12.157 0 0 0.44328-2.0669 0.54123-3.0353l3.0353 1.4278 3.0353-5.2668-5.8575-3.2806-4.5438-1.2148s-1.7883 0.2464-3.1171 0.2464c-1.3298 0-3.1181-0.2464-3.1181-0.2464z" fill="#fff" fill-rule="evenodd" stroke="#000"/>
 <path id="path1817" d="m37.356 24.036s-2.2649 6.5462-2.8222 15.734c-0.01616 0.213-0.03231 0.6886-0.04948 0.9017 0 0 0.03332 0.017 0.0828 0.017 0.67249 0.098 5.9878 0.9017 9.0725 0.9017h0.16358s0.0162-0.4756 0.0656-0.8361c0.11511-1.2804 0.40996-4.3318 0.49276-5.9393 0.0656 1.6075 0.36047 4.6589 0.47558 5.9393 0.0485 0.3605 0.0656 0.8361 0.0656 0.8361h0.16762c3.3008 0 9.1513-0.9199 9.1513-0.9199-0.0172-0.2131-0.0333-0.6887-0.0333-0.9017-0.57454-9.1877-2.8384-15.734-2.8384-15.734z" fill="#fff" fill-rule="evenodd" stroke="#000"/>
 <path id="path1825" d="m67.775 24.036s-2.2648 6.5462-2.8222 15.734c-0.0162 0.213-0.0323 0.6886-0.0495 0.9017 0 0 0.0333 0.017 0.0828 0.017 0.6725 0.098 5.9878 0.9017 9.0726 0.9017h0.16357s0.0162-0.4756 0.0656-0.8361c0.11511-1.2804 0.40996-4.3318 0.49276-5.9393 0.0656 1.6075 0.36047 4.6589 0.47558 5.9393 0.0485 0.3605 0.0656 0.8361 0.0656 0.8361h0.16762c3.3008 0 9.1513-0.9199 9.1513-0.9199-0.0172-0.2131-0.0333-0.6887-0.0333-0.9017-0.57454-9.1877-2.8384-15.734-2.8384-15.734z" fill="#141e98" fill-rule="evenodd" stroke="#000"/>
 <path id="path1829" d="m102.34 0.50912-4.5277 1.2148-5.8737 3.2806 3.0353 5.2668 3.0514-1.4278c0.099 0.9684 0.52507 3.0353 0.52507 3.0353 0.11511 5.8899-0.36048 12.157-0.36048 12.157 3.6088 0.4756 7.2681 0.5251 7.2681 0.5251s3.6744-0.049 7.2671-0.5251c0 0-0.47559-6.2674-0.36048-12.157 0 0 0.44328-2.0669 0.54123-3.0353l3.0353 1.4278 3.0353-5.2668-5.8575-3.2806-4.5438-1.2148s-1.7883 0.2464-3.1171 0.2464c-1.3298 0-3.1181-0.2464-3.1181-0.2464z" fill="#c2fe65" fill-rule="evenodd" stroke="#000"/>
 <path id="path1833" d="m98.194 24.036s-2.2648 6.5462-2.8222 15.734c-0.0162 0.213-0.0323 0.6886-0.0495 0.9017 0 0 0.0333 0.017 0.0828 0.017 0.67249 0.098 5.9878 0.9017 9.0725 0.9017h0.16358s0.0162-0.4756 0.0656-0.8361c0.11511-1.2804 0.40995-4.3318 0.49275-5.9393 0.0656 1.6075 0.36048 4.6589 0.47559 5.9393 0.0485 0.3605 0.0656 0.8361 0.0656 0.8361h0.16762c3.3008 0 9.1513-0.9199 9.1513-0.9199-0.0172-0.2131-0.0333-0.6887-0.0333-0.9017-0.57454-9.1877-2.8384-15.734-2.8384-15.734z" fill="#c2fe65" fill-rule="evenodd" stroke="#000"/>
 <path id="path1837" d="m132.76 0.50912-4.5277 1.2148-5.8737 3.2806 3.0353 5.2668 3.0514-1.4278c0.099 0.9684 0.52507 3.0353 0.52507 3.0353 0.11511 5.8899-0.36048 12.157-0.36048 12.157 3.6088 0.4756 7.2681 0.5251 7.2681 0.5251s3.6745-0.049 7.2671-0.5251c0 0-0.4756-6.2674-0.36048-12.157 0 0 0.44327-2.0669 0.54123-3.0353l3.0353 1.4278 3.0353-5.2668-5.8575-3.2806-4.5438-1.2148s-1.7883 0.2464-3.1171 0.2464c-1.3298 0-3.1181-0.2464-3.1181-0.2464z" fill="#141e98" fill-rule="evenodd" stroke="#000"/>
 <path id="path1841" d="m128.61 24.036s-2.2648 6.5462-2.8222 15.734c-0.0162 0.213-0.0323 0.6886-0.0495 0.9017 0 0 0.0333 0.017 0.0828 0.017 0.67249 0.098 5.9878 0.9017 9.0725 0.9017h0.16358s0.0162-0.4756 0.0656-0.8361c0.11511-1.2804 0.40996-4.3318 0.49276-5.9393 0.0656 1.6075 0.36047 4.6589 0.47558 5.9393 0.0485 0.3605 0.0656 0.8361 0.0656 0.8361h0.16762c3.3008 0 9.1513-0.9199 9.1513-0.9199-0.0172-0.2131-0.0333-0.6887-0.0333-0.9017-0.57454-9.1877-2.8384-15.734-2.8384-15.734z" fill="#141e98" fill-rule="evenodd" stroke="#000"/>
 <path id="path40866-2-9" d="m73.744 0.56652 2.405-0.079v23.644l-2.4-0.01z" fill="#d80000"/>
 <path id="path41142-7-3" d="m80.566 23.767v-22.867l-2.4053-0.3911v23.242z" fill="#d80000"/>
 <path id="path41587-0-6" d="m69.221 23.767v-22.867l2.3599-0.3911v23.242z" fill="#d80000"/>
 <path id="path1821" d="m71.925 0.50912-4.5277 1.2148-5.8737 3.2806 3.0353 5.2668 3.0514-1.4278c0.099 0.9684 0.52507 3.0353 0.52507 3.0353 0.11511 5.8899-0.36048 12.157-0.36048 12.157 3.6088 0.4756 7.2681 0.5251 7.2681 0.5251s3.6745-0.049 7.2671-0.5251c0 0-0.4756-6.2674-0.36048-12.157 0 0 0.44328-2.0669 0.54123-3.0353l3.0353 1.4278 3.0353-5.2668-5.8575-3.2806-4.5438-1.2148s-1.7883 0.2464-3.1171 0.2464c-1.3298 0-3.1181-0.2464-3.1181-0.2464z" fill="none" fill-rule="evenodd" stroke="#000"/>
</svg>
