<?xml version="1.0" encoding="UTF-8"?>
<!-- Created with Inkscape (http://www.inkscape.org/) -->
<svg id="svg4891" width="39.71mm" height="11.137mm" version="1.1" viewBox="0 0 39.71 11.137" xmlns="http://www.w3.org/2000/svg">
 <g id="layer1" transform="translate(126.58 -32.031)">
  <path id="path1847" d="m-123.64 32.166-1.198 0.32139-1.5541 0.86802 0.80308 1.3935 0.80736-0.37777c0.0262 0.25622 0.13893 0.80309 0.13893 0.80309 0.0305 1.5584-0.0954 3.2166-0.0954 3.2166 0.95483 0.12584 1.923 0.13893 1.923 0.13893s0.9722-0.01297 1.9228-0.13893c0 0-0.12584-1.6582-0.0954-3.2166 0 0 0.11728-0.54687 0.1432-0.80309l0.80308 0.37777 0.80309-1.3935-1.5498-0.86802-1.2022-0.32139s-0.47314 0.06519-0.82472 0.06519c-0.35185 0-0.825-0.06519-0.825-0.06519z" fill="#275c84" fill-rule="evenodd" stroke="#000" stroke-width=".26458"/>
  <path id="path1851" d="m-124.74 38.391s-0.59924 1.732-0.74672 4.1629c-4e-3 0.05636-9e-3 0.18219-0.0131 0.23858 0 0 9e-3 0.0045 0.0219 0.0045 0.17793 0.02593 1.5843 0.23857 2.4004 0.23857h0.0433s4e-3 -0.12584 0.0174-0.22122c0.0305-0.33877 0.10847-1.1461 0.13037-1.5714 0.0174 0.42532 0.0954 1.2327 0.12584 1.5714 0.0128 0.09538 0.0174 0.22122 0.0174 0.22122 0.0147 2.65e-4 0.0294 2.65e-4 0.0443 2.65e-4 0.87335 0 2.4213-0.24339 2.4213-0.24339-5e-3 -0.05638-9e-3 -0.18222-9e-3 -0.23858-0.15202-2.4309-0.75099-4.1629-0.75099-4.1629z" fill-rule="evenodd" stroke-width=".26458"/>
  <path id="path1855" d="m-115.6 32.166-1.198 0.32139-1.5541 0.86802 0.80309 1.3935 0.80736-0.37777c0.0262 0.25622 0.13892 0.80309 0.13892 0.80309 0.0305 1.5584-0.0954 3.2166-0.0954 3.2166 0.95484 0.12584 1.923 0.13893 1.923 0.13893s0.9722-0.01297 1.9228-0.13893c0 0-0.12583-1.6582-0.0954-3.2166 0 0 0.11729-0.54687 0.1432-0.80309l0.80309 0.37777 0.80308-1.3935-1.5498-0.86802-1.2022-0.32139s-0.47315 0.06519-0.82473 0.06519c-0.35185 0-0.82499-0.06519-0.82499-0.06519z" fill="#fff" fill-rule="evenodd" stroke="#000" stroke-width=".26458"/>
  <path id="path1859" d="m-116.69 38.391s-0.59924 1.732-0.74671 4.1629c-4e-3 0.05636-9e-3 0.18219-0.0131 0.23858 0 0 9e-3 0.0045 0.0219 0.0045 0.17792 0.02593 1.5843 0.23857 2.4004 0.23857h0.0433s4e-3 -0.12584 0.0174-0.22122c0.0305-0.33877 0.10846-1.1461 0.13037-1.5714 0.0174 0.42532 0.0954 1.2327 0.12583 1.5714 0.0128 0.09538 0.0174 0.22122 0.0174 0.22122 0.0147 2.65e-4 0.0294 2.65e-4 0.0444 2.65e-4 0.87335 0 2.4213-0.24339 2.4213-0.24339-5e-3 -0.05638-9e-3 -0.18222-9e-3 -0.23858-0.15201-2.4309-0.75099-4.1629-0.75099-4.1629z" fill="#fff" fill-rule="evenodd" stroke="#000" stroke-width=".26458"/>
  <path id="path1863" d="m-107.55 32.166-1.198 0.32139-1.5541 0.86802 0.80309 1.3935 0.80736-0.37777c0.0262 0.25622 0.13892 0.80309 0.13892 0.80309 0.0305 1.5584-0.0954 3.2166-0.0954 3.2166 0.95483 0.12584 1.923 0.13893 1.923 0.13893s0.9722-0.01297 1.9228-0.13893c0 0-0.12584-1.6582-0.0954-3.2166 0 0 0.11728-0.54687 0.1432-0.80309l0.80308 0.37777 0.80309-1.3935-1.5498-0.86802-1.2022-0.32139s-0.47314 0.06519-0.82472 0.06519c-0.35185 0-0.825-0.06519-0.825-0.06519z" fill-rule="evenodd" stroke="#000" stroke-width=".26458"/>
  <path id="path1867" d="m-108.65 38.391s-0.59924 1.732-0.74672 4.1629c-4e-3 0.05636-9e-3 0.18219-0.0131 0.23858 0 0 9e-3 0.0045 0.0219 0.0045 0.17794 0.02593 1.5843 0.23857 2.4004 0.23857h0.0433s4e-3 -0.12584 0.0173-0.22122c0.0305-0.33877 0.10847-1.1461 0.13038-1.5714 0.0174 0.42532 0.0954 1.2327 0.12583 1.5714 0.0128 0.09538 0.0174 0.22122 0.0174 0.22122 0.0147 2.65e-4 0.0294 2.65e-4 0.0443 2.65e-4 0.87335 0 2.4213-0.24339 2.4213-0.24339-5e-3 -0.05638-9e-3 -0.18222-9e-3 -0.23858-0.15202-2.4309-0.75099-4.1629-0.75099-4.1629z" fill-rule="evenodd"/>
  <path id="path1871" d="m-99.499 32.166-1.1979 0.32139-1.5541 0.86802 0.80309 1.3935 0.80736-0.37777c0.0262 0.25622 0.13892 0.80309 0.13892 0.80309 0.0305 1.5584-0.0954 3.2166-0.0954 3.2166 0.95484 0.12584 1.923 0.13893 1.923 0.13893s0.9722-0.01297 1.9228-0.13893c0 0-0.12583-1.6582-0.09538-3.2166 0 0 0.11728-0.54687 0.1432-0.80309l0.80309 0.37777 0.80309-1.3935-1.5498-0.86802-1.2022-0.32139s-0.47314 0.06519-0.82473 0.06519c-0.35185 0-0.82499-0.06519-0.825-0.06519z" fill="#f7b94b" fill-rule="evenodd" stroke="#000" stroke-width=".26458"/>
  <path id="path1875" d="m-100.6 38.391s-0.59924 1.732-0.74671 4.1629c-4e-3 0.05636-9e-3 0.18219-0.0131 0.23858 0 0 9e-3 0.0045 0.0219 0.0045 0.17793 0.02593 1.5843 0.23857 2.4004 0.23857h0.04328s0.0043-0.12584 0.01736-0.22122c0.03046-0.33877 0.10847-1.1461 0.13037-1.5714 0.01736 0.42532 0.09538 1.2327 0.12583 1.5714 0.01283 0.09538 0.01736 0.22122 0.01736 0.22122 0.01468 2.65e-4 0.02939 2.65e-4 0.04435 2.65e-4 0.87335 0 2.4213-0.24339 2.4213-0.24339-0.0045-0.05638-0.0088-0.18222-0.0088-0.23858-0.15201-2.4309-0.75099-4.1629-0.75099-4.1629z" fill="#f7b94b" fill-rule="evenodd" stroke="#000" stroke-width=".26458"/>
  <path id="path1879" d="m-91.451 32.166-1.1979 0.32139-1.5541 0.86802 0.80309 1.3935 0.80736-0.37777c0.02619 0.25622 0.13892 0.80309 0.13892 0.80309 0.03046 1.5584-0.09538 3.2166-0.09538 3.2166 0.95483 0.12584 1.923 0.13893 1.923 0.13893s0.9722-0.01297 1.9228-0.13893c0 0-0.12584-1.6582-0.09538-3.2166 0 0 0.11728-0.54687 0.1432-0.80309l0.80308 0.37777 0.80309-1.3935-1.5498-0.86802-1.2022-0.32139s-0.47314 0.06519-0.82473 0.06519c-0.35185 0-0.82499-0.06519-0.825-0.06519z" fill="#d95432" fill-rule="evenodd" stroke="#000" stroke-width=".26458"/>
  <path id="path1883" d="m-92.549 38.391s-0.59924 1.732-0.74672 4.1629c-0.0043 0.05636-0.0085 0.18219-0.0131 0.23858 0 0 0.0088 0.0045 0.02191 0.0045 0.17793 0.02593 1.5843 0.23857 2.4004 0.23857h0.04328s0.0043-0.12584 0.01736-0.22122c0.03046-0.33877 0.10847-1.1461 0.13038-1.5714 0.01736 0.42532 0.09537 1.2327 0.12583 1.5714 0.01283 0.09538 0.01736 0.22122 0.01736 0.22122 0.01468 2.65e-4 0.02939 2.65e-4 0.04435 2.65e-4 0.87335 0 2.4213-0.24339 2.4213-0.24339-0.0046-0.05638-0.0088-0.18222-0.0088-0.23858-0.15201-2.4309-0.75099-4.1629-0.75099-4.1629z" fill="#d95432" fill-rule="evenodd" stroke="#000" stroke-width=".26458"/>
  <path id="path700306" d="m-115.02 32.181 0.52917-0.0209v6.2558l-0.52807-0.0026z"/>
  <path id="path700308" d="m-113.42 38.32v-6.0502l-0.52917-0.10348v6.1495z"/>
  <path id="path700310" d="m-116.12 38.32v-6.0502l0.52917-0.10348v6.1495z"/>
  <path id="path700345" d="m-112.76 34.517v-2.0442l-0.38503-0.10454v6.0181h0.30148l-0.1127-1.9775 0.0612-1.4326z"/>
  <path id="path700677" d="m-112.83 33.159 1.2589 0.72684-0.22162 0.38386-1.0349-0.59748z" stroke="#000" stroke-width=".26458px"/>
  <path id="path700858" d="m-116.68 34.517v-2.0442l0.38503-0.10454v6.0181h-0.30148l0.1127-1.9775-0.0612-1.4326z"/>
  <path id="path700860" d="m-116.61 33.159-1.2589 0.72684 0.22162 0.38386 1.0349-0.59748z" stroke="#000" stroke-width=".26458px"/>
 </g>
</svg>
