<?xml version="1.0" encoding="UTF-8" standalone="no"?>
<!-- Created with Inkscape (http://www.inkscape.org/) -->

<svg
   width="39.710003mm"
   height="11.13669mm"
   viewBox="0 0 39.710003 11.13669"
   version="1.1"
   id="svg4891"
   inkscape:version="1.1.2 (0a00cf5339, 2022-02-04)"
   sodipodi:docname="025.svg"
   xmlns:inkscape="http://www.inkscape.org/namespaces/inkscape"
   xmlns:sodipodi="http://sodipodi.sourceforge.net/DTD/sodipodi-0.dtd"
   xmlns="http://www.w3.org/2000/svg"
   xmlns:svg="http://www.w3.org/2000/svg">
  <sodipodi:namedview
     id="namedview4893"
     pagecolor="#ffffff"
     bordercolor="#666666"
     borderopacity="1.0"
     inkscape:pageshadow="2"
     inkscape:pageopacity="0.0"
     inkscape:pagecheckerboard="0"
     inkscape:document-units="mm"
     showgrid="false"
     inkscape:zoom="0.69664703"
     inkscape:cx="874.90505"
     inkscape:cy="439.96456"
     inkscape:window-width="1920"
     inkscape:window-height="1016"
     inkscape:window-x="0"
     inkscape:window-y="0"
     inkscape:window-maximized="1"
     inkscape:current-layer="layer1" />
  <defs
     id="defs4888" />
  <g
     inkscape:label="Layer 1"
     inkscape:groupmode="layer"
     id="layer1"
     transform="translate(126.57751,-32.031404)">
    <path
       fill="#faff58"
       d="m -123.64392,32.166109 -1.19795,0.32139 -1.55407,0.868018 0.80308,1.393508 0.80736,-0.377772 c 0.0262,0.256222 0.13893,0.803089 0.13893,0.803089 0.0305,1.55837 -0.0954,3.216619 -0.0954,3.216619 0.95483,0.125836 1.92303,0.138933 1.92303,0.138933 0,0 0.9722,-0.01297 1.92276,-0.138933 0,0 -0.12584,-1.658249 -0.0954,-3.216619 0,0 0.11728,-0.546867 0.1432,-0.803089 l 0.80308,0.377772 0.80309,-1.393508 -1.5498,-0.868018 -1.20223,-0.32139 c 0,0 -0.47314,0.06519 -0.82472,0.06519 -0.35185,0 -0.825,-0.06519 -0.825,-0.06519 z"
       fill-rule="evenodd"
       id="path1847"
       style="fill:#275c84;fill-opacity:1;stroke:#000000;stroke-width:0.264583;stroke-opacity:1" />
    <path
       fill="#000000"
       d="m -124.74195,38.390961 c 0,0 -0.59924,1.732016 -0.74672,4.162928 -0.004,0.05636 -0.009,0.182192 -0.0131,0.238575 0,0 0.009,0.0045 0.0219,0.0045 0.17793,0.02593 1.58427,0.238574 2.40044,0.238574 h 0.0433 c 0,0 0.004,-0.125835 0.0174,-0.221218 0.0305,-0.338772 0.10847,-1.146122 0.13037,-1.571439 0.0174,0.425317 0.0954,1.232667 0.12584,1.571439 0.0128,0.09538 0.0174,0.221218 0.0174,0.221218 0.0147,2.65e-4 0.0294,2.65e-4 0.0443,2.65e-4 0.87335,0 2.42128,-0.24339 2.42128,-0.24339 -0.005,-0.05638 -0.009,-0.182219 -0.009,-0.238575 -0.15202,-2.430912 -0.75099,-4.162901 -0.75099,-4.162901 z"
       fill-rule="evenodd"
       id="path1851"
       style="stroke-width:0.264583" />
    <path
       fill="#faff58"
       d="m -115.59562,32.166109 -1.19795,0.32139 -1.55408,0.868018 0.80309,1.393508 0.80736,-0.377772 c 0.0262,0.256222 0.13892,0.803089 0.13892,0.803089 0.0305,1.55837 -0.0954,3.216619 -0.0954,3.216619 0.95484,0.125836 1.92303,0.138933 1.92303,0.138933 0,0 0.9722,-0.01297 1.92276,-0.138933 0,0 -0.12583,-1.658249 -0.0954,-3.216619 0,0 0.11729,-0.546867 0.1432,-0.803089 l 0.80309,0.377772 0.80308,-1.393508 -1.5498,-0.868018 -1.20222,-0.32139 c 0,0 -0.47315,0.06519 -0.82473,0.06519 -0.35185,0 -0.82499,-0.06519 -0.82499,-0.06519 z"
       fill-rule="evenodd"
       id="path1855"
       style="fill:#ffffff;fill-opacity:1;stroke:#000000;stroke-width:0.264583;stroke-opacity:1" />
    <path
       fill="#000000"
       d="m -116.69366,38.390961 c 0,0 -0.59924,1.732016 -0.74671,4.162928 -0.004,0.05636 -0.009,0.182192 -0.0131,0.238575 0,0 0.009,0.0045 0.0219,0.0045 0.17792,0.02593 1.58426,0.238574 2.40044,0.238574 h 0.0433 c 0,0 0.004,-0.125835 0.0174,-0.221218 0.0305,-0.338772 0.10846,-1.146122 0.13037,-1.571439 0.0174,0.425317 0.0954,1.232667 0.12583,1.571439 0.0128,0.09538 0.0174,0.221218 0.0174,0.221218 0.0147,2.65e-4 0.0294,2.65e-4 0.0444,2.65e-4 0.87335,0 2.42128,-0.24339 2.42128,-0.24339 -0.005,-0.05638 -0.009,-0.182219 -0.009,-0.238575 -0.15201,-2.430912 -0.75099,-4.162901 -0.75099,-4.162901 z"
       fill-rule="evenodd"
       id="path1859"
       style="fill:#ffffff;fill-opacity:1;stroke:#000000;stroke-width:0.264583;stroke-opacity:1" />
    <path
       fill="#faff58"
       d="m -107.54733,32.166109 -1.19795,0.32139 -1.55408,0.868018 0.80309,1.393508 0.80736,-0.377772 c 0.0262,0.256222 0.13892,0.803089 0.13892,0.803089 0.0305,1.55837 -0.0954,3.216619 -0.0954,3.216619 0.95483,0.125836 1.92303,0.138933 1.92303,0.138933 0,0 0.9722,-0.01297 1.92276,-0.138933 0,0 -0.12584,-1.658249 -0.0954,-3.216619 0,0 0.11728,-0.546867 0.1432,-0.803089 l 0.80308,0.377772 0.80309,-1.393508 -1.5498,-0.868018 -1.20223,-0.32139 c 0,0 -0.47314,0.06519 -0.82472,0.06519 -0.35185,0 -0.825,-0.06519 -0.825,-0.06519 z"
       fill-rule="evenodd"
       id="path1863"
       style="fill:#000000;fill-opacity:1;stroke:#000000;stroke-width:0.264583;stroke-opacity:1" />
    <path
       fill="#000000"
       d="m -108.64536,38.390961 c 0,0 -0.59924,1.732016 -0.74672,4.162928 -0.004,0.05636 -0.009,0.182192 -0.0131,0.238575 0,0 0.009,0.0045 0.0219,0.0045 0.17794,0.02593 1.58427,0.238574 2.40045,0.238574 h 0.0433 c 0,0 0.004,-0.125835 0.0173,-0.221218 0.0305,-0.338772 0.10847,-1.146122 0.13038,-1.571439 0.0174,0.425317 0.0954,1.232667 0.12583,1.571439 0.0128,0.09538 0.0174,0.221218 0.0174,0.221218 0.0147,2.65e-4 0.0294,2.65e-4 0.0443,2.65e-4 0.87335,0 2.42128,-0.24339 2.42128,-0.24339 -0.005,-0.05638 -0.009,-0.182219 -0.009,-0.238575 -0.15202,-2.430912 -0.75099,-4.162901 -0.75099,-4.162901 z"
       fill-rule="evenodd"
       id="path1867"
       style="stroke:none;stroke-width:0.264583;stroke-opacity:1" />
    <path
       fill="#faff58"
       d="m -99.499034,32.166109 -1.197946,0.32139 -1.55408,0.868018 0.80309,1.393508 0.80736,-0.377772 c 0.0262,0.256222 0.13892,0.803089 0.13892,0.803089 0.0305,1.55837 -0.0954,3.216619 -0.0954,3.216619 0.954838,0.125836 1.923031,0.138933 1.923031,0.138933 0,0 0.972198,-0.01297 1.922758,-0.138933 0,0 -0.125833,-1.658249 -0.09538,-3.216619 0,0 0.117285,-0.546867 0.143201,-0.803089 l 0.803087,0.377772 0.803087,-1.393508 -1.549802,-0.868018 -1.202224,-0.32139 c 0,0 -0.473144,0.06519 -0.824728,0.06519 -0.351851,0 -0.824994,-0.06519 -0.824997,-0.06519 z"
       fill-rule="evenodd"
       id="path1871"
       style="fill:#f7b94b;fill-opacity:1;stroke:#000000;stroke-width:0.264583;stroke-opacity:1" />
    <path
       fill="#000000"
       d="m -100.59707,38.390961 c 0,0 -0.59924,1.732016 -0.74671,4.162928 -0.004,0.05636 -0.009,0.182192 -0.0131,0.238575 0,0 0.009,0.0045 0.0219,0.0045 0.17793,0.02593 1.584264,0.238574 2.400443,0.238574 h 0.04328 c 0,0 0.0043,-0.125835 0.01736,-0.221218 0.03046,-0.338772 0.108466,-1.146122 0.130374,-1.571439 0.01736,0.425317 0.09538,1.232667 0.125833,1.571439 0.01283,0.09538 0.01736,0.221218 0.01736,0.221218 0.01468,2.65e-4 0.02939,2.65e-4 0.04435,2.65e-4 0.87335,0 2.421281,-0.24339 2.421281,-0.24339 -0.0045,-0.05638 -0.0088,-0.182219 -0.0088,-0.238575 -0.152014,-2.430912 -0.750991,-4.162901 -0.750991,-4.162901 z"
       fill-rule="evenodd"
       id="path1875"
       style="fill:#f7b94b;fill-opacity:1;stroke:#000000;stroke-width:0.264583;stroke-opacity:1" />
    <path
       fill="#faff58"
       d="m -91.45074,32.166109 -1.197948,0.32139 -1.554078,0.868018 0.803087,1.393508 0.80736,-0.377772 c 0.02619,0.256222 0.138925,0.803089 0.138925,0.803089 0.03046,1.55837 -0.09538,3.216619 -0.09538,3.216619 0.954833,0.125836 1.923026,0.138933 1.923026,0.138933 0,0 0.972203,-0.01297 1.922761,-0.138933 0,0 -0.125836,-1.658249 -0.09538,-3.216619 0,0 0.117282,-0.546867 0.143201,-0.803089 l 0.803084,0.377772 0.803087,-1.393508 -1.549802,-0.868018 -1.202224,-0.32139 c 0,0 -0.473144,0.06519 -0.824728,0.06519 -0.35185,0 -0.824994,-0.06519 -0.824997,-0.06519 z"
       fill-rule="evenodd"
       id="path1879"
       style="fill:#d95432;fill-opacity:1;stroke:#000000;stroke-width:0.264583;stroke-opacity:1" />
    <path
       fill="#000000"
       d="m -92.548771,38.390961 c 0,0 -0.599242,1.732016 -0.746715,4.162928 -0.0043,0.05636 -0.0085,0.182192 -0.0131,0.238575 0,0 0.0088,0.0045 0.02191,0.0045 0.17793,0.02593 1.584267,0.238574 2.400443,0.238574 h 0.04328 c 0,0 0.0043,-0.125835 0.01736,-0.221218 0.03046,-0.338772 0.108469,-1.146122 0.130377,-1.571439 0.01736,0.425317 0.09537,1.232667 0.12583,1.571439 0.01283,0.09538 0.01736,0.221218 0.01736,0.221218 0.01468,2.65e-4 0.02939,2.65e-4 0.04435,2.65e-4 0.87335,0 2.421282,-0.24339 2.421282,-0.24339 -0.0046,-0.05638 -0.0088,-0.182219 -0.0088,-0.238575 -0.152014,-2.430912 -0.750991,-4.162901 -0.750991,-4.162901 z"
       fill-rule="evenodd"
       id="path1883"
       style="fill:#d95432;fill-opacity:1;stroke:#000000;stroke-width:0.264583;stroke-opacity:1" />
    <path
       style="fill:#000000;fill-opacity:1;stroke:none;stroke-width:0.204428px;stroke-linecap:butt;stroke-linejoin:miter;stroke-opacity:1"
       d="m -115.02345,32.181296 0.52917,-0.0209 v 6.255835 l -0.52807,-0.0026 z"
       id="path700306"
       sodipodi:nodetypes="ccccc" />
    <path
       style="fill:#000000;fill-opacity:1;stroke:none;stroke-width:0.325475px;stroke-linecap:butt;stroke-linejoin:miter;stroke-opacity:1"
       d="m -113.41673,38.319788 v -6.0502 l -0.52917,-0.103479 v 6.149472 z"
       id="path700308" />
    <path
       style="fill:#000000;fill-opacity:1;stroke:none;stroke-width:0.325477px;stroke-linecap:butt;stroke-linejoin:miter;stroke-opacity:1"
       d="m -116.12479,38.319788 v -6.0502 l 0.52917,-0.103479 v 6.149472 z"
       id="path700310" />
    <path
       style="fill:#000000;fill-opacity:1;stroke:none;stroke-width:0.264583px;stroke-linecap:butt;stroke-linejoin:miter;stroke-opacity:1"
       d="m -112.75963,34.516853 v -2.044224 l -0.38503,-0.104537 v 6.018133 h 0.30148 l -0.1127,-1.977496 0.0612,-1.432586 z"
       id="path700345" />
    <path
       style="fill:#000000;fill-opacity:1;stroke:#000000;stroke-width:0.264583px;stroke-linecap:butt;stroke-linejoin:miter;stroke-opacity:1"
       d="m -112.83267,33.158614 1.25893,0.726837 -0.22162,0.383858 -1.03487,-0.597482 z"
       id="path700677" />
    <path
       style="fill:#000000;fill-opacity:1;stroke:none;stroke-width:0.264583px;stroke-linecap:butt;stroke-linejoin:miter;stroke-opacity:1"
       d="m -116.67851,34.516853 v -2.044224 l 0.38503,-0.104537 v 6.018133 h -0.30148 l 0.1127,-1.977496 -0.0612,-1.432586 z"
       id="path700858" />
    <path
       style="fill:#000000;fill-opacity:1;stroke:#000000;stroke-width:0.264583px;stroke-linecap:butt;stroke-linejoin:miter;stroke-opacity:1"
       d="m -116.60547,33.158614 -1.25893,0.726837 0.22162,0.383858 1.03487,-0.597482 z"
       id="path700860" />
  </g>
</svg>
