<?xml version="1.0" encoding="UTF-8"?>
<!-- Created with Inkscape (http://www.inkscape.org/) -->
<svg id="svg5245" width="39.722mm" height="11.145mm" version="1.1" viewBox="0 0 39.722 11.145" xmlns="http://www.w3.org/2000/svg">
 <g id="layer1" transform="translate(12.265 -98.111)" fill-rule="evenodd">
  <path id="path1891" d="m-9.3195 98.255-1.198 0.32139-1.5541 0.86802 0.80309 1.3935 0.80736-0.37778c0.02618 0.25623 0.13892 0.80309 0.13892 0.80309 0.03046 1.5584-0.09538 3.2166-0.09538 3.2166 0.95483 0.12584 1.923 0.13893 1.923 0.13893s0.9722-0.0132 1.9228-0.13893c0 0-0.12583-1.6583-0.095377-3.2166 0 0 0.11728-0.54686 0.1432-0.80309l0.80309 0.37778 0.80309-1.3935-1.5498-0.86802-1.2022-0.32139s-0.47314 0.06519-0.82473 0.06519c-0.35185 0-0.82499-0.06519-0.82499-0.06519z" fill="#faff58" stroke="#000" stroke-miterlimit="16.248" stroke-width=".28194"/>
  <path id="path1893" d="m-10.418 104.48s-0.59924 1.732-0.74672 4.1629c-0.0043 0.0564-0.0085 0.18222-0.01309 0.23858 0 0 0.0088 4e-3 0.02191 4e-3 0.17793 0.0259 1.5843 0.23857 2.4004 0.23857h0.043281s0.00428-0.12584 0.017365-0.22119c0.030456-0.33877 0.10847-1.1461 0.13038-1.5714 0.017365 0.42532 0.095376 1.2327 0.12583 1.5714 0.012824 0.0954 0.017365 0.22119 0.017365 0.22119 0.014695 2.7e-4 0.029388 2.7e-4 0.044349 2.7e-4 0.87335 0 2.4213-0.2434 2.4213-0.2434-0.00454-0.0563-0.00882-0.18219-0.00882-0.23857-0.15201-2.4309-0.75099-4.1629-0.75099-4.1629z" stroke-width=".26458"/>
  <path id="path1897" d="m-1.2713 98.255-1.1979 0.32139-1.5541 0.86802 0.80309 1.3935 0.80736-0.37778c0.026194 0.25623 0.13892 0.80309 0.13892 0.80309 0.030456 1.5584-0.095377 3.2166-0.095377 3.2166 0.95483 0.12584 1.923 0.13893 1.923 0.13893s0.9722-0.0132 1.9228-0.13893c0 0-0.12583-1.6583-0.095377-3.2166 0 0 0.11728-0.54686 0.1432-0.80309l0.80308 0.37778 0.80309-1.3935-1.5498-0.86802-1.2022-0.32139s-0.47314 0.06519-0.82473 0.06519c-0.35185 0-0.82499-0.06519-0.82499-0.06519z" stroke="#000" stroke-width=".26458"/>
  <path id="path1901" d="m-2.3693 104.48s-0.59924 1.732-0.74672 4.1629c-0.00428 0.0564-0.00855 0.18222-0.013092 0.23858 0 0 0.00882 4e-3 0.021908 4e-3 0.17793 0.0259 1.5843 0.23857 2.4004 0.23857h0.04328s0.004286-0.12584 0.017357-0.22119c0.030456-0.33877 0.10847-1.1461 0.13038-1.5714 0.017357 0.42532 0.095374 1.2327 0.12583 1.5714 0.012832 0.0954 0.017357 0.22119 0.017357 0.22119 0.014684 2.7e-4 0.02939 2.7e-4 0.04435 2.7e-4 0.87335 0 2.4213-0.2434 2.4213-0.2434-0.00455-0.0563-0.00881-0.18219-0.00881-0.23857-0.15201-2.4309-0.75099-4.1629-0.75099-4.1629z"/>
  <path id="path1905" d="m6.777 98.255-1.198 0.32139-1.5541 0.86802 0.80309 1.3935 0.80736-0.37778c0.026194 0.25623 0.13892 0.80309 0.13892 0.80309 0.030456 1.5584-0.095377 3.2166-0.095377 3.2166 0.95483 0.12584 1.923 0.13893 1.923 0.13893s0.9722-0.0132 1.9228-0.13893c0 0-0.12584-1.6583-0.095377-3.2166 0 0 0.11728-0.54686 0.1432-0.80309l0.80308 0.37778 0.80309-1.3935-1.5498-0.86802-1.2022-0.32139s-0.47314 0.06519-0.82473 0.06519c-0.35185 0-0.82499-0.06519-0.82499-0.06519z" fill="#ad1e32" stroke="#000" stroke-width=".26458"/>
  <path id="path1909" d="m5.679 104.48s-0.59924 1.732-0.74672 4.1629c-0.00429 0.0564-0.00855 0.18222-0.013097 0.23858 0 0 0.00881 4e-3 0.021908 4e-3 0.17793 0.0259 1.5843 0.23857 2.4004 0.23857h0.043278s0.00429-0.12584 0.017357-0.22119c0.030456-0.33877 0.10847-1.1461 0.13038-1.5714 0.017357 0.42532 0.095374 1.2327 0.12583 1.5714 0.012832 0.0954 0.017357 0.22119 0.017357 0.22119 0.014684 2.7e-4 0.02939 2.7e-4 0.04435 2.7e-4 0.87335 0 2.4213-0.2434 2.4213-0.2434-0.0046-0.0563-0.0088-0.18219-0.0088-0.23857-0.15201-2.4309-0.75099-4.1629-0.75099-4.1629z" fill="#ad1e32" stroke="#000" stroke-width=".26458"/>
  <path id="path1913" d="m14.825 98.255-1.1979 0.32139-1.5541 0.86802 0.80309 1.3935 0.80736-0.37778c0.02619 0.25623 0.13892 0.80309 0.13892 0.80309 0.03046 1.5584-0.09538 3.2166-0.09538 3.2166 0.95483 0.12584 1.923 0.13893 1.923 0.13893s0.9722-0.0132 1.9228-0.13893c0 0-0.12583-1.6583-0.09538-3.2166 0 0 0.11728-0.54686 0.1432-0.80309l0.80309 0.37778 0.80309-1.3935-1.5498-0.86802-1.2022-0.32139s-0.47314 0.06519-0.82473 0.06519c-0.35185 0-0.82499-0.06519-0.825-0.06519z" fill="#56aebc" stroke="#000" stroke-width=".26458"/>
  <path id="path1917" d="m13.727 104.48s-0.59924 1.732-0.74672 4.1629c-0.0043 0.0564-0.0085 0.18222-0.0131 0.23858 0 0 0.0088 4e-3 0.02191 4e-3 0.17793 0.0259 1.5843 0.23857 2.4004 0.23857h0.04328s0.0043-0.12584 0.01736-0.22119c0.03046-0.33877 0.10847-1.1461 0.13037-1.5714 0.01736 0.42532 0.09538 1.2327 0.12583 1.5714 0.01283 0.0954 0.01736 0.22119 0.01736 0.22119 0.01468 2.7e-4 0.02939 2.7e-4 0.04435 2.7e-4 0.87335 0 2.4213-0.2434 2.4213-0.2434-0.0046-0.0563-0.0088-0.18219-0.0088-0.23857-0.15201-2.4309-0.75099-4.1629-0.75099-4.1629z" fill="#56aebc" stroke="#000" stroke-width=".26458"/>
  <path id="path1921" d="m22.874 98.255-1.1979 0.32139-1.5541 0.86802 0.80309 1.3935 0.80736-0.37778c0.02619 0.25623 0.13892 0.80309 0.13892 0.80309 0.03046 1.5584-0.09538 3.2166-0.09538 3.2166 0.95483 0.12584 1.923 0.13893 1.923 0.13893s0.9722-0.0132 1.9228-0.13893c0 0-0.12584-1.6583-0.09538-3.2166 0 0 0.11728-0.54686 0.1432-0.80309l0.80308 0.37778 0.80309-1.3935-1.5498-0.86802-1.2022-0.32139s-0.47314 0.06519-0.82473 0.06519c-0.35185 0-0.82499-0.06519-0.825-0.06519z" fill="#fff" stroke="#000" stroke-width=".26458"/>
  <path id="path1925" d="m21.776 104.48s-0.59924 1.732-0.74672 4.1629c-0.0043 0.0564-0.0085 0.18222-0.0131 0.23858 0 0 0.0088 4e-3 0.02191 4e-3 0.17793 0.0259 1.5843 0.23857 2.4004 0.23857h0.04328s0.0043-0.12584 0.01736-0.22119c0.03046-0.33877 0.10847-1.1461 0.13038-1.5714 0.01736 0.42532 0.09537 1.2327 0.12583 1.5714 0.01283 0.0954 0.01736 0.22119 0.01736 0.22119 0.01468 2.7e-4 0.02939 2.7e-4 0.04435 2.7e-4 0.87335 0 2.4213-0.2434 2.4213-0.2434-0.0046-0.0563-0.0088-0.18219-0.0088-0.23857-0.15201-2.4309-0.75099-4.1629-0.75099-4.1629z" fill="#fff" stroke="#000" stroke-width=".26458"/>
 </g>
</svg>
