<?xml version="1.0" encoding="UTF-8" standalone="no"?>
<!-- Created with Inkscape (http://www.inkscape.org/) -->

<svg
   width="39.721924mm"
   height="11.145005mm"
   viewBox="0 0 39.721924 11.145005"
   version="1.1"
   id="svg5245"
   inkscape:version="1.1.2 (0a00cf5339, 2022-02-04)"
   sodipodi:docname="026.svg"
   xmlns:inkscape="http://www.inkscape.org/namespaces/inkscape"
   xmlns:sodipodi="http://sodipodi.sourceforge.net/DTD/sodipodi-0.dtd"
   xmlns="http://www.w3.org/2000/svg"
   xmlns:svg="http://www.w3.org/2000/svg">
  <sodipodi:namedview
     id="namedview5247"
     pagecolor="#ffffff"
     bordercolor="#666666"
     borderopacity="1.0"
     inkscape:pageshadow="2"
     inkscape:pageopacity="0.0"
     inkscape:pagecheckerboard="0"
     inkscape:document-units="mm"
     showgrid="false"
     inkscape:zoom="0.69664703"
     inkscape:cx="442.83545"
     inkscape:cy="190.19675"
     inkscape:window-width="1920"
     inkscape:window-height="1016"
     inkscape:window-x="0"
     inkscape:window-y="0"
     inkscape:window-maximized="1"
     inkscape:current-layer="layer1" />
  <defs
     id="defs5242" />
  <g
     inkscape:label="Layer 1"
     inkscape:groupmode="layer"
     id="layer1"
     transform="translate(12.265057,-98.111396)">
    <path
       stroke="#000000"
       stroke-width="0.281945"
       stroke-miterlimit="16.2479"
       stroke-linecap="butt"
       d="m -9.3195463,98.25494 -1.1979507,0.321389 -1.554076,0.868019 0.803086,1.393512 0.807361,-0.37778 c 0.02618,0.25623 0.138924,0.80309 0.138924,0.80309 0.03046,1.55835 -0.09538,3.21662 -0.09538,3.21662 0.9548334,0.12584 1.9230258,0.13893 1.9230258,0.13893 0,0 0.9721993,-0.0132 1.9227588,-0.13893 0,0 -0.1258332,-1.65827 -0.095377,-3.21662 0,0 0.1172837,-0.54686 0.1431986,-0.80309 l 0.8030861,0.37778 0.8030871,-1.393512 -1.5498024,-0.868019 -1.2022249,-0.321389 c 0,0 -0.4731427,0.06519 -0.8247266,0.06519 -0.3518514,0 -0.8249941,-0.06519 -0.8249941,-0.06519 z"
       fill-rule="evenodd"
       id="path1891"
       style="fill:#faff58;fill-opacity:1" />
    <path
       fill="#000000"
       d="m -10.417579,104.47979 c 0,0 -0.599242,1.73202 -0.746715,4.1629 -0.0043,0.0564 -0.0085,0.18222 -0.01309,0.23858 0,0 0.0088,0.004 0.02191,0.004 0.177929,0.0259 1.5842656,0.23857 2.4004427,0.23857 h 0.043281 c 0,0 0.00428,-0.12584 0.017365,-0.22119 0.030456,-0.33877 0.1084675,-1.14612 0.130375,-1.57144 0.017365,0.42532 0.095376,1.23267 0.1258327,1.57144 0.012824,0.0954 0.017365,0.22119 0.017365,0.22119 0.014695,2.7e-4 0.029388,2.7e-4 0.044349,2.7e-4 0.8733499,0 2.4212814,-0.2434 2.4212814,-0.2434 -0.00454,-0.0563 -0.00882,-0.18219 -0.00882,-0.23857 -0.1520145,-2.43089 -0.7509904,-4.1629 -0.7509904,-4.1629 z"
       fill-rule="evenodd"
       id="path1893"
       style="stroke-width:0.264583" />
    <path
       fill="#faff58"
       d="m -1.2712526,98.25494 -1.1979487,0.321389 -1.554077,0.868019 0.8030866,1.393512 0.8073599,-0.37778 c 0.026194,0.25623 0.1389247,0.80309 0.1389247,0.80309 0.030456,1.55835 -0.095377,3.21662 -0.095377,3.21662 0.9548337,0.12584 1.92302609,0.13893 1.92302609,0.13893 0,0 0.97220086,-0.0132 1.92275881,-0.13893 0,0 -0.1258332,-1.65827 -0.095377,-3.21662 0,0 0.1172845,-0.54686 0.1432004,-0.80309 L 2.3274087,100.83786 3.1304945,99.444348 1.5806937,98.576329 0.37846939,98.25494 c 0,0 -0.47314378,0.06519 -0.8247274,0.06519 -0.35185085,0 -0.82499459,-0.06519 -0.82499459,-0.06519 z"
       fill-rule="evenodd"
       id="path1897"
       style="fill:#000000;fill-opacity:1;stroke:#000000;stroke-width:0.264583;stroke-opacity:1" />
    <path
       fill="#000000"
       d="m -2.3692841,104.47979 c 0,0 -0.599242,1.73202 -0.746715,4.1629 -0.00428,0.0564 -0.00855,0.18222 -0.013092,0.23858 0,0 0.00882,0.004 0.021908,0.004 0.1779291,0.0259 1.5842667,0.23857 2.4004428,0.23857 h 0.0432805 c 0,0 0.004286,-0.12584 0.0173567,-0.22119 0.0304562,-0.33877 0.10846858,-1.14612 0.13037608,-1.57144 0.0173567,0.42532 0.0953744,1.23267 0.12583054,1.57144 0.0128323,0.0954 0.0173567,0.22119 0.0173567,0.22119 0.0146844,2.7e-4 0.0293899,2.7e-4 0.0443495,2.7e-4 0.87334989,0 2.42128148,-0.2434 2.42128148,-0.2434 -0.00455,-0.0563 -0.00881,-0.18219 -0.00881,-0.23857 -0.1520138,-2.43089 -0.7509907,-4.1629 -0.7509907,-4.1629 z"
       fill-rule="evenodd"
       id="path1901"
       style="stroke:none;stroke-width:0.264583;stroke-opacity:1" />
    <path
       fill="#faff58"
       d="m 6.7770428,98.25494 -1.1979513,0.321389 -1.5540778,0.868019 0.8030872,1.393512 0.8073601,-0.37778 c 0.026194,0.25623 0.1389248,0.80309 0.1389248,0.80309 0.030456,1.55835 -0.095377,3.21662 -0.095377,3.21662 0.9548336,0.12584 1.9230287,0.13893 1.9230287,0.13893 0,0 0.9722008,-0.0132 1.9227588,-0.13893 0,0 -0.1258358,-1.65827 -0.095377,-3.21662 0,0 0.1172845,-0.54686 0.1432004,-0.80309 l 0.8030843,0.37778 0.803087,-1.393512 L 9.6289892,98.576329 8.4267649,98.25494 c 0,0 -0.4731438,0.06519 -0.8247274,0.06519 -0.3518509,0 -0.824992,-0.06519 -0.8249947,-0.06519 z"
       fill-rule="evenodd"
       id="path1905"
       style="fill:#ad1e32;fill-opacity:1;stroke:#000000;stroke-width:0.264583;stroke-opacity:1" />
    <path
       fill="#000000"
       d="m 5.6790088,104.47979 c 0,0 -0.5992416,1.73202 -0.746715,4.1629 -0.00429,0.0564 -0.00855,0.18222 -0.013097,0.23858 0,0 0.00881,0.004 0.021908,0.004 0.1779323,0.0259 1.5842668,0.23857 2.4004455,0.23857 h 0.043278 c 0,0 0.00429,-0.12584 0.017357,-0.22119 0.030456,-0.33877 0.1084685,-1.14612 0.130376,-1.57144 0.017357,0.42532 0.095374,1.23267 0.1258306,1.57144 0.012832,0.0954 0.017357,0.22119 0.017357,0.22119 0.014684,2.7e-4 0.02939,2.7e-4 0.04435,2.7e-4 0.8733499,0 2.4212821,-0.2434 2.4212821,-0.2434 -0.0046,-0.0563 -0.0088,-0.18219 -0.0088,-0.23857 -0.152014,-2.43089 -0.750991,-4.1629 -0.750991,-4.1629 z"
       fill-rule="evenodd"
       id="path1909"
       style="fill:#ad1e32;fill-opacity:1;stroke:#000000;stroke-width:0.264583;stroke-opacity:1" />
    <path
       fill="#faff58"
       d="m 14.825337,98.25494 -1.197949,0.321389 -1.554077,0.868019 0.803087,1.393512 0.80736,-0.37778 c 0.02619,0.25623 0.138925,0.80309 0.138925,0.80309 0.03046,1.55835 -0.09538,3.21662 -0.09538,3.21662 0.954833,0.12584 1.923026,0.13893 1.923026,0.13893 0,0 0.972198,-0.0132 1.922758,-0.13893 0,0 -0.125833,-1.65827 -0.09538,-3.21662 0,0 0.117285,-0.54686 0.143201,-0.80309 l 0.803087,0.37778 0.803087,-1.393512 -1.549802,-0.868019 -1.202224,-0.321389 c 0,0 -0.473144,0.06519 -0.824728,0.06519 -0.351851,0 -0.824994,-0.06519 -0.824997,-0.06519 z"
       fill-rule="evenodd"
       id="path1913"
       style="fill:#56aebc;fill-opacity:1;stroke:#000000;stroke-width:0.264583;stroke-opacity:1" />
    <path
       fill="#000000"
       d="m 13.727306,104.47979 c 0,0 -0.599242,1.73202 -0.746715,4.1629 -0.0043,0.0564 -0.0085,0.18222 -0.0131,0.23858 0,0 0.0088,0.004 0.02191,0.004 0.17793,0.0259 1.584264,0.23857 2.400443,0.23857 h 0.04328 c 0,0 0.0043,-0.12584 0.01736,-0.22119 0.03046,-0.33877 0.108466,-1.14612 0.130374,-1.57144 0.01736,0.42532 0.09538,1.23267 0.125833,1.57144 0.01283,0.0954 0.01736,0.22119 0.01736,0.22119 0.01468,2.7e-4 0.02939,2.7e-4 0.04435,2.7e-4 0.87335,0 2.421281,-0.2434 2.421281,-0.2434 -0.0046,-0.0563 -0.0088,-0.18219 -0.0088,-0.23857 -0.152014,-2.43089 -0.750991,-4.1629 -0.750991,-4.1629 z"
       fill-rule="evenodd"
       id="path1917"
       style="fill:#56aebc;fill-opacity:1;stroke:#000000;stroke-width:0.264583;stroke-opacity:1" />
    <path
       fill="#faff58"
       d="m 22.873631,98.25494 -1.197948,0.321389 -1.554078,0.868019 0.803087,1.393512 0.80736,-0.37778 c 0.02619,0.25623 0.138925,0.80309 0.138925,0.80309 0.03046,1.55835 -0.09538,3.21662 -0.09538,3.21662 0.954833,0.12584 1.923026,0.13893 1.923026,0.13893 0,0 0.972203,-0.0132 1.922761,-0.13893 0,0 -0.125836,-1.65827 -0.09538,-3.21662 0,0 0.117282,-0.54686 0.143201,-0.80309 l 0.803084,0.37778 0.803087,-1.393512 -1.549802,-0.868019 -1.202224,-0.321389 c 0,0 -0.473144,0.06519 -0.824728,0.06519 -0.35185,0 -0.824994,-0.06519 -0.824997,-0.06519 z"
       fill-rule="evenodd"
       id="path1921"
       style="fill:#ffffff;fill-opacity:1;stroke:#000000;stroke-width:0.264583;stroke-opacity:1" />
    <path
       fill="#000000"
       d="m 21.7756,104.47979 c 0,0 -0.599242,1.73202 -0.746715,4.1629 -0.0043,0.0564 -0.0085,0.18222 -0.0131,0.23858 0,0 0.0088,0.004 0.02191,0.004 0.17793,0.0259 1.584267,0.23857 2.400443,0.23857 h 0.04328 c 0,0 0.0043,-0.12584 0.01736,-0.22119 0.03046,-0.33877 0.108469,-1.14612 0.130377,-1.57144 0.01736,0.42532 0.09537,1.23267 0.12583,1.57144 0.01283,0.0954 0.01736,0.22119 0.01736,0.22119 0.01468,2.7e-4 0.02939,2.7e-4 0.04435,2.7e-4 0.87335,0 2.421282,-0.2434 2.421282,-0.2434 -0.0046,-0.0563 -0.0088,-0.18219 -0.0088,-0.23857 -0.152014,-2.43089 -0.750991,-4.1629 -0.750991,-4.1629 z"
       fill-rule="evenodd"
       id="path1925"
       style="fill:#ffffff;fill-opacity:1;stroke:#000000;stroke-width:0.264583;stroke-opacity:1" />
  </g>
</svg>
