<?xml version="1.0" encoding="UTF-8" standalone="no"?>
<!-- Created with Inkscape (http://www.inkscape.org/) -->

<svg
   width="39.709969mm"
   height="11.146006mm"
   viewBox="0 0 39.709969 11.146006"
   version="1.1"
   id="svg5765"
   inkscape:version="1.1.2 (0a00cf5339, 2022-02-04)"
   sodipodi:docname="030.svg"
   xmlns:inkscape="http://www.inkscape.org/namespaces/inkscape"
   xmlns:sodipodi="http://sodipodi.sourceforge.net/DTD/sodipodi-0.dtd"
   xmlns="http://www.w3.org/2000/svg"
   xmlns:svg="http://www.w3.org/2000/svg">
  <sodipodi:namedview
     id="namedview5767"
     pagecolor="#ffffff"
     bordercolor="#666666"
     borderopacity="1.0"
     inkscape:pageshadow="2"
     inkscape:pageopacity="0.0"
     inkscape:pagecheckerboard="0"
     inkscape:document-units="mm"
     showgrid="false"
     inkscape:zoom="0.69664703"
     inkscape:cx="75.360976"
     inkscape:cy="20.813984"
     inkscape:window-width="1920"
     inkscape:window-height="1016"
     inkscape:window-x="0"
     inkscape:window-y="0"
     inkscape:window-maximized="1"
     inkscape:current-layer="layer1" />
  <defs
     id="defs5762" />
  <g
     inkscape:label="Layer 1"
     inkscape:groupmode="layer"
     id="layer1"
     transform="translate(-85.15842,-142.73735)">
    <path
       fill="#faff58"
       d="m 88.092016,142.88089 -1.197951,0.32139 -1.554076,0.86802 0.803087,1.39351 0.807361,-0.37777 c 0.02618,0.25622 0.138924,0.80309 0.138924,0.80309 0.03046,1.55834 -0.09538,3.21662 -0.09538,3.21662 0.954834,0.12583 1.923026,0.13893 1.923026,0.13893 0,0 0.972199,-0.0132 1.922759,-0.13893 0,0 -0.125833,-1.65828 -0.09538,-3.21662 0,0 0.117284,-0.54687 0.143199,-0.80309 l 0.803086,0.37777 0.803087,-1.39351 -1.549802,-0.86802 -1.202225,-0.32139 c 0,0 -0.473143,0.0652 -0.824727,0.0652 -0.351851,0 -0.824994,-0.0652 -0.824994,-0.0652 z"
       fill-rule="evenodd"
       id="path2015"
       style="fill:#23cafc;fill-opacity:1;stroke:#000000;stroke-width:0.264583;stroke-opacity:1" />
    <path
       fill="#000000"
       d="m 86.993984,149.10575 c 0,0 -0.599243,1.73201 -0.746716,4.1629 -0.0043,0.0564 -0.0085,0.18222 -0.01309,0.23857 0,0 0.0088,0.005 0.02191,0.005 0.177929,0.0259 1.584266,0.23857 2.400443,0.23857 h 0.04328 c 0,0 0.0043,-0.12583 0.01736,-0.22119 0.03046,-0.33877 0.108468,-1.14612 0.130375,-1.57144 0.01736,0.42532 0.09538,1.23267 0.125833,1.57144 0.01282,0.0954 0.01736,0.22119 0.01736,0.22119 0.01469,2.7e-4 0.02939,2.7e-4 0.04435,2.7e-4 0.87335,0 2.421282,-0.24339 2.421282,-0.24339 -0.0045,-0.0564 -0.0088,-0.18219 -0.0088,-0.23858 -0.152015,-2.43088 -0.750991,-4.1629 -0.750991,-4.1629 z"
       fill-rule="evenodd"
       id="path2019"
       style="stroke-width:0.264583" />
    <path
       stroke="#000000"
       stroke-width="0.281945"
       stroke-miterlimit="16.2479"
       stroke-linecap="butt"
       d="m 96.140312,142.88089 -1.197951,0.32139 -1.554077,0.86802 0.803087,1.39351 0.807359,-0.37777 c 0.02619,0.25622 0.138925,0.80309 0.138925,0.80309 0.03046,1.55834 -0.09538,3.21662 -0.09538,3.21662 0.954834,0.12583 1.923026,0.13893 1.923026,0.13893 0,0 0.972201,-0.0132 1.922759,-0.13893 0,0 -0.125833,-1.65828 -0.09538,-3.21662 0,0 0.117284,-0.54687 0.1432,-0.80309 l 0.803085,0.37777 0.803085,-1.39351 -1.5498,-0.86802 -1.202225,-0.32139 c 0,0 -0.473143,0.0652 -0.824727,0.0652 -0.351851,0 -0.824992,-0.0652 -0.824992,-0.0652 z"
       fill-rule="evenodd"
       id="path2025" />
    <path
       fill="#000000"
       d="m 95.042278,149.10575 c 0,0 -0.599242,1.73201 -0.746715,4.1629 -0.0043,0.0564 -0.0085,0.18222 -0.01309,0.23857 0,0 0.0088,0.005 0.02191,0.005 0.177929,0.0259 1.584267,0.23857 2.400443,0.23857 h 0.04328 c 0,0 0.0043,-0.12583 0.01736,-0.22119 0.03046,-0.33877 0.108468,-1.14612 0.130376,-1.57144 0.01736,0.42532 0.09537,1.23267 0.125831,1.57144 0.01283,0.0954 0.01736,0.22119 0.01736,0.22119 0.01469,2.7e-4 0.02939,2.7e-4 0.04435,2.7e-4 0.87335,0 2.421281,-0.24339 2.421281,-0.24339 -0.0046,-0.0564 -0.0088,-0.18219 -0.0088,-0.23858 -0.152013,-2.43088 -0.75099,-4.1629 -0.75099,-4.1629 z"
       fill-rule="evenodd"
       id="path2027"
       style="fill:#000000;fill-opacity:0;stroke:#000000;stroke-width:0.264583;stroke-opacity:1" />
    <path
       fill="#faff58"
       d="m 112.2369,142.88089 -1.19795,0.32139 -1.55408,0.86802 0.80309,1.39351 0.80736,-0.37777 c 0.0262,0.25622 0.13892,0.80309 0.13892,0.80309 0.0305,1.55834 -0.0954,3.21662 -0.0954,3.21662 0.95483,0.12583 1.92302,0.13893 1.92302,0.13893 0,0 0.9722,-0.0132 1.92276,-0.13893 0,0 -0.12583,-1.65828 -0.0954,-3.21662 0,0 0.11728,-0.54687 0.1432,-0.80309 l 0.80308,0.37777 0.80309,-1.39351 -1.5498,-0.86802 -1.20223,-0.32139 c 0,0 -0.47314,0.0652 -0.82472,0.0652 -0.35185,0 -0.825,-0.0652 -0.825,-0.0652 z"
       fill-rule="evenodd"
       id="path2039"
       style="fill:#feff59;fill-opacity:1;stroke:#000000;stroke-width:0.264583;stroke-opacity:1" />
    <path
       fill="#000000"
       d="m 111.13887,149.10575 c 0,0 -0.59924,1.73201 -0.74672,4.1629 -0.004,0.0564 -0.009,0.18222 -0.0131,0.23857 0,0 0.009,0.005 0.0219,0.005 0.17793,0.0259 1.58427,0.23857 2.40045,0.23857 h 0.0433 c 0,0 0.004,-0.12583 0.0173,-0.22119 0.0305,-0.33877 0.10847,-1.14612 0.13038,-1.57144 0.0174,0.42532 0.0954,1.23267 0.12583,1.57144 0.0128,0.0954 0.0174,0.22119 0.0174,0.22119 0.0147,2.7e-4 0.0294,2.7e-4 0.0443,2.7e-4 0.87335,0 2.42128,-0.24339 2.42128,-0.24339 -0.005,-0.0564 -0.009,-0.18219 -0.009,-0.23858 -0.15202,-2.43088 -0.75099,-4.1629 -0.75099,-4.1629 z"
       fill-rule="evenodd"
       id="path2043"
       style="fill:#feff59;fill-opacity:1;stroke:#000000;stroke-width:0.264583;stroke-opacity:1" />
    <path
       fill="#faff58"
       d="m 120.28519,142.88089 -1.19795,0.32139 -1.55407,0.86802 0.80308,1.39351 0.80736,-0.37777 c 0.0262,0.25622 0.13893,0.80309 0.13893,0.80309 0.0305,1.55834 -0.0954,3.21662 -0.0954,3.21662 0.95484,0.12583 1.92303,0.13893 1.92303,0.13893 0,0 0.9722,-0.0132 1.92276,-0.13893 0,0 -0.12584,-1.65828 -0.0954,-3.21662 0,0 0.11728,-0.54687 0.1432,-0.80309 l 0.80309,0.37777 0.80308,-1.39351 -1.5498,-0.86802 -1.20222,-0.32139 c 0,0 -0.47315,0.0652 -0.82473,0.0652 -0.35185,0 -0.82499,-0.0652 -0.825,-0.0652 z"
       fill-rule="evenodd"
       id="path2047"
       style="fill:#2d9b78;fill-opacity:1;stroke:#000000;stroke-width:0.264583;stroke-opacity:1" />
    <path
       fill="#000000"
       d="m 119.18716,149.10575 c 0,0 -0.59924,1.73201 -0.74671,4.1629 -0.004,0.0564 -0.009,0.18222 -0.0131,0.23857 0,0 0.009,0.005 0.0219,0.005 0.17793,0.0259 1.58426,0.23857 2.40044,0.23857 h 0.0433 c 0,0 0.004,-0.12583 0.0174,-0.22119 0.0305,-0.33877 0.10847,-1.14612 0.13037,-1.57144 0.0174,0.42532 0.0954,1.23267 0.12583,1.57144 0.0128,0.0954 0.0174,0.22119 0.0174,0.22119 0.0147,2.7e-4 0.0294,2.7e-4 0.0444,2.7e-4 0.87335,0 2.42128,-0.24339 2.42128,-0.24339 -0.005,-0.0564 -0.009,-0.18219 -0.009,-0.23858 -0.15201,-2.43088 -0.75099,-4.1629 -0.75099,-4.1629 z"
       fill-rule="evenodd"
       id="path2051"
       style="stroke:none;stroke-width:0.264583;stroke-opacity:1" />
    <path
       fill="#faff58"
       d="m 104.1886,142.88089 -1.19795,0.32139 -1.55407,0.86802 0.80308,1.39351 0.80736,-0.37777 c 0.0262,0.25622 0.13893,0.80309 0.13893,0.80309 0.0304,1.55834 -0.0954,3.21662 -0.0954,3.21662 0.95483,0.12583 1.92303,0.13893 1.92303,0.13893 0,0 0.9722,-0.0132 1.92276,-0.13893 0,0 -0.12584,-1.65828 -0.0954,-3.21662 0,0 0.11729,-0.54687 0.1432,-0.80309 l 0.80309,0.37777 0.80308,-1.39351 -1.5498,-0.86802 -1.20222,-0.32139 c 0,0 -0.47315,0.0652 -0.82473,0.0652 -0.35185,0 -0.825,-0.0652 -0.825,-0.0652 z"
       fill-rule="evenodd"
       id="path808506"
       style="fill:#d2463c;fill-opacity:1;stroke:#000000;stroke-width:0.264583;stroke-opacity:1" />
    <path
       fill="#000000"
       d="m 103.09057,149.10575 c 0,0 -0.59924,1.73201 -0.74671,4.1629 -0.004,0.0564 -0.009,0.18222 -0.0131,0.23857 0,0 0.009,0.005 0.0219,0.005 0.17793,0.0259 1.58426,0.23857 2.40044,0.23857 h 0.0433 c 0,0 0.004,-0.12583 0.0174,-0.22119 0.0305,-0.33877 0.10846,-1.14612 0.13037,-1.57144 0.0174,0.42532 0.0954,1.23267 0.12583,1.57144 0.0128,0.0954 0.0174,0.22119 0.0174,0.22119 0.0147,2.7e-4 0.0294,2.7e-4 0.0443,2.7e-4 0.87335,0 2.42128,-0.24339 2.42128,-0.24339 -0.005,-0.0564 -0.009,-0.18219 -0.009,-0.23858 -0.15201,-2.43088 -0.75099,-4.1629 -0.75099,-4.1629 z"
       fill-rule="evenodd"
       id="path808508"
       style="fill:#000000;fill-opacity:1;stroke:none;stroke-width:0.264583;stroke-opacity:1" />
    <path
       style="fill:#000000;fill-opacity:1;stroke:none;stroke-width:0.193937px;stroke-linecap:butt;stroke-linejoin:miter;stroke-opacity:1"
       d="m 104.76077,142.949 0.47625,-0.0209 v 6.25583 l -0.47525,-0.003 z"
       id="path808510"
       sodipodi:nodetypes="ccccc" />
    <path
       style="fill:#000000;fill-opacity:1;stroke:none;stroke-width:0.308771px;stroke-linecap:butt;stroke-linejoin:miter;stroke-opacity:1"
       d="m 106.31457,149.08749 v -6.0502 l -0.47625,-0.10348 v 6.14947 z"
       id="path808512" />
    <path
       style="fill:#000000;fill-opacity:1;stroke:none;stroke-width:0.308774px;stroke-linecap:butt;stroke-linejoin:miter;stroke-opacity:1"
       d="m 103.71235,149.03457 v -6.0502 l 0.47625,-0.10348 v 6.14948 z"
       id="path808514" />
    <path
       style="fill:#000000;fill-opacity:1;stroke:none;stroke-width:0.240263px;stroke-linecap:butt;stroke-linejoin:miter;stroke-opacity:1"
       d="m 106.95706,145.28455 v -2.04422 l -0.3175,-0.10454 v 6.01814 h 0.24861 l -0.0929,-1.9775 0.0505,-1.43259 z"
       id="path808516" />
    <path
       style="fill:#000000;fill-opacity:1;stroke:none;stroke-width:0.240262px;stroke-linecap:butt;stroke-linejoin:miter;stroke-opacity:1"
       d="m 103.10571,145.28455 v -2.04422 l 0.3175,-0.10454 v 6.01814 h -0.2486 l 0.0929,-1.9775 -0.0505,-1.43259 z"
       id="path808518" />
  </g>
</svg>
