<?xml version="1.0" encoding="UTF-8"?>
<svg id="svg363" width="150.09" height="42.091" fill="none" stroke-linecap="square" stroke-miterlimit="10" version="1.1" viewBox="0 0 150.09 42.091" xmlns="http://www.w3.org/2000/svg">
 <clipPath id="g1f1130f6aa8_0_6014.0">
  <path id="path2" d="m0 0h960v540h-960z"/>
 </clipPath>
 <path id="path981060" d="m11.088 0.50912-4.5277 1.2147-5.8737 3.2807 3.0353 5.2668 3.0514-1.4278c0.099 0.9684 0.52507 3.0353 0.52507 3.0353 0.11511 5.8898-0.36048 12.157-0.36048 12.157 3.6088 0.4756 7.2681 0.5251 7.2681 0.5251s3.6745-0.049 7.2671-0.5251c0 0-0.47559-6.2675-0.36048-12.157 0 0 0.44328-2.0669 0.54123-3.0353l3.0353 1.4278 3.0353-5.2668-5.8575-3.2807-4.5438-1.2147s-1.7883 0.2464-3.1171 0.2464c-1.3298 0-3.1181-0.2464-3.1181-0.2464z" fill="#faff58" fill-rule="evenodd" stroke="#000"/>
 <path id="path981062" d="m6.9376 24.036s-2.2648 6.5462-2.8222 15.734c-0.0162 0.2131-0.0323 0.6887-0.0495 0.9017 0 0 0.0333 0.017 0.0828 0.017 0.67249 0.098 5.9878 0.9017 9.0725 0.9017h0.16358s0.0162-0.4756 0.0656-0.836c0.11511-1.2804 0.40996-4.3318 0.49276-5.9393 0.0656 1.6075 0.36047 4.6589 0.47558 5.9393 0.0485 0.3604 0.0656 0.836 0.0656 0.836 0.0555 1e-3 0.11108 1e-3 0.16762 1e-3 3.3008 0 9.1513-0.9199 9.1513-0.9199-0.01717-0.213-0.03332-0.6886-0.03332-0.9017-0.57454-9.1876-2.8384-15.734-2.8384-15.734z" fill="#000" fill-rule="evenodd"/>
 <path id="path981064" d="m37.356 24.036s-2.2649 6.5462-2.8222 15.734c-0.01616 0.2131-0.03231 0.6887-0.04948 0.9017 0 0 0.03332 0.017 0.0828 0.017 0.67249 0.098 5.9878 0.9017 9.0725 0.9017h0.16358s0.0162-0.4756 0.0656-0.836c0.11511-1.2804 0.40996-4.3318 0.49276-5.9393 0.0656 1.6075 0.36048 4.6589 0.47559 5.9393 0.0485 0.3604 0.0656 0.836 0.0656 0.836 0.0555 1e-3 0.11107 1e-3 0.16762 1e-3 3.3008 0 9.1513-0.9199 9.1513-0.9199-0.0172-0.213-0.0333-0.6886-0.0333-0.9017-0.57455-9.1876-2.8384-15.734-2.8384-15.734z" fill="#000" fill-opacity="0" fill-rule="evenodd" stroke="#000"/>
 <path id="path981066" d="m71.925 0.50912-4.5277 1.2147-5.8737 3.2807 3.0353 5.2668 3.0514-1.4278c0.099 0.9684 0.52507 3.0353 0.52507 3.0353 0.11511 5.8898-0.36048 12.157-0.36048 12.157 3.6088 0.4756 7.2681 0.5251 7.2681 0.5251s3.6745-0.049 7.2671-0.5251c0 0-0.4756-6.2675-0.36048-12.157 0 0 0.44327-2.0669 0.54122-3.0353l3.0353 1.4278 3.0353-5.2668-5.8575-3.2807-4.5438-1.2147s-1.7883 0.2464-3.1171 0.2464c-1.3298 0-3.1181-0.2464-3.1181-0.2464z" fill="#3d3c5e" fill-rule="evenodd" stroke="#000"/>
 <path id="path981068" d="m67.775 24.036s-2.2649 6.5462-2.8222 15.734c-0.0162 0.2131-0.0323 0.6887-0.0495 0.9017 0 0 0.0333 0.017 0.0828 0.017 0.67248 0.098 5.9878 0.9017 9.0725 0.9017h0.16358s0.0162-0.4756 0.0656-0.836c0.11511-1.2804 0.40995-4.3318 0.49275-5.9393 0.0656 1.6075 0.36048 4.6589 0.47559 5.9393 0.0485 0.3604 0.0656 0.836 0.0656 0.836 0.0555 1e-3 0.11107 1e-3 0.16762 1e-3 3.3008 0 9.1513-0.9199 9.1513-0.9199-0.0172-0.213-0.0333-0.6886-0.0333-0.9017-0.57455-9.1876-2.8384-15.734-2.8384-15.734z" fill="#3d3c5e" fill-rule="evenodd" stroke="#000"/>
 <path id="path981070" d="m102.34 0.50912-4.5277 1.2147-5.8737 3.2807 3.0353 5.2668 3.0514-1.4278c0.099 0.9684 0.52506 3.0353 0.52506 3.0353 0.11511 5.8898-0.36048 12.157-0.36048 12.157 3.6088 0.4756 7.2681 0.5251 7.2681 0.5251s3.6744-0.049 7.2671-0.5251c0 0-0.47559-6.2675-0.36048-12.157 0 0 0.44328-2.0669 0.54122-3.0353l3.0353 1.4278 3.0353-5.2668-5.8575-3.2807-4.5438-1.2147s-1.7883 0.2464-3.1171 0.2464c-1.3298 0-3.1181-0.2464-3.1181-0.2464z" fill="#27a4df" fill-rule="evenodd" stroke="#000"/>
 <path id="path981072" d="m98.194 24.036s-2.2648 6.5462-2.8222 15.734c-0.0162 0.2131-0.0323 0.6887-0.0495 0.9017 0 0 0.0333 0.017 0.0828 0.017 0.67249 0.098 5.9878 0.9017 9.0725 0.9017h0.16358s0.0162-0.4756 0.0656-0.836c0.11511-1.2804 0.40995-4.3318 0.49275-5.9393 0.0656 1.6075 0.36048 4.6589 0.47559 5.9393 0.0485 0.3604 0.0656 0.836 0.0656 0.836 0.0555 1e-3 0.11107 1e-3 0.16762 1e-3 3.3008 0 9.1513-0.9199 9.1513-0.9199-0.0172-0.213-0.0333-0.6886-0.0333-0.9017-0.57454-9.1876-2.8384-15.734-2.8384-15.734z" fill="#27a4df" fill-rule="evenodd" stroke="#000"/>
 <path id="path981074" d="m132.76 0.50912-4.5277 1.2147-5.8737 3.2807 3.0353 5.2668 3.0514-1.4278c0.099 0.9684 0.52507 3.0353 0.52507 3.0353 0.11511 5.8898-0.36048 12.157-0.36048 12.157 3.6088 0.4756 7.2681 0.5251 7.2681 0.5251s3.6745-0.049 7.2671-0.5251c0 0-0.47559-6.2675-0.36048-12.157 0 0 0.44328-2.0669 0.54124-3.0353l3.0353 1.4278 3.0353-5.2668-5.8575-3.2807-4.5438-1.2147s-1.7883 0.2464-3.1171 0.2464c-1.3298 0-3.1181-0.2464-3.1181-0.2464z" fill="#3ebd6e" fill-rule="evenodd" stroke="#000"/>
 <path id="path981076" d="m128.61 24.036s-2.2648 6.5462-2.8222 15.734c-0.0162 0.2131-0.0323 0.6887-0.0495 0.9017 0 0 0.0333 0.017 0.0828 0.017 0.67249 0.098 5.9878 0.9017 9.0725 0.9017h0.16358s0.0162-0.4756 0.0656-0.836c0.11511-1.2804 0.40996-4.3318 0.49276-5.9393 0.0656 1.6075 0.36047 4.6589 0.47558 5.9393 0.0485 0.3604 0.0656 0.836 0.0656 0.836 0.0555 1e-3 0.11108 1e-3 0.16762 1e-3 3.3008 0 9.1513-0.9199 9.1513-0.9199-0.0172-0.213-0.0333-0.6886-0.0333-0.9017-0.57454-9.1876-2.8384-15.734-2.8384-15.734z" fill="#3ebd6e" fill-rule="evenodd" stroke="#000"/>
 <path id="path981082" d="m41.506 0.50912-4.5277 1.2147-5.8737 3.2807 3.0353 5.2668 3.0514-1.4278c0.099 0.9684 0.52507 3.0353 0.52507 3.0353 0.11511 5.8898-0.36048 12.157-0.36048 12.157 3.6088 0.4756 7.2681 0.5251 7.2681 0.5251s3.6744-0.049 7.2671-0.5251c0 0-0.47559-6.2675-0.36048-12.157 0 0 0.44328-2.0669 0.54122-3.0353l3.0353 1.4278 3.0353-5.2668-5.8575-3.2807-4.5438-1.2147s-1.7882 0.2464-3.1171 0.2464c-1.3298 0-3.1181-0.2464-3.1181-0.2464z" fill="#ad1e32" fill-rule="evenodd" stroke="#000"/>
 <path id="path1000862" d="m36.962 1.7193-5.8693 3.2813 3.0467 5.2707 3.036-1.432c0.36-1 3.2973-5.02-0.21333-7.12z" fill="#fffcff" fill-rule="evenodd" stroke="#000" stroke-linecap="butt" stroke-miterlimit="16.248" stroke-width="1.0656"/>
 <path id="path1000866" d="m52.27 1.7193c-3.5107 2.1-0.57333 6.12-0.21467 7.12l3.052 1.432 3.0373-5.2707z" fill="#fffcff" fill-rule="evenodd" stroke="#000" stroke-linecap="butt" stroke-miterlimit="16.248" stroke-width="1.0656"/>
 <path id="path1007394" d="m72.12 0.50912v23.209" fill="#704364" stroke="#704364" stroke-linecap="butt" stroke-miterlimit="10" stroke-width=".4"/>
 <path id="path1020055" d="m74.069 0.50912v23.209" fill="#704364" stroke="#704364" stroke-linecap="butt" stroke-miterlimit="10" stroke-width=".4"/>
 <path id="path1020057" d="m76.017 0.50912v23.209" fill="#704364" stroke="#704364" stroke-linecap="butt" stroke-miterlimit="10" stroke-width=".4"/>
 <path id="path1020059" d="m77.965 0.50912v23.209" fill="#704364" stroke="#704364" stroke-linecap="butt" stroke-miterlimit="10" stroke-width=".4"/>
 <path id="path1020061" d="m76.991 0.50912v23.209" fill="#704364" stroke="#704364" stroke-linecap="butt" stroke-miterlimit="10" stroke-width=".4"/>
 <path id="path1020063" d="m75.043 0.50912v23.209" fill="#704364" stroke="#704364" stroke-linecap="butt" stroke-miterlimit="10" stroke-width=".4"/>
 <path id="path1020065" d="m73.094 0.50912v23.209" fill="#704364" stroke="#704364" stroke-linecap="butt" stroke-miterlimit="10" stroke-width=".4"/>
</svg>
