<?xml version="1.0" encoding="UTF-8"?>
<!-- Created with Inkscape (http://www.inkscape.org/) -->
<svg id="svg7348" width="39.71mm" height="11.146mm" version="1.1" viewBox="0 0 39.71 11.146" xmlns="http://www.w3.org/2000/svg">
 <g id="layer1" transform="translate(37.705 -193.82)" fill-rule="evenodd">
  <path id="path2393" d="m-34.772 193.96-1.198 0.32139-1.5541 0.86802 0.80309 1.3935 0.80736-0.37777c0.02618 0.25622 0.13892 0.80309 0.13892 0.80309 0.03046 1.5583-0.09538 3.2166-0.09538 3.2166 0.95483 0.12583 1.923 0.13893 1.923 0.13893s0.9722-0.0132 1.9228-0.13893c0 0-0.12583-1.6583-0.09538-3.2166 0 0 0.11728-0.54687 0.1432-0.80309l0.80309 0.37777 0.80309-1.3935-1.5498-0.86802-1.2022-0.32139s-0.47314 0.0652-0.82473 0.0652c-0.35185 0-0.82499-0.0652-0.82499-0.0652z" fill="#faff58" stroke="#000" stroke-width=".26458"/>
  <path id="path2397" d="m-35.87 200.19s-0.59924 1.732-0.74672 4.1629c-0.0043 0.0564-0.0085 0.18222-0.01309 0.23857 0 0 0.0088 5e-3 0.02191 5e-3 0.17793 0.0259 1.5843 0.23858 2.4004 0.23858h0.04328s0.0043-0.12584 0.01736-0.2212c0.03046-0.33877 0.10847-1.1461 0.13038-1.5714 0.01736 0.42532 0.09538 1.2327 0.12583 1.5714 0.01282 0.0954 0.01736 0.2212 0.01736 0.2212 0.0147 2.6e-4 0.02939 2.6e-4 0.04435 2.6e-4 0.87335 0 2.4213-0.24339 2.4213-0.24339-0.0045-0.0564-0.0088-0.18219-0.0088-0.23857-0.15201-2.4309-0.75099-4.1629-0.75099-4.1629z" stroke-width=".26458"/>
  <path id="path2401" d="m-26.723 193.96-1.198 0.32139-1.5541 0.86802 0.80309 1.3935 0.80736-0.37777c0.02619 0.25622 0.13892 0.80309 0.13892 0.80309 0.03046 1.5583-0.09538 3.2166-0.09538 3.2166 0.95484 0.12583 1.923 0.13893 1.923 0.13893s0.9722-0.0132 1.9228-0.13893c0 0-0.12583-1.6583-0.09538-3.2166 0 0 0.11728-0.54687 0.1432-0.80309l0.80309 0.37777 0.80309-1.3935-1.5498-0.86802-1.2022-0.32139s-0.47314 0.0652-0.82472 0.0652c-0.35185 0-0.825-0.0652-0.825-0.0652z" fill="#56ad59" stroke="#000" stroke-width=".26458"/>
  <path id="path2405" d="m-27.822 200.19s-0.59924 1.732-0.74671 4.1629c-0.0043 0.0564-0.0085 0.18222-0.01309 0.23857 0 0 0.0088 5e-3 0.02191 5e-3 0.17793 0.0259 1.5843 0.23858 2.4004 0.23858h0.04328s0.0043-0.12584 0.01736-0.2212c0.03046-0.33877 0.10847-1.1461 0.13038-1.5714 0.01736 0.42532 0.09538 1.2327 0.12583 1.5714 0.01283 0.0954 0.01736 0.2212 0.01736 0.2212 0.01468 2.6e-4 0.02939 2.6e-4 0.04435 2.6e-4 0.87335 0 2.4213-0.24339 2.4213-0.24339-0.0046-0.0564-0.0088-0.18219-0.0088-0.23857-0.15201-2.4309-0.75099-4.1629-0.75099-4.1629z" fill="#56ad59" stroke="#000" stroke-width=".26458"/>
  <path id="path2409" d="m-18.675 193.96-1.198 0.32139-1.5541 0.86802 0.80308 1.3935 0.80736-0.37777c0.02619 0.25622 0.13892 0.80309 0.13892 0.80309 0.03046 1.5583-0.09538 3.2166-0.09538 3.2166 0.95483 0.12583 1.923 0.13893 1.923 0.13893s0.9722-0.0132 1.9228-0.13893c0 0-0.12583-1.6583-0.09538-3.2166 0 0 0.11728-0.54687 0.1432-0.80309l0.80309 0.37777 0.80309-1.3935-1.5498-0.86802-1.2022-0.32139s-0.47314 0.0652-0.82473 0.0652c-0.35185 0-0.82499-0.0652-0.82499-0.0652z" fill="#ad1e32" stroke="#000" stroke-width=".26458"/>
  <path id="path2413" d="m-19.773 200.19s-0.59924 1.732-0.74672 4.1629c-0.0043 0.0564-0.0085 0.18222-0.0131 0.23857 0 0 0.0088 5e-3 0.02191 5e-3 0.17793 0.0259 1.5843 0.23858 2.4004 0.23858h0.04328s0.0043-0.12584 0.01736-0.2212c0.03046-0.33877 0.10847-1.1461 0.13038-1.5714 0.01736 0.42532 0.09538 1.2327 0.12583 1.5714 0.01283 0.0954 0.01736 0.2212 0.01736 0.2212 0.01469 2.6e-4 0.02939 2.6e-4 0.04435 2.6e-4 0.87335 0 2.4213-0.24339 2.4213-0.24339-0.0046-0.0564-0.0088-0.18219-0.0088-0.23857-0.15202-2.4309-0.75099-4.1629-0.75099-4.1629z" fill="#ad1e32" stroke="#000" stroke-width=".26458"/>
  <path id="path2419" d="m-10.627 193.96-1.1979 0.32139-1.5541 0.86802 0.80309 1.3935 0.80736-0.37777c0.02619 0.25622 0.13892 0.80309 0.13892 0.80309 0.03046 1.5583-0.09538 3.2166-0.09538 3.2166 0.95483 0.12583 1.923 0.13893 1.923 0.13893s0.9722-0.0132 1.9228-0.13893c0 0-0.12584-1.6583-0.095377-3.2166 0 0 0.11728-0.54687 0.1432-0.80309l0.80309 0.37777 0.80309-1.3935-1.5498-0.86802-1.2022-0.32139s-0.47314 0.0652-0.82473 0.0652c-0.35185 0-0.82499-0.0652-0.825-0.0652z" fill="#faff58" stroke="#000" stroke-miterlimit="16.248" stroke-width=".28194"/>
  <path id="path2421" d="m-11.725 200.19s-0.59924 1.732-0.74672 4.1629c-0.0043 0.0564-0.0085 0.18222-0.0131 0.23857 0 0 0.0088 5e-3 0.02191 5e-3 0.17793 0.0259 1.5843 0.23858 2.4004 0.23858h0.04328s0.0043-0.12584 0.01736-0.2212c0.030456-0.33877 0.10847-1.1461 0.13037-1.5714 0.017357 0.42532 0.095377 1.2327 0.12583 1.5714 0.012832 0.0954 0.017357 0.2212 0.017357 0.2212 0.014684 2.6e-4 0.029387 2.6e-4 0.044349 2.6e-4 0.87335 0 2.4213-0.24339 2.4213-0.24339-0.00455-0.0564-0.00881-0.18219-0.00881-0.23857-0.15201-2.4309-0.75099-4.1629-0.75099-4.1629z" fill="#faff58" stroke="#000" stroke-width=".26458"/>
  <path id="path2425" d="m-2.5786 193.96-1.1979 0.32139-1.5541 0.86802 0.80309 1.3935 0.80736-0.37777c0.026194 0.25622 0.13892 0.80309 0.13892 0.80309 0.030456 1.5583-0.095377 3.2166-0.095377 3.2166 0.95483 0.12583 1.923 0.13893 1.923 0.13893s0.9722-0.0132 1.9228-0.13893c0 0-0.12583-1.6583-0.095377-3.2166 0 0 0.11728-0.54687 0.1432-0.80309l0.80308 0.37777 0.80309-1.3935-1.5498-0.86802-1.2022-0.32139s-0.47314 0.0652-0.82473 0.0652c-0.35185 0-0.82499-0.0652-0.825-0.0652z" fill="#4d77a2" stroke="#000" stroke-width=".26458"/>
  <path id="path2429" d="m-3.6766 200.19s-0.59924 1.732-0.74672 4.1629c-0.00429 0.0564-0.00855 0.18222-0.013097 0.23857 0 0 0.00881 5e-3 0.021908 5e-3 0.17793 0.0259 1.5843 0.23858 2.4004 0.23858h0.043281s0.00429-0.12584 0.017357-0.2212c0.030456-0.33877 0.10847-1.1461 0.13038-1.5714 0.017357 0.42532 0.095374 1.2327 0.12583 1.5714 0.012832 0.0954 0.017357 0.2212 0.017357 0.2212 0.014684 2.6e-4 0.02939 2.6e-4 0.04435 2.6e-4 0.87335 0 2.4213-0.24339 2.4213-0.24339-0.004551-0.0564-0.008811-0.18219-0.008811-0.23857-0.15201-2.4309-0.75099-4.1629-0.75099-4.1629z" stroke-width=".26458"/>
 </g>
</svg>
