<?xml version="1.0" encoding="UTF-8" standalone="no"?>
<!-- Created with Inkscape (http://www.inkscape.org/) -->

<svg
   width="39.710014mm"
   height="11.146006mm"
   viewBox="0 0 39.710014 11.146006"
   version="1.1"
   id="svg7348"
   inkscape:version="1.1.2 (0a00cf5339, 2022-02-04)"
   sodipodi:docname="040.svg"
   xmlns:inkscape="http://www.inkscape.org/namespaces/inkscape"
   xmlns:sodipodi="http://sodipodi.sourceforge.net/DTD/sodipodi-0.dtd"
   xmlns="http://www.w3.org/2000/svg"
   xmlns:svg="http://www.w3.org/2000/svg">
  <sodipodi:namedview
     id="namedview7350"
     pagecolor="#ffffff"
     bordercolor="#666666"
     borderopacity="1.0"
     inkscape:pageshadow="2"
     inkscape:pageopacity="0.0"
     inkscape:pagecheckerboard="0"
     inkscape:document-units="mm"
     showgrid="false"
     inkscape:zoom="0.69664703"
     inkscape:cx="539.01041"
     inkscape:cy="-171.53594"
     inkscape:window-width="1920"
     inkscape:window-height="1016"
     inkscape:window-x="0"
     inkscape:window-y="0"
     inkscape:window-maximized="1"
     inkscape:current-layer="layer1" />
  <defs
     id="defs7345" />
  <g
     inkscape:label="Layer 1"
     inkscape:groupmode="layer"
     id="layer1"
     transform="translate(37.705391,-193.81983)">
    <path
       fill="#faff58"
       d="m -34.771795,193.96337 -1.19795,0.32139 -1.554077,0.86802 0.803087,1.39351 0.807361,-0.37777 c 0.02618,0.25622 0.138924,0.80309 0.138924,0.80309 0.03046,1.55834 -0.09538,3.21662 -0.09538,3.21662 0.954834,0.12583 1.923026,0.13893 1.923026,0.13893 0,0 0.9722,-0.0132 1.922759,-0.13893 0,0 -0.125833,-1.65828 -0.09538,-3.21662 0,0 0.117283,-0.54687 0.143198,-0.80309 l 0.803086,0.37777 0.803087,-1.39351 -1.549802,-0.86802 -1.202225,-0.32139 c 0,0 -0.473143,0.0652 -0.824727,0.0652 -0.351851,0 -0.824994,-0.0652 -0.824994,-0.0652 z"
       fill-rule="evenodd"
       id="path2393"
       style="stroke:#000000;stroke-width:0.264583;stroke-opacity:1" />
    <path
       fill="#000000"
       d="m -35.869827,200.18823 c 0,0 -0.599242,1.73201 -0.746715,4.1629 -0.0043,0.0564 -0.0085,0.18222 -0.01309,0.23857 0,0 0.0088,0.005 0.02191,0.005 0.177929,0.0259 1.584265,0.23858 2.400442,0.23858 h 0.04328 c 0,0 0.0043,-0.12584 0.01736,-0.2212 0.03046,-0.33877 0.108467,-1.14612 0.130375,-1.57144 0.01736,0.42532 0.09538,1.23267 0.125832,1.57144 0.01282,0.0954 0.01736,0.2212 0.01736,0.2212 0.0147,2.6e-4 0.02939,2.6e-4 0.04435,2.6e-4 0.87335,0 2.421281,-0.24339 2.421281,-0.24339 -0.0045,-0.0564 -0.0088,-0.18219 -0.0088,-0.23857 -0.152014,-2.43089 -0.75099,-4.16291 -0.75099,-4.16291 z"
       fill-rule="evenodd"
       id="path2397"
       style="stroke-width:0.264583" />
    <path
       fill="#faff58"
       d="m -26.723499,193.96337 -1.197951,0.32139 -1.554077,0.86802 0.803087,1.39351 0.807362,-0.37777 c 0.02619,0.25622 0.138922,0.80309 0.138922,0.80309 0.03046,1.55834 -0.09538,3.21662 -0.09538,3.21662 0.954836,0.12583 1.923029,0.13893 1.923029,0.13893 0,0 0.972198,-0.0132 1.922758,-0.13893 0,0 -0.125833,-1.65828 -0.09538,-3.21662 0,0 0.117282,-0.54687 0.143198,-0.80309 l 0.803087,0.37777 0.803086,-1.39351 -1.549803,-0.86802 -1.202225,-0.32139 c 0,0 -0.473141,0.0652 -0.824724,0.0652 -0.351854,0 -0.824995,-0.0652 -0.824995,-0.0652 z"
       fill-rule="evenodd"
       id="path2401"
       style="fill:#56ad59;fill-opacity:1;stroke:#000000;stroke-width:0.264583;stroke-opacity:1" />
    <path
       fill="#000000"
       d="m -27.821533,200.18823 c 0,0 -0.599241,1.73201 -0.746714,4.1629 -0.0043,0.0564 -0.0085,0.18222 -0.01309,0.23857 0,0 0.0088,0.005 0.02191,0.005 0.177929,0.0259 1.584265,0.23858 2.400442,0.23858 h 0.04328 c 0,0 0.0043,-0.12584 0.01736,-0.2212 0.03046,-0.33877 0.108468,-1.14612 0.130376,-1.57144 0.01736,0.42532 0.09538,1.23267 0.125833,1.57144 0.01283,0.0954 0.01736,0.2212 0.01736,0.2212 0.01468,2.6e-4 0.02939,2.6e-4 0.04435,2.6e-4 0.873349,0 2.421281,-0.24339 2.421281,-0.24339 -0.0046,-0.0564 -0.0088,-0.18219 -0.0088,-0.23857 -0.152013,-2.43089 -0.750988,-4.16291 -0.750988,-4.16291 z"
       fill-rule="evenodd"
       id="path2405"
       style="fill:#56ad59;fill-opacity:1;stroke:#000000;stroke-width:0.264583;stroke-opacity:1" />
    <path
       fill="#faff58"
       d="m -18.675206,193.96337 -1.197952,0.32139 -1.554075,0.86802 0.803085,1.39351 0.807363,-0.37777 c 0.02619,0.25622 0.138922,0.80309 0.138922,0.80309 0.03046,1.55834 -0.09538,3.21662 -0.09538,3.21662 0.954834,0.12583 1.923026,0.13893 1.923026,0.13893 0,0 0.972199,-0.0132 1.922759,-0.13893 0,0 -0.125833,-1.65828 -0.09538,-3.21662 0,0 0.117282,-0.54687 0.143198,-0.80309 l 0.803087,0.37777 0.803087,-1.39351 -1.549799,-0.86802 -1.202227,-0.32139 c 0,0 -0.473141,0.0652 -0.824728,0.0652 -0.35185,0 -0.824992,-0.0652 -0.824994,-0.0652 z"
       fill-rule="evenodd"
       id="path2409"
       style="fill:#ad1e32;fill-opacity:1;stroke:#000000;stroke-width:0.264583;stroke-opacity:1" />
    <path
       fill="#000000"
       d="m -19.77324,200.18823 c 0,0 -0.599242,1.73201 -0.746715,4.1629 -0.0043,0.0564 -0.0085,0.18222 -0.0131,0.23857 0,0 0.0088,0.005 0.02191,0.005 0.17793,0.0259 1.584267,0.23858 2.400443,0.23858 h 0.04328 c 0,0 0.0043,-0.12584 0.01736,-0.2212 0.03046,-0.33877 0.108469,-1.14612 0.130376,-1.57144 0.01736,0.42532 0.09538,1.23267 0.125834,1.57144 0.01283,0.0954 0.01736,0.2212 0.01736,0.2212 0.01469,2.6e-4 0.02939,2.6e-4 0.04435,2.6e-4 0.87335,0 2.421281,-0.24339 2.421281,-0.24339 -0.0046,-0.0564 -0.0088,-0.18219 -0.0088,-0.23857 -0.152017,-2.43089 -0.750991,-4.16291 -0.750991,-4.16291 z"
       fill-rule="evenodd"
       id="path2413"
       style="fill:#ad1e32;fill-opacity:1;stroke:#000000;stroke-width:0.264583;stroke-opacity:1" />
    <path
       stroke="#000000"
       stroke-width="0.281945"
       stroke-miterlimit="16.2479"
       stroke-linecap="butt"
       d="m -10.626912,193.96337 -1.197949,0.32139 -1.554078,0.86802 0.803088,1.39351 0.80736,-0.37777 c 0.02619,0.25622 0.138924,0.80309 0.138924,0.80309 0.03046,1.55834 -0.09538,3.21662 -0.09538,3.21662 0.954834,0.12583 1.9230292,0.13893 1.9230292,0.13893 0,0 0.9721982,-0.0132 1.9227588,-0.13893 0,0 -0.1258359,-1.65828 -0.095377,-3.21662 0,0 0.1172818,-0.54687 0.1431978,-0.80309 l 0.8030871,0.37777 0.8030871,-1.39351 -1.5498021,-0.86802 -1.2022243,-0.32139 c 0,0 -0.4731438,0.0652 -0.8247274,0.0652 -0.3518512,0 -0.8249942,-0.0652 -0.8249972,-0.0652 z"
       fill-rule="evenodd"
       id="path2419"
       style="fill:#faff58;fill-opacity:1;stroke:#000000;stroke-opacity:1" />
    <path
       fill="#000000"
       d="m -11.724944,200.18823 c 0,0 -0.599241,1.73201 -0.746715,4.1629 -0.0043,0.0564 -0.0085,0.18222 -0.0131,0.23857 0,0 0.0088,0.005 0.02191,0.005 0.17793,0.0259 1.584264,0.23858 2.400443,0.23858 h 0.04328 c 0,0 0.0043,-0.12584 0.01736,-0.2212 0.030456,-0.33877 0.1084661,-1.14612 0.1303736,-1.57144 0.017357,0.42532 0.095377,1.23267 0.1258332,1.57144 0.012832,0.0954 0.017357,0.2212 0.017357,0.2212 0.014684,2.6e-4 0.029387,2.6e-4 0.044349,2.6e-4 0.8733499,0 2.4212814,-0.24339 2.4212814,-0.24339 -0.00455,-0.0564 -0.00881,-0.18219 -0.00881,-0.23857 -0.1520137,-2.43089 -0.7509907,-4.16291 -0.7509907,-4.16291 z"
       fill-rule="evenodd"
       id="path2421"
       style="fill:#faff58;fill-opacity:1;stroke:#000000;stroke-width:0.264583;stroke-opacity:1" />
    <path
       fill="#faff58"
       d="m -2.5786179,193.96337 -1.1979487,0.32139 -1.5540778,0.86802 0.8030871,1.39351 0.8073602,-0.37777 c 0.026194,0.25622 0.1389248,0.80309 0.1389248,0.80309 0.030456,1.55834 -0.095377,3.21662 -0.095377,3.21662 0.9548336,0.12583 1.923026,0.13893 1.923026,0.13893 0,0 0.97220085,-0.0132 1.9227588,-0.13893 0,0 -0.12583318,-1.65828 -0.095377,-3.21662 0,0 0.1172845,-0.54687 0.14320308,-0.80309 l 0.80308452,0.37777 0.8030871,-1.39351 -1.54980214,-0.86802 -1.20222432,-0.32139 c 0,0 -0.47314374,0.0652 -0.82472744,0.0652 -0.3518508,0 -0.8249946,-0.0652 -0.8249972,-0.0652 z"
       fill-rule="evenodd"
       id="path2425"
       style="fill:#4d77a2;fill-opacity:1;stroke:#000000;stroke-width:0.264583;stroke-opacity:1" />
    <path
       fill="#000000"
       d="m -3.6766493,200.18823 c 0,0 -0.5992416,1.73201 -0.7467151,4.1629 -0.00429,0.0564 -0.00855,0.18222 -0.013097,0.23857 0,0 0.00881,0.005 0.021908,0.005 0.1779296,0.0259 1.5842667,0.23858 2.4004428,0.23858 h 0.043281 c 0,0 0.00429,-0.12584 0.017357,-0.2212 0.030456,-0.33877 0.1084686,-1.14612 0.1303761,-1.57144 0.017357,0.42532 0.095374,1.23267 0.1258305,1.57144 0.012832,0.0954 0.017357,0.2212 0.017357,0.2212 0.014684,2.6e-4 0.02939,2.6e-4 0.04435,2.6e-4 0.87334985,0 2.42128139,-0.24339 2.42128139,-0.24339 -0.004551,-0.0564 -0.008811,-0.18219 -0.008811,-0.23857 -0.15201371,-2.43089 -0.75099068,-4.16291 -0.75099068,-4.16291 z"
       fill-rule="evenodd"
       id="path2429"
       style="stroke-width:0.264583" />
  </g>
</svg>
