<?xml version="1.0" encoding="UTF-8" standalone="no"?>
<!-- Created with Inkscape (http://www.inkscape.org/) -->

<svg
   width="39.710011mm"
   height="11.136167mm"
   viewBox="0 0 39.710011 11.136167"
   version="1.1"
   id="svg7611"
   inkscape:version="1.1.2 (0a00cf5339, 2022-02-04)"
   sodipodi:docname="041.svg"
   xmlns:inkscape="http://www.inkscape.org/namespaces/inkscape"
   xmlns:sodipodi="http://sodipodi.sourceforge.net/DTD/sodipodi-0.dtd"
   xmlns="http://www.w3.org/2000/svg"
   xmlns:svg="http://www.w3.org/2000/svg">
  <sodipodi:namedview
     id="namedview7613"
     pagecolor="#ffffff"
     bordercolor="#666666"
     borderopacity="1.0"
     inkscape:pageshadow="2"
     inkscape:pageopacity="0.0"
     inkscape:pagecheckerboard="0"
     inkscape:document-units="mm"
     showgrid="false"
     inkscape:zoom="0.69664703"
     inkscape:cx="806.00358"
     inkscape:cy="-279.19447"
     inkscape:window-width="1920"
     inkscape:window-height="1016"
     inkscape:window-x="0"
     inkscape:window-y="0"
     inkscape:window-maximized="1"
     inkscape:current-layer="layer1" />
  <defs
     id="defs7608" />
  <g
     inkscape:label="Layer 1"
     inkscape:groupmode="layer"
     id="layer1"
     transform="translate(108.34734,-222.30891)">
    <path
       fill="#faff58"
       d="m -105.41374,222.44361 -1.19795,0.32139 -1.55408,0.86802 0.80309,1.3935 0.80736,-0.37777 c 0.0262,0.25622 0.13892,0.80309 0.13892,0.80309 0.0305,1.55834 -0.0954,3.21662 -0.0954,3.21662 0.95483,0.12584 1.92302,0.13893 1.92302,0.13893 0,0 0.9722,-0.013 1.92276,-0.13893 0,0 -0.12583,-1.65828 -0.0954,-3.21662 0,0 0.11728,-0.54687 0.14319,-0.80309 l 0.80309,0.37777 0.80309,-1.3935 -1.54981,-0.86802 -1.20222,-0.32139 c 0,0 -0.47314,0.0652 -0.82473,0.0652 -0.35185,0 -0.82499,-0.0652 -0.82499,-0.0652 z"
       fill-rule="evenodd"
       id="path2435"
       style="fill:#000000;fill-opacity:1;stroke:#000000;stroke-width:0.264583;stroke-opacity:1" />
    <path
       fill="#000000"
       d="m -106.51177,228.66846 c 0,0 -0.59925,1.73202 -0.74672,4.1629 -0.004,0.0564 -0.009,0.18222 -0.0131,0.23858 0,0 0.009,0.004 0.0219,0.004 0.17793,0.0259 1.58426,0.23858 2.40044,0.23858 h 0.0433 c 0,0 0.004,-0.12584 0.0174,-0.22119 0.0305,-0.33877 0.10846,-1.14612 0.13037,-1.57144 0.0174,0.42532 0.0954,1.23267 0.12583,1.57144 0.0128,0.0953 0.0174,0.22119 0.0174,0.22119 0.0147,2.6e-4 0.0294,2.6e-4 0.0444,2.6e-4 0.87335,0 2.42128,-0.24339 2.42128,-0.24339 -0.005,-0.0564 -0.009,-0.18219 -0.009,-0.23857 -0.15201,-2.43089 -0.75099,-4.1629 -0.75099,-4.1629 z"
       fill-rule="evenodd"
       id="path2439"
       style="stroke-width:0.264583" />
    <path
       fill="#000000"
       d="m -98.463479,228.66846 c 0,0 -0.599241,1.73202 -0.746714,4.1629 -0.0043,0.0564 -0.0085,0.18222 -0.01309,0.23858 0,0 0.0088,0.004 0.02191,0.004 0.177929,0.0259 1.584265,0.23858 2.400442,0.23858 h 0.04328 c 0,0 0.0043,-0.12584 0.01736,-0.22119 0.03046,-0.33877 0.108468,-1.14612 0.130376,-1.57144 0.01736,0.42532 0.09538,1.23267 0.125833,1.57144 0.01283,0.0953 0.01736,0.22119 0.01736,0.22119 0.01468,2.6e-4 0.02939,2.6e-4 0.04435,2.6e-4 0.873349,0 2.421281,-0.24339 2.421281,-0.24339 -0.0046,-0.0564 -0.0088,-0.18219 -0.0088,-0.23857 -0.152013,-2.43089 -0.750988,-4.1629 -0.750988,-4.1629 z"
       fill-rule="evenodd"
       id="path2447"
       style="fill:#000000;fill-opacity:0;stroke:#000000;stroke-width:0.264583;stroke-opacity:1" />
    <path
       fill="#faff58"
       d="m -89.317152,222.44361 -1.197952,0.32139 -1.554075,0.86802 0.803085,1.3935 0.807363,-0.37777 c 0.02619,0.25622 0.138922,0.80309 0.138922,0.80309 0.03046,1.55834 -0.09537,3.21662 -0.09537,3.21662 0.954834,0.12584 1.923026,0.13893 1.923026,0.13893 0,0 0.972199,-0.013 1.922759,-0.13893 0,0 -0.125833,-1.65828 -0.09538,-3.21662 0,0 0.117282,-0.54687 0.143198,-0.80309 l 0.803087,0.37777 0.803087,-1.3935 -1.549799,-0.86802 -1.202227,-0.32139 c 0,0 -0.473141,0.0652 -0.824728,0.0652 -0.35185,0 -0.824992,-0.0652 -0.824994,-0.0652 z"
       fill-rule="evenodd"
       id="path2451"
       style="fill:#ad1e32;fill-opacity:1;stroke:#000000;stroke-width:0.264583;stroke-opacity:1" />
    <path
       fill="#000000"
       d="m -90.415186,228.66846 c 0,0 -0.599242,1.73202 -0.746715,4.1629 -0.0043,0.0564 -0.0085,0.18222 -0.0131,0.23858 0,0 0.0088,0.004 0.02191,0.004 0.17793,0.0259 1.584267,0.23858 2.400443,0.23858 h 0.04328 c 0,0 0.0043,-0.12584 0.01736,-0.22119 0.03046,-0.33877 0.108469,-1.14612 0.130376,-1.57144 0.01736,0.42532 0.09538,1.23267 0.125834,1.57144 0.01283,0.0953 0.01736,0.22119 0.01736,0.22119 0.01469,2.6e-4 0.02939,2.6e-4 0.04435,2.6e-4 0.87335,0 2.421281,-0.24339 2.421281,-0.24339 -0.0046,-0.0564 -0.0088,-0.18219 -0.0088,-0.23857 -0.152017,-2.43089 -0.750991,-4.1629 -0.750991,-4.1629 z"
       fill-rule="evenodd"
       id="path2455"
       style="fill:#ad1e32;fill-opacity:1;stroke:#000000;stroke-width:0.264583;stroke-opacity:1" />
    <path
       fill="#faff58"
       d="m -81.268858,222.44361 -1.197949,0.32139 -1.554078,0.86802 0.803088,1.3935 0.80736,-0.37777 c 0.02619,0.25622 0.138924,0.80309 0.138924,0.80309 0.03046,1.55834 -0.09538,3.21662 -0.09538,3.21662 0.954834,0.12584 1.923029,0.13893 1.923029,0.13893 0,0 0.972198,-0.013 1.922759,-0.13893 0,0 -0.125836,-1.65828 -0.09538,-3.21662 0,0 0.117282,-0.54687 0.143198,-0.80309 l 0.803087,0.37777 0.803087,-1.3935 -1.549802,-0.86802 -1.202224,-0.32139 c 0,0 -0.473144,0.0652 -0.824728,0.0652 -0.351851,0 -0.824994,-0.0652 -0.824997,-0.0652 z"
       fill-rule="evenodd"
       id="path2459"
       style="stroke:#000000;stroke-width:0.264583;stroke-opacity:1" />
    <path
       fill="#000000"
       d="m -82.36689,228.66846 c 0,0 -0.599241,1.73202 -0.746715,4.1629 -0.0043,0.0564 -0.0085,0.18222 -0.0131,0.23858 0,0 0.0088,0.004 0.02191,0.004 0.17793,0.0259 1.584264,0.23858 2.400443,0.23858 h 0.04328 c 0,0 0.0043,-0.12584 0.01736,-0.22119 0.03046,-0.33877 0.108466,-1.14612 0.130374,-1.57144 0.01736,0.42532 0.09538,1.23267 0.125833,1.57144 0.01283,0.0953 0.01736,0.22119 0.01736,0.22119 0.01469,2.6e-4 0.02939,2.6e-4 0.04435,2.6e-4 0.87335,0 2.421281,-0.24339 2.421281,-0.24339 -0.0046,-0.0564 -0.0088,-0.18219 -0.0088,-0.23857 -0.152014,-2.43089 -0.750991,-4.1629 -0.750991,-4.1629 z"
       fill-rule="evenodd"
       id="path2463"
       style="fill:#faff58;fill-opacity:1;stroke:#000000;stroke-width:0.264583;stroke-opacity:1" />
    <path
       fill="#faff58"
       d="m -73.220564,222.44361 -1.197949,0.32139 -1.554077,0.86802 0.803087,1.3935 0.80736,-0.37777 c 0.02619,0.25622 0.138925,0.80309 0.138925,0.80309 0.03046,1.55834 -0.09538,3.21662 -0.09538,3.21662 0.954833,0.12584 1.923026,0.13893 1.923026,0.13893 0,0 0.972201,-0.013 1.922759,-0.13893 0,0 -0.125834,-1.65828 -0.09538,-3.21662 0,0 0.117284,-0.54687 0.143203,-0.80309 l 0.803084,0.37777 0.803087,-1.3935 -1.549802,-0.86802 -1.202224,-0.32139 c 0,0 -0.473144,0.0652 -0.824728,0.0652 -0.351851,0 -0.824994,-0.0652 -0.824997,-0.0652 z"
       fill-rule="evenodd"
       id="path2467"
       style="fill:#4d77a2;fill-opacity:1;stroke:#000000;stroke-width:0.264583;stroke-opacity:1" />
    <path
       fill="#000000"
       d="m -74.318595,228.66846 c 0,0 -0.599242,1.73202 -0.746715,4.1629 -0.0043,0.0564 -0.0085,0.18222 -0.0131,0.23858 0,0 0.0088,0.004 0.02191,0.004 0.17793,0.0259 1.584267,0.23858 2.400443,0.23858 h 0.04328 c 0,0 0.0043,-0.12584 0.01736,-0.22119 0.03046,-0.33877 0.108469,-1.14612 0.130376,-1.57144 0.01736,0.42532 0.09538,1.23267 0.125831,1.57144 0.01283,0.0953 0.01736,0.22119 0.01736,0.22119 0.01468,2.6e-4 0.02939,2.6e-4 0.04435,2.6e-4 0.87335,0 2.421281,-0.24339 2.421281,-0.24339 -0.0045,-0.0564 -0.0088,-0.18219 -0.0088,-0.23857 -0.152014,-2.43089 -0.750991,-4.1629 -0.750991,-4.1629 z"
       fill-rule="evenodd"
       id="path2471"
       style="stroke-width:0.264583" />
    <path
       style="fill:#ff0000;fill-opacity:1;stroke:none;stroke-width:0.270089px;stroke-linecap:butt;stroke-linejoin:miter;stroke-opacity:1"
       d="m -98.507024,224.48116 0.442245,-0.12102 v 4.27271 h -0.420645 l 0.149699,-1.97223 -0.06772,-1.58115 z"
       id="path1245824" />
    <path
       style="fill:#ff0000;fill-opacity:1;stroke:none;stroke-width:0.270089px;stroke-linecap:butt;stroke-linejoin:miter;stroke-opacity:1"
       d="m -98.507024,224.48116 0.442245,-0.12102 v 4.27271 h -0.420645 l 0.149699,-1.97223 -0.06772,-1.58115 z"
       id="path1245824-1" />
    <path
       style="fill:#ff0000;fill-opacity:1;stroke:none;stroke-width:0.270089px;stroke-linecap:butt;stroke-linejoin:miter;stroke-opacity:1"
       d="m -94.555549,224.48116 -0.442246,-0.12102 v 4.27271 h 0.420645 l -0.149698,-1.97223 0.06772,-1.58115 z"
       id="path1250358" />
    <path
       style="fill:#ff0000;fill-opacity:1;stroke:none;stroke-width:0.270089px;stroke-linecap:butt;stroke-linejoin:miter;stroke-opacity:1"
       d="m -94.555549,224.48116 -0.442246,-0.12102 v 4.27271 h 0.420645 l -0.149698,-1.97223 0.06772,-1.58115 z"
       id="path1250360" />
    <path
       fill="#faff58"
       d="m -97.365445,222.44361 -1.197951,0.32139 -1.554074,0.86802 0.803084,1.3935 0.807362,-0.37777 c 0.02619,0.25622 0.138922,0.80309 0.138922,0.80309 0.03046,1.55834 -0.09538,3.21662 -0.09538,3.21662 0.954836,0.12584 1.923029,0.13893 1.923029,0.13893 0,0 0.972198,-0.013 1.922758,-0.13893 0,0 -0.125833,-1.65828 -0.09538,-3.21662 0,0 0.117282,-0.54687 0.143198,-0.80309 l 0.803087,0.37777 0.803086,-1.3935 -1.549803,-0.86802 -1.202225,-0.32139 c 0,0 -0.473141,0.0652 -0.824724,0.0652 -0.351854,0 -0.824995,-0.0652 -0.824995,-0.0652 z"
       fill-rule="evenodd"
       id="path2443"
       style="fill:none;fill-opacity:0;stroke:#000000;stroke-width:0.264583;stroke-opacity:1" />
  </g>
</svg>
