<?xml version="1.0" encoding="UTF-8" standalone="no"?>
<!-- Created with Inkscape (http://www.inkscape.org/) -->

<svg
   width="39.721878mm"
   height="11.145736mm"
   viewBox="0 0 39.721878 11.145736"
   version="1.1"
   id="svg7886"
   inkscape:version="1.1.2 (0a00cf5339, 2022-02-04)"
   sodipodi:docname="43.svg"
   xmlns:inkscape="http://www.inkscape.org/namespaces/inkscape"
   xmlns:sodipodi="http://sodipodi.sourceforge.net/DTD/sodipodi-0.dtd"
   xmlns="http://www.w3.org/2000/svg"
   xmlns:svg="http://www.w3.org/2000/svg">
  <sodipodi:namedview
     id="namedview7888"
     pagecolor="#ffffff"
     bordercolor="#666666"
     borderopacity="1.0"
     inkscape:pageshadow="2"
     inkscape:pageopacity="0.0"
     inkscape:pagecheckerboard="0"
     inkscape:document-units="mm"
     showgrid="false"
     inkscape:zoom="0.69664703"
     inkscape:cx="75.360976"
     inkscape:cy="20.813984"
     inkscape:window-width="1920"
     inkscape:window-height="1016"
     inkscape:window-x="0"
     inkscape:window-y="0"
     inkscape:window-maximized="1"
     inkscape:current-layer="layer1" />
  <defs
     id="defs7883" />
  <g
     inkscape:label="Layer 1"
     inkscape:groupmode="layer"
     id="layer1"
     transform="translate(-85.152462,-142.73749)">
    <path
       stroke="#000000"
       stroke-width="0.281945"
       stroke-miterlimit="16.2479"
       stroke-linecap="butt"
       d="m 88.097973,142.88103 -1.19795,0.32139 -1.554077,0.86802 0.803087,1.39351 0.807361,-0.37778 c 0.02618,0.25623 0.138924,0.80309 0.138924,0.80309 0.03046,1.55835 -0.09538,3.21662 -0.09538,3.21662 0.954834,0.12584 1.923026,0.13894 1.923026,0.13894 0,0 0.9722,-0.0132 1.922759,-0.13894 0,0 -0.125833,-1.65827 -0.09538,-3.21662 0,0 0.117283,-0.54686 0.143198,-0.80309 l 0.803086,0.37778 0.803087,-1.39351 -1.549802,-0.86802 -1.202225,-0.32139 c 0,0 -0.473143,0.0652 -0.824727,0.0652 -0.351851,0 -0.824994,-0.0652 -0.824994,-0.0652 z"
       fill-rule="evenodd"
       id="path2521"
       style="fill:#36416f;fill-opacity:1;stroke:#000000;stroke-opacity:1" />
    <path
       fill="#000000"
       d="m 86.999941,149.10588 c 0,0 -0.599242,1.73202 -0.746715,4.1629 -0.0043,0.0564 -0.0085,0.18222 -0.01309,0.23858 0,0 0.0088,0.005 0.02191,0.005 0.177929,0.0259 1.584265,0.23857 2.400442,0.23857 h 0.04328 c 0,0 0.0043,-0.12583 0.01736,-0.22119 0.03046,-0.33877 0.108467,-1.14612 0.130375,-1.57144 0.01736,0.42532 0.09538,1.23267 0.125832,1.57144 0.01282,0.0954 0.01736,0.22119 0.01736,0.22119 0.0147,0 0.02939,0 0.04435,0 0.87335,0 2.421281,-0.24339 2.421281,-0.24339 -0.0045,-0.0564 -0.0088,-0.18219 -0.0088,-0.23857 -0.152014,-2.43089 -0.75099,-4.16291 -0.75099,-4.16291 z"
       fill-rule="evenodd"
       id="path2523"
       style="fill:#36416f;fill-opacity:1;stroke:#000000;stroke-width:0.264583;stroke-opacity:1" />
    <path
       fill="#faff58"
       d="m 96.146269,142.88103 -1.197951,0.32139 -1.554077,0.86802 0.803087,1.39351 0.807362,-0.37778 c 0.02619,0.25623 0.138922,0.80309 0.138922,0.80309 0.03046,1.55835 -0.09538,3.21662 -0.09538,3.21662 0.954836,0.12584 1.923029,0.13894 1.923029,0.13894 0,0 0.972198,-0.0132 1.922758,-0.13894 0,0 -0.125833,-1.65827 -0.09538,-3.21662 0,0 0.117282,-0.54686 0.143198,-0.80309 l 0.803087,0.37778 0.803086,-1.39351 -1.549803,-0.86802 -1.202225,-0.32139 c 0,0 -0.473141,0.0652 -0.824724,0.0652 -0.351854,0 -0.824995,-0.0652 -0.824995,-0.0652 z"
       fill-rule="evenodd"
       id="path2527"
       style="fill:#000000;fill-opacity:0;stroke:#000000;stroke-width:0.264583;stroke-opacity:1" />
    <path
       fill="#000000"
       d="m 95.048235,149.10588 c 0,0 -0.599241,1.73202 -0.746714,4.1629 -0.0043,0.0564 -0.0085,0.18222 -0.01309,0.23858 0,0 0.0088,0.005 0.02191,0.005 0.177929,0.0259 1.584265,0.23857 2.400442,0.23857 h 0.04328 c 0,0 0.0043,-0.12583 0.01736,-0.22119 0.03046,-0.33877 0.108468,-1.14612 0.130376,-1.57144 0.01736,0.42532 0.09538,1.23267 0.125833,1.57144 0.01283,0.0954 0.01736,0.22119 0.01736,0.22119 0.01468,0 0.02939,0 0.04435,0 0.873349,0 2.421281,-0.24339 2.421281,-0.24339 -0.0046,-0.0564 -0.0088,-0.18219 -0.0088,-0.23857 -0.152013,-2.43089 -0.750988,-4.16291 -0.750988,-4.16291 z"
       fill-rule="evenodd"
       id="path2531"
       style="fill:#000000;fill-opacity:0;stroke:#000000;stroke-width:0.264583;stroke-opacity:1" />
    <path
       fill="#faff58"
       d="m 104.19456,142.88103 -1.19795,0.32139 -1.55407,0.86802 0.80308,1.39351 0.80736,-0.37778 c 0.0262,0.25623 0.13892,0.80309 0.13892,0.80309 0.0305,1.55835 -0.0954,3.21662 -0.0954,3.21662 0.95483,0.12584 1.92303,0.13894 1.92303,0.13894 0,0 0.97219,-0.0132 1.92276,-0.13894 0,0 -0.12584,-1.65827 -0.0954,-3.21662 0,0 0.11728,-0.54686 0.1432,-0.80309 l 0.80308,0.37778 0.80309,-1.39351 -1.5498,-0.86802 -1.20223,-0.32139 c 0,0 -0.47314,0.0652 -0.82472,0.0652 -0.35185,0 -0.825,-0.0652 -0.825,-0.0652 z"
       fill-rule="evenodd"
       id="path2535"
       style="fill:#ad1e32;fill-opacity:1;stroke:#000000;stroke-width:0.264583;stroke-opacity:1" />
    <path
       fill="#000000"
       d="m 103.09653,149.10588 c 0,0 -0.59924,1.73202 -0.74672,4.1629 -0.004,0.0564 -0.009,0.18222 -0.0131,0.23858 0,0 0.009,0.005 0.0219,0.005 0.17793,0.0259 1.58427,0.23857 2.40045,0.23857 h 0.0433 c 0,0 0.004,-0.12583 0.0173,-0.22119 0.0305,-0.33877 0.10847,-1.14612 0.13038,-1.57144 0.0174,0.42532 0.0954,1.23267 0.12583,1.57144 0.0128,0.0954 0.0174,0.22119 0.0174,0.22119 0.0147,0 0.0294,0 0.0443,0 0.87335,0 2.42128,-0.24339 2.42128,-0.24339 -0.005,-0.0564 -0.009,-0.18219 -0.009,-0.23857 -0.15202,-2.43089 -0.75099,-4.16291 -0.75099,-4.16291 z"
       fill-rule="evenodd"
       id="path2539"
       style="fill:#ad1e32;fill-opacity:1;stroke:#000000;stroke-width:0.264583;stroke-opacity:1" />
    <path
       fill="#faff58"
       d="m 112.24286,142.88103 -1.19795,0.32139 -1.55408,0.86802 0.80309,1.39351 0.80736,-0.37778 c 0.0262,0.25623 0.13892,0.80309 0.13892,0.80309 0.0305,1.55835 -0.0954,3.21662 -0.0954,3.21662 0.95484,0.12584 1.92303,0.13894 1.92303,0.13894 0,0 0.9722,-0.0132 1.92276,-0.13894 0,0 -0.12583,-1.65827 -0.0954,-3.21662 0,0 0.11729,-0.54686 0.1432,-0.80309 l 0.80309,0.37778 0.80309,-1.39351 -1.54981,-0.86802 -1.20222,-0.32139 c 0,0 -0.47314,0.0652 -0.82473,0.0652 -0.35185,0 -0.82499,-0.0652 -0.82499,-0.0652 z"
       fill-rule="evenodd"
       id="path2543"
       style="fill:#ffff0a;fill-opacity:1;stroke:#000000;stroke-width:0.264583;stroke-opacity:1" />
    <path
       fill="#000000"
       d="m 111.14482,149.10588 c 0,0 -0.59924,1.73202 -0.74671,4.1629 -0.004,0.0564 -0.009,0.18222 -0.0131,0.23858 0,0 0.009,0.005 0.0219,0.005 0.17793,0.0259 1.58426,0.23857 2.40044,0.23857 h 0.0433 c 0,0 0.004,-0.12583 0.0174,-0.22119 0.0305,-0.33877 0.10847,-1.14612 0.13037,-1.57144 0.0174,0.42532 0.0954,1.23267 0.12584,1.57144 0.0128,0.0954 0.0173,0.22119 0.0173,0.22119 0.0147,0 0.0294,0 0.0444,0 0.87335,0 2.42128,-0.24339 2.42128,-0.24339 -0.005,-0.0564 -0.009,-0.18219 -0.009,-0.23857 -0.15201,-2.43089 -0.75099,-4.16291 -0.75099,-4.16291 z"
       fill-rule="evenodd"
       id="path2547"
       style="fill:#ffff0a;fill-opacity:1;stroke:#000000;stroke-width:0.264583;stroke-opacity:1" />
    <path
       fill="#faff58"
       d="m 120.29115,142.88103 -1.19795,0.32139 -1.55408,0.86802 0.80309,1.39351 0.80736,-0.37778 c 0.0262,0.25623 0.13893,0.80309 0.13893,0.80309 0.0305,1.55835 -0.0954,3.21662 -0.0954,3.21662 0.95483,0.12584 1.92302,0.13894 1.92302,0.13894 0,0 0.97221,-0.0132 1.92276,-0.13894 0,0 -0.12583,-1.65827 -0.0954,-3.21662 0,0 0.11728,-0.54686 0.1432,-0.80309 l 0.80308,0.37778 0.80309,-1.39351 -1.5498,-0.86802 -1.20223,-0.32139 c 0,0 -0.47314,0.0652 -0.82472,0.0652 -0.35185,0 -0.825,-0.0652 -0.825,-0.0652 z"
       fill-rule="evenodd"
       id="path2551"
       style="fill:#4d91d6;fill-opacity:1;stroke:#000000;stroke-width:0.264583;stroke-opacity:1" />
    <path
       fill="#000000"
       d="m 119.19312,149.10588 c 0,0 -0.59924,1.73202 -0.74672,4.1629 -0.004,0.0564 -0.009,0.18222 -0.0131,0.23858 0,0 0.009,0.005 0.0219,0.005 0.17793,0.0259 1.58427,0.23857 2.40045,0.23857 h 0.0433 c 0,0 0.004,-0.12583 0.0174,-0.22119 0.0305,-0.33877 0.10847,-1.14612 0.13038,-1.57144 0.0174,0.42532 0.0954,1.23267 0.12583,1.57144 0.0128,0.0954 0.0174,0.22119 0.0174,0.22119 0.0147,0 0.0294,0 0.0444,0 0.87335,0 2.42128,-0.24339 2.42128,-0.24339 -0.005,-0.0564 -0.009,-0.18219 -0.009,-0.23857 -0.15202,-2.43089 -0.75099,-4.16291 -0.75099,-4.16291 z"
       fill-rule="evenodd"
       id="path2555"
       style="fill:#4d91d6;fill-opacity:1;stroke:#000000;stroke-width:0.264583;stroke-opacity:1" />
  </g>
</svg>
