<?xml version="1.0" encoding="UTF-8"?>
<!-- Created with Inkscape (http://www.inkscape.org/) -->
<svg id="svg8440" width="39.529mm" height="11.137mm" version="1.1" viewBox="0 0 39.529 11.137" xmlns="http://www.w3.org/2000/svg">
 <g id="layer1" transform="translate(-50.878 -137.61)">
  <path id="path2603" d="m53.811 137.75-1.198 0.32138-1.5541 0.86802 0.80309 1.3935 0.80736-0.37777c0.02618 0.25622 0.13892 0.80309 0.13892 0.80309 0.03046 1.5583-0.09538 3.2166-0.09538 3.2166 0.95483 0.12583 1.923 0.13893 1.923 0.13893s0.9722-0.0132 1.9228-0.13893c0 0-0.12583-1.6583-0.09538-3.2166 0 0 0.11728-0.54687 0.1432-0.80309l0.80309 0.37777 0.80309-1.3935-1.5498-0.86802-1.2022-0.32138s-0.47314 0.0652-0.82473 0.0652c-0.35185 0-0.82499-0.0652-0.82499-0.0652z" fill="#23cafc" fill-rule="evenodd" stroke="#000" stroke-width=".26458"/>
  <path id="path2607" d="m52.713 143.97s-0.59924 1.732-0.74672 4.1629c-0.0043 0.0564-0.0085 0.18222-0.01309 0.23857 0 0 0.0088 5e-3 0.02191 5e-3 0.17793 0.0259 1.5843 0.23858 2.4004 0.23858h0.04328s0.0043-0.12584 0.01737-0.2212c0.03046-0.33877 0.10847-1.1461 0.13038-1.5715 0.01736 0.42534 0.09538 1.2327 0.12583 1.5715 0.01282 0.0954 0.01736 0.2212 0.01736 0.2212h0.04435c0.87335 0 2.4213-0.24339 2.4213-0.24339-0.0045-0.0564-0.0088-0.1822-0.0088-0.23858-0.15201-2.4309-0.75099-4.1629-0.75099-4.1629z" fill-rule="evenodd" stroke-width=".26458"/>
  <path id="path2611" d="m61.86 137.75-1.198 0.32138-1.5541 0.86802 0.80309 1.3935 0.80736-0.37777c0.02619 0.25622 0.13892 0.80309 0.13892 0.80309 0.03046 1.5583-0.09538 3.2166-0.09538 3.2166 0.95484 0.12583 1.923 0.13893 1.923 0.13893s0.9722-0.0132 1.9228-0.13893c0 0-0.12583-1.6583-0.09538-3.2166 0 0 0.11728-0.54687 0.1432-0.80309l0.80309 0.37777 0.80309-1.3935-1.5498-0.86802-1.2022-0.32138s-0.47314 0.0652-0.82472 0.0652c-0.35185 0-0.825-0.0652-0.825-0.0652z" fill="#faffff" fill-rule="evenodd" stroke="#000" stroke-width=".26458"/>
  <path id="path2615" d="m60.762 143.97s-0.59924 1.732-0.74671 4.1629c-0.0043 0.0564-0.0085 0.18222-0.01309 0.23857 0 0 0.0088 5e-3 0.02191 5e-3 0.17793 0.0259 1.5843 0.23858 2.4004 0.23858h0.04328s0.0043-0.12584 0.01736-0.2212c0.03046-0.33877 0.10847-1.1461 0.13038-1.5715 0.01736 0.42534 0.09538 1.2327 0.12583 1.5715 0.01283 0.0954 0.01736 0.2212 0.01736 0.2212h0.04435c0.87335 0 2.4213-0.24339 2.4213-0.24339-0.0046-0.0564-0.0088-0.1822-0.0088-0.23858-0.15201-2.4309-0.75099-4.1629-0.75099-4.1629z" fill="#ad1e32" fill-rule="evenodd" stroke="#000" stroke-width=".26458"/>
  <path id="path2619" d="m69.908 137.75-1.198 0.32138-1.5541 0.86802 0.80308 1.3935 0.80736-0.37777c0.02619 0.25622 0.13892 0.80309 0.13892 0.80309 0.03046 1.5583-0.09537 3.2166-0.09537 3.2166 0.95483 0.12583 1.923 0.13893 1.923 0.13893s0.9722-0.0132 1.9228-0.13893c0 0-0.12583-1.6583-0.09538-3.2166 0 0 0.11728-0.54687 0.1432-0.80309l0.80309 0.37777 0.80309-1.3935-1.5498-0.86802-1.2022-0.32138s-0.47314 0.0652-0.82473 0.0652c-0.35185 0-0.82499-0.0652-0.82499-0.0652z" fill="#faff58" fill-rule="evenodd" stroke="#000" stroke-width=".26458"/>
  <path id="path2623" d="m68.81 143.97s-0.59924 1.732-0.74672 4.1629c-0.0043 0.0564-0.0085 0.18222-0.0131 0.23857 0 0 0.0088 5e-3 0.02191 5e-3 0.17793 0.0259 1.5843 0.23858 2.4004 0.23858h0.04328s0.0043-0.12584 0.01736-0.2212c0.03046-0.33877 0.10847-1.1461 0.13038-1.5715 0.01736 0.42534 0.09538 1.2327 0.12583 1.5715 0.01283 0.0954 0.01736 0.2212 0.01736 0.2212h0.04435c0.87335 0 2.4213-0.24339 2.4213-0.24339-0.0046-0.0564-0.0088-0.1822-0.0088-0.23858-0.15202-2.4309-0.75099-4.1629-0.75099-4.1629z" fill-rule="evenodd" stroke-width=".26458"/>
  <path id="path2627" d="m77.956 137.75-1.1979 0.32138-1.5541 0.86802 0.80309 1.3935 0.80736-0.37777c0.02619 0.25622 0.13892 0.80309 0.13892 0.80309 0.03046 1.5583-0.09538 3.2166-0.09538 3.2166 0.95483 0.12583 1.923 0.13893 1.923 0.13893s0.9722-0.0132 1.9228-0.13893c0 0-0.12584-1.6583-0.09538-3.2166 0 0 0.11728-0.54687 0.1432-0.80309l0.80309 0.37777 0.80309-1.3935-1.5498-0.86802-1.2022-0.32138s-0.47314 0.0652-0.82473 0.0652c-0.35185 0-0.82499-0.0652-0.825-0.0652z" fill="#5e9bb4" fill-rule="evenodd" stroke="#000" stroke-width=".26458"/>
  <path id="path2631" d="m76.858 143.97s-0.59924 1.732-0.74672 4.1629c-0.0043 0.0564-0.0085 0.18222-0.0131 0.23857 0 0 0.0088 5e-3 0.02191 5e-3 0.17793 0.0259 1.5843 0.23858 2.4004 0.23858h0.04328s0.0043-0.12584 0.01736-0.2212c0.03046-0.33877 0.10847-1.1461 0.13037-1.5715 0.01736 0.42534 0.09538 1.2327 0.12583 1.5715 0.01283 0.0954 0.01736 0.2212 0.01736 0.2212h0.04435c0.87335 0 2.4213-0.24339 2.4213-0.24339-0.0046-0.0564-0.0088-0.1822-0.0088-0.23858-0.15201-2.4309-0.75099-4.1629-0.75099-4.1629z" fill="#5e9bb4" fill-rule="evenodd" stroke="#000" stroke-width=".26458"/>
  <path id="path2635" d="m86.004 137.75-1.1979 0.32138-1.5541 0.86802 0.80309 1.3935 0.80736-0.37777c0.02619 0.25622 0.13892 0.80309 0.13892 0.80309 0.03046 1.5583-0.09538 3.2166-0.09538 3.2166 0.95483 0.12583 1.923 0.13893 1.923 0.13893s0.9722-0.0132 1.9228-0.13893c0 0-0.12583-1.6583-0.09538-3.2166 0 0 0.11728-0.54687 0.1432-0.80309l0.80308 0.37777 0.80309-1.3935-1.5498-0.86802-1.2022-0.32138s-0.47314 0.0652-0.82473 0.0652c-0.35185 0-0.82499-0.0652-0.825-0.0652z" fill-rule="evenodd" stroke-width=".26458"/>
  <path id="path2639" d="m84.906 143.97s-0.59924 1.732-0.74672 4.1629c-0.0043 0.0564-0.0085 0.18222-0.0131 0.23857 0 0 0.0088 5e-3 0.02191 5e-3 0.17793 0.0259 1.5843 0.23858 2.4004 0.23858h0.04328s0.0043-0.12584 0.01736-0.2212c0.03046-0.33877 0.10847-1.1461 0.13038-1.5715 0.01736 0.42534 0.09538 1.2327 0.12583 1.5715 0.01283 0.0954 0.01736 0.2212 0.01736 0.2212h0.04435c0.87335 0 2.4213-0.24339 2.4213-0.24339-0.0045-0.0564-0.0088-0.1822-0.0088-0.23858-0.15201-2.4309-0.75099-4.1629-0.75099-4.1629z" fill-rule="evenodd" stroke-width=".26458"/>
  <path id="path1439136" d="m70.421 137.8 0.63632-0.0209v6.2558l-0.635-3e-3z"/>
  <path id="path1439138" d="m72.159 144.04v-6.1545l-0.47625-0.10525v6.2555z"/>
  <path id="path1439140" d="m69.318 144.04v-6.1545l0.47625-0.10525v6.2555z"/>
 </g>
</svg>
