<?xml version="1.0" encoding="UTF-8"?>
<!-- Created with Inkscape (http://www.inkscape.org/) -->
<svg id="svg8716" width="39.528mm" height="11.136mm" version="1.1" viewBox="0 0 39.528 11.136" xmlns="http://www.w3.org/2000/svg">
 <g id="layer1" transform="translate(107.12 -194.2)">
  <path id="path2645" d="m-104.37 194.34-1.198 0.32139-1.5541 0.86802 0.80309 1.3935 0.80736-0.37777c0.0262 0.25622 0.13892 0.80309 0.13892 0.80309 0.0305 1.5583-0.0954 3.2166-0.0954 3.2166 0.95483 0.12584 1.923 0.13894 1.923 0.13894s0.9722-0.0132 1.9228-0.13894c0 0-0.12583-1.6583-0.0954-3.2166 0 0 0.11728-0.54687 0.14319-0.80309l0.80309 0.37777 0.80309-1.3935-1.5498-0.86802-1.2022-0.32139s-0.47314 0.0652-0.82473 0.0652c-0.35185 0-0.82499-0.0652-0.82499-0.0652z" fill-rule="evenodd" stroke-width=".26458"/>
  <path id="path2649" d="m-105.46 200.56s-0.59925 1.732-0.74672 4.1629c-4e-3 0.0564-9e-3 0.18221-0.0131 0.23857 0 0 9e-3 4e-3 0.0219 4e-3 0.17793 0.0259 1.5843 0.23857 2.4004 0.23857h0.0433s4e-3 -0.12583 0.0174-0.22119c0.0305-0.33877 0.10846-1.1461 0.13037-1.5714 0.0174 0.42532 0.0954 1.2327 0.12583 1.5714 0.0128 0.0954 0.0174 0.22119 0.0174 0.22119h0.0443c0.87335 0 2.4213-0.24339 2.4213-0.24339-5e-3 -0.0564-9e-3 -0.18219-9e-3 -0.23857-0.15201-2.4309-0.75099-4.1629-0.75099-4.1629z" fill-rule="evenodd" stroke-width=".26458"/>
  <path id="path2653" d="m-96.317 194.34-1.198 0.32139-1.5541 0.86802 0.80309 1.3935 0.80736-0.37777c0.02619 0.25622 0.13892 0.80309 0.13892 0.80309 0.03046 1.5583-0.09538 3.2166-0.09538 3.2166 0.95484 0.12584 1.923 0.13894 1.923 0.13894s0.9722-0.0132 1.9228-0.13894c0 0-0.12583-1.6583-0.09538-3.2166 0 0 0.11728-0.54687 0.1432-0.80309l0.80309 0.37777 0.80309-1.3935-1.5498-0.86802-1.2022-0.32139s-0.47314 0.0652-0.82472 0.0652c-0.35185 0-0.825-0.0652-0.825-0.0652z" fill="#ad1e32" fill-rule="evenodd" stroke="#000" stroke-width=".26458"/>
  <path id="path2657" d="m-97.415 200.56s-0.59924 1.732-0.74671 4.1629c-0.0043 0.0564-0.0085 0.18221-0.01309 0.23857 0 0 0.0088 4e-3 0.02191 4e-3 0.17793 0.0259 1.5843 0.23857 2.4004 0.23857h0.04328s0.0043-0.12583 0.01736-0.22119c0.03046-0.33877 0.10847-1.1461 0.13038-1.5714 0.01736 0.42532 0.09538 1.2327 0.12583 1.5714 0.01283 0.0954 0.01736 0.22119 0.01736 0.22119h0.04435c0.87335 0 2.4213-0.24339 2.4213-0.24339-0.0046-0.0564-0.0088-0.18219-0.0088-0.23857-0.15201-2.4309-0.75099-4.1629-0.75099-4.1629z" fill="#ad1e32" fill-rule="evenodd" stroke="#000" stroke-width=".26458"/>
  <path id="path2669" d="m-80.22 194.34-1.1979 0.32139-1.5541 0.86802 0.80309 1.3935 0.80736-0.37777c0.02619 0.25622 0.13892 0.80309 0.13892 0.80309 0.03046 1.5583-0.09538 3.2166-0.09538 3.2166 0.95483 0.12584 1.923 0.13894 1.923 0.13894s0.9722-0.0132 1.9228-0.13894c0 0-0.12584-1.6583-0.09538-3.2166 0 0 0.11728-0.54687 0.1432-0.80309l0.80309 0.37777 0.80309-1.3935-1.5498-0.86802-1.2022-0.32139s-0.47314 0.0652-0.82473 0.0652c-0.35185 0-0.82499-0.0652-0.825-0.0652z" fill="#faff58" fill-opacity="0" fill-rule="evenodd" stroke="#000" stroke-width=".26458"/>
  <path id="path2673" d="m-81.318 200.56s-0.59924 1.732-0.74672 4.1629c-0.0043 0.0564-0.0085 0.18221-0.0131 0.23857 0 0 0.0088 4e-3 0.02191 4e-3 0.17793 0.0259 1.5843 0.23857 2.4004 0.23857h0.04328s0.0043-0.12583 0.01736-0.22119c0.03046-0.33877 0.10847-1.1461 0.13037-1.5714 0.01736 0.42532 0.09538 1.2327 0.12583 1.5714 0.01283 0.0954 0.01736 0.22119 0.01736 0.22119h0.04435c0.87335 0 2.4213-0.24339 2.4213-0.24339-0.0046-0.0564-0.0088-0.18219-0.0088-0.23857-0.15201-2.4309-0.75099-4.1629-0.75099-4.1629z" fill-opacity="0" fill-rule="evenodd" stroke="#000" stroke-width=".26458"/>
  <path id="path2677" d="m-72.172 194.34-1.1979 0.32139-1.5541 0.86802 0.80309 1.3935 0.80736-0.37777c0.02619 0.25622 0.13892 0.80309 0.13892 0.80309 0.03046 1.5583-0.09538 3.2166-0.09538 3.2166 0.95483 0.12584 1.923 0.13894 1.923 0.13894s0.9722-0.0132 1.9228-0.13894c0 0-0.12583-1.6583-0.09538-3.2166 0 0 0.11728-0.54687 0.1432-0.80309l0.80308 0.37777 0.80309-1.3935-1.5498-0.86802-1.2022-0.32139s-0.47314 0.0652-0.82473 0.0652c-0.35185 0-0.82499-0.0652-0.825-0.0652z" fill="#ef7d2e" fill-rule="evenodd" stroke="#000" stroke-width=".26458"/>
  <path id="path2681" d="m-73.27 200.56s-0.59924 1.732-0.74672 4.1629c-0.0043 0.0564-0.0085 0.18221-0.0131 0.23857 0 0 0.0088 4e-3 0.02191 4e-3 0.17793 0.0259 1.5843 0.23857 2.4004 0.23857h0.04328s0.0043-0.12583 0.01736-0.22119c0.03046-0.33877 0.10847-1.1461 0.13038-1.5714 0.01736 0.42532 0.09538 1.2327 0.12583 1.5714 0.01283 0.0954 0.01736 0.22119 0.01736 0.22119h0.04435c0.87335 0 2.4213-0.24339 2.4213-0.24339-0.0045-0.0564-0.0088-0.18219-0.0088-0.23857-0.15201-2.4309-0.75099-4.1629-0.75099-4.1629z" fill="#ef7d2e" fill-rule="evenodd" stroke="#000" stroke-width=".26458"/>
  <path id="path1465931" d="m-88.269 194.34-1.198 0.32139-1.5541 0.86802 0.80308 1.3935 0.80736-0.37777c0.02619 0.25622 0.13892 0.80309 0.13892 0.80309 0.03046 1.5583-0.09538 3.2166-0.09538 3.2166 0.95483 0.12584 1.923 0.13894 1.923 0.13894s0.9722-0.0132 1.9228-0.13894c0 0-0.12583-1.6583-0.09538-3.2166 0 0 0.11728-0.54687 0.1432-0.80309l0.80309 0.37777 0.80309-1.3935-1.5498-0.86802-1.2022-0.32139s-0.47314 0.0652-0.82473 0.0652c-0.35185 0-0.82499-0.0652-0.82499-0.0652z" fill="#faff58" fill-rule="evenodd" stroke="#000" stroke-width=".26458"/>
  <path id="path1465933" d="m-89.367 200.56s-0.59924 1.732-0.74672 4.1629c-0.0043 0.0564-0.0085 0.18221-0.0131 0.23857 0 0 0.0088 4e-3 0.02191 4e-3 0.17793 0.0259 1.5843 0.23857 2.4004 0.23857h0.04328s0.0043-0.12583 0.01736-0.22119c0.03046-0.33877 0.10847-1.1461 0.13038-1.5715 0.01736 0.42534 0.09538 1.2327 0.12583 1.5715 0.01283 0.0954 0.01736 0.22119 0.01736 0.22119h0.04435c0.87335 0 2.4213-0.24339 2.4213-0.24339-0.0046-0.0564-0.0088-0.18219-0.0088-0.23857-0.15202-2.4309-0.75099-4.1629-0.75099-4.1629z" fill-rule="evenodd" stroke-width=".26458"/>
  <path id="path1465935" d="m-87.756 194.39 0.63632-0.0209v6.2558l-0.635-3e-3z"/>
  <path id="path1465937" d="m-86.017 200.63v-6.1545l-0.47625-0.10525v6.2555z"/>
  <path id="path1465939" d="m-88.858 200.63v-6.1545l0.47625-0.10525v6.2555z"/>
 </g>
</svg>
