<?xml version="1.0" encoding="UTF-8" standalone="no"?>
<!-- Created with Inkscape (http://www.inkscape.org/) -->

<svg
   width="39.528442mm"
   height="11.135897mm"
   viewBox="0 0 39.528442 11.135897"
   version="1.1"
   id="svg8716"
   inkscape:version="1.1.2 (0a00cf5339, 2022-02-04)"
   sodipodi:docname="046.svg"
   xmlns:inkscape="http://www.inkscape.org/namespaces/inkscape"
   xmlns:sodipodi="http://sodipodi.sourceforge.net/DTD/sodipodi-0.dtd"
   xmlns="http://www.w3.org/2000/svg"
   xmlns:svg="http://www.w3.org/2000/svg">
  <sodipodi:namedview
     id="namedview8718"
     pagecolor="#ffffff"
     bordercolor="#666666"
     borderopacity="1.0"
     inkscape:pageshadow="2"
     inkscape:pageopacity="0.0"
     inkscape:pagecheckerboard="0"
     inkscape:document-units="mm"
     showgrid="false"
     inkscape:zoom="0.69664703"
     inkscape:cx="801.69724"
     inkscape:cy="-172.97138"
     inkscape:window-width="1920"
     inkscape:window-height="1016"
     inkscape:window-x="0"
     inkscape:window-y="0"
     inkscape:window-maximized="1"
     inkscape:current-layer="layer1" />
  <defs
     id="defs8713" />
  <g
     inkscape:label="Layer 1"
     inkscape:groupmode="layer"
     id="layer1"
     transform="translate(107.11717,-194.20418)">
    <path
       fill="#faff58"
       d="m -104.36514,194.33888 -1.19795,0.32139 -1.55408,0.86802 0.80309,1.39351 0.80736,-0.37777 c 0.0262,0.25622 0.13892,0.80309 0.13892,0.80309 0.0305,1.55834 -0.0954,3.21661 -0.0954,3.21661 0.95483,0.12584 1.92302,0.13894 1.92302,0.13894 0,0 0.9722,-0.0132 1.92276,-0.13894 0,0 -0.12583,-1.65827 -0.0954,-3.21661 0,0 0.11728,-0.54687 0.14319,-0.80309 l 0.80309,0.37777 0.803087,-1.39351 -1.549807,-0.86802 -1.20222,-0.32139 c 0,0 -0.47314,0.0652 -0.82473,0.0652 -0.35185,0 -0.82499,-0.0652 -0.82499,-0.0652 z"
       fill-rule="evenodd"
       id="path2645"
       style="fill:#000000;fill-opacity:1;stroke-width:0.264583" />
    <path
       fill="#000000"
       d="m -105.46317,200.56373 c 0,0 -0.59925,1.73202 -0.74672,4.16291 -0.004,0.0564 -0.009,0.18221 -0.0131,0.23857 0,0 0.009,0.004 0.0219,0.004 0.17793,0.0259 1.58426,0.23857 2.40044,0.23857 h 0.0433 c 0,0 0.004,-0.12583 0.0174,-0.22119 0.0305,-0.33877 0.10846,-1.14612 0.13037,-1.57144 0.0174,0.42532 0.0954,1.23267 0.12583,1.57144 0.0128,0.0954 0.0174,0.22119 0.0174,0.22119 0.0147,0 0.0294,0 0.0443,0 0.87335,0 2.42128,-0.24339 2.42128,-0.24339 -0.005,-0.0564 -0.009,-0.18219 -0.009,-0.23857 -0.15201,-2.43089 -0.75099,-4.1629 -0.75099,-4.1629 z"
       fill-rule="evenodd"
       id="path2649"
       style="stroke-width:0.264583" />
    <path
       fill="#faff58"
       d="m -96.316845,194.33888 -1.197951,0.32139 -1.554077,0.86802 0.803087,1.39351 0.807362,-0.37777 c 0.02619,0.25622 0.138922,0.80309 0.138922,0.80309 0.03046,1.55834 -0.09538,3.21661 -0.09538,3.21661 0.954836,0.12584 1.923029,0.13894 1.923029,0.13894 0,0 0.972198,-0.0132 1.922758,-0.13894 0,0 -0.125833,-1.65827 -0.09538,-3.21661 0,0 0.117282,-0.54687 0.143198,-0.80309 l 0.803087,0.37777 0.803086,-1.39351 -1.549803,-0.86802 -1.202225,-0.32139 c 0,0 -0.473141,0.0652 -0.824724,0.0652 -0.351854,0 -0.824995,-0.0652 -0.824995,-0.0652 z"
       fill-rule="evenodd"
       id="path2653"
       style="fill:#ad1e32;fill-opacity:1;stroke:#000000;stroke-width:0.264583;stroke-opacity:1" />
    <path
       fill="#000000"
       d="m -97.414879,200.56373 c 0,0 -0.599241,1.73202 -0.746714,4.16291 -0.0043,0.0564 -0.0085,0.18221 -0.01309,0.23857 0,0 0.0088,0.004 0.02191,0.004 0.177929,0.0259 1.584265,0.23857 2.400442,0.23857 h 0.04328 c 0,0 0.0043,-0.12583 0.01736,-0.22119 0.03046,-0.33877 0.108468,-1.14612 0.130376,-1.57144 0.01736,0.42532 0.09538,1.23267 0.125833,1.57144 0.01283,0.0954 0.01736,0.22119 0.01736,0.22119 0.01468,0 0.02939,0 0.04435,0 0.873349,0 2.421281,-0.24339 2.421281,-0.24339 -0.0046,-0.0564 -0.0088,-0.18219 -0.0088,-0.23857 -0.152013,-2.43089 -0.750988,-4.1629 -0.750988,-4.1629 z"
       fill-rule="evenodd"
       id="path2657"
       style="fill:#ad1e32;fill-opacity:1;stroke:#000000;stroke-width:0.264583;stroke-opacity:1" />
    <path
       fill="#faff58"
       d="m -80.220258,194.33888 -1.197949,0.32139 -1.554078,0.86802 0.803088,1.39351 0.80736,-0.37777 c 0.02619,0.25622 0.138924,0.80309 0.138924,0.80309 0.03046,1.55834 -0.09538,3.21661 -0.09538,3.21661 0.954834,0.12584 1.923029,0.13894 1.923029,0.13894 0,0 0.972198,-0.0132 1.922759,-0.13894 0,0 -0.125836,-1.65827 -0.09538,-3.21661 0,0 0.117282,-0.54687 0.143198,-0.80309 l 0.803087,0.37777 0.803087,-1.39351 -1.549802,-0.86802 -1.202224,-0.32139 c 0,0 -0.473144,0.0652 -0.824728,0.0652 -0.351851,0 -0.824994,-0.0652 -0.824997,-0.0652 z"
       fill-rule="evenodd"
       id="path2669"
       style="fill:#000000;fill-opacity:0;stroke:#000000;stroke-width:0.264583;stroke-opacity:1" />
    <path
       fill="#000000"
       d="m -81.31829,200.56373 c 0,0 -0.599241,1.73202 -0.746715,4.16291 -0.0043,0.0564 -0.0085,0.18221 -0.0131,0.23857 0,0 0.0088,0.004 0.02191,0.004 0.17793,0.0259 1.584264,0.23857 2.400443,0.23857 h 0.04328 c 0,0 0.0043,-0.12583 0.01736,-0.22119 0.03046,-0.33877 0.108466,-1.14612 0.130374,-1.57144 0.01736,0.42532 0.09538,1.23267 0.125833,1.57144 0.01283,0.0954 0.01736,0.22119 0.01736,0.22119 0.01469,0 0.02939,0 0.04435,0 0.87335,0 2.421281,-0.24339 2.421281,-0.24339 -0.0046,-0.0564 -0.0088,-0.18219 -0.0088,-0.23857 -0.152014,-2.43089 -0.750991,-4.1629 -0.750991,-4.1629 z"
       fill-rule="evenodd"
       id="path2673"
       style="fill:#000000;fill-opacity:0;stroke:#000000;stroke-width:0.264583;stroke-opacity:1" />
    <path
       fill="#faff58"
       d="m -72.171964,194.33888 -1.197949,0.32139 -1.554077,0.86802 0.803087,1.39351 0.80736,-0.37777 c 0.02619,0.25622 0.138925,0.80309 0.138925,0.80309 0.03046,1.55834 -0.09538,3.21661 -0.09538,3.21661 0.954833,0.12584 1.923026,0.13894 1.923026,0.13894 0,0 0.972201,-0.0132 1.922759,-0.13894 0,0 -0.125834,-1.65827 -0.09538,-3.21661 0,0 0.117284,-0.54687 0.143203,-0.80309 l 0.803084,0.37777 0.803087,-1.39351 -1.549802,-0.86802 -1.202224,-0.32139 c 0,0 -0.473144,0.0652 -0.824728,0.0652 -0.351851,0 -0.824994,-0.0652 -0.824997,-0.0652 z"
       fill-rule="evenodd"
       id="path2677"
       style="fill:#ef7d2e;fill-opacity:1;stroke:#000000;stroke-width:0.264583;stroke-opacity:1" />
    <path
       fill="#000000"
       d="m -73.269995,200.56373 c 0,0 -0.599242,1.73202 -0.746715,4.16291 -0.0043,0.0564 -0.0085,0.18221 -0.0131,0.23857 0,0 0.0088,0.004 0.02191,0.004 0.17793,0.0259 1.584267,0.23857 2.400443,0.23857 h 0.04328 c 0,0 0.0043,-0.12583 0.01736,-0.22119 0.03046,-0.33877 0.108469,-1.14612 0.130376,-1.57144 0.01736,0.42532 0.09538,1.23267 0.125831,1.57144 0.01283,0.0954 0.01736,0.22119 0.01736,0.22119 0.01468,0 0.02939,0 0.04435,0 0.87335,0 2.421281,-0.24339 2.421281,-0.24339 -0.0045,-0.0564 -0.0088,-0.18219 -0.0088,-0.23857 -0.152014,-2.43089 -0.750991,-4.1629 -0.750991,-4.1629 z"
       fill-rule="evenodd"
       id="path2681"
       style="fill:#ef7d2e;fill-opacity:1;stroke:#000000;stroke-width:0.264583;stroke-opacity:1" />
    <path
       fill="#faff58"
       d="m -88.268552,194.33888 -1.197952,0.32139 -1.554075,0.86802 0.803085,1.39351 0.807363,-0.37777 c 0.02619,0.25622 0.138922,0.80309 0.138922,0.80309 0.03046,1.55834 -0.09538,3.21661 -0.09538,3.21661 0.954834,0.12584 1.923026,0.13894 1.923026,0.13894 0,0 0.972199,-0.0132 1.922759,-0.13894 0,0 -0.125833,-1.65827 -0.09538,-3.21661 0,0 0.117282,-0.54687 0.143198,-0.80309 l 0.803087,0.37777 0.803087,-1.39351 -1.549799,-0.86802 -1.202227,-0.32139 c 0,0 -0.473141,0.0652 -0.824728,0.0652 -0.35185,0 -0.824992,-0.0652 -0.824994,-0.0652 z"
       fill-rule="evenodd"
       id="path1465931"
       style="stroke:#000000;stroke-width:0.264583;stroke-opacity:1" />
    <path
       fill="#000000"
       d="m -89.366584,200.56373 c 0,0 -0.599244,1.73202 -0.746717,4.16291 -0.0043,0.0564 -0.0085,0.18221 -0.0131,0.23857 0,0 0.0088,0.004 0.02191,0.004 0.17793,0.0259 1.584267,0.23857 2.400443,0.23857 h 0.04328 c 0,0 0.0043,-0.12583 0.01736,-0.22119 0.03046,-0.33877 0.108469,-1.14612 0.130376,-1.57146 0.01736,0.42534 0.09538,1.23269 0.125834,1.57146 0.01283,0.0954 0.01736,0.22119 0.01736,0.22119 0.01469,0 0.02939,0 0.04435,0 0.87335,0 2.421281,-0.24339 2.421281,-0.24339 -0.0046,-0.0564 -0.0088,-0.18219 -0.0088,-0.23857 -0.152017,-2.43089 -0.750991,-4.1629 -0.750991,-4.1629 z"
       fill-rule="evenodd"
       id="path1465933"
       style="stroke-width:0.264583" />
    <path
       style="fill:#000000;fill-opacity:1;stroke:none;stroke-width:0.224172px;stroke-linecap:butt;stroke-linejoin:miter;stroke-opacity:1"
       d="m -87.755882,194.38587 0.636323,-0.0209 v 6.25584 l -0.634998,-0.003 z"
       id="path1465935"
       sodipodi:nodetypes="ccccc" />
    <path
       style="fill:#000000;fill-opacity:1;stroke:none;stroke-width:0.311422px;stroke-linecap:butt;stroke-linejoin:miter;stroke-opacity:1"
       d="m -86.017049,200.63044 v -6.1545 l -0.47625,-0.10525 v 6.25546 z"
       id="path1465937" />
    <path
       style="fill:#000000;fill-opacity:1;stroke:none;stroke-width:0.311425px;stroke-linecap:butt;stroke-linejoin:miter;stroke-opacity:1"
       d="m -88.858396,200.63044 v -6.1545 l 0.47625,-0.10525 v 6.25546 z"
       id="path1465939" />
  </g>
</svg>
