<?xml version="1.0" encoding="UTF-8" standalone="no"?>
<!-- Created with Inkscape (http://www.inkscape.org/) -->

<svg
   width="39.721916mm"
   height="11.145736mm"
   viewBox="0 0 39.721916 11.145736"
   version="1.1"
   id="svg9548"
   inkscape:version="1.1.2 (0a00cf5339, 2022-02-04)"
   sodipodi:docname="049.svg"
   xmlns:inkscape="http://www.inkscape.org/namespaces/inkscape"
   xmlns:sodipodi="http://sodipodi.sourceforge.net/DTD/sodipodi-0.dtd"
   xmlns="http://www.w3.org/2000/svg"
   xmlns:svg="http://www.w3.org/2000/svg">
  <sodipodi:namedview
     id="namedview9550"
     pagecolor="#ffffff"
     bordercolor="#666666"
     borderopacity="1.0"
     inkscape:pageshadow="2"
     inkscape:pageopacity="0.0"
     inkscape:pagecheckerboard="0"
     inkscape:document-units="mm"
     showgrid="false"
     inkscape:zoom="0.69664703"
     inkscape:cx="734.23123"
     inkscape:cy="-88.280001"
     inkscape:window-width="1920"
     inkscape:window-height="1016"
     inkscape:window-x="0"
     inkscape:window-y="0"
     inkscape:window-maximized="1"
     inkscape:current-layer="layer1" />
  <defs
     id="defs9545" />
  <g
     inkscape:label="Layer 1"
     inkscape:groupmode="layer"
     id="layer1"
     transform="translate(89.363517,-171.79184)">
    <path
       fill="#faff58"
       d="m -86.429921,171.93538 -1.19795,0.32138 -1.554077,0.86802 0.803087,1.39351 0.807361,-0.37777 c 0.02618,0.25622 0.138924,0.80309 0.138924,0.80309 0.03046,1.55834 -0.09538,3.21662 -0.09538,3.21662 0.954834,0.12583 1.923026,0.13893 1.923026,0.13893 0,0 0.9722,-0.013 1.922759,-0.13893 0,0 -0.125833,-1.65828 -0.09538,-3.21662 0,0 0.117283,-0.54687 0.143198,-0.80309 l 0.803086,0.37777 0.803087,-1.39351 -1.549802,-0.86802 -1.202225,-0.32138 c 0,0 -0.473143,0.0652 -0.824727,0.0652 -0.351851,0 -0.824994,-0.0652 -0.824994,-0.0652 z"
       fill-rule="evenodd"
       id="path2771"
       style="fill:#d63662;fill-opacity:1;stroke:#000000;stroke-width:0.264583;stroke-opacity:1" />
    <path
       fill="#000000"
       d="m -87.527953,178.16023 c 0,0 -0.599242,1.73201 -0.746715,4.1629 -0.0043,0.0564 -0.0085,0.18222 -0.01309,0.23857 0,0 0.0088,0.005 0.02191,0.005 0.177929,0.0259 1.584265,0.23858 2.400442,0.23858 h 0.04328 c 0,0 0.0043,-0.12584 0.01736,-0.2212 0.03046,-0.33877 0.108467,-1.14612 0.130375,-1.57144 0.01736,0.42532 0.09538,1.23267 0.125832,1.57144 0.01283,0.0954 0.01736,0.2212 0.01736,0.2212 0.0147,0 0.02939,0 0.04435,0 0.87335,0 2.421281,-0.24339 2.421281,-0.24339 -0.0045,-0.0564 -0.0088,-0.1822 -0.0088,-0.23858 -0.152014,-2.43088 -0.75099,-4.1629 -0.75099,-4.1629 z"
       fill-rule="evenodd"
       id="path2775"
       style="stroke-width:0.264583" />
    <path
       fill="#faff58"
       d="m -62.285038,171.93538 -1.197949,0.32138 -1.554078,0.86802 0.803088,1.39351 0.80736,-0.37777 c 0.02619,0.25622 0.138924,0.80309 0.138924,0.80309 0.03046,1.55834 -0.09538,3.21662 -0.09538,3.21662 0.954834,0.12583 1.923029,0.13893 1.923029,0.13893 0,0 0.972198,-0.013 1.922759,-0.13893 0,0 -0.125836,-1.65828 -0.09538,-3.21662 0,0 0.117282,-0.54687 0.143198,-0.80309 l 0.803087,0.37777 0.803087,-1.39351 -1.549802,-0.86802 -1.202224,-0.32138 c 0,0 -0.473144,0.0652 -0.824728,0.0652 -0.351851,0 -0.824994,-0.0652 -0.824997,-0.0652 z"
       fill-rule="evenodd"
       id="path2795"
       style="fill:#da1938;fill-opacity:1;stroke:#000000;stroke-width:0.264583;stroke-opacity:1" />
    <path
       fill="#000000"
       d="m -63.38307,178.16023 c 0,0 -0.599241,1.73201 -0.746715,4.1629 -0.0043,0.0564 -0.0085,0.18222 -0.0131,0.23857 0,0 0.0088,0.005 0.02191,0.005 0.17793,0.0259 1.584264,0.23858 2.400443,0.23858 h 0.04328 c 0,0 0.0043,-0.12584 0.01736,-0.2212 0.03046,-0.33877 0.108466,-1.14612 0.130374,-1.57144 0.01736,0.42532 0.09538,1.23267 0.125833,1.57144 0.01283,0.0954 0.01736,0.2212 0.01736,0.2212 0.01469,0 0.02939,0 0.04435,0 0.87335,0 2.421281,-0.24339 2.421281,-0.24339 -0.0046,-0.0564 -0.0088,-0.1822 -0.0088,-0.23858 -0.152014,-2.43088 -0.750991,-4.1629 -0.750991,-4.1629 z"
       fill-rule="evenodd"
       id="path2799"
       style="fill:#da1938;fill-opacity:1;stroke:#000000;stroke-width:0.264583;stroke-opacity:1" />
    <path
       stroke="#000000"
       stroke-width="0.281945"
       stroke-miterlimit="16.2479"
       stroke-linecap="butt"
       d="m -54.236744,171.93538 -1.197949,0.32138 -1.554077,0.86802 0.803087,1.39351 0.80736,-0.37777 c 0.02619,0.25622 0.138925,0.80309 0.138925,0.80309 0.03046,1.55834 -0.09538,3.21662 -0.09538,3.21662 0.954833,0.12583 1.923026,0.13893 1.923026,0.13893 0,0 0.972201,-0.013 1.922759,-0.13893 0,0 -0.125834,-1.65828 -0.09538,-3.21662 0,0 0.117284,-0.54687 0.143203,-0.80309 l 0.803084,0.37777 0.803087,-1.39351 -1.549802,-0.86802 -1.202224,-0.32138 c 0,0 -0.473144,0.0652 -0.824728,0.0652 -0.351851,0 -0.824994,-0.0652 -0.824997,-0.0652 z"
       fill-rule="evenodd"
       id="path2805"
       style="fill:#000000;fill-opacity:0;stroke:#000000;stroke-opacity:1" />
    <path
       fill="#000000"
       d="m -55.334775,178.16023 c 0,0 -0.599242,1.73201 -0.746715,4.1629 -0.0043,0.0564 -0.0085,0.18222 -0.0131,0.23857 0,0 0.0088,0.005 0.02191,0.005 0.17793,0.0259 1.584267,0.23858 2.400443,0.23858 h 0.04328 c 0,0 0.0043,-0.12584 0.01736,-0.2212 0.03046,-0.33877 0.108469,-1.14612 0.130376,-1.57144 0.01736,0.42532 0.09537,1.23267 0.125831,1.57144 0.01283,0.0954 0.01736,0.2212 0.01736,0.2212 0.01468,0 0.02939,0 0.04435,0 0.87335,0 2.421281,-0.24339 2.421281,-0.24339 -0.0046,-0.0564 -0.0088,-0.1822 -0.0088,-0.23858 -0.152014,-2.43088 -0.750991,-4.1629 -0.750991,-4.1629 z"
       fill-rule="evenodd"
       id="path2807"
       style="fill:#000000;fill-opacity:0;stroke:#000000;stroke-width:0.264583;stroke-opacity:1" />
    <path
       fill="#faff58"
       d="m -70.333332,171.93538 -1.197952,0.32138 -1.554075,0.86802 0.803085,1.39351 0.807363,-0.37777 c 0.02619,0.25622 0.138922,0.80309 0.138922,0.80309 0.03046,1.55834 -0.09538,3.21662 -0.09538,3.21662 0.954834,0.12583 1.923026,0.13893 1.923026,0.13893 0,0 0.972199,-0.013 1.922759,-0.13893 0,0 -0.125833,-1.65828 -0.09538,-3.21662 0,0 0.117282,-0.54687 0.143198,-0.80309 l 0.803087,0.37777 0.803087,-1.39351 -1.549799,-0.86802 -1.202227,-0.32138 c 0,0 -0.473141,0.0652 -0.824728,0.0652 -0.35185,0 -0.824992,-0.0652 -0.824994,-0.0652 z"
       fill-rule="evenodd"
       id="path2779-2"
       style="fill:#1e8dd5;fill-opacity:1;stroke:#000000;stroke-width:0.264583;stroke-opacity:1" />
    <path
       fill="#000000"
       d="m -71.431366,178.16023 c 0,0 -0.599242,1.73201 -0.746715,4.1629 -0.0043,0.0564 -0.0085,0.18222 -0.0131,0.23857 0,0 0.0088,0.005 0.02191,0.005 0.17793,0.0259 1.584267,0.23858 2.400443,0.23858 h 0.04328 c 0,0 0.0043,-0.12584 0.01736,-0.2212 0.03046,-0.33877 0.108469,-1.14612 0.130376,-1.57144 0.01736,0.42532 0.09538,1.23267 0.125834,1.57144 0.01283,0.0954 0.01736,0.2212 0.01736,0.2212 0.01469,0 0.02939,0 0.04435,0 0.87335,0 2.421281,-0.24339 2.421281,-0.24339 -0.0046,-0.0564 -0.0088,-0.1822 -0.0088,-0.23858 -0.152017,-2.43088 -0.750991,-4.1629 -0.750991,-4.1629 z"
       fill-rule="evenodd"
       id="path2783-3"
       style="fill:#454a66;fill-opacity:1;stroke:#000000;stroke-width:0.264583;stroke-opacity:1" />
    <path
       d="m -71.531202,172.25669 -1.552929,0.8682 0.806098,1.39451 0.803275,-0.37888 c 0.09525,-0.26458 0.872419,-1.32821 -0.05644,-1.88383 z"
       style="fill:#454a66;fill-opacity:1;fill-rule:evenodd;stroke:#000000;stroke-width:0.281945;stroke-linecap:butt;stroke-linejoin:miter;stroke-miterlimit:16.2479;stroke-dasharray:none;stroke-opacity:1"
       id="path1552111-7" />
    <path
       d="m -67.48096,172.25669 c -0.928865,0.55562 -0.151694,1.61925 -0.0568,1.88383 l 0.807508,0.37888 0.80363,-1.39454 z"
       style="fill:#454a66;fill-opacity:1;fill-rule:evenodd;stroke:#000000;stroke-width:0.281945;stroke-linecap:butt;stroke-linejoin:miter;stroke-miterlimit:16.2479;stroke-dasharray:none;stroke-opacity:1"
       id="path1552113-9" />
    <path
       fill="#faff58"
       d="m -78.381625,171.93538 -1.197951,0.32138 -1.554077,0.86802 0.803087,1.39351 0.807362,-0.37777 c 0.02619,0.25622 0.138922,0.80309 0.138922,0.80309 0.03046,1.55834 -0.09538,3.21662 -0.09538,3.21662 0.954836,0.12583 1.923029,0.13893 1.923029,0.13893 0,0 0.972198,-0.0132 1.922758,-0.13893 0,0 -0.125833,-1.65828 -0.09538,-3.21662 0,0 0.117282,-0.54687 0.143198,-0.80309 l 0.803087,0.37777 0.803086,-1.39351 -1.549803,-0.86802 -1.202225,-0.32138 c 0,0 -0.473141,0.0652 -0.824724,0.0652 -0.351854,0 -0.824995,-0.0652 -0.824995,-0.0652 z"
       fill-rule="evenodd"
       id="path1556268"
       style="stroke:#000000;stroke-width:0.264583;stroke-opacity:1" />
    <path
       fill="#000000"
       d="m -79.479659,178.16023 c 0,0 -0.599241,1.73201 -0.746714,4.1629 -0.0043,0.0564 -0.0085,0.18222 -0.01309,0.23857 0,0 0.0088,0.005 0.02191,0.005 0.177929,0.0259 1.584265,0.23858 2.400442,0.23858 h 0.04328 c 0,0 0.0043,-0.12584 0.01736,-0.2212 0.03046,-0.33877 0.108468,-1.14612 0.130376,-1.57146 0.01736,0.42534 0.09538,1.23269 0.125833,1.57146 0.01283,0.0954 0.01736,0.2212 0.01736,0.2212 0.01468,0 0.02939,0 0.04435,0 0.87335,0 2.421282,-0.24339 2.421282,-0.24339 -0.0046,-0.0564 -0.0088,-0.1822 -0.0088,-0.23858 -0.152016,-2.43088 -0.750991,-4.1629 -0.750991,-4.1629 z"
       fill-rule="evenodd"
       id="path1556270"
       style="fill:#faff58;fill-opacity:1;stroke:#000000;stroke-width:0.264583;stroke-opacity:1" />
    <path
       style="fill:#000000;fill-opacity:1;stroke:none;stroke-width:0.224172px;stroke-linecap:butt;stroke-linejoin:miter;stroke-opacity:1"
       d="m -77.868955,171.98237 0.636323,-0.0209 v 6.25584 l -0.634998,-0.003 z"
       id="path1556272"
       sodipodi:nodetypes="ccccc" />
    <path
       style="fill:#000000;fill-opacity:1;stroke:none;stroke-width:0.311422px;stroke-linecap:butt;stroke-linejoin:miter;stroke-opacity:1"
       d="m -76.130122,178.22693 v -6.1545 l -0.47625,-0.10525 v 6.25546 z"
       id="path1556274" />
    <path
       style="fill:#000000;fill-opacity:1;stroke:none;stroke-width:0.311425px;stroke-linecap:butt;stroke-linejoin:miter;stroke-opacity:1"
       d="m -78.971469,178.22693 v -6.1545 l 0.47625,-0.10525 v 6.25546 z"
       id="path1556276" />
  </g>
</svg>
