<?xml version="1.0" encoding="UTF-8"?>
<!-- Created with Inkscape (http://www.inkscape.org/) -->
<svg id="svg9844" width="39.722mm" height="11.146mm" version="1.1" viewBox="0 0 39.722 11.146" xmlns="http://www.w3.org/2000/svg">
 <g id="layer1" transform="translate(-85.152 -142.74)">
  <path id="path1576553" d="m88.086 142.88-1.198 0.32139-1.5541 0.86801 0.80309 1.3935 0.80736-0.37777c0.02618 0.25622 0.13892 0.80309 0.13892 0.80309 0.03046 1.5583-0.09538 3.2166-0.09538 3.2166 0.95483 0.12583 1.923 0.13893 1.923 0.13893s0.9722-0.013 1.9228-0.13893c0 0-0.12583-1.6583-0.09538-3.2166 0 0 0.11728-0.54687 0.1432-0.80309l0.80309 0.37777 0.80309-1.3935-1.5498-0.86801-1.2022-0.32139s-0.47314 0.0652-0.82473 0.0652c-0.35185 0-0.82499-0.0652-0.82499-0.0652z" fill="#d63662" fill-rule="evenodd" stroke="#000" stroke-width=".26458"/>
  <path id="path1576555" d="m86.988 149.11s-0.59924 1.732-0.74672 4.1629c-0.0043 0.0564-0.0085 0.18222-0.01309 0.23857 0 0 0.0088 5e-3 0.02191 5e-3 0.17793 0.0259 1.5843 0.23858 2.4004 0.23858h0.04328s0.0043-0.12584 0.01736-0.22119c0.03046-0.33878 0.10847-1.1461 0.13038-1.5714 0.01736 0.42531 0.09538 1.2327 0.12583 1.5714 0.01282 0.0954 0.01736 0.22119 0.01736 0.22119h0.04435c0.87335 0 2.4213-0.24339 2.4213-0.24339-0.0045-0.0564-0.0088-0.18219-0.0088-0.23858-0.15201-2.4309-0.75099-4.1629-0.75099-4.1629z" fill-rule="evenodd" stroke-width=".26458"/>
  <path id="path1576557" d="m121.94 142.88 1.198 0.32139 1.5541 0.86801-0.80309 1.3935-0.80736-0.37777c-0.0262 0.25622-0.13892 0.80309-0.13892 0.80309-0.0305 1.5583 0.0954 3.2166 0.0954 3.2166-0.95483 0.12583-1.923 0.13893-1.923 0.13893s-0.9722-0.013-1.9228-0.13893c0 0 0.12583-1.6583 0.0954-3.2166 0 0-0.11729-0.54687-0.1432-0.80309l-0.80309 0.37777-0.80309-1.3935 1.5498-0.86801 1.2022-0.32139s0.47315 0.0652 0.82473 0.0652c0.35185 0 0.82499-0.0652 0.82499-0.0652z" fill-rule="evenodd" stroke="#000" stroke-width=".26458"/>
  <path id="path1576559" d="m123.04 149.11s0.59925 1.732 0.74672 4.1629c4e-3 0.0564 9e-3 0.18222 0.0131 0.23857 0 0-9e-3 5e-3 -0.0219 5e-3 -0.17793 0.0259-1.5843 0.23858-2.4004 0.23858h-0.0433s-4e-3 -0.12584-0.0174-0.22119c-0.0305-0.33878-0.10847-1.1461-0.13037-1.5714-0.0174 0.42531-0.0954 1.2327-0.12584 1.5714-0.0128 0.0954-0.0173 0.22119-0.0173 0.22119h-0.0444c-0.87335 0-2.4213-0.24339-2.4213-0.24339 5e-3 -0.0564 9e-3 -0.18219 9e-3 -0.23858 0.15201-2.4309 0.75099-4.1629 0.75099-4.1629z" fill-rule="evenodd"/>
  <path id="path1576561" d="m113.89 142.88 1.198 0.32139 1.5541 0.86801-0.80309 1.3935-0.80736-0.37777c-0.0262 0.25622-0.13893 0.80309-0.13893 0.80309-0.0305 1.5583 0.0954 3.2166 0.0954 3.2166-0.95483 0.12583-1.923 0.13893-1.923 0.13893s-0.9722-0.013-1.9228-0.13893c0 0 0.12583-1.6583 0.0954-3.2166 0 0-0.11728-0.54687-0.1432-0.80309l-0.80308 0.37777-0.80309-1.3935 1.5498-0.86801 1.2022-0.32139s0.47314 0.0652 0.82472 0.0652c0.35186 0 0.825-0.0652 0.825-0.0652z" fill="#6c281b" fill-rule="evenodd" stroke="#000" stroke-miterlimit="16.248" stroke-width=".28194"/>
  <path id="path1576563" d="m114.99 149.11s0.59924 1.732 0.74672 4.1629c4e-3 0.0564 9e-3 0.18222 0.0131 0.23857 0 0-9e-3 5e-3 -0.0219 5e-3 -0.17792 0.0259-1.5843 0.23858-2.4004 0.23858h-0.0433s-4e-3 -0.12584-0.0174-0.22119c-0.0304-0.33878-0.10846-1.1461-0.13037-1.5714-0.0174 0.42531-0.0954 1.2327-0.12583 1.5714-0.0128 0.0954-0.0174 0.22119-0.0174 0.22119h-0.0444c-0.87335 0-2.4213-0.24339-2.4213-0.24339 5e-3 -0.0564 9e-3 -0.18219 9e-3 -0.23858 0.15201-2.4309 0.75099-4.1629 0.75099-4.1629z" fill="#6c281b" fill-rule="evenodd" stroke="#000" stroke-width=".26458"/>
  <path id="path1576565" d="m104.18 142.88-1.198 0.32139-1.5541 0.86801 0.80309 1.3935 0.80736-0.37777c0.0262 0.25622 0.13892 0.80309 0.13892 0.80309 0.0305 1.5583-0.0954 3.2166-0.0954 3.2166 0.95483 0.12583 1.923 0.13893 1.923 0.13893s0.97219-0.013 1.9228-0.13893c0 0-0.12583-1.6583-0.0954-3.2166 0 0 0.11728-0.54687 0.14319-0.80309l0.80309 0.37777 0.80309-1.3935-1.5498-0.86801-1.2022-0.32139s-0.47314 0.0652-0.82472 0.0652c-0.35186 0-0.825-0.0652-0.825-0.0652z" fill="#21a760" fill-rule="evenodd" stroke="#000" stroke-width=".26458"/>
  <path id="path1576567" d="m103.08 149.11s-0.59924 1.732-0.74672 4.1629c-4e-3 0.0564-9e-3 0.18222-0.0131 0.23857 0 0 9e-3 5e-3 0.0219 5e-3 0.17793 0.0259 1.5843 0.23858 2.4004 0.23858h0.0433s4e-3 -0.12584 0.0173-0.22119c0.0305-0.33878 0.10847-1.1461 0.13038-1.5714 0.0174 0.42531 0.0954 1.2327 0.12583 1.5714 0.0128 0.0954 0.0174 0.22119 0.0174 0.22119h0.0443c0.87335 0 2.4213-0.24339 2.4213-0.24339-5e-3 -0.0564-9e-3 -0.18219-9e-3 -0.23858-0.15202-2.4309-0.75099-4.1629-0.75099-4.1629z" fill="#21a760" fill-rule="evenodd" stroke="#000" stroke-width=".26458"/>
  <path id="path1576575" d="m96.134 142.88-1.198 0.32139-1.5541 0.86801 0.80309 1.3935 0.80736-0.37777c0.02619 0.25622 0.13892 0.80309 0.13892 0.80309 0.03046 1.5583-0.09538 3.2166-0.09538 3.2166 0.95484 0.12583 1.923 0.13893 1.923 0.13893s0.9722-0.0132 1.9228-0.13893c0 0-0.12583-1.6583-0.09538-3.2166 0 0 0.11728-0.54687 0.1432-0.80309l0.80309 0.37777 0.80309-1.3935-1.5498-0.86801-1.2022-0.32139s-0.47314 0.0652-0.82472 0.0652c-0.35185 0-0.825-0.0652-0.825-0.0652z" fill="#faff58" fill-rule="evenodd" stroke="#000" stroke-width=".26458"/>
  <path id="path1576577" d="m95.036 149.11s-0.59924 1.732-0.74671 4.1629c-0.0043 0.0564-0.0085 0.18222-0.01309 0.23857 0 0 0.0088 5e-3 0.02191 5e-3 0.17793 0.0259 1.5843 0.23858 2.4004 0.23858h0.04328s0.0043-0.12584 0.01736-0.22119c0.03046-0.33878 0.10847-1.1461 0.13038-1.5715 0.01736 0.42534 0.09538 1.2327 0.12583 1.5715 0.01283 0.0954 0.01736 0.22119 0.01736 0.22119h0.04435c0.87335 0 2.4213-0.24339 2.4213-0.24339-0.0046-0.0564-0.0088-0.18219-0.0088-0.23858-0.15202-2.4309-0.75099-4.1629-0.75099-4.1629z" fill-rule="evenodd" stroke="#000" stroke-width=".26458"/>
  <path id="path1576579" d="m96.647 142.93 0.63632-0.0209v6.2558l-0.635-3e-3z"/>
  <path id="path1576581" d="m98.386 149.17v-6.1545l-0.47625-0.10525v6.2555z"/>
  <path id="path1576583" d="m95.545 149.17v-6.1545l0.47625-0.10525v6.2555z"/>
  <rect id="rect1588353" x="103.28" y="147.81" width="3.4845" height=".47893" fill="#fff"/>
  <rect id="rect1588881" x="103.28" y="146.76" width="3.4845" height=".47893" fill="#fff"/>
  <rect id="rect1588883" x="103.28" y="145.7" width="3.4845" height=".47893" fill="#fff"/>
  <rect id="rect1588885" x="103.28" y="144.64" width="3.4845" height=".47893" fill="#fff"/>
  <rect id="rect1588887" x="103.28" y="143.58" width="3.4845" height=".47893" fill="#fff"/>
 </g>
</svg>
