<?xml version="1.0" encoding="UTF-8"?>
<!-- Created with Inkscape (http://www.inkscape.org/) -->
<svg id="svg10697" width="39.71mm" height="11.137mm" version="1.1" viewBox="0 0 39.71 11.137" xmlns="http://www.w3.org/2000/svg">
 <g id="layer1" transform="translate(125.44 -193.82)">
  <path id="path2963" d="m-98.36 193.96-1.1979 0.32138-1.5541 0.86802 0.80308 1.3935 0.80736-0.37777c0.02619 0.25622 0.13892 0.80309 0.13892 0.80309 0.03046 1.5583-0.09538 3.2166-0.09538 3.2166 0.95483 0.12583 1.923 0.13893 1.923 0.13893s0.9722-0.0132 1.9228-0.13893c0 0-0.12584-1.6583-0.09538-3.2166 0 0 0.11728-0.54687 0.1432-0.80309l0.80309 0.37777 0.80309-1.3935-1.5498-0.86802-1.2022-0.32138s-0.47314 0.0652-0.82473 0.0652c-0.35185 0-0.82499-0.0652-0.825-0.0652z" fill="#faff58" fill-opacity="0" fill-rule="evenodd" stroke="#000" stroke-width=".26458"/>
  <path id="path2967" d="m-99.458 200.18s-0.59924 1.732-0.74671 4.1629c-4e-3 0.0564-9e-3 0.18222-0.0131 0.23857 0 0 9e-3 5e-3 0.0219 5e-3 0.17793 0.0259 1.5843 0.23858 2.4004 0.23858h0.04328s0.0043-0.12584 0.01736-0.2212c0.03046-0.33877 0.10847-1.1461 0.13037-1.5714 0.01736 0.42532 0.09538 1.2327 0.12583 1.5714 0.01283 0.0954 0.01736 0.2212 0.01736 0.2212h0.04435c0.87335 0 2.4213-0.24339 2.4213-0.24339-0.0046-0.0564-0.0088-0.1822-0.0088-0.23858-0.15201-2.4309-0.75099-4.1629-0.75099-4.1629z" fill-opacity="0" fill-rule="evenodd" stroke="#000" stroke-width=".26458"/>
  <path id="path2971" d="m-90.311 193.96-1.1979 0.32138-1.5541 0.86802 0.80309 1.3935 0.80736-0.37777c0.02619 0.25622 0.13892 0.80309 0.13892 0.80309 0.03046 1.5583-0.09538 3.2166-0.09538 3.2166 0.95483 0.12583 1.923 0.13893 1.923 0.13893s0.9722-0.0132 1.9228-0.13893c0 0-0.12583-1.6583-0.09538-3.2166 0 0 0.11728-0.54687 0.1432-0.80309l0.80308 0.37777 0.80309-1.3935-1.5498-0.86802-1.2022-0.32138s-0.47314 0.0652-0.82473 0.0652c-0.35185 0-0.82499-0.0652-0.825-0.0652z" fill="#35a9f6" fill-rule="evenodd" stroke="#000" stroke-width=".26458"/>
  <path id="path2975" d="m-91.409 200.18s-0.59924 1.732-0.74672 4.1629c-0.0043 0.0564-0.0085 0.18222-0.0131 0.23857 0 0 0.0088 5e-3 0.02191 5e-3 0.17793 0.0259 1.5843 0.23858 2.4004 0.23858h0.04328s0.0043-0.12584 0.01736-0.2212c0.03046-0.33877 0.10847-1.1461 0.13038-1.5714 0.01736 0.42532 0.09538 1.2327 0.12583 1.5714 0.01283 0.0954 0.01736 0.2212 0.01736 0.2212h0.04435c0.87335 0 2.4213-0.24339 2.4213-0.24339-0.0045-0.0564-0.0088-0.1822-0.0088-0.23858-0.15201-2.4309-0.75099-4.1629-0.75099-4.1629z" fill="#35a9f6" fill-rule="evenodd" stroke="#000" stroke-width=".26458"/>
  <path id="path1669047" d="m-122.5 193.96-1.198 0.32138-1.5541 0.86802 0.80309 1.3935 0.80736-0.37777c0.0262 0.25622 0.13892 0.80309 0.13892 0.80309 0.0305 1.5583-0.0954 3.2166-0.0954 3.2166 0.95483 0.12583 1.923 0.13893 1.923 0.13893s0.9722-0.0132 1.9228-0.13893c0 0-0.12583-1.6583-0.0954-3.2166 0 0 0.11728-0.54687 0.14319-0.80309l0.80309 0.37777 0.80309-1.3935-1.5498-0.86802-1.2022-0.32138s-0.47314 0.0652-0.82473 0.0652c-0.35185 0-0.82499-0.0652-0.82499-0.0652z" fill-rule="evenodd" stroke="#000" stroke-width=".26458"/>
  <path id="path1669049" d="m-123.6 200.18s-0.59925 1.732-0.74672 4.1629c-4e-3 0.0564-9e-3 0.18222-0.0131 0.23857 0 0 9e-3 5e-3 0.0219 5e-3 0.17793 0.0259 1.5843 0.23858 2.4004 0.23858h0.0433s4e-3 -0.12584 0.0174-0.2212c0.0304-0.33877 0.10846-1.1461 0.13037-1.5714 0.0174 0.42532 0.0954 1.2327 0.12583 1.5714 0.0128 0.0954 0.0174 0.2212 0.0174 0.2212h0.0444c0.87335 0 2.4213-0.24339 2.4213-0.24339-5e-3 -0.0564-9e-3 -0.1822-9e-3 -0.23858-0.15201-2.4309-0.75099-4.1629-0.75099-4.1629z" fill-rule="evenodd"/>
  <path id="path1669051" d="m-106.41 193.96-1.198 0.32138-1.5541 0.86802 0.80309 1.3935 0.80736-0.37777c0.0262 0.25622 0.13892 0.80309 0.13892 0.80309 0.0305 1.5583-0.0954 3.2166-0.0954 3.2166 0.95483 0.12583 1.923 0.13893 1.923 0.13893s0.9722-0.0132 1.9228-0.13893c0 0-0.12583-1.6583-0.0954-3.2166 0 0 0.11729-0.54687 0.1432-0.80309l0.80309 0.37777 0.80309-1.3935-1.5498-0.86802-1.2022-0.32138s-0.47314 0.0652-0.82473 0.0652c-0.35185 0-0.82499-0.0652-0.82499-0.0652z" fill="#ad1e32" fill-rule="evenodd" stroke="#000" stroke-width=".26458"/>
  <path id="path1669053" d="m-107.51 200.18s-0.59924 1.732-0.74671 4.1629c-4e-3 0.0564-9e-3 0.18222-0.0131 0.23857 0 0 9e-3 5e-3 0.0219 5e-3 0.17793 0.0259 1.5843 0.23858 2.4004 0.23858h0.0433s4e-3 -0.12584 0.0174-0.2212c0.0305-0.33877 0.10847-1.1461 0.13038-1.5714 0.0174 0.42532 0.0954 1.2327 0.12583 1.5714 0.0128 0.0954 0.0174 0.2212 0.0174 0.2212h0.0443c0.87335 0 2.4213-0.24339 2.4213-0.24339-5e-3 -0.0564-9e-3 -0.1822-9e-3 -0.23858-0.15202-2.4309-0.751-4.1629-0.751-4.1629z" fill="#ad1e32" fill-rule="evenodd" stroke="#000" stroke-width=".26458"/>
  <path id="path1669055" d="m-114.46 193.96-1.198 0.32138-1.5541 0.86802 0.80308 1.3935 0.80737-0.37777c0.0262 0.25622 0.13892 0.80309 0.13892 0.80309 0.0305 1.5583-0.0954 3.2166-0.0954 3.2166 0.95484 0.12583 1.923 0.13893 1.923 0.13893s0.9722-0.0132 1.9228-0.13893c0 0-0.12583-1.6583-0.0954-3.2166 0 0 0.11728-0.54687 0.1432-0.80309l0.80309 0.37777 0.80308-1.3935-1.5498-0.86802-1.2022-0.32138s-0.47314 0.0652-0.82472 0.0652c-0.35185 0-0.825-0.0652-0.825-0.0652z" fill="#faff58" fill-rule="evenodd" stroke="#000" stroke-width=".26458"/>
  <path id="path1669057" d="m-115.55 200.18s-0.59924 1.732-0.74671 4.1629c-4e-3 0.0564-9e-3 0.18222-0.0131 0.23857 0 0 9e-3 5e-3 0.0219 5e-3 0.17793 0.0259 1.5843 0.23858 2.4004 0.23858h0.0433s4e-3 -0.12584 0.0173-0.2212c0.0305-0.33877 0.10847-1.1461 0.13038-1.5715 0.0174 0.42534 0.0954 1.2327 0.12583 1.5715 0.0128 0.0954 0.0174 0.2212 0.0174 0.2212h0.0443c0.87335 0 2.4213-0.24339 2.4213-0.24339-5e-3 -0.0564-9e-3 -0.1822-9e-3 -0.23858-0.15202-2.4309-0.75099-4.1629-0.75099-4.1629z" fill-rule="evenodd"/>
  <path id="path1669059" d="m-113.94 194.01 0.63633-0.0209v6.2558l-0.635-3e-3z"/>
  <path id="path1669061" d="m-112.2 200.25v-6.1545l-0.47625-0.10525v6.2555z"/>
  <path id="path1669063" d="m-115.05 200.25v-6.1545l0.47625-0.10525v6.2555z"/>
 </g>
</svg>
