<?xml version="1.0" encoding="UTF-8"?>
<!-- Created with Inkscape (http://www.inkscape.org/) -->
<svg id="svg10981" width="39.722mm" height="11.145mm" version="1.1" viewBox="0 0 39.722 11.145" xmlns="http://www.w3.org/2000/svg">
 <g id="layer1" transform="translate(136.84 -56.334)">
  <path id="path2981" d="m-133.9 56.478-1.198 0.32139-1.5541 0.86802 0.80309 1.3935 0.80736-0.37777c0.0262 0.25622 0.13892 0.80309 0.13892 0.80309 0.0305 1.5583-0.0954 3.2166-0.0954 3.2166 0.95483 0.12584 1.923 0.13893 1.923 0.13893s0.9722-0.01323 1.9228-0.13893c0 0-0.12583-1.6583-0.0954-3.2166 0 0 0.11728-0.54687 0.14319-0.80309l0.80309 0.37777 0.80309-1.3935-1.5498-0.86802-1.2022-0.32139s-0.47314 0.06519-0.82473 0.06519c-0.35185 0-0.82499-0.06519-0.82499-0.06519z" fill="#faff58" fill-rule="evenodd" stroke="#000" stroke-width=".26458"/>
  <path id="path2985" d="m-135 62.702s-0.59925 1.732-0.74672 4.1629c-4e-3 0.05638-9e-3 0.18222-0.0131 0.23858 0 0 9e-3 0.0045 0.0219 0.0045 0.17793 0.02593 1.5843 0.23858 2.4004 0.23858h0.0433s4e-3 -0.12584 0.0174-0.22119c0.0305-0.33877 0.10846-1.1461 0.13037-1.5715 0.0174 0.42534 0.0954 1.2327 0.12583 1.5715 0.0128 0.09536 0.0174 0.22119 0.0174 0.22119h0.0443c0.87335 0 2.4213-0.24339 2.4213-0.24339-5e-3 -0.05636-9e-3 -0.18219-9e-3 -0.23858-0.15201-2.4309-0.75099-4.1629-0.75099-4.1629z" fill-rule="evenodd" stroke-width=".26458"/>
  <path id="path2997" d="m-117.81 56.478-1.198 0.32139-1.5541 0.86802 0.80309 1.3935 0.80736-0.37777c0.0262 0.25622 0.13892 0.80309 0.13892 0.80309 0.0305 1.5583-0.0954 3.2166-0.0954 3.2166 0.95483 0.12584 1.923 0.13893 1.923 0.13893s0.9722-0.01323 1.9228-0.13893c0 0-0.12583-1.6583-0.0954-3.2166 0 0 0.11729-0.54687 0.1432-0.80309l0.80309 0.37777 0.80309-1.3935-1.5498-0.86802-1.2022-0.32139s-0.47314 0.06519-0.82473 0.06519c-0.35185 0-0.82499-0.06519-0.82499-0.06519z" fill="#6444a9" fill-rule="evenodd" stroke="#000" stroke-width=".26458"/>
  <path id="path3001" d="m-118.91 62.702s-0.59924 1.732-0.74671 4.1629c-4e-3 0.05638-9e-3 0.18222-0.0131 0.23858 0 0 9e-3 0.0045 0.0219 0.0045 0.17793 0.02593 1.5843 0.23858 2.4004 0.23858h0.0433s4e-3 -0.12584 0.0174-0.22119c0.0305-0.33877 0.10847-1.1461 0.13038-1.5715 0.0173 0.42534 0.0954 1.2327 0.12583 1.5715 0.0128 0.09536 0.0174 0.22119 0.0174 0.22119h0.0443c0.87335 0 2.4213-0.24339 2.4213-0.24339-5e-3 -0.05636-9e-3 -0.18219-9e-3 -0.23858-0.15202-2.4309-0.751-4.1629-0.751-4.1629z" fill="#6444a9" fill-rule="evenodd" stroke="#000" stroke-width=".26458"/>
  <path id="path3005" d="m-109.76 56.478-1.198 0.32139-1.5541 0.86802 0.80308 1.3935 0.80736-0.37777c0.0262 0.25622 0.13893 0.80309 0.13893 0.80309 0.0305 1.5583-0.0954 3.2166-0.0954 3.2166 0.95483 0.12584 1.923 0.13893 1.923 0.13893s0.9722-0.01323 1.9228-0.13893c0 0-0.12584-1.6583-0.0954-3.2166 0 0 0.11728-0.54687 0.1432-0.80309l0.80309 0.37777 0.80308-1.3935-1.5498-0.86802-1.2022-0.32139s-0.47315 0.06519-0.82473 0.06519c-0.35185 0-0.825-0.06519-0.825-0.06519z" fill-rule="evenodd" stroke-width=".26458"/>
  <path id="path3009" d="m-110.86 62.702s-0.59924 1.732-0.74671 4.1629c-4e-3 0.05638-9e-3 0.18222-0.0131 0.23858 0 0 9e-3 0.0045 0.0219 0.0045 0.17793 0.02593 1.5843 0.23858 2.4004 0.23858h0.0433s4e-3 -0.12584 0.0174-0.22119c0.0305-0.33877 0.10846-1.1461 0.13037-1.5715 0.0174 0.42534 0.0954 1.2327 0.12583 1.5715 0.0128 0.09536 0.0174 0.22119 0.0174 0.22119h0.0443c0.87335 0 2.4213-0.24339 2.4213-0.24339-5e-3 -0.05636-9e-3 -0.18219-9e-3 -0.23858-0.15201-2.4309-0.75099-4.1629-0.75099-4.1629z" fill-rule="evenodd" stroke-width=".26458"/>
  <path id="path3015" d="m-101.71 56.478-1.198 0.32139-1.5541 0.86802 0.80309 1.3935 0.80736-0.37777c0.0262 0.25622 0.13892 0.80309 0.13892 0.80309 0.0305 1.5583-0.0954 3.2166-0.0954 3.2166 0.95484 0.12584 1.923 0.13893 1.923 0.13893s0.9722-0.01323 1.9228-0.13893c0 0-0.12583-1.6583-0.09538-3.2166 0 0 0.11728-0.54687 0.1432-0.80309l0.80308 0.37777 0.80309-1.3935-1.5498-0.86802-1.2022-0.32139s-0.47314 0.06519-0.82473 0.06519c-0.35185 0-0.82499-0.06519-0.82499-0.06519z" fill="#68cdd6" fill-rule="evenodd" stroke="#000" stroke-miterlimit="16.248" stroke-width=".28194"/>
  <path id="path3017" d="m-102.81 62.702s-0.59924 1.732-0.74671 4.1629c-4e-3 0.05638-9e-3 0.18222-0.0131 0.23858 0 0 9e-3 0.0045 0.0219 0.0045 0.17793 0.02593 1.5843 0.23858 2.4004 0.23858h0.0433s4e-3 -0.12584 0.0174-0.22119c0.0305-0.33877 0.10847-1.1461 0.13038-1.5715 0.0174 0.42534 0.0954 1.2327 0.12583 1.5715 0.0128 0.09536 0.0173 0.22119 0.0173 0.22119h0.0444c0.87335 0 2.4213-0.24339 2.4213-0.24339-0.0046-0.05636-0.0088-0.18219-0.0088-0.23858-0.15201-2.4309-0.75099-4.1629-0.75099-4.1629z" fill-rule="evenodd" stroke-width=".26458"/>
  <path id="path1687485" d="m-125.86 56.478-1.198 0.32139-1.5541 0.86802 0.80309 1.3935 0.80736-0.37777c0.0262 0.25622 0.13892 0.80309 0.13892 0.80309 0.0305 1.5584-0.0954 3.2166-0.0954 3.2166 0.95484 0.12584 1.923 0.13893 1.923 0.13893s0.9722-0.01297 1.9228-0.13893c0 0-0.12583-1.6582-0.0954-3.2166 0 0 0.11729-0.54687 0.1432-0.80309l0.80309 0.37777 0.80308-1.3935-1.5498-0.86802-1.2022-0.32139s-0.47314 0.06519-0.82473 0.06519c-0.35185 0-0.82499-0.06519-0.82499-0.06519z" fill="#fff" fill-rule="evenodd" stroke="#000" stroke-width=".26458"/>
  <path id="path1687487" d="m-126.95 62.702s-0.59924 1.732-0.74671 4.1629c-4e-3 0.05636-9e-3 0.18219-0.0131 0.23858 0 0 9e-3 0.0045 0.0219 0.0045 0.17793 0.02593 1.5843 0.23858 2.4004 0.23858h0.0433s4e-3 -0.12584 0.0174-0.22122c0.0305-0.33877 0.10847-1.1461 0.13038-1.5714 0.0174 0.42532 0.0954 1.2327 0.12583 1.5714 0.0128 0.09538 0.0174 0.22122 0.0174 0.22122h0.0443c0.87335 0 2.4213-0.24339 2.4213-0.24339-5e-3 -0.05638-9e-3 -0.18222-9e-3 -0.23858-0.15201-2.4309-0.75099-4.1629-0.75099-4.1629z" fill="#fff" fill-rule="evenodd" stroke="#000" stroke-width=".26458"/>
  <path id="path1687489" d="m-125.28 56.493 0.52917-0.0209v6.2558l-0.52807-0.0026z"/>
  <path id="path1687491" d="m-123.68 62.631v-6.0502l-0.52916-0.10348v6.1495z"/>
  <path id="path1687493" d="m-126.39 62.631v-6.0502l0.52917-0.10348v6.1495z"/>
  <path id="path1687495" d="m-123.02 58.828v-2.0442l-0.38503-0.10454v6.0181h0.30147l-0.11269-1.9775 0.0612-1.4326z"/>
  <path id="path1687497" d="m-123.09 57.47 1.2589 0.72684-0.22162 0.38386-1.0349-0.59748z" stroke="#000" stroke-width=".26458px"/>
  <path id="path1687499" d="m-126.94 58.828v-2.0442l0.38503-0.10454v6.0181h-0.30148l0.1127-1.9775-0.0612-1.4326z"/>
  <path id="path1687501" d="m-126.87 57.47-1.2589 0.72684 0.22162 0.38386 1.0349-0.59748z" stroke="#000" stroke-width=".26458px"/>
 </g>
</svg>
