<?xml version="1.0" encoding="UTF-8" standalone="no"?>
<!-- Created with Inkscape (http://www.inkscape.org/) -->

<svg
   width="39.721905mm"
   height="11.145229mm"
   viewBox="0 0 39.721905 11.145229"
   version="1.1"
   id="svg10981"
   inkscape:version="1.1.2 (0a00cf5339, 2022-02-04)"
   sodipodi:docname="054.svg"
   xmlns:inkscape="http://www.inkscape.org/namespaces/inkscape"
   xmlns:sodipodi="http://sodipodi.sourceforge.net/DTD/sodipodi-0.dtd"
   xmlns="http://www.w3.org/2000/svg"
   xmlns:svg="http://www.w3.org/2000/svg">
  <sodipodi:namedview
     id="namedview10983"
     pagecolor="#ffffff"
     bordercolor="#666666"
     borderopacity="1.0"
     inkscape:pageshadow="2"
     inkscape:pageopacity="0.0"
     inkscape:pagecheckerboard="0"
     inkscape:document-units="mm"
     showgrid="false"
     inkscape:zoom="0.69664703"
     inkscape:cx="913.66212"
     inkscape:cy="348.09594"
     inkscape:window-width="1920"
     inkscape:window-height="1016"
     inkscape:window-x="0"
     inkscape:window-y="0"
     inkscape:window-maximized="1"
     inkscape:current-layer="layer1" />
  <defs
     id="defs10978" />
  <g
     inkscape:label="Layer 1"
     inkscape:groupmode="layer"
     id="layer1"
     transform="translate(136.83795,-56.334041)">
    <path
       fill="#faff58"
       d="m -133.90435,56.477576 -1.19795,0.32139 -1.55408,0.868018 0.80309,1.393508 0.80736,-0.377772 c 0.0262,0.256222 0.13892,0.803089 0.13892,0.803089 0.0305,1.558343 -0.0954,3.216619 -0.0954,3.216619 0.95483,0.125836 1.92302,0.138933 1.92302,0.138933 0,0 0.9722,-0.01323 1.92276,-0.138933 0,0 -0.12583,-1.658276 -0.0954,-3.216619 0,0 0.11728,-0.546867 0.14319,-0.803089 l 0.80309,0.377772 0.80309,-1.393508 -1.54981,-0.868018 -1.20222,-0.32139 c 0,0 -0.47314,0.06519 -0.82473,0.06519 -0.35185,0 -0.82499,-0.06519 -0.82499,-0.06519 z"
       fill-rule="evenodd"
       id="path2981"
       style="stroke:#000000;stroke-width:0.264583;stroke-opacity:1" />
    <path
       fill="#000000"
       d="m -135.00238,62.702428 c 0,0 -0.59925,1.732016 -0.74672,4.162901 -0.004,0.05638 -0.009,0.182219 -0.0131,0.238575 0,0 0.009,0.0045 0.0219,0.0045 0.17793,0.02593 1.58426,0.238575 2.40044,0.238575 h 0.0433 c 0,0 0.004,-0.125836 0.0174,-0.221192 0.0305,-0.338772 0.10846,-1.146122 0.13037,-1.571466 0.0174,0.425344 0.0954,1.232694 0.12583,1.571466 0.0128,0.09536 0.0174,0.221192 0.0174,0.221192 0.0147,0 0.0294,0 0.0443,0 0.87335,0 2.42128,-0.24339 2.42128,-0.24339 -0.005,-0.05636 -0.009,-0.182192 -0.009,-0.238575 -0.15201,-2.430886 -0.75099,-4.162901 -0.75099,-4.162901 z"
       fill-rule="evenodd"
       id="path2985"
       style="stroke-width:0.264583" />
    <path
       fill="#faff58"
       d="m -117.80776,56.477576 -1.19795,0.32139 -1.55408,0.868018 0.80309,1.393508 0.80736,-0.377772 c 0.0262,0.256222 0.13892,0.803089 0.13892,0.803089 0.0305,1.558343 -0.0954,3.216619 -0.0954,3.216619 0.95483,0.125836 1.92302,0.138933 1.92302,0.138933 0,0 0.9722,-0.01323 1.92276,-0.138933 0,0 -0.12583,-1.658276 -0.0954,-3.216619 0,0 0.11729,-0.546867 0.1432,-0.803089 l 0.80309,0.377772 0.80309,-1.393508 -1.5498,-0.868018 -1.20223,-0.32139 c 0,0 -0.47314,0.06519 -0.82473,0.06519 -0.35185,0 -0.82499,-0.06519 -0.82499,-0.06519 z"
       fill-rule="evenodd"
       id="path2997"
       style="fill:#6444a9;fill-opacity:1;stroke:#000000;stroke-width:0.264583;stroke-opacity:1" />
    <path
       fill="#000000"
       d="m -118.9058,62.702428 c 0,0 -0.59924,1.732016 -0.74671,4.162901 -0.004,0.05638 -0.009,0.182219 -0.0131,0.238575 0,0 0.009,0.0045 0.0219,0.0045 0.17793,0.02593 1.58427,0.238575 2.40044,0.238575 h 0.0433 c 0,0 0.004,-0.125836 0.0174,-0.221192 0.0305,-0.338772 0.10847,-1.146122 0.13038,-1.571466 0.0173,0.425344 0.0954,1.232694 0.12583,1.571466 0.0128,0.09536 0.0174,0.221192 0.0174,0.221192 0.0147,0 0.0294,0 0.0443,0 0.87335,0 2.42129,-0.24339 2.42129,-0.24339 -0.005,-0.05636 -0.009,-0.182192 -0.009,-0.238575 -0.15202,-2.430886 -0.751,-4.162901 -0.751,-4.162901 z"
       fill-rule="evenodd"
       id="path3001"
       style="fill:#6444a9;fill-opacity:1;stroke:#000000;stroke-width:0.264583;stroke-opacity:1" />
    <path
       fill="#faff58"
       d="m -109.75947,56.477576 -1.19795,0.32139 -1.55407,0.868018 0.80308,1.393508 0.80736,-0.377772 c 0.0262,0.256222 0.13893,0.803089 0.13893,0.803089 0.0305,1.558343 -0.0954,3.216619 -0.0954,3.216619 0.95483,0.125836 1.92303,0.138933 1.92303,0.138933 0,0 0.9722,-0.01323 1.92276,-0.138933 0,0 -0.12584,-1.658276 -0.0954,-3.216619 0,0 0.11728,-0.546867 0.1432,-0.803089 l 0.80309,0.377772 0.80308,-1.393508 -1.5498,-0.868018 -1.20222,-0.32139 c 0,0 -0.47315,0.06519 -0.82473,0.06519 -0.35185,0 -0.825,-0.06519 -0.825,-0.06519 z"
       fill-rule="evenodd"
       id="path3005"
       style="fill:#000000;fill-opacity:1;stroke-width:0.264583" />
    <path
       fill="#000000"
       d="m -110.8575,62.702428 c 0,0 -0.59924,1.732016 -0.74671,4.162901 -0.004,0.05638 -0.009,0.182219 -0.0131,0.238575 0,0 0.009,0.0045 0.0219,0.0045 0.17793,0.02593 1.58426,0.238575 2.40044,0.238575 h 0.0433 c 0,0 0.004,-0.125836 0.0174,-0.221192 0.0305,-0.338772 0.10846,-1.146122 0.13037,-1.571466 0.0174,0.425344 0.0954,1.232694 0.12583,1.571466 0.0128,0.09536 0.0174,0.221192 0.0174,0.221192 0.0147,0 0.0294,0 0.0443,0 0.87335,0 2.42128,-0.24339 2.42128,-0.24339 -0.005,-0.05636 -0.009,-0.182192 -0.009,-0.238575 -0.15201,-2.430886 -0.75099,-4.162901 -0.75099,-4.162901 z"
       fill-rule="evenodd"
       id="path3009"
       style="stroke-width:0.264583" />
    <path
       stroke="#000000"
       stroke-width="0.281945"
       stroke-miterlimit="16.2479"
       stroke-linecap="butt"
       d="m -101.71117,56.477576 -1.19795,0.32139 -1.55408,0.868018 0.80309,1.393508 0.80736,-0.377772 c 0.0262,0.256222 0.13892,0.803089 0.13892,0.803089 0.0305,1.558343 -0.0954,3.216619 -0.0954,3.216619 0.95484,0.125836 1.92303,0.138933 1.92303,0.138933 0,0 0.972202,-0.01323 1.92276,-0.138933 0,0 -0.125834,-1.658276 -0.09538,-3.216619 0,0 0.117284,-0.546867 0.143203,-0.803089 l 0.803084,0.377772 0.803087,-1.393508 -1.549802,-0.868018 -1.202222,-0.32139 c 0,0 -0.47314,0.06519 -0.82473,0.06519 -0.35185,0 -0.82499,-0.06519 -0.82499,-0.06519 z"
       fill-rule="evenodd"
       id="path3015"
       style="fill:#68cdd6;fill-opacity:1" />
    <path
       fill="#000000"
       d="m -102.80921,62.702428 c 0,0 -0.59924,1.732016 -0.74671,4.162901 -0.004,0.05638 -0.009,0.182219 -0.0131,0.238575 0,0 0.009,0.0045 0.0219,0.0045 0.17793,0.02593 1.58427,0.238575 2.40044,0.238575 h 0.0433 c 0,0 0.004,-0.125836 0.0174,-0.221192 0.0305,-0.338772 0.10847,-1.146122 0.13038,-1.571466 0.0174,0.425344 0.0954,1.232694 0.12583,1.571466 0.0128,0.09536 0.0173,0.221192 0.0173,0.221192 0.0147,0 0.0294,0 0.0444,0 0.873353,0 2.421284,-0.24339 2.421284,-0.24339 -0.0046,-0.05636 -0.0088,-0.182192 -0.0088,-0.238575 -0.152014,-2.430886 -0.750991,-4.162901 -0.750991,-4.162901 z"
       fill-rule="evenodd"
       id="path3017"
       style="stroke-width:0.264583" />
    <path
       fill="#faff58"
       d="m -125.85604,56.47755 -1.19795,0.321389 -1.55408,0.868019 0.80309,1.393507 0.80736,-0.377772 c 0.0262,0.256223 0.13892,0.80309 0.13892,0.80309 0.0305,1.558369 -0.0954,3.216619 -0.0954,3.216619 0.95484,0.125836 1.92303,0.138933 1.92303,0.138933 0,0 0.9722,-0.01297 1.92276,-0.138933 0,0 -0.12583,-1.65825 -0.0954,-3.216619 0,0 0.11729,-0.546867 0.1432,-0.80309 l 0.80309,0.377772 0.80308,-1.393507 -1.5498,-0.868019 -1.20222,-0.321389 c 0,0 -0.47314,0.06519 -0.82473,0.06519 -0.35185,0 -0.82499,-0.06519 -0.82499,-0.06519 z"
       fill-rule="evenodd"
       id="path1687485"
       style="fill:#ffffff;fill-opacity:1;stroke:#000000;stroke-width:0.264583;stroke-opacity:1" />
    <path
       fill="#000000"
       d="m -126.95408,62.702402 c 0,0 -0.59924,1.732015 -0.74671,4.162927 -0.004,0.05636 -0.009,0.182193 -0.0131,0.238575 0,0 0.009,0.0045 0.0219,0.0045 0.17793,0.02593 1.58427,0.238575 2.40044,0.238575 h 0.0433 c 0,0 0.004,-0.125836 0.0174,-0.221218 0.0305,-0.338773 0.10847,-1.146122 0.13038,-1.57144 0.0174,0.425318 0.0954,1.232667 0.12583,1.57144 0.0128,0.09538 0.0174,0.221218 0.0174,0.221218 0.0147,0 0.0294,0 0.0443,0 0.87335,0 2.42128,-0.24339 2.42128,-0.24339 -0.005,-0.05638 -0.009,-0.182219 -0.009,-0.238575 -0.15201,-2.430912 -0.75099,-4.162901 -0.75099,-4.162901 z"
       fill-rule="evenodd"
       id="path1687487"
       style="fill:#ffffff;fill-opacity:1;stroke:#000000;stroke-width:0.264583;stroke-opacity:1" />
    <path
       style="fill:#000000;fill-opacity:1;stroke:none;stroke-width:0.204428px;stroke-linecap:butt;stroke-linejoin:miter;stroke-opacity:1"
       d="m -125.28387,56.492737 0.52917,-0.0209 v 6.255835 l -0.52807,-0.0026 z"
       id="path1687489"
       sodipodi:nodetypes="ccccc" />
    <path
       style="fill:#000000;fill-opacity:1;stroke:none;stroke-width:0.325475px;stroke-linecap:butt;stroke-linejoin:miter;stroke-opacity:1"
       d="m -123.67716,62.631229 v -6.050201 l -0.52916,-0.103478 v 6.149472 z"
       id="path1687491" />
    <path
       style="fill:#000000;fill-opacity:1;stroke:none;stroke-width:0.325477px;stroke-linecap:butt;stroke-linejoin:miter;stroke-opacity:1"
       d="m -126.38521,62.631229 v -6.050201 l 0.52917,-0.103478 v 6.149472 z"
       id="path1687493" />
    <path
       style="fill:#000000;fill-opacity:1;stroke:none;stroke-width:0.264583px;stroke-linecap:butt;stroke-linejoin:miter;stroke-opacity:1"
       d="M -123.02005,58.828293 V 56.78407 l -0.38503,-0.104537 v 6.018133 h 0.30147 l -0.11269,-1.977496 0.0612,-1.432586 z"
       id="path1687495" />
    <path
       style="fill:#000000;fill-opacity:1;stroke:#000000;stroke-width:0.264583px;stroke-linecap:butt;stroke-linejoin:miter;stroke-opacity:1"
       d="m -123.09309,57.470055 1.25893,0.726837 -0.22162,0.383857 -1.03487,-0.597482 z"
       id="path1687497" />
    <path
       style="fill:#000000;fill-opacity:1;stroke:none;stroke-width:0.264583px;stroke-linecap:butt;stroke-linejoin:miter;stroke-opacity:1"
       d="M -126.93893,58.828293 V 56.78407 l 0.38503,-0.104537 v 6.018133 h -0.30148 l 0.1127,-1.977496 -0.0612,-1.432586 z"
       id="path1687499" />
    <path
       style="fill:#000000;fill-opacity:1;stroke:#000000;stroke-width:0.264583px;stroke-linecap:butt;stroke-linejoin:miter;stroke-opacity:1"
       d="m -126.86589,57.470055 -1.25893,0.726837 0.22162,0.383857 1.03487,-0.597482 z"
       id="path1687501" />
  </g>
</svg>
