<?xml version="1.0" encoding="UTF-8" standalone="no"?>
<!-- Created with Inkscape (http://www.inkscape.org/) -->

<svg
   width="39.726967mm"
   height="11.136927mm"
   viewBox="0 0 39.726967 11.136927"
   version="1.1"
   id="svg11301"
   inkscape:version="1.1.2 (0a00cf5339, 2022-02-04)"
   sodipodi:docname="056.svg"
   xmlns:inkscape="http://www.inkscape.org/namespaces/inkscape"
   xmlns:sodipodi="http://sodipodi.sourceforge.net/DTD/sodipodi-0.dtd"
   xmlns="http://www.w3.org/2000/svg"
   xmlns:svg="http://www.w3.org/2000/svg">
  <sodipodi:namedview
     id="namedview11303"
     pagecolor="#ffffff"
     bordercolor="#666666"
     borderopacity="1.0"
     inkscape:pageshadow="2"
     inkscape:pageopacity="0.0"
     inkscape:pagecheckerboard="0"
     inkscape:document-units="mm"
     showgrid="false"
     inkscape:zoom="0.69664703"
     inkscape:cx="75.360976"
     inkscape:cy="20.813984"
     inkscape:window-width="1920"
     inkscape:window-height="1016"
     inkscape:window-x="0"
     inkscape:window-y="0"
     inkscape:window-maximized="1"
     inkscape:current-layer="layer1" />
  <defs
     id="defs11298" />
  <g
     inkscape:label="Layer 1"
     inkscape:groupmode="layer"
     id="layer1"
     transform="translate(-85.149943,-142.74189)">
    <path
       fill="#faff58"
       d="m 104.18013,142.87659 -1.19795,0.32139 -1.55408,0.86802 0.80309,1.39351 0.80736,-0.37777 c 0.0262,0.25622 0.13892,0.80309 0.13892,0.80309 0.0305,1.55834 -0.0954,3.21662 -0.0954,3.21662 0.95483,0.12583 1.92302,0.13893 1.92302,0.13893 0,0 0.9722,-0.0132 1.92276,-0.13893 0,0 -0.12583,-1.65828 -0.0954,-3.21662 0,0 0.11729,-0.54687 0.1432,-0.80309 l 0.80309,0.37777 0.80309,-1.39351 -1.5498,-0.86802 -1.20223,-0.32139 c 0,0 -0.47314,0.0652 -0.82473,0.0652 -0.35185,0 -0.82499,-0.0652 -0.82499,-0.0652 z"
       fill-rule="evenodd"
       id="path3081"
       style="fill:#b62246;fill-opacity:1;stroke:none;stroke-width:0.264583;stroke-opacity:1" />
    <path
       fill="#faff58"
       d="m 88.083539,142.87659 -1.19795,0.32139 -1.554077,0.86802 0.803087,1.39351 0.807361,-0.37777 c 0.02618,0.25622 0.138924,0.80309 0.138924,0.80309 0.03046,1.55834 -0.09538,3.21662 -0.09538,3.21662 0.954834,0.12583 1.923026,0.13893 1.923026,0.13893 0,0 0.9722,-0.0132 1.922759,-0.13893 0,0 -0.125833,-1.65828 -0.09538,-3.21662 0,0 0.117283,-0.54687 0.143198,-0.80309 l 0.803086,0.37777 0.803087,-1.39351 -1.549802,-0.86802 -1.202225,-0.32139 c 0,0 -0.473143,0.0652 -0.824727,0.0652 -0.351851,0 -0.824994,-0.0652 -0.824994,-0.0652 z"
       fill-rule="evenodd"
       id="path3065"
       style="fill:#4ac1c3;fill-opacity:1;stroke:#000000;stroke-width:0.264583;stroke-opacity:1" />
    <path
       fill="#000000"
       d="m 86.985507,149.10145 c 0,0 -0.599242,1.73201 -0.746715,4.1629 -0.0043,0.0564 -0.0085,0.18222 -0.01309,0.23857 0,0 0.0088,0.005 0.02191,0.005 0.177929,0.0259 1.584265,0.23857 2.400442,0.23857 h 0.04328 c 0,0 0.0043,-0.12583 0.01736,-0.22119 0.03046,-0.33877 0.108467,-1.14612 0.130375,-1.57146 0.01736,0.42534 0.09538,1.23269 0.125832,1.57146 0.01282,0.0954 0.01736,0.22119 0.01736,0.22119 0.01469,0 0.02939,0 0.04435,0 0.87335,0 2.421281,-0.24339 2.421281,-0.24339 -0.0045,-0.0564 -0.0088,-0.18219 -0.0088,-0.23857 -0.152014,-2.43089 -0.75099,-4.1629 -0.75099,-4.1629 z"
       fill-rule="evenodd"
       id="path3069"
       style="stroke-width:0.264583" />
    <path
       fill="#000000"
       d="m 103.08209,149.10145 c 0,0 -0.59924,1.73201 -0.74671,4.1629 -0.004,0.0564 -0.009,0.18222 -0.0131,0.23857 0,0 0.009,0.005 0.0219,0.005 0.17793,0.0259 1.58427,0.23857 2.40044,0.23857 h 0.0433 c 0,0 0.004,-0.12583 0.0174,-0.22119 0.0305,-0.33877 0.10847,-1.14612 0.13038,-1.57146 0.0174,0.42534 0.0954,1.23269 0.12583,1.57146 0.0128,0.0954 0.0174,0.22119 0.0174,0.22119 0.0147,0 0.0294,0 0.0443,0 0.87335,0 2.42129,-0.24339 2.42129,-0.24339 -0.005,-0.0564 -0.009,-0.18219 -0.009,-0.23857 -0.15202,-2.43089 -0.751,-4.1629 -0.751,-4.1629 z"
       fill-rule="evenodd"
       id="path3085"
       style="stroke-width:0.264583" />
    <path
       fill="#faff58"
       d="m 112.22842,142.87659 -1.19795,0.32139 -1.55407,0.86802 0.80308,1.39351 0.80736,-0.37777 c 0.0262,0.25622 0.13893,0.80309 0.13893,0.80309 0.0305,1.55834 -0.0954,3.21662 -0.0954,3.21662 0.95483,0.12583 1.92303,0.13893 1.92303,0.13893 0,0 0.9722,-0.0132 1.92276,-0.13893 0,0 -0.12584,-1.65828 -0.0954,-3.21662 0,0 0.11728,-0.54687 0.1432,-0.80309 l 0.80309,0.37777 0.80308,-1.39351 -1.5498,-0.86802 -1.20222,-0.32139 c 0,0 -0.47315,0.0652 -0.82473,0.0652 -0.35185,0 -0.825,-0.0652 -0.825,-0.0652 z"
       fill-rule="evenodd"
       id="path3089"
       style="fill:#21a760;fill-opacity:1;stroke:#000000;stroke-width:0.264583;stroke-opacity:1" />
    <path
       fill="#000000"
       d="m 111.13039,149.10145 c 0,0 -0.59924,1.73201 -0.74671,4.1629 -0.004,0.0564 -0.009,0.18222 -0.0131,0.23857 0,0 0.009,0.005 0.0219,0.005 0.17793,0.0259 1.58426,0.23857 2.40044,0.23857 h 0.0433 c 0,0 0.004,-0.12583 0.0174,-0.22119 0.0305,-0.33877 0.10846,-1.14612 0.13037,-1.57146 0.0174,0.42534 0.0954,1.23269 0.12583,1.57146 0.0128,0.0954 0.0174,0.22119 0.0174,0.22119 0.0147,0 0.0294,0 0.0444,0 0.87335,0 2.42128,-0.24339 2.42128,-0.24339 -0.005,-0.0564 -0.009,-0.18219 -0.009,-0.23857 -0.15201,-2.43089 -0.75099,-4.1629 -0.75099,-4.1629 z"
       fill-rule="evenodd"
       id="path3093"
       style="fill:#21a760;fill-opacity:1;stroke:#000000;stroke-width:0.264583;stroke-opacity:1" />
    <path
       fill="#faff58"
       d="m 120.27672,142.87659 -1.19795,0.32139 -1.55408,0.86802 0.80309,1.39351 0.80736,-0.37777 c 0.0262,0.25622 0.13892,0.80309 0.13892,0.80309 0.0305,1.55834 -0.0954,3.21662 -0.0954,3.21662 0.95484,0.12583 1.92303,0.13893 1.92303,0.13893 0,0 0.9722,-0.0132 1.92276,-0.13893 0,0 -0.12583,-1.65828 -0.0954,-3.21662 0,0 0.11729,-0.54687 0.14321,-0.80309 l 0.80308,0.37777 0.80309,-1.39351 -1.5498,-0.86802 -1.20223,-0.32139 c 0,0 -0.47314,0.0652 -0.82473,0.0652 -0.35185,0 -0.82499,-0.0652 -0.82499,-0.0652 z"
       fill-rule="evenodd"
       id="path3097"
       style="fill:#faff58;fill-opacity:1;stroke:#000000;stroke-width:0.264583;stroke-opacity:1" />
    <path
       fill="#000000"
       d="m 119.17868,149.10145 c 0,0 -0.59924,1.73201 -0.74671,4.1629 -0.004,0.0564 -0.009,0.18222 -0.0131,0.23857 0,0 0.009,0.005 0.0219,0.005 0.17793,0.0259 1.58427,0.23857 2.40044,0.23857 h 0.0433 c 0,0 0.004,-0.12583 0.0174,-0.22119 0.0305,-0.33877 0.10847,-1.14612 0.13038,-1.57146 0.0173,0.42534 0.0954,1.23269 0.12583,1.57146 0.0128,0.0954 0.0174,0.22119 0.0174,0.22119 0.0147,0 0.0294,0 0.0443,0 0.87335,0 2.42128,-0.24339 2.42128,-0.24339 -0.005,-0.0564 -0.009,-0.18219 -0.009,-0.23857 -0.15201,-2.43089 -0.75099,-4.1629 -0.75099,-4.1629 z"
       fill-rule="evenodd"
       id="path3101"
       style="fill:#faff58;fill-opacity:1;stroke:#000000;stroke-width:0.264583;stroke-opacity:1" />
    <path
       d="m 102.98218,143.19798 c 0.92886,0.55563 0.15169,1.61925 0.0568,1.88384 l -0.8075,0.37888 -0.80363,-1.39454 z"
       style="fill:#454a66;fill-opacity:1;fill-rule:evenodd;stroke:#000000;stroke-width:0.281945;stroke-linecap:butt;stroke-linejoin:miter;stroke-miterlimit:16.2479;stroke-dasharray:none;stroke-opacity:1"
       id="path1747026" />
    <path
       style="fill:#454a66;fill-opacity:1;stroke:none;stroke-width:0.264583px;stroke-linecap:butt;stroke-linejoin:miter;stroke-opacity:1"
       d="m 105.07602,142.96287 0.75383,-0.0863 0.97027,0.32026 -0.22031,0.4713 0.17305,0.83018 0.22284,0.58341 -0.1432,0.80309 0.0954,3.21662 -1.88738,0.14377 z"
       id="path1747097" />
    <path
       d="m 107.0325,143.1979 c -0.92886,0.55563 -0.15169,1.61925 -0.0568,1.88384 l 0.80751,0.37888 0.80363,-1.39454 z"
       style="fill:#b62246;fill-opacity:1;fill-rule:evenodd;stroke:#000000;stroke-width:0.281945;stroke-linecap:butt;stroke-linejoin:miter;stroke-miterlimit:16.2479;stroke-dasharray:none;stroke-opacity:1"
       id="path1746807" />
    <path
       fill="#faff58"
       d="m 104.18013,142.87659 -1.19795,0.32139 -1.55408,0.86802 0.80309,1.39351 0.80736,-0.37777 c 0.0262,0.25622 0.13892,0.80309 0.13892,0.80309 0.0305,1.55834 -0.0954,3.21662 -0.0954,3.21662 0.95483,0.12583 1.92302,0.13893 1.92302,0.13893 0,0 0.9722,-0.0132 1.92276,-0.13893 0,0 -0.12583,-1.65828 -0.0954,-3.21662 0,0 0.11729,-0.54687 0.1432,-0.80309 l 0.80309,0.37777 0.80309,-1.39351 -1.5498,-0.86802 -1.20223,-0.32139 c 0,0 -0.47314,0.0652 -0.82473,0.0652 -0.35185,0 -0.82499,-0.0652 -0.82499,-0.0652 z"
       fill-rule="evenodd"
       id="path3081-3"
       style="fill:none;fill-opacity:1;stroke:#000000;stroke-width:0.264583;stroke-opacity:1" />
    <path
       fill="#faff58"
       d="m 96.131835,142.87659 -1.197951,0.32139 -1.554077,0.86802 0.803087,1.39351 0.807362,-0.37777 c 0.02619,0.25622 0.138922,0.80309 0.138922,0.80309 0.03046,1.55837 -0.09538,3.21662 -0.09538,3.21662 0.954833,0.12583 1.923026,0.13893 1.923026,0.13893 0,0 0.972201,-0.013 1.922759,-0.13893 0,0 -0.125834,-1.65825 -0.09538,-3.21662 0,0 0.117282,-0.54687 0.143198,-0.80309 l 0.803085,0.37777 0.803084,-1.39351 -1.549799,-0.86802 -1.202225,-0.32139 c 0,0 -0.473141,0.0652 -0.824727,0.0652 -0.351851,0 -0.824992,-0.0652 -0.824992,-0.0652 z"
       fill-rule="evenodd"
       id="path1758713"
       style="fill:#ffffff;fill-opacity:1;stroke:#000000;stroke-width:0.264583;stroke-opacity:1" />
    <path
       fill="#000000"
       d="m 95.033801,149.10145 c 0,0 -0.599241,1.73201 -0.746714,4.16292 -0.0043,0.0564 -0.0085,0.1822 -0.0131,0.23858 0,0 0.0088,0.005 0.02191,0.005 0.17793,0.0259 1.584266,0.23857 2.400442,0.23857 h 0.04328 c 0,0 0.0043,-0.12583 0.01736,-0.22122 0.03046,-0.33877 0.108469,-1.14612 0.130377,-1.57144 0.01736,0.42532 0.09537,1.23267 0.125833,1.57144 0.01283,0.0954 0.01736,0.22122 0.01736,0.22122 0.01469,0 0.02939,0 0.04435,0 0.87335,0 2.421282,-0.24339 2.421282,-0.24339 -0.0046,-0.0564 -0.0088,-0.18222 -0.0088,-0.23857 -0.152014,-2.43092 -0.750991,-4.1629 -0.750991,-4.1629 z"
       fill-rule="evenodd"
       id="path1758715"
       style="fill:#ffffff;fill-opacity:1;stroke:#000000;stroke-width:0.264583;stroke-opacity:1" />
    <path
       style="fill:#000000;fill-opacity:1;stroke:none;stroke-width:0.204428px;stroke-linecap:butt;stroke-linejoin:miter;stroke-opacity:1"
       d="m 96.704007,142.89178 0.529167,-0.0209 v 6.25583 l -0.528066,-0.003 z"
       id="path1758717"
       sodipodi:nodetypes="ccccc" />
    <path
       style="fill:#000000;fill-opacity:1;stroke:none;stroke-width:0.325475px;stroke-linecap:butt;stroke-linejoin:miter;stroke-opacity:1"
       d="m 98.310721,149.03027 v -6.0502 l -0.529167,-0.10348 v 6.14948 z"
       id="path1758719" />
    <path
       style="fill:#000000;fill-opacity:1;stroke:none;stroke-width:0.325477px;stroke-linecap:butt;stroke-linejoin:miter;stroke-opacity:1"
       d="m 95.602668,149.03027 v -6.0502 l 0.529167,-0.10348 v 6.14948 z"
       id="path1758721" />
    <path
       style="fill:#000000;fill-opacity:1;stroke:none;stroke-width:0.264583px;stroke-linecap:butt;stroke-linejoin:miter;stroke-opacity:1"
       d="m 98.967824,145.22734 v -2.04423 l -0.385029,-0.10453 v 6.01813 h 0.301476 l -0.112699,-1.9775 0.06124,-1.43258 z"
       id="path1758723" />
    <path
       style="fill:#000000;fill-opacity:1;stroke:#000000;stroke-width:0.264583px;stroke-linecap:butt;stroke-linejoin:miter;stroke-opacity:1"
       d="m 98.894786,143.8691 1.258924,0.72684 -0.221617,0.38385 -1.03487,-0.59748 z"
       id="path1758725" />
    <path
       style="fill:#000000;fill-opacity:1;stroke:none;stroke-width:0.264583px;stroke-linecap:butt;stroke-linejoin:miter;stroke-opacity:1"
       d="m 95.048946,145.22734 v -2.04423 l 0.385029,-0.10453 v 6.01813 h -0.301477 l 0.1127,-1.9775 -0.06124,-1.43258 z"
       id="path1758727" />
    <path
       style="fill:#000000;fill-opacity:1;stroke:#000000;stroke-width:0.264583px;stroke-linecap:butt;stroke-linejoin:miter;stroke-opacity:1"
       d="m 95.121984,143.8691 -1.258927,0.72684 0.221621,0.38385 1.034869,-0.59748 z"
       id="path1758729" />
    <path
       style="fill:#000000;fill-opacity:1;stroke:none;stroke-width:0.313587px;stroke-linecap:butt;stroke-linejoin:miter;stroke-opacity:1"
       d="m 86.885589,143.32805 1.19795,-0.45146 h 1.649721 l 1.202225,0.45146 h -4.049896"
       id="path1765513" />
    <path
       style="fill:#000000;fill-opacity:1;stroke:#000000;stroke-width:0.264583px;stroke-linecap:butt;stroke-linejoin:miter;stroke-opacity:1"
       d="m 119.07877,143.19798 1.19795,-0.32139 h 1.64972 l 1.20222,0.32139 -0.0564,1.88376 h -3.93715 l -0.0564,-1.88376 v 0"
       id="path1781471" />
    <path
       d="m 119.07877,143.19798 c 0.92886,0.55563 0.15169,1.61925 0.0568,1.88384 l -0.80751,0.37888 -0.80363,-1.39454 z"
       style="fill:#faff58;fill-opacity:1;fill-rule:evenodd;stroke:#000000;stroke-width:0.281945;stroke-linecap:butt;stroke-linejoin:miter;stroke-miterlimit:16.2479;stroke-dasharray:none;stroke-opacity:1"
       id="path1747026-1" />
    <path
       d="m 123.12909,143.1979 c -0.92886,0.55563 -0.15169,1.61925 -0.0568,1.88384 l 0.80751,0.37888 0.80363,-1.39454 z"
       style="fill:#faff58;fill-opacity:1;fill-rule:evenodd;stroke:#000000;stroke-width:0.281945;stroke-linecap:butt;stroke-linejoin:miter;stroke-miterlimit:16.2479;stroke-dasharray:none;stroke-opacity:1"
       id="path1746807-9" />
  </g>
</svg>
