<?xml version="1.0" encoding="UTF-8"?>
<!-- Created with Inkscape (http://www.inkscape.org/) -->
<svg id="svg11301" width="39.727mm" height="11.137mm" version="1.1" viewBox="0 0 39.727 11.137" xmlns="http://www.w3.org/2000/svg">
 <g id="layer1" transform="translate(-85.15 -142.74)">
  <path id="path3081" d="m104.18 142.88-1.198 0.32139-1.5541 0.86802 0.80309 1.3935 0.80736-0.37777c0.0262 0.25622 0.13892 0.80309 0.13892 0.80309 0.0305 1.5583-0.0954 3.2166-0.0954 3.2166 0.95483 0.12583 1.923 0.13893 1.923 0.13893s0.9722-0.0132 1.9228-0.13893c0 0-0.12583-1.6583-0.0954-3.2166 0 0 0.11729-0.54687 0.1432-0.80309l0.80309 0.37777 0.80309-1.3935-1.5498-0.86802-1.2022-0.32139s-0.47314 0.0652-0.82473 0.0652c-0.35185 0-0.82499-0.0652-0.82499-0.0652z" fill="#b62246" fill-rule="evenodd"/>
  <path id="path3065" d="m88.084 142.88-1.198 0.32139-1.5541 0.86802 0.80309 1.3935 0.80736-0.37777c0.02618 0.25622 0.13892 0.80309 0.13892 0.80309 0.03046 1.5583-0.09538 3.2166-0.09538 3.2166 0.95483 0.12583 1.923 0.13893 1.923 0.13893s0.9722-0.0132 1.9228-0.13893c0 0-0.12583-1.6583-0.09538-3.2166 0 0 0.11728-0.54687 0.1432-0.80309l0.80309 0.37777 0.80309-1.3935-1.5498-0.86802-1.2022-0.32139s-0.47314 0.0652-0.82473 0.0652c-0.35185 0-0.82499-0.0652-0.82499-0.0652z" fill="#4ac1c3" fill-rule="evenodd" stroke="#000" stroke-width=".26458"/>
  <path id="path3069" d="m86.986 149.1s-0.59924 1.732-0.74672 4.1629c-0.0043 0.0564-0.0085 0.18222-0.01309 0.23857 0 0 0.0088 5e-3 0.02191 5e-3 0.17793 0.0259 1.5843 0.23857 2.4004 0.23857h0.04328s0.0043-0.12583 0.01736-0.22119c0.03046-0.33877 0.10847-1.1461 0.13038-1.5715 0.01736 0.42534 0.09538 1.2327 0.12583 1.5715 0.01282 0.0954 0.01736 0.22119 0.01736 0.22119h0.04435c0.87335 0 2.4213-0.24339 2.4213-0.24339-0.0045-0.0564-0.0088-0.18219-0.0088-0.23857-0.15201-2.4309-0.75099-4.1629-0.75099-4.1629z" fill-rule="evenodd" stroke-width=".26458"/>
  <path id="path3085" d="m103.08 149.1s-0.59924 1.732-0.74671 4.1629c-4e-3 0.0564-9e-3 0.18222-0.0131 0.23857 0 0 9e-3 5e-3 0.0219 5e-3 0.17793 0.0259 1.5843 0.23857 2.4004 0.23857h0.0433s4e-3 -0.12583 0.0174-0.22119c0.0305-0.33877 0.10847-1.1461 0.13038-1.5715 0.0174 0.42534 0.0954 1.2327 0.12583 1.5715 0.0128 0.0954 0.0174 0.22119 0.0174 0.22119h0.0443c0.87335 0 2.4213-0.24339 2.4213-0.24339-5e-3 -0.0564-9e-3 -0.18219-9e-3 -0.23857-0.15202-2.4309-0.751-4.1629-0.751-4.1629z" fill-rule="evenodd" stroke-width=".26458"/>
  <path id="path3089" d="m112.23 142.88-1.198 0.32139-1.5541 0.86802 0.80308 1.3935 0.80736-0.37777c0.0262 0.25622 0.13893 0.80309 0.13893 0.80309 0.0305 1.5583-0.0954 3.2166-0.0954 3.2166 0.95483 0.12583 1.923 0.13893 1.923 0.13893s0.9722-0.0132 1.9228-0.13893c0 0-0.12584-1.6583-0.0954-3.2166 0 0 0.11728-0.54687 0.1432-0.80309l0.80309 0.37777 0.80308-1.3935-1.5498-0.86802-1.2022-0.32139s-0.47315 0.0652-0.82473 0.0652c-0.35185 0-0.825-0.0652-0.825-0.0652z" fill="#21a760" fill-rule="evenodd" stroke="#000" stroke-width=".26458"/>
  <path id="path3093" d="m111.13 149.1s-0.59924 1.732-0.74671 4.1629c-4e-3 0.0564-9e-3 0.18222-0.0131 0.23857 0 0 9e-3 5e-3 0.0219 5e-3 0.17793 0.0259 1.5843 0.23857 2.4004 0.23857h0.0433s4e-3 -0.12583 0.0174-0.22119c0.0305-0.33877 0.10846-1.1461 0.13037-1.5715 0.0174 0.42534 0.0954 1.2327 0.12583 1.5715 0.0128 0.0954 0.0174 0.22119 0.0174 0.22119h0.0444c0.87335 0 2.4213-0.24339 2.4213-0.24339-5e-3 -0.0564-9e-3 -0.18219-9e-3 -0.23857-0.15201-2.4309-0.75099-4.1629-0.75099-4.1629z" fill="#21a760" fill-rule="evenodd" stroke="#000" stroke-width=".26458"/>
  <path id="path3097" d="m120.28 142.88-1.198 0.32139-1.5541 0.86802 0.80309 1.3935 0.80736-0.37777c0.0262 0.25622 0.13892 0.80309 0.13892 0.80309 0.0305 1.5583-0.0954 3.2166-0.0954 3.2166 0.95484 0.12583 1.923 0.13893 1.923 0.13893s0.9722-0.0132 1.9228-0.13893c0 0-0.12583-1.6583-0.0954-3.2166 0 0 0.11729-0.54687 0.14321-0.80309l0.80308 0.37777 0.80309-1.3935-1.5498-0.86802-1.2022-0.32139s-0.47314 0.0652-0.82473 0.0652c-0.35185 0-0.82499-0.0652-0.82499-0.0652z" fill="#faff58" fill-rule="evenodd" stroke="#000" stroke-width=".26458"/>
  <path id="path3101" d="m119.18 149.1s-0.59924 1.732-0.74671 4.1629c-4e-3 0.0564-9e-3 0.18222-0.0131 0.23857 0 0 9e-3 5e-3 0.0219 5e-3 0.17793 0.0259 1.5843 0.23857 2.4004 0.23857h0.0433s4e-3 -0.12583 0.0174-0.22119c0.0305-0.33877 0.10847-1.1461 0.13038-1.5715 0.0173 0.42534 0.0954 1.2327 0.12583 1.5715 0.0128 0.0954 0.0174 0.22119 0.0174 0.22119h0.0443c0.87335 0 2.4213-0.24339 2.4213-0.24339-5e-3 -0.0564-9e-3 -0.18219-9e-3 -0.23857-0.15201-2.4309-0.75099-4.1629-0.75099-4.1629z" fill="#faff58" fill-rule="evenodd" stroke="#000" stroke-width=".26458"/>
  <path id="path1747026" d="m102.98 143.2c0.92886 0.55563 0.15169 1.6192 0.0568 1.8838l-0.8075 0.37888-0.80363-1.3945z" fill="#454a66" fill-rule="evenodd" stroke="#000" stroke-miterlimit="16.248" stroke-width=".28194"/>
  <path id="path1747097" d="m105.08 142.96 0.75383-0.0863 0.97027 0.32026-0.22031 0.4713 0.17305 0.83018 0.22284 0.58341-0.1432 0.80309 0.0954 3.2166-1.8874 0.14377z" fill="#454a66"/>
  <path id="path1746807" d="m107.03 143.2c-0.92886 0.55563-0.15169 1.6192-0.0568 1.8838l0.80751 0.37888 0.80363-1.3945z" fill="#b62246" fill-rule="evenodd" stroke="#000" stroke-miterlimit="16.248" stroke-width=".28194"/>
  <path id="path3081-3" d="m104.18 142.88-1.198 0.32139-1.5541 0.86802 0.80309 1.3935 0.80736-0.37777c0.0262 0.25622 0.13892 0.80309 0.13892 0.80309 0.0305 1.5583-0.0954 3.2166-0.0954 3.2166 0.95483 0.12583 1.923 0.13893 1.923 0.13893s0.9722-0.0132 1.9228-0.13893c0 0-0.12583-1.6583-0.0954-3.2166 0 0 0.11729-0.54687 0.1432-0.80309l0.80309 0.37777 0.80309-1.3935-1.5498-0.86802-1.2022-0.32139s-0.47314 0.0652-0.82473 0.0652c-0.35185 0-0.82499-0.0652-0.82499-0.0652z" fill="none" fill-rule="evenodd" stroke="#000" stroke-width=".26458"/>
  <path id="path1758713" d="m96.132 142.88-1.198 0.32139-1.5541 0.86802 0.80309 1.3935 0.80736-0.37777c0.02619 0.25622 0.13892 0.80309 0.13892 0.80309 0.03046 1.5584-0.09538 3.2166-0.09538 3.2166 0.95483 0.12583 1.923 0.13893 1.923 0.13893s0.9722-0.013 1.9228-0.13893c0 0-0.12583-1.6582-0.09538-3.2166 0 0 0.11728-0.54687 0.1432-0.80309l0.80308 0.37777 0.80308-1.3935-1.5498-0.86802-1.2022-0.32139s-0.47314 0.0652-0.82473 0.0652c-0.35185 0-0.82499-0.0652-0.82499-0.0652z" fill="#fff" fill-rule="evenodd" stroke="#000" stroke-width=".26458"/>
  <path id="path1758715" d="m95.034 149.1s-0.59924 1.732-0.74671 4.1629c-0.0043 0.0564-0.0085 0.1822-0.0131 0.23858 0 0 0.0088 5e-3 0.02191 5e-3 0.17793 0.0259 1.5843 0.23857 2.4004 0.23857h0.04328s0.0043-0.12583 0.01736-0.22122c0.03046-0.33877 0.10847-1.1461 0.13038-1.5714 0.01736 0.42532 0.09537 1.2327 0.12583 1.5714 0.01283 0.0954 0.01736 0.22122 0.01736 0.22122h0.04435c0.87335 0 2.4213-0.24339 2.4213-0.24339-0.0046-0.0564-0.0088-0.18222-0.0088-0.23857-0.15201-2.4309-0.75099-4.1629-0.75099-4.1629z" fill="#fff" fill-rule="evenodd" stroke="#000" stroke-width=".26458"/>
  <path id="path1758717" d="m96.704 142.89 0.52917-0.0209v6.2558l-0.52807-3e-3z"/>
  <path id="path1758719" d="m98.311 149.03v-6.0502l-0.52917-0.10348v6.1495z"/>
  <path id="path1758721" d="m95.603 149.03v-6.0502l0.52917-0.10348v6.1495z"/>
  <path id="path1758723" d="m98.968 145.23v-2.0442l-0.38503-0.10453v6.0181h0.30148l-0.1127-1.9775 0.06124-1.4326z"/>
  <path id="path1758725" d="m98.895 143.87 1.2589 0.72684-0.22162 0.38385-1.0349-0.59748z" stroke="#000" stroke-width=".26458px"/>
  <path id="path1758727" d="m95.049 145.23v-2.0442l0.38503-0.10453v6.0181h-0.30148l0.1127-1.9775-0.06124-1.4326z"/>
  <path id="path1758729" d="m95.122 143.87-1.2589 0.72684 0.22162 0.38385 1.0349-0.59748z" stroke="#000" stroke-width=".26458px"/>
  <path id="path1765513" d="m86.886 143.33 1.198-0.45146h1.6497l1.2022 0.45146h-4.0499"/>
  <path id="path1781471" d="m119.08 143.2 1.198-0.32139h1.6497l1.2022 0.32139-0.0564 1.8838h-3.9372l-0.0564-1.8838" stroke="#000" stroke-width=".26458px"/>
  <path id="path1747026-1" d="m119.08 143.2c0.92886 0.55563 0.15169 1.6192 0.0568 1.8838l-0.80751 0.37888-0.80363-1.3945z" fill="#faff58" fill-rule="evenodd" stroke="#000" stroke-miterlimit="16.248" stroke-width=".28194"/>
  <path id="path1746807-9" d="m123.13 143.2c-0.92886 0.55563-0.15169 1.6192-0.0568 1.8838l0.80751 0.37888 0.80363-1.3945z" fill="#faff58" fill-rule="evenodd" stroke="#000" stroke-miterlimit="16.248" stroke-width=".28194"/>
 </g>
</svg>
