<?xml version="1.0" encoding="UTF-8"?>
<!-- Created with Inkscape (http://www.inkscape.org/) -->
<svg id="svg2734" width="39.71mm" height="11.238mm" version="1.1" viewBox="0 0 39.71 11.238" xmlns="http://www.w3.org/2000/svg">
 <g id="layer1" transform="translate(115.94 -31.221)">
  <path id="path3249" d="m-96.913 31.365-1.198 0.32139-1.5541 0.86802 0.80308 1.3935 0.80736-0.37777c0.02619 0.25622 0.13892 0.80309 0.13892 0.80309 0.03046 1.5583-0.09538 3.2166-0.09538 3.2166 0.95483 0.12584 1.923 0.13893 1.923 0.13893s0.9722-0.01323 1.9228-0.13893c0 0-0.12583-1.6583-0.09538-3.2166 0 0 0.11728-0.54687 0.1432-0.80309l0.80309 0.37777 0.80309-1.3935-1.5498-0.86802-1.2022-0.32139s-0.47314 0.06519-0.82473 0.06519c-0.35185 0-0.82499-0.06519-0.82499-0.06519z" fill="#fff" fill-rule="evenodd" stroke="#000" stroke-width=".26458"/>
  <path id="path3253" d="m-98.011 37.589s-0.59924 1.732-0.74672 4.1629c-0.0043 0.05638-0.0085 0.18222-0.0131 0.23858 0 0 0.0088 0.0045 0.02191 0.0045 0.17793 0.02593 1.5843 0.23858 2.4004 0.23858h0.04328s0.0043-0.12584 0.01736-0.22119c0.03046-0.33877 0.10847-1.1461 0.13038-1.5715 0.01736 0.42534 0.09538 1.2327 0.12583 1.5715 0.01283 0.09536 0.01736 0.22119 0.01736 0.22119h0.04435c0.87335 0 2.4213-0.24339 2.4213-0.24339-0.0046-0.05636-0.0088-0.18219-0.0088-0.23857-0.15202-2.4309-0.75099-4.1629-0.75099-4.1629z" fill="#fff" fill-rule="evenodd" stroke="#000" stroke-width=".26458"/>
  <path id="path3259" d="m-88.865 31.365-1.1979 0.32139-1.5541 0.86802 0.80309 1.3935 0.80736-0.37777c0.02619 0.25622 0.13892 0.80309 0.13892 0.80309 0.03046 1.5583-0.09538 3.2166-0.09538 3.2166 0.95483 0.12584 1.923 0.13893 1.923 0.13893s0.9722-0.01323 1.9228-0.13893c0 0-0.12584-1.6583-0.09538-3.2166 0 0 0.11728-0.54687 0.1432-0.80309l0.80309 0.37777 0.80309-1.3935-1.5498-0.86802-1.2022-0.32139s-0.47314 0.06519-0.82473 0.06519c-0.35185 0-0.82499-0.06519-0.825-0.06519z" fill="#5e4f38" fill-rule="evenodd" stroke="#000" stroke-miterlimit="16.248" stroke-width=".28194"/>
  <path id="path3261" d="m-89.963 37.589s-0.59924 1.732-0.74672 4.1629c-0.0043 0.05638-0.0085 0.18222-0.0131 0.23858 0 0 0.0088 0.0045 0.02191 0.0045 0.17793 0.02593 1.5843 0.23858 2.4004 0.23858h0.04328s0.0043-0.12584 0.01736-0.22119c0.03046-0.33877 0.10847-1.1461 0.13037-1.5715 0.01736 0.42534 0.09538 1.2327 0.12583 1.5715 0.01283 0.09536 0.01736 0.22119 0.01736 0.22119h0.04435c0.87335 0 2.4213-0.24339 2.4213-0.24339-0.0046-0.05636-0.0088-0.18219-0.0088-0.23857-0.15201-2.4309-0.75099-4.1629-0.75099-4.1629z" fill="#5e4f38" fill-rule="evenodd" stroke="#000" stroke-width=".26458"/>
  <path id="path3265" d="m-80.816 31.365-1.1979 0.32139-1.5541 0.86802 0.80309 1.3935 0.80736-0.37777c0.02619 0.25622 0.13892 0.80309 0.13892 0.80309 0.03046 1.5583-0.09538 3.2166-0.09538 3.2166 0.95483 0.12584 1.923 0.13893 1.923 0.13893s0.9722-0.01323 1.9228-0.13893c0 0-0.12583-1.6583-0.09538-3.2166 0 0 0.11728-0.54687 0.1432-0.80309l0.80308 0.37777 0.80309-1.3935-1.5498-0.86802-1.2022-0.32139s-0.47314 0.06519-0.82473 0.06519c-0.35185 0-0.82499-0.06519-0.825-0.06519z" fill="#2b485e" fill-rule="evenodd" stroke="#000" stroke-width=".26458"/>
  <path id="path3269" d="m-81.915 37.589s-0.59924 1.732-0.74672 4.1629c-0.0043 0.05638-0.0085 0.18222-0.0131 0.23858 0 0 0.0088 0.0045 0.02191 0.0045 0.17793 0.02593 1.5843 0.23858 2.4004 0.23858h0.04328s0.0043-0.12584 0.01736-0.22119c0.03046-0.33877 0.10847-1.1461 0.13038-1.5715 0.01736 0.42534 0.09537 1.2327 0.12583 1.5715 0.01283 0.09536 0.01736 0.22119 0.01736 0.22119h0.04435c0.87335 0 2.4213-0.24339 2.4213-0.24339-0.0046-0.05636-0.0088-0.18219-0.0088-0.23857-0.15201-2.4309-0.75099-4.1629-0.75099-4.1629z" fill="#2b485e" fill-rule="evenodd" stroke="#000" stroke-width=".26458"/>
  <path id="path1923870" d="m-113.01 31.364-1.198 0.32139-1.5541 0.86802 0.80309 1.3935 0.80736-0.37777c0.0262 0.25622 0.13892 0.80309 0.13892 0.80309 0.0305 1.5583-0.0954 3.2166-0.0954 3.2166 0.95483 0.12584 1.923 0.13893 1.923 0.13893s0.9722-0.01323 1.9228-0.13893c0 0-0.12583-1.6583-0.0954-3.2166 0 0 0.11728-0.54687 0.14319-0.80309l0.80309 0.37777 0.80309-1.3935-1.5498-0.86802-1.2022-0.32139s-0.47314 0.06519-0.82473 0.06519c-0.35185 0-0.82499-0.06519-0.82499-0.06519z" fill="#faff58" fill-rule="evenodd" stroke="#000" stroke-width=".26458"/>
  <path id="path1923872" d="m-114.11 37.589s-0.59925 1.732-0.74672 4.1629c-4e-3 0.05638-9e-3 0.18222-0.0131 0.23857 0 0 9e-3 0.0045 0.0219 0.0045 0.17793 0.02593 1.5843 0.23858 2.4004 0.23858h0.0433s4e-3 -0.12584 0.0174-0.22119c0.0305-0.33877 0.10846-1.1461 0.13037-1.5715 0.0174 0.42534 0.0954 1.2327 0.12583 1.5715 0.0128 0.09536 0.0174 0.22119 0.0174 0.22119h0.0443c0.87335 0 2.4213-0.24339 2.4213-0.24339-5e-3 -0.05636-9e-3 -0.18219-9e-3 -0.23858-0.15201-2.4309-0.75099-4.1629-0.75099-4.1629z" fill-rule="evenodd" stroke-width=".26458"/>
  <path id="path1925607" d="m-105.01 31.59-1.198 0.32139-1.5541 0.86802 0.80309 1.3935 0.80736-0.37777c0.0262 0.25622 0.13892 0.80309 0.13892 0.80309 0.0305 1.5583-0.0954 3.2166-0.0954 3.2166 0.95483 0.12584 1.923 0.13893 1.923 0.13893s0.9722-0.01323 1.9228-0.13893c0 0-0.12583-1.6583-0.0954-3.2166 0 0 0.11729-0.54687 0.1432-0.80309l0.80309 0.37777 0.80309-1.3935-1.5498-0.86802-1.2022-0.32139s-0.47314 0.06519-0.82473 0.06519c-0.35185 0-0.82499-0.06519-0.82499-0.06519z" fill-rule="evenodd" stroke="#000" stroke-width=".26458"/>
  <path id="path1925609" d="m-106.11 37.815s-0.59925 1.732-0.74672 4.1629c-4e-3 0.05638-9e-3 0.18222-0.0131 0.23858 0 0 9e-3 0.0045 0.0219 0.0045 0.17793 0.02593 1.5843 0.23858 2.4004 0.23858h0.0433s4e-3 -0.12584 0.0174-0.22119c0.0305-0.33877 0.10846-1.1461 0.13037-1.5715 0.0174 0.42534 0.0954 1.2327 0.12583 1.5715 0.0128 0.09536 0.0174 0.22119 0.0174 0.22119h0.0443c0.87335 0 2.4213-0.24339 2.4213-0.24339-5e-3 -0.05636-9e-3 -0.18219-9e-3 -0.23858-0.15201-2.4309-0.75099-4.1629-0.75099-4.1629z" fill-rule="evenodd" stroke-width=".26458"/>
  <path id="path1925611" d="m-104.33 31.605 0.38496-0.02064v6.1673l-0.38416-0.0026z" fill="#792a4f"/>
  <path id="path1925613" d="m-103.06 37.744v-6.0502l-0.38497-0.10348v6.1495z" fill="#792a4f"/>
  <path id="path1925615" d="m-105.21 37.744v-6.0502l0.38497-0.10348v6.1495z" fill="#792a4f"/>
  <path id="path1925617" d="m-102.17 33.918v-2.0229l-0.38503-0.10345v5.9554h0.30147l-0.11269-1.9569 0.0612-1.4176z" fill="#792a4f"/>
  <path id="path1925619" d="m-106.09 33.919v-2.0237l0.38503-0.10348v5.9577h-0.30148l0.1127-1.9577-0.0612-1.4182z" fill="#792a4f"/>
 </g>
</svg>
