<?xml version="1.0" encoding="UTF-8" standalone="no"?>
<!-- Created with Inkscape (http://www.inkscape.org/) -->

<svg
   width="39.710011mm"
   height="11.238346mm"
   viewBox="0 0 39.710011 11.238346"
   version="1.1"
   id="svg2734"
   inkscape:version="1.1.2 (0a00cf5339, 2022-02-04)"
   sodipodi:docname="060.svg"
   xmlns:inkscape="http://www.inkscape.org/namespaces/inkscape"
   xmlns:sodipodi="http://sodipodi.sourceforge.net/DTD/sodipodi-0.dtd"
   xmlns="http://www.w3.org/2000/svg"
   xmlns:svg="http://www.w3.org/2000/svg">
  <sodipodi:namedview
     id="namedview2736"
     pagecolor="#ffffff"
     bordercolor="#666666"
     borderopacity="1.0"
     inkscape:pageshadow="2"
     inkscape:pageopacity="0.0"
     inkscape:pagecheckerboard="0"
     inkscape:document-units="mm"
     showgrid="false"
     inkscape:zoom="0.69664703"
     inkscape:cx="834.71253"
     inkscape:cy="442.83545"
     inkscape:window-width="1920"
     inkscape:window-height="1016"
     inkscape:window-x="0"
     inkscape:window-y="0"
     inkscape:window-maximized="1"
     inkscape:current-layer="layer1" />
  <defs
     id="defs2731" />
  <g
     inkscape:label="Layer 1"
     inkscape:groupmode="layer"
     id="layer1"
     transform="translate(115.94325,-31.220984)">
    <path
       fill="#faff58"
       d="m -96.913062,31.364528 -1.197952,0.321389 -1.554075,0.868019 0.803085,1.393507 0.807363,-0.377772 c 0.02619,0.256223 0.138922,0.80309 0.138922,0.80309 0.03046,1.558343 -0.09538,3.216619 -0.09538,3.216619 0.954834,0.125836 1.923026,0.138933 1.923026,0.138933 0,0 0.972199,-0.01323 1.922759,-0.138933 0,0 -0.125833,-1.658276 -0.09538,-3.216619 0,0 0.117282,-0.546867 0.143198,-0.80309 l 0.803087,0.377772 0.803087,-1.393507 -1.549799,-0.868019 -1.202227,-0.321389 c 0,0 -0.473141,0.06519 -0.824728,0.06519 -0.35185,0 -0.824992,-0.06519 -0.824994,-0.06519 z"
       fill-rule="evenodd"
       id="path3249"
       style="fill:#ffffff;fill-opacity:1;stroke:#000000;stroke-width:0.264583;stroke-opacity:1" />
    <path
       fill="#000000"
       d="m -98.011096,37.58938 c 0,0 -0.599242,1.732015 -0.746715,4.162901 -0.0043,0.05638 -0.0085,0.182219 -0.0131,0.238575 0,0 0.0088,0.0045 0.02191,0.0045 0.17793,0.02593 1.584267,0.238575 2.400443,0.238575 h 0.04328 c 0,0 0.0043,-0.125836 0.01736,-0.221192 0.03046,-0.338772 0.108469,-1.146122 0.130376,-1.571466 0.01736,0.425344 0.09538,1.232694 0.125834,1.571466 0.01283,0.09536 0.01736,0.221192 0.01736,0.221192 0.01469,0 0.02939,0 0.04435,0 0.87335,0 2.421281,-0.243391 2.421281,-0.243391 -0.0046,-0.05636 -0.0088,-0.182192 -0.0088,-0.238574 -0.152017,-2.430886 -0.750991,-4.162901 -0.750991,-4.162901 z"
       fill-rule="evenodd"
       id="path3253"
       style="fill:#ffffff;fill-opacity:1;stroke:#000000;stroke-width:0.264583;stroke-opacity:1" />
    <path
       stroke="#000000"
       stroke-width="0.281945"
       stroke-miterlimit="16.2479"
       stroke-linecap="butt"
       d="m -88.864768,31.364528 -1.197949,0.321389 -1.554078,0.868019 0.803088,1.393507 0.80736,-0.377772 c 0.02619,0.256223 0.138924,0.80309 0.138924,0.80309 0.03046,1.558343 -0.09538,3.216619 -0.09538,3.216619 0.954834,0.125836 1.923029,0.138933 1.923029,0.138933 0,0 0.972198,-0.01323 1.922759,-0.138933 0,0 -0.125836,-1.658276 -0.09538,-3.216619 0,0 0.117282,-0.546867 0.143198,-0.80309 l 0.803087,0.377772 0.803087,-1.393507 -1.549802,-0.868019 -1.202224,-0.321389 c 0,0 -0.473144,0.06519 -0.824728,0.06519 -0.351851,0 -0.824994,-0.06519 -0.824997,-0.06519 z"
       fill-rule="evenodd"
       id="path3259"
       style="fill:#5e4f38;fill-opacity:1;stroke:#000000;stroke-opacity:1" />
    <path
       fill="#000000"
       d="m -89.9628,37.58938 c 0,0 -0.599241,1.732015 -0.746715,4.162901 -0.0043,0.05638 -0.0085,0.182219 -0.0131,0.238575 0,0 0.0088,0.0045 0.02191,0.0045 0.17793,0.02593 1.584264,0.238575 2.400443,0.238575 h 0.04328 c 0,0 0.0043,-0.125836 0.01736,-0.221192 0.03046,-0.338772 0.108466,-1.146122 0.130374,-1.571466 0.01736,0.425344 0.09538,1.232694 0.125833,1.571466 0.01283,0.09536 0.01736,0.221192 0.01736,0.221192 0.01469,0 0.02939,0 0.04435,0 0.87335,0 2.421281,-0.243391 2.421281,-0.243391 -0.0046,-0.05636 -0.0088,-0.182192 -0.0088,-0.238574 -0.152014,-2.430886 -0.750991,-4.162901 -0.750991,-4.162901 z"
       fill-rule="evenodd"
       id="path3261"
       style="fill:#5e4f38;fill-opacity:1;stroke:#000000;stroke-width:0.264583;stroke-opacity:1" />
    <path
       fill="#faff58"
       d="m -80.816474,31.364528 -1.197949,0.321389 -1.554077,0.868019 0.803087,1.393507 0.80736,-0.377772 c 0.02619,0.256223 0.138925,0.80309 0.138925,0.80309 0.03046,1.558343 -0.09538,3.216619 -0.09538,3.216619 0.954833,0.125836 1.923026,0.138933 1.923026,0.138933 0,0 0.972201,-0.01323 1.922759,-0.138933 0,0 -0.125834,-1.658276 -0.09538,-3.216619 0,0 0.117284,-0.546867 0.143203,-0.80309 l 0.803084,0.377772 0.803087,-1.393507 -1.549802,-0.868019 -1.202224,-0.321389 c 0,0 -0.473144,0.06519 -0.824728,0.06519 -0.351851,0 -0.824994,-0.06519 -0.824997,-0.06519 z"
       fill-rule="evenodd"
       id="path3265"
       style="fill:#2b485e;fill-opacity:1;stroke:#000000;stroke-width:0.264583;stroke-opacity:1" />
    <path
       fill="#000000"
       d="m -81.914505,37.58938 c 0,0 -0.599242,1.732015 -0.746715,4.162901 -0.0043,0.05638 -0.0085,0.182219 -0.0131,0.238575 0,0 0.0088,0.0045 0.02191,0.0045 0.17793,0.02593 1.584267,0.238575 2.400443,0.238575 h 0.04328 c 0,0 0.0043,-0.125836 0.01736,-0.221192 0.03046,-0.338772 0.108469,-1.146122 0.130376,-1.571466 0.01736,0.425344 0.09537,1.232694 0.125831,1.571466 0.01283,0.09536 0.01736,0.221192 0.01736,0.221192 0.01468,0 0.02939,0 0.04435,0 0.87335,0 2.421281,-0.243391 2.421281,-0.243391 -0.0046,-0.05636 -0.0088,-0.182192 -0.0088,-0.238574 -0.152014,-2.430886 -0.750991,-4.162901 -0.750991,-4.162901 z"
       fill-rule="evenodd"
       id="path3269"
       style="fill:#2b485e;fill-opacity:1;stroke:#000000;stroke-width:0.264583;stroke-opacity:1" />
    <path
       fill="#faff58"
       d="m -113.00965,31.364263 -1.19795,0.32139 -1.55408,0.868018 0.80309,1.393508 0.80736,-0.377772 c 0.0262,0.256222 0.13892,0.80309 0.13892,0.80309 0.0305,1.558342 -0.0954,3.216618 -0.0954,3.216618 0.95483,0.125836 1.92302,0.138933 1.92302,0.138933 0,0 0.9722,-0.01323 1.92276,-0.138933 0,0 -0.12583,-1.658276 -0.0954,-3.216618 0,0 0.11728,-0.546868 0.14319,-0.80309 l 0.80309,0.377772 0.80309,-1.393508 -1.54981,-0.868018 -1.20222,-0.32139 c 0,0 -0.47314,0.06519 -0.82473,0.06519 -0.35185,0 -0.82499,-0.06519 -0.82499,-0.06519 z"
       fill-rule="evenodd"
       id="path1923870"
       style="stroke:#000000;stroke-width:0.264583;stroke-opacity:1" />
    <path
       fill="#000000"
       d="m -114.10768,37.589115 c 0,0 -0.59925,1.732016 -0.74672,4.162902 -0.004,0.05638 -0.009,0.182218 -0.0131,0.238574 0,0 0.009,0.0045 0.0219,0.0045 0.17793,0.02593 1.58426,0.238575 2.40044,0.238575 h 0.0433 c 0,0 0.004,-0.125836 0.0174,-0.221192 0.0305,-0.338772 0.10846,-1.146122 0.13037,-1.571466 0.0174,0.425344 0.0954,1.232694 0.12583,1.571466 0.0128,0.09536 0.0174,0.221192 0.0174,0.221192 0.0147,0 0.0294,0 0.0443,0 0.87335,0 2.42128,-0.24339 2.42128,-0.24339 -0.005,-0.05636 -0.009,-0.182192 -0.009,-0.238575 -0.15201,-2.430886 -0.75099,-4.162901 -0.75099,-4.162901 z"
       fill-rule="evenodd"
       id="path1923872"
       style="stroke-width:0.264583" />
    <path
       fill="#faff58"
       d="m -105.00996,31.589927 -1.19795,0.321389 -1.55408,0.868018 0.80309,1.393508 0.80736,-0.377772 c 0.0262,0.256222 0.13892,0.80309 0.13892,0.80309 0.0305,1.558343 -0.0954,3.216619 -0.0954,3.216619 0.95483,0.125835 1.92302,0.138932 1.92302,0.138932 0,0 0.9722,-0.01323 1.92276,-0.138932 0,0 -0.12583,-1.658276 -0.0954,-3.216619 0,0 0.11729,-0.546868 0.1432,-0.80309 l 0.80309,0.377772 0.80309,-1.393508 -1.54981,-0.868018 -1.20222,-0.321389 c 0,0 -0.47314,0.06519 -0.82473,0.06519 -0.35185,0 -0.82499,-0.06519 -0.82499,-0.06519 z"
       fill-rule="evenodd"
       id="path1925607"
       style="fill:#000000;fill-opacity:1;stroke:#000000;stroke-width:0.264583;stroke-opacity:1" />
    <path
       fill="#000000"
       d="m -106.10799,37.814779 c 0,0 -0.59925,1.732015 -0.74672,4.162901 -0.004,0.05638 -0.009,0.182218 -0.0131,0.238575 0,0 0.009,0.0045 0.0219,0.0045 0.17793,0.02593 1.58426,0.238575 2.40044,0.238575 h 0.0433 c 0,0 0.004,-0.125836 0.0174,-0.221191 0.0305,-0.338773 0.10846,-1.146122 0.13037,-1.571467 0.0174,0.425345 0.0954,1.232694 0.12583,1.571467 0.0128,0.09536 0.0174,0.221191 0.0174,0.221191 0.0147,0 0.0294,0 0.0443,0 0.87335,0 2.42128,-0.24339 2.42128,-0.24339 -0.005,-0.05636 -0.009,-0.182192 -0.009,-0.238575 -0.15201,-2.430886 -0.75099,-4.162901 -0.75099,-4.162901 z"
       fill-rule="evenodd"
       id="path1925609"
       style="stroke-width:0.264583" />
    <path
       style="fill:#792a4f;fill-opacity:1;stroke:none;stroke-width:0.173126px;stroke-linecap:butt;stroke-linejoin:miter;stroke-opacity:1"
       d="m -104.32589,31.604823 0.38496,-0.02064 v 6.167332 l -0.38416,-0.0026 z"
       id="path1925611"
       sodipodi:nodetypes="ccccc" />
    <path
       style="fill:#792a4f;fill-opacity:1;stroke:none;stroke-width:0.277609px;stroke-linecap:butt;stroke-linejoin:miter;stroke-opacity:1"
       d="m -103.05746,37.743606 v -6.050201 l -0.38497,-0.103478 v 6.149472 z"
       id="path1925613" />
    <path
       style="fill:#792a4f;fill-opacity:1;stroke:none;stroke-width:0.277611px;stroke-linecap:butt;stroke-linejoin:miter;stroke-opacity:1"
       d="m -105.20936,37.743606 v -6.050201 l 0.38497,-0.103478 v 6.149472 z"
       id="path1925615" />
    <path
       style="fill:#792a4f;fill-opacity:1;stroke:none;stroke-width:0.2632px;stroke-linecap:butt;stroke-linejoin:miter;stroke-opacity:1"
       d="m -102.17397,33.91826 v -2.022898 l -0.38503,-0.103453 v 5.955374 h 0.30147 l -0.11269,-1.956884 0.0612,-1.417638 z"
       id="path1925617" />
    <path
       style="fill:#792a4f;fill-opacity:1;stroke:none;stroke-width:0.263251px;stroke-linecap:butt;stroke-linejoin:miter;stroke-opacity:1"
       d="m -106.09285,33.91908 v -2.023692 l 0.38503,-0.103479 v 5.957703 h -0.30148 l 0.1127,-1.957652 -0.0612,-1.418193 z"
       id="path1925619" />
  </g>
</svg>
