<?xml version="1.0" encoding="UTF-8"?>
<!-- Created with Inkscape (http://www.inkscape.org/) -->
<svg id="svg3034" width="39.71mm" height="11.203mm" version="1.1" viewBox="0 0 39.71 11.203" xmlns="http://www.w3.org/2000/svg">
 <g id="layer1" transform="translate(-85.158 -142.71)">
  <path id="path3409" d="m96.14 142.91-1.198 0.32139-1.5541 0.86802 0.80309 1.3935 0.80736-0.37778c0.02619 0.25623 0.13892 0.80309 0.13892 0.80309 0.03046 1.5584-0.09538 3.2166-0.09538 3.2166 0.95484 0.12584 1.923 0.13894 1.923 0.13894s0.9722-0.0132 1.9228-0.13894c0 0-0.12583-1.6583-0.09538-3.2166 0 0 0.11728-0.54686 0.1432-0.80309l0.80309 0.37778 0.80308-1.3935-1.5498-0.86802-1.2022-0.32139s-0.47314 0.0652-0.82472 0.0652c-0.35185 0-0.825-0.0652-0.825-0.0652z" fill-rule="evenodd" stroke-width=".26458"/>
  <path id="path3419" d="m104.19 142.91-1.198 0.32139-1.5541 0.86802 0.80308 1.3935 0.80737-0.37778c0.0262 0.25623 0.13892 0.80309 0.13892 0.80309 0.0304 1.5584-0.0954 3.2166-0.0954 3.2166 0.95484 0.12584 1.923 0.13894 1.923 0.13894s0.9722-0.0132 1.9228-0.13894c0 0-0.12584-1.6583-0.0954-3.2166 0 0 0.11728-0.54686 0.1432-0.80309l0.80309 0.37778 0.80308-1.3935-1.5498-0.86802-1.2022-0.32139s-0.47314 0.0652-0.82473 0.0652c-0.35185 0-0.82499-0.0652-0.825-0.0652z" fill="#733449" fill-rule="evenodd" stroke="#000" stroke-miterlimit="16.248" stroke-width=".28194"/>
  <path id="path3421" d="m103.09 149.13s-0.59924 1.732-0.74671 4.1629c-4e-3 0.0564-9e-3 0.18222-0.0131 0.23858 0 0 9e-3 4e-3 0.0219 4e-3 0.17793 0.0259 1.5843 0.23857 2.4004 0.23857h0.0433s4e-3 -0.12583 0.0174-0.22119c0.0305-0.33877 0.10846-1.1461 0.13037-1.5715 0.0174 0.42535 0.0954 1.2327 0.12584 1.5715 0.0128 0.0954 0.0174 0.22119 0.0174 0.22119h0.0443c0.87335 0 2.4213-0.24339 2.4213-0.24339-5e-3 -0.0564-9e-3 -0.18219-9e-3 -0.23857-0.15201-2.4309-0.75099-4.1629-0.75099-4.1629z" fill="#733449" fill-rule="evenodd" stroke="#000" stroke-width=".26458"/>
  <path id="path3427" d="m112.24 142.91-1.198 0.32139-1.5541 0.86802 0.80309 1.3935 0.80736-0.37778c0.0262 0.25623 0.13892 0.80309 0.13892 0.80309 0.0305 1.5584-0.0954 3.2166-0.0954 3.2166 0.95483 0.12584 1.923 0.13894 1.923 0.13894s0.97219-0.0132 1.9228-0.13894c0 0-0.12583-1.6583-0.0954-3.2166 0 0 0.11728-0.54686 0.1432-0.80309l0.80308 0.37778 0.80309-1.3935-1.5498-0.86802-1.2022-0.32139s-0.47314 0.0652-0.82472 0.0652c-0.35185 0-0.825-0.0652-0.825-0.0652z" fill-rule="evenodd" stroke="#000" stroke-miterlimit="16.248" stroke-width=".28194"/>
  <path id="path3429" d="m111.14 149.13s-0.59924 1.732-0.74672 4.1629c-4e-3 0.0564-9e-3 0.18222-0.0131 0.23858 0 0 9e-3 4e-3 0.0219 4e-3 0.17793 0.0259 1.5843 0.23857 2.4004 0.23857h0.0433s4e-3 -0.12583 0.0173-0.22119c0.0305-0.33877 0.10847-1.1461 0.13038-1.5715 0.0174 0.42535 0.0954 1.2327 0.12583 1.5715 0.0128 0.0954 0.0174 0.22119 0.0174 0.22119h0.0443c0.87335 0 2.4213-0.24339 2.4213-0.24339-5e-3 -0.0564-9e-3 -0.18219-9e-3 -0.23857-0.15202-2.4309-0.75099-4.1629-0.75099-4.1629z" fill-opacity="0" fill-rule="evenodd" stroke="#000" stroke-width=".26458"/>
  <path id="path3433" d="m120.29 142.91-1.198 0.32139-1.5541 0.86802 0.80308 1.3935 0.80736-0.37778c0.0262 0.25623 0.13893 0.80309 0.13893 0.80309 0.0305 1.5584-0.0954 3.2166-0.0954 3.2166 0.95484 0.12584 1.923 0.13894 1.923 0.13894s0.9722-0.0132 1.9228-0.13894c0 0-0.12584-1.6583-0.0954-3.2166 0 0 0.11728-0.54686 0.1432-0.80309l0.80309 0.37778 0.80308-1.3935-1.5498-0.86802-1.2022-0.32139s-0.47315 0.0652-0.82473 0.0652c-0.35185 0-0.82499-0.0652-0.825-0.0652z" fill="#2e9667" fill-rule="evenodd" stroke="#000" stroke-width=".26458"/>
  <path id="path3437" d="m119.19 149.13s-0.59924 1.732-0.74671 4.1629c-4e-3 0.0564-9e-3 0.18222-0.0131 0.23858 0 0 9e-3 4e-3 0.0219 4e-3 0.17793 0.0259 1.5843 0.23857 2.4004 0.23857h0.0433s4e-3 -0.12583 0.0174-0.22119c0.0305-0.33877 0.10847-1.1461 0.13037-1.5715 0.0174 0.42535 0.0954 1.2327 0.12583 1.5715 0.0128 0.0954 0.0174 0.22119 0.0174 0.22119h0.0444c0.87335 0 2.4213-0.24339 2.4213-0.24339-5e-3 -0.0564-9e-3 -0.18219-9e-3 -0.23857-0.15201-2.4309-0.75099-4.1629-0.75099-4.1629z" fill="#2e9667" fill-rule="evenodd" stroke="#000" stroke-width=".26458"/>
  <path id="path64989" d="m88.092 142.91-1.198 0.32139-1.5541 0.86802 0.80309 1.3935 0.80736-0.37778c0.02618 0.25623 0.13892 0.80309 0.13892 0.80309 0.03046 1.5584-0.09538 3.2166-0.09538 3.2166 0.95483 0.12584 1.923 0.13894 1.923 0.13894s0.9722-0.0132 1.9228-0.13894c0 0-0.12583-1.6583-0.09538-3.2166 0 0 0.11728-0.54686 0.1432-0.80309l0.80309 0.37778 0.80309-1.3935-1.5498-0.86802-1.2022-0.32139s-0.47314 0.0652-0.82473 0.0652c-0.35185 0-0.82499-0.0652-0.82499-0.0652z" fill="#faff58" fill-rule="evenodd" stroke="#000" stroke-width=".26458"/>
  <path id="path64991" d="m86.994 149.13s-0.59924 1.732-0.74672 4.1629c-0.0043 0.0564-0.0085 0.18222-0.01309 0.23858 0 0 0.0088 4e-3 0.02191 4e-3 0.17793 0.0259 1.5843 0.23857 2.4004 0.23857h0.04328s0.0043-0.12583 0.01736-0.22119c0.03046-0.33877 0.10847-1.1461 0.13038-1.5715 0.01736 0.42535 0.09538 1.2327 0.12583 1.5715 0.01282 0.0954 0.01736 0.22119 0.01736 0.22119h0.04435c0.87335 0 2.4213-0.24339 2.4213-0.24339-0.0045-0.0564-0.0088-0.18219-0.0088-0.23857-0.15201-2.4309-0.75099-4.1629-0.75099-4.1629z" fill-rule="evenodd" stroke-width=".26458"/>
  <path id="path64993" d="m86.894 143.16 1.198-0.45146h1.6497l1.2022 0.45146h-4.0499"/>
  <path id="path64995" d="m86.994 149.13s-0.59924 1.732-0.74672 4.1629c-0.0043 0.0564-0.0085 0.18222-0.01309 0.23858 0 0 0.0088 4e-3 0.02191 4e-3 0.17793 0.0259 1.5843 0.23857 2.4004 0.23857h0.04328s0.0043-0.12583 0.01736-0.22119c0.03046-0.33877 0.10847-1.1461 0.13038-1.5715 0.01736 0.42535 0.09538 1.2327 0.12583 1.5715 0.01282 0.0954 0.01736 0.22119 0.01736 0.22119h0.04435c0.87335 0 2.4213-0.24339 2.4213-0.24339-0.0045-0.0564-0.0088-0.18219-0.0088-0.23857-0.15201-2.4309-0.75099-4.1629-0.75099-4.1629z" fill-rule="evenodd" stroke-width=".26458"/>
  <path id="path64997" d="m86.894 143.16 1.198-0.45146h1.6497l1.2022 0.45146h-4.0499"/>
  <path id="path79091" d="m95.086 148.98s-0.59924 1.732-0.74672 4.1629c-0.0043 0.0564-0.0085 0.18222-0.01309 0.23858 0 0 0.0088 4e-3 0.02191 4e-3 0.17793 0.0259 1.5843 0.23858 2.4004 0.23858h0.04328s0.0043-0.12584 0.01736-0.22119c0.03046-0.33878 0.10847-1.1461 0.13037-1.5715 0.01736 0.42534 0.09538 1.2327 0.12583 1.5715 0.01283 0.0953 0.01736 0.22119 0.01736 0.22119h0.04435c0.87335 0 2.4213-0.24339 2.4213-0.24339-0.0045-0.0564-0.0088-0.18219-0.0088-0.23858-0.15201-2.4309-0.75099-4.1629-0.75099-4.1629z" fill-rule="evenodd" stroke-width=".26458"/>
  <path id="path79093" d="m96.708 142.99 0.52917-0.0206v6.1673l-0.52807-3e-3z" fill="#2e5784"/>
  <path id="path79095" d="m98.315 149.13v-6.0502l-0.52917-0.10347v6.1495z" fill="#2e5784"/>
  <path id="path79097" d="m95.606 149.13v-6.0502l0.52917-0.10347v6.1495z" fill="#2e5784"/>
  <path id="path79099" d="m98.972 145.31v-2.0229l-0.38503-0.10345v5.9554h0.30148l-0.1127-1.9569 0.06124-1.4176z" fill="#2e5784"/>
  <path id="path79103" d="m95.053 145.31v-2.0237l0.38503-0.10348v5.9577h-0.30148l0.1127-1.9576-0.06124-1.4182z" fill="#2e5784"/>
  <path id="path89407" d="m111.04 143.23-1.5529 0.8682 0.8061 1.3945 0.80327-0.37889c0.0952-0.26458 0.87242-1.3282-0.0564-1.8838z" fill="#bcc1c7" fill-rule="evenodd" stroke="#000" stroke-miterlimit="16.248" stroke-width=".28194"/>
  <path id="path89409" d="m115.09 143.23c-0.92886 0.55563-0.15169 1.6192-0.0568 1.8838l0.80751 0.37889 0.80363-1.3945z" fill="#bcc1c7" fill-rule="evenodd" stroke="#000" stroke-miterlimit="16.248" stroke-width=".28194"/>
 </g>
</svg>
