<?xml version="1.0" encoding="UTF-8" standalone="no"?>
<!-- Created with Inkscape (http://www.inkscape.org/) -->

<svg
   width="39.710011mm"
   height="11.136896mm"
   viewBox="0 0 39.710011 11.136896"
   version="1.1"
   id="svg3525"
   inkscape:version="1.1.2 (0a00cf5339, 2022-02-04)"
   sodipodi:docname="070.svg"
   xmlns:inkscape="http://www.inkscape.org/namespaces/inkscape"
   xmlns:sodipodi="http://sodipodi.sourceforge.net/DTD/sodipodi-0.dtd"
   xmlns="http://www.w3.org/2000/svg"
   xmlns:svg="http://www.w3.org/2000/svg">
  <sodipodi:namedview
     id="namedview3527"
     pagecolor="#ffffff"
     bordercolor="#666666"
     borderopacity="1.0"
     inkscape:pageshadow="2"
     inkscape:pageopacity="0.0"
     inkscape:pagecheckerboard="0"
     inkscape:document-units="mm"
     showgrid="false"
     inkscape:zoom="0.69664703"
     inkscape:cx="760.06928"
     inkscape:cy="33.733008"
     inkscape:window-width="1920"
     inkscape:window-height="1016"
     inkscape:window-x="0"
     inkscape:window-y="0"
     inkscape:window-maximized="1"
     inkscape:current-layer="layer1" />
  <defs
     id="defs3522" />
  <g
     inkscape:label="Layer 1"
     inkscape:groupmode="layer"
     id="layer1"
     transform="translate(96.193887,-139.51365)">
    <path
       fill="#faff58"
       d="m -93.260291,139.64835 -1.19795,0.32139 -1.554077,0.86801 0.803087,1.39351 0.807361,-0.37777 c 0.02618,0.25622 0.138924,0.80309 0.138924,0.80309 0.03046,1.55834 -0.09538,3.21662 -0.09538,3.21662 0.954834,0.12583 1.923026,0.13893 1.923026,0.13893 0,0 0.9722,-0.0132 1.922759,-0.13893 0,0 -0.125833,-1.65828 -0.09538,-3.21662 0,0 0.117283,-0.54687 0.143198,-0.80309 l 0.803086,0.37777 0.803087,-1.39351 -1.549802,-0.86801 -1.202225,-0.32139 c 0,0 -0.473143,0.0652 -0.824727,0.0652 -0.351851,0 -0.824994,-0.0652 -0.824994,-0.0652 z"
       fill-rule="evenodd"
       id="path3653"
       style="fill:#69cefc;fill-opacity:1;stroke:#000000;stroke-width:0.264583;stroke-opacity:1" />
    <path
       fill="#000000"
       d="m -94.358323,145.8732 c 0,0 -0.599242,1.73201 -0.746715,4.1629 -0.0043,0.0564 -0.0085,0.18222 -0.01309,0.23857 0,0 0.0088,0.005 0.02191,0.005 0.177929,0.0259 1.584265,0.23858 2.400442,0.23858 h 0.04328 c 0,0 0.0043,-0.12584 0.01737,-0.22119 0.03046,-0.33878 0.108467,-1.14613 0.130375,-1.57147 0.01736,0.42534 0.09538,1.23269 0.125832,1.57147 0.01283,0.0953 0.01736,0.22119 0.01736,0.22119 0.0147,0 0.02939,0 0.04435,0 0.87335,0 2.421281,-0.24339 2.421281,-0.24339 -0.0045,-0.0564 -0.0088,-0.1822 -0.0088,-0.23858 -0.152014,-2.43088 -0.75099,-4.1629 -0.75099,-4.1629 z"
       fill-rule="evenodd"
       id="path3657"
       style="stroke:none;stroke-width:0.264583;stroke-opacity:1" />
    <path
       fill="#faff58"
       d="m -85.211995,139.64835 -1.197951,0.32139 -1.554077,0.86801 0.803087,1.39351 0.807362,-0.37777 c 0.02619,0.25622 0.138922,0.80309 0.138922,0.80309 0.03046,1.55834 -0.09538,3.21662 -0.09538,3.21662 0.954836,0.12583 1.923029,0.13893 1.923029,0.13893 0,0 0.972198,-0.0132 1.922758,-0.13893 0,0 -0.125833,-1.65828 -0.09538,-3.21662 0,0 0.117282,-0.54687 0.143198,-0.80309 l 0.803087,0.37777 0.803086,-1.39351 -1.549803,-0.86801 -1.202225,-0.32139 c 0,0 -0.473141,0.0652 -0.824724,0.0652 -0.351854,0 -0.824995,-0.0652 -0.824995,-0.0652 z"
       fill-rule="evenodd"
       id="path3661"
       style="fill:#000000;fill-opacity:0;stroke:#000000;stroke-width:0.264583;stroke-opacity:1" />
    <path
       fill="#000000"
       d="m -86.310029,145.8732 c 0,0 -0.599241,1.73201 -0.746714,4.1629 -0.0043,0.0564 -0.0085,0.18222 -0.01309,0.23857 0,0 0.0088,0.005 0.02191,0.005 0.177929,0.0259 1.584265,0.23858 2.400442,0.23858 h 0.04328 c 0,0 0.0043,-0.12584 0.01736,-0.22119 0.03046,-0.33878 0.108468,-1.14613 0.130376,-1.57147 0.01736,0.42534 0.09538,1.23269 0.125833,1.57147 0.01283,0.0953 0.01736,0.22119 0.01736,0.22119 0.01468,0 0.02939,0 0.04435,0 0.873349,0 2.421281,-0.24339 2.421281,-0.24339 -0.0046,-0.0564 -0.0088,-0.1822 -0.0088,-0.23858 -0.152013,-2.43088 -0.750988,-4.1629 -0.750988,-4.1629 z"
       fill-rule="evenodd"
       id="path3665"
       style="fill:#000000;fill-opacity:0;stroke:#000000;stroke-width:0.264583;stroke-opacity:1" />
    <path
       fill="#faff58"
       d="m -77.163702,139.64835 -1.197952,0.32139 -1.554075,0.86801 0.803085,1.39351 0.807363,-0.37777 c 0.02619,0.25622 0.138922,0.80309 0.138922,0.80309 0.03046,1.55834 -0.09538,3.21662 -0.09538,3.21662 0.954834,0.12583 1.923026,0.13893 1.923026,0.13893 0,0 0.972199,-0.0132 1.922759,-0.13893 0,0 -0.125833,-1.65828 -0.09538,-3.21662 0,0 0.117282,-0.54687 0.143198,-0.80309 l 0.803087,0.37777 0.803087,-1.39351 -1.549799,-0.86801 -1.202227,-0.32139 c 0,0 -0.473141,0.0652 -0.824728,0.0652 -0.35185,0 -0.824992,-0.0652 -0.824994,-0.0652 z"
       fill-rule="evenodd"
       id="path3669"
       style="fill:#733449;fill-opacity:1;stroke:#000000;stroke-width:0.264583;stroke-opacity:1" />
    <path
       fill="#000000"
       d="m -78.261736,145.8732 c 0,0 -0.599242,1.73201 -0.746715,4.1629 -0.0043,0.0564 -0.0085,0.18222 -0.0131,0.23857 0,0 0.0088,0.005 0.02191,0.005 0.17793,0.0259 1.584267,0.23858 2.400443,0.23858 h 0.04328 c 0,0 0.0043,-0.12584 0.01736,-0.22119 0.03046,-0.33878 0.108469,-1.14613 0.130376,-1.57147 0.01736,0.42534 0.09538,1.23269 0.125834,1.57147 0.01283,0.0953 0.01736,0.22119 0.01736,0.22119 0.01469,0 0.02939,0 0.04435,0 0.87335,0 2.421281,-0.24339 2.421281,-0.24339 -0.0046,-0.0564 -0.0088,-0.1822 -0.0088,-0.23858 -0.152017,-2.43088 -0.750991,-4.1629 -0.750991,-4.1629 z"
       fill-rule="evenodd"
       id="path3673"
       style="fill:#733449;fill-opacity:1;stroke:#000000;stroke-width:0.264583;stroke-opacity:1" />
    <path
       fill="#faff58"
       d="m -69.115408,139.64835 -1.197949,0.32139 -1.554078,0.86801 0.803088,1.39351 0.80736,-0.37777 c 0.02619,0.25622 0.138924,0.80309 0.138924,0.80309 0.03046,1.55834 -0.09538,3.21662 -0.09538,3.21662 0.954834,0.12583 1.923029,0.13893 1.923029,0.13893 0,0 0.972198,-0.0132 1.922759,-0.13893 0,0 -0.125836,-1.65828 -0.09538,-3.21662 0,0 0.117282,-0.54687 0.143198,-0.80309 l 0.803087,0.37777 0.803087,-1.39351 -1.549802,-0.86801 -1.202224,-0.32139 c 0,0 -0.473144,0.0652 -0.824728,0.0652 -0.351851,0 -0.824994,-0.0652 -0.824997,-0.0652 z"
       fill-rule="evenodd"
       id="path3677"
       style="fill:#b4b4ae;fill-opacity:1;stroke:#000000;stroke-width:0.264583;stroke-opacity:1" />
    <path
       fill="#000000"
       d="m -70.21344,145.8732 c 0,0 -0.599241,1.73201 -0.746715,4.1629 -0.0043,0.0564 -0.0085,0.18222 -0.0131,0.23857 0,0 0.0088,0.005 0.02191,0.005 0.17793,0.0259 1.584264,0.23858 2.400443,0.23858 h 0.04328 c 0,0 0.0043,-0.12584 0.01736,-0.22119 0.03046,-0.33878 0.108466,-1.14613 0.130374,-1.57147 0.01736,0.42534 0.09538,1.23269 0.125833,1.57147 0.01283,0.0953 0.01736,0.22119 0.01736,0.22119 0.01469,0 0.02939,0 0.04435,0 0.87335,0 2.421281,-0.24339 2.421281,-0.24339 -0.0046,-0.0564 -0.0088,-0.1822 -0.0088,-0.23858 -0.152014,-2.43088 -0.750991,-4.1629 -0.750991,-4.1629 z"
       fill-rule="evenodd"
       id="path3681"
       style="fill:#b4b4ae;fill-opacity:1;stroke:#000000;stroke-width:0.264583;stroke-opacity:1" />
    <path
       fill="#faff58"
       d="m -61.067114,139.64835 -1.197949,0.32139 -1.554077,0.86801 0.803087,1.39351 0.80736,-0.37777 c 0.02619,0.25622 0.138925,0.80309 0.138925,0.80309 0.03046,1.55834 -0.09538,3.21662 -0.09538,3.21662 0.954833,0.12583 1.923026,0.13893 1.923026,0.13893 0,0 0.972201,-0.0132 1.922759,-0.13893 0,0 -0.125834,-1.65828 -0.09538,-3.21662 0,0 0.117284,-0.54687 0.143203,-0.80309 l 0.803084,0.37777 0.803087,-1.39351 -1.549802,-0.86801 -1.202224,-0.32139 c 0,0 -0.473144,0.0652 -0.824728,0.0652 -0.351851,0 -0.824994,-0.0652 -0.824997,-0.0652 z"
       fill-rule="evenodd"
       id="path3685"
       style="fill:#3a915e;fill-opacity:1;stroke:#000000;stroke-width:0.264583;stroke-opacity:1" />
    <path
       fill="#000000"
       d="m -62.165145,145.8732 c 0,0 -0.599242,1.73201 -0.746715,4.1629 -0.0043,0.0564 -0.0085,0.18222 -0.0131,0.23857 0,0 0.0088,0.005 0.02191,0.005 0.17793,0.0259 1.584267,0.23858 2.400443,0.23858 h 0.04328 c 0,0 0.0043,-0.12584 0.01736,-0.22119 0.03046,-0.33878 0.108469,-1.14613 0.130376,-1.57147 0.01736,0.42534 0.09537,1.23269 0.125831,1.57147 0.01283,0.0953 0.01736,0.22119 0.01736,0.22119 0.01468,0 0.02939,0 0.04435,0 0.87335,0 2.421281,-0.24339 2.421281,-0.24339 -0.0046,-0.0564 -0.0088,-0.1822 -0.0088,-0.23858 -0.152014,-2.43088 -0.750991,-4.1629 -0.750991,-4.1629 z"
       fill-rule="evenodd"
       id="path3689"
       style="fill:#3a915e;fill-opacity:1;stroke:#000000;stroke-width:0.264583;stroke-opacity:1" />
    <path
       style="fill:#000000;fill-opacity:1;stroke:none;stroke-width:0.313587px;stroke-linecap:butt;stroke-linejoin:miter;stroke-opacity:1"
       d="m -94.458241,140.0998 1.19795,-0.45145 h 1.649721 l 1.202225,0.45145 h -4.049896"
       id="path204392" />
  </g>
</svg>
