<?xml version="1.0" encoding="UTF-8"?>
<!-- Created with Inkscape (http://www.inkscape.org/) -->
<svg id="svg3525" width="39.71mm" height="11.137mm" version="1.1" viewBox="0 0 39.71 11.137" xmlns="http://www.w3.org/2000/svg">
 <g id="layer1" transform="translate(96.194 -139.51)">
  <path id="path3653" d="m-93.26 139.65-1.198 0.32139-1.5541 0.86801 0.80309 1.3935 0.80736-0.37777c0.02618 0.25622 0.13892 0.80309 0.13892 0.80309 0.03046 1.5583-0.09538 3.2166-0.09538 3.2166 0.95483 0.12583 1.923 0.13893 1.923 0.13893s0.9722-0.0132 1.9228-0.13893c0 0-0.12583-1.6583-0.09538-3.2166 0 0 0.11728-0.54687 0.1432-0.80309l0.80309 0.37777 0.80309-1.3935-1.5498-0.86801-1.2022-0.32139s-0.47314 0.0652-0.82473 0.0652c-0.35185 0-0.82499-0.0652-0.82499-0.0652z" fill="#69cefc" fill-rule="evenodd" stroke="#000" stroke-width=".26458"/>
  <path id="path3657" d="m-94.358 145.87s-0.59924 1.732-0.74672 4.1629c-0.0043 0.0564-0.0085 0.18222-0.01309 0.23857 0 0 0.0088 5e-3 0.02191 5e-3 0.17793 0.0259 1.5843 0.23858 2.4004 0.23858h0.04328s0.0043-0.12584 0.01737-0.22119c0.03046-0.33878 0.10847-1.1461 0.13038-1.5715 0.01736 0.42534 0.09538 1.2327 0.12583 1.5715 0.01283 0.0953 0.01736 0.22119 0.01736 0.22119h0.04435c0.87335 0 2.4213-0.24339 2.4213-0.24339-0.0045-0.0564-0.0088-0.1822-0.0088-0.23858-0.15201-2.4309-0.75099-4.1629-0.75099-4.1629z" fill-rule="evenodd"/>
  <path id="path3661" d="m-85.212 139.65-1.198 0.32139-1.5541 0.86801 0.80309 1.3935 0.80736-0.37777c0.02619 0.25622 0.13892 0.80309 0.13892 0.80309 0.03046 1.5583-0.09538 3.2166-0.09538 3.2166 0.95484 0.12583 1.923 0.13893 1.923 0.13893s0.9722-0.0132 1.9228-0.13893c0 0-0.12583-1.6583-0.09538-3.2166 0 0 0.11728-0.54687 0.1432-0.80309l0.80309 0.37777 0.80309-1.3935-1.5498-0.86801-1.2022-0.32139s-0.47314 0.0652-0.82472 0.0652c-0.35185 0-0.825-0.0652-0.825-0.0652z" fill="#faff58" fill-opacity="0" fill-rule="evenodd" stroke="#000" stroke-width=".26458"/>
  <path id="path3665" d="m-86.31 145.87s-0.59924 1.732-0.74671 4.1629c-0.0043 0.0564-0.0085 0.18222-0.01309 0.23857 0 0 0.0088 5e-3 0.02191 5e-3 0.17793 0.0259 1.5843 0.23858 2.4004 0.23858h0.04328s0.0043-0.12584 0.01736-0.22119c0.03046-0.33878 0.10847-1.1461 0.13038-1.5715 0.01736 0.42534 0.09538 1.2327 0.12583 1.5715 0.01283 0.0953 0.01736 0.22119 0.01736 0.22119h0.04435c0.87335 0 2.4213-0.24339 2.4213-0.24339-0.0046-0.0564-0.0088-0.1822-0.0088-0.23858-0.15201-2.4309-0.75099-4.1629-0.75099-4.1629z" fill-opacity="0" fill-rule="evenodd" stroke="#000" stroke-width=".26458"/>
  <path id="path3669" d="m-77.164 139.65-1.198 0.32139-1.5541 0.86801 0.80308 1.3935 0.80736-0.37777c0.02619 0.25622 0.13892 0.80309 0.13892 0.80309 0.03046 1.5583-0.09538 3.2166-0.09538 3.2166 0.95483 0.12583 1.923 0.13893 1.923 0.13893s0.9722-0.0132 1.9228-0.13893c0 0-0.12583-1.6583-0.09538-3.2166 0 0 0.11728-0.54687 0.1432-0.80309l0.80309 0.37777 0.80309-1.3935-1.5498-0.86801-1.2022-0.32139s-0.47314 0.0652-0.82473 0.0652c-0.35185 0-0.82499-0.0652-0.82499-0.0652z" fill="#733449" fill-rule="evenodd" stroke="#000" stroke-width=".26458"/>
  <path id="path3673" d="m-78.262 145.87s-0.59924 1.732-0.74672 4.1629c-0.0043 0.0564-0.0085 0.18222-0.0131 0.23857 0 0 0.0088 5e-3 0.02191 5e-3 0.17793 0.0259 1.5843 0.23858 2.4004 0.23858h0.04328s0.0043-0.12584 0.01736-0.22119c0.03046-0.33878 0.10847-1.1461 0.13038-1.5715 0.01736 0.42534 0.09538 1.2327 0.12583 1.5715 0.01283 0.0953 0.01736 0.22119 0.01736 0.22119h0.04435c0.87335 0 2.4213-0.24339 2.4213-0.24339-0.0046-0.0564-0.0088-0.1822-0.0088-0.23858-0.15202-2.4309-0.75099-4.1629-0.75099-4.1629z" fill="#733449" fill-rule="evenodd" stroke="#000" stroke-width=".26458"/>
  <path id="path3677" d="m-69.115 139.65-1.1979 0.32139-1.5541 0.86801 0.80309 1.3935 0.80736-0.37777c0.02619 0.25622 0.13892 0.80309 0.13892 0.80309 0.03046 1.5583-0.09538 3.2166-0.09538 3.2166 0.95483 0.12583 1.923 0.13893 1.923 0.13893s0.9722-0.0132 1.9228-0.13893c0 0-0.12584-1.6583-0.09538-3.2166 0 0 0.11728-0.54687 0.1432-0.80309l0.80309 0.37777 0.80309-1.3935-1.5498-0.86801-1.2022-0.32139s-0.47314 0.0652-0.82473 0.0652c-0.35185 0-0.82499-0.0652-0.825-0.0652z" fill="#b4b4ae" fill-rule="evenodd" stroke="#000" stroke-width=".26458"/>
  <path id="path3681" d="m-70.213 145.87s-0.59924 1.732-0.74672 4.1629c-0.0043 0.0564-0.0085 0.18222-0.0131 0.23857 0 0 0.0088 5e-3 0.02191 5e-3 0.17793 0.0259 1.5843 0.23858 2.4004 0.23858h0.04328s0.0043-0.12584 0.01736-0.22119c0.03046-0.33878 0.10847-1.1461 0.13037-1.5715 0.01736 0.42534 0.09538 1.2327 0.12583 1.5715 0.01283 0.0953 0.01736 0.22119 0.01736 0.22119h0.04435c0.87335 0 2.4213-0.24339 2.4213-0.24339-0.0046-0.0564-0.0088-0.1822-0.0088-0.23858-0.15201-2.4309-0.75099-4.1629-0.75099-4.1629z" fill="#b4b4ae" fill-rule="evenodd" stroke="#000" stroke-width=".26458"/>
  <path id="path3685" d="m-61.067 139.65-1.1979 0.32139-1.5541 0.86801 0.80309 1.3935 0.80736-0.37777c0.02619 0.25622 0.13892 0.80309 0.13892 0.80309 0.03046 1.5583-0.09538 3.2166-0.09538 3.2166 0.95483 0.12583 1.923 0.13893 1.923 0.13893s0.9722-0.0132 1.9228-0.13893c0 0-0.12583-1.6583-0.09538-3.2166 0 0 0.11728-0.54687 0.1432-0.80309l0.80308 0.37777 0.80309-1.3935-1.5498-0.86801-1.2022-0.32139s-0.47314 0.0652-0.82473 0.0652c-0.35185 0-0.82499-0.0652-0.825-0.0652z" fill="#3a915e" fill-rule="evenodd" stroke="#000" stroke-width=".26458"/>
  <path id="path3689" d="m-62.165 145.87s-0.59924 1.732-0.74672 4.1629c-0.0043 0.0564-0.0085 0.18222-0.0131 0.23857 0 0 0.0088 5e-3 0.02191 5e-3 0.17793 0.0259 1.5843 0.23858 2.4004 0.23858h0.04328s0.0043-0.12584 0.01736-0.22119c0.03046-0.33878 0.10847-1.1461 0.13038-1.5715 0.01736 0.42534 0.09537 1.2327 0.12583 1.5715 0.01283 0.0953 0.01736 0.22119 0.01736 0.22119h0.04435c0.87335 0 2.4213-0.24339 2.4213-0.24339-0.0046-0.0564-0.0088-0.1822-0.0088-0.23858-0.15201-2.4309-0.75099-4.1629-0.75099-4.1629z" fill="#3a915e" fill-rule="evenodd" stroke="#000" stroke-width=".26458"/>
  <path id="path204392" d="m-94.458 140.1 1.198-0.45145h1.6497l1.2022 0.45145h-4.0499"/>
 </g>
</svg>
