<?xml version="1.0" encoding="UTF-8" standalone="no"?>
<!-- Created with Inkscape (http://www.inkscape.org/) -->

<svg
   width="39.709972mm"
   height="11.202811mm"
   viewBox="0 0 39.709972 11.202811"
   version="1.1"
   id="svg4140"
   inkscape:version="1.1.2 (0a00cf5339, 2022-02-04)"
   sodipodi:docname="072.svg"
   xmlns:inkscape="http://www.inkscape.org/namespaces/inkscape"
   xmlns:sodipodi="http://sodipodi.sourceforge.net/DTD/sodipodi-0.dtd"
   xmlns="http://www.w3.org/2000/svg"
   xmlns:svg="http://www.w3.org/2000/svg">
  <sodipodi:namedview
     id="namedview4142"
     pagecolor="#ffffff"
     bordercolor="#666666"
     borderopacity="1.0"
     inkscape:pageshadow="2"
     inkscape:pageopacity="0.0"
     inkscape:pagecheckerboard="0"
     inkscape:document-units="mm"
     showgrid="false"
     inkscape:zoom="0.69664703"
     inkscape:cx="75.360976"
     inkscape:cy="20.813984"
     inkscape:window-width="1920"
     inkscape:window-height="1016"
     inkscape:window-x="0"
     inkscape:window-y="0"
     inkscape:window-maximized="1"
     inkscape:current-layer="layer1" />
  <defs
     id="defs4137" />
  <g
     inkscape:label="Layer 1"
     inkscape:groupmode="layer"
     id="layer1"
     transform="translate(-85.15842,-142.70845)">
    <path
       fill="#faff58"
       d="m 104.1886,142.91006 -1.19795,0.32139 -1.55407,0.86802 0.80308,1.3935 0.80737,-0.37777 c 0.0262,0.25622 0.13892,0.80309 0.13892,0.80309 0.0304,1.55834 -0.0954,3.21662 -0.0954,3.21662 0.95484,0.12584 1.92303,0.13893 1.92303,0.13893 0,0 0.9722,-0.0132 1.92276,-0.13893 0,0 -0.12584,-1.65828 -0.0954,-3.21662 0,0 0.11728,-0.54687 0.1432,-0.80309 l 0.80309,0.37777 0.80308,-1.3935 -1.5498,-0.86802 -1.20222,-0.32139 c 0,0 -0.47314,0.0652 -0.82473,0.0652 -0.35185,0 -0.82499,-0.0652 -0.825,-0.0652 z"
       fill-rule="evenodd"
       id="path3753"
       style="fill:#733449;fill-opacity:1;stroke:#000000;stroke-width:0.264583;stroke-opacity:1" />
    <path
       fill="#000000"
       d="m 103.09057,149.13491 c 0,0 -0.59924,1.73202 -0.74671,4.1629 -0.004,0.0564 -0.009,0.18222 -0.0131,0.23858 0,0 0.009,0.004 0.0219,0.004 0.17793,0.0259 1.58426,0.23858 2.40044,0.23858 h 0.0433 c 0,0 0.004,-0.12584 0.0174,-0.22119 0.0305,-0.33878 0.10846,-1.14613 0.13037,-1.57147 0.0174,0.42534 0.0954,1.23269 0.12584,1.57147 0.0128,0.0953 0.0174,0.22119 0.0174,0.22119 0.0147,0 0.0294,0 0.0443,0 0.87335,0 2.42128,-0.24339 2.42128,-0.24339 -0.005,-0.0564 -0.009,-0.18219 -0.009,-0.23858 -0.15201,-2.43088 -0.75099,-4.1629 -0.75099,-4.1629 z"
       fill-rule="evenodd"
       id="path3757"
       style="fill:#733449;fill-opacity:1;stroke:#000000;stroke-width:0.264583;stroke-opacity:1" />
    <path
       fill="#faff58"
       d="m 112.2369,142.91006 -1.19795,0.32139 -1.55408,0.86802 0.80309,1.3935 0.80736,-0.37777 c 0.0262,0.25622 0.13892,0.80309 0.13892,0.80309 0.0305,1.55834 -0.0954,3.21662 -0.0954,3.21662 0.95483,0.12584 1.92303,0.13893 1.92303,0.13893 0,0 0.97219,-0.0132 1.92275,-0.13893 0,0 -0.12583,-1.65828 -0.0954,-3.21662 0,0 0.11728,-0.54687 0.1432,-0.80309 l 0.80308,0.37777 0.80309,-1.3935 -1.5498,-0.86802 -1.20223,-0.32139 c 0,0 -0.47314,0.0652 -0.82472,0.0652 -0.35185,0 -0.825,-0.0652 -0.825,-0.0652 z"
       fill-rule="evenodd"
       id="path3761"
       style="fill:#bbbcd5;fill-opacity:1;stroke:#000000;stroke-width:0.264583;stroke-opacity:1" />
    <path
       fill="#000000"
       d="m 111.13887,149.13491 c 0,0 -0.59924,1.73202 -0.74672,4.1629 -0.004,0.0564 -0.009,0.18222 -0.0131,0.23858 0,0 0.009,0.004 0.0219,0.004 0.17793,0.0259 1.58427,0.23858 2.40045,0.23858 h 0.0433 c 0,0 0.004,-0.12584 0.0173,-0.22119 0.0305,-0.33878 0.10847,-1.14613 0.13038,-1.57147 0.0174,0.42534 0.0954,1.23269 0.12583,1.57147 0.0128,0.0953 0.0174,0.22119 0.0174,0.22119 0.0147,0 0.0294,0 0.0443,0 0.87335,0 2.42128,-0.24339 2.42128,-0.24339 -0.005,-0.0564 -0.009,-0.18219 -0.009,-0.23858 -0.15202,-2.43088 -0.75099,-4.1629 -0.75099,-4.1629 z"
       fill-rule="evenodd"
       id="path3765"
       style="fill:#bbbcd5;fill-opacity:1;stroke:#000000;stroke-width:0.264583;stroke-opacity:1" />
    <path
       fill="#faff58"
       d="m 120.28519,142.91006 -1.19795,0.32139 -1.55407,0.86802 0.80308,1.3935 0.80736,-0.37777 c 0.0262,0.25622 0.13893,0.80309 0.13893,0.80309 0.0305,1.55834 -0.0954,3.21662 -0.0954,3.21662 0.95484,0.12584 1.92303,0.13893 1.92303,0.13893 0,0 0.9722,-0.0132 1.92276,-0.13893 0,0 -0.12584,-1.65828 -0.0954,-3.21662 0,0 0.11728,-0.54687 0.1432,-0.80309 l 0.80309,0.37777 0.80308,-1.3935 -1.5498,-0.86802 -1.20222,-0.32139 c 0,0 -0.47315,0.0652 -0.82473,0.0652 -0.35185,0 -0.82499,-0.0652 -0.825,-0.0652 z"
       fill-rule="evenodd"
       id="path3769"
       style="fill:#3a915e;fill-opacity:1;stroke:#000000;stroke-width:0.264583;stroke-opacity:1" />
    <path
       fill="#000000"
       d="m 119.18716,149.13491 c 0,0 -0.59924,1.73202 -0.74671,4.1629 -0.004,0.0564 -0.009,0.18222 -0.0131,0.23858 0,0 0.009,0.004 0.0219,0.004 0.17793,0.0259 1.58426,0.23858 2.40044,0.23858 h 0.0433 c 0,0 0.004,-0.12584 0.0174,-0.22119 0.0305,-0.33878 0.10847,-1.14613 0.13037,-1.57147 0.0174,0.42534 0.0954,1.23269 0.12583,1.57147 0.0128,0.0953 0.0174,0.22119 0.0174,0.22119 0.0147,0 0.0294,0 0.0444,0 0.87335,0 2.42128,-0.24339 2.42128,-0.24339 -0.005,-0.0564 -0.009,-0.18219 -0.009,-0.23858 -0.15201,-2.43088 -0.75099,-4.1629 -0.75099,-4.1629 z"
       fill-rule="evenodd"
       id="path3773"
       style="fill:#3a915e;fill-opacity:1;stroke:#000000;stroke-width:0.264583;stroke-opacity:1" />
    <path
       fill="#faff58"
       d="m 88.092016,142.91006 -1.19795,0.32139 -1.554077,0.86802 0.803087,1.3935 0.807361,-0.37777 c 0.02618,0.25622 0.138924,0.80309 0.138924,0.80309 0.03046,1.55834 -0.09538,3.21662 -0.09538,3.21662 0.954834,0.12584 1.923026,0.13893 1.923026,0.13893 0,0 0.9722,-0.0132 1.922759,-0.13893 0,0 -0.125833,-1.65828 -0.09538,-3.21662 0,0 0.117283,-0.54687 0.143198,-0.80309 l 0.803086,0.37777 0.803087,-1.3935 -1.549802,-0.86802 -1.202225,-0.32139 c 0,0 -0.473143,0.0652 -0.824727,0.0652 -0.351851,0 -0.824994,-0.0652 -0.824994,-0.0652 z"
       fill-rule="evenodd"
       id="path299509"
       style="stroke:#000000;stroke-width:0.264583;stroke-opacity:1" />
    <path
       fill="#000000"
       d="m 86.993984,149.13491 c 0,0 -0.599243,1.73202 -0.746716,4.1629 -0.0043,0.0564 -0.0085,0.18222 -0.01309,0.23858 0,0 0.0088,0.004 0.02191,0.004 0.177929,0.0259 1.584266,0.23858 2.400443,0.23858 h 0.04328 c 0,0 0.0043,-0.12584 0.01736,-0.22119 0.03046,-0.33878 0.108467,-1.14613 0.130375,-1.57147 0.01736,0.42534 0.09538,1.23269 0.125832,1.57147 0.01282,0.0953 0.01736,0.22119 0.01736,0.22119 0.01469,0 0.02939,0 0.04435,0 0.87335,0 2.421281,-0.24339 2.421281,-0.24339 -0.0045,-0.0564 -0.0088,-0.18219 -0.0088,-0.23858 -0.152014,-2.43088 -0.75099,-4.1629 -0.75099,-4.1629 z"
       fill-rule="evenodd"
       id="path299511"
       style="stroke-width:0.264583" />
    <path
       style="fill:#000000;fill-opacity:1;stroke:none;stroke-width:0.313587px;stroke-linecap:butt;stroke-linejoin:miter;stroke-opacity:1"
       d="m 86.894066,143.1599 1.19795,-0.45145 h 1.649721 l 1.202225,0.45145 h -4.049896"
       id="path299513" />
    <path
       fill="#000000"
       d="m 86.993984,149.13491 c 0,0 -0.599243,1.73202 -0.746716,4.1629 -0.0043,0.0564 -0.0085,0.18222 -0.01309,0.23858 0,0 0.0088,0.004 0.02191,0.004 0.177929,0.0259 1.584266,0.23858 2.400443,0.23858 h 0.04328 c 0,0 0.0043,-0.12584 0.01736,-0.22119 0.03046,-0.33878 0.108467,-1.14613 0.130375,-1.57147 0.01736,0.42534 0.09538,1.23269 0.125832,1.57147 0.01282,0.0953 0.01736,0.22119 0.01736,0.22119 0.01469,0 0.02939,0 0.04435,0 0.87335,0 2.421281,-0.24339 2.421281,-0.24339 -0.0045,-0.0564 -0.0088,-0.18219 -0.0088,-0.23858 -0.152014,-2.43088 -0.75099,-4.1629 -0.75099,-4.1629 z"
       fill-rule="evenodd"
       id="path299515"
       style="stroke-width:0.264583" />
    <path
       fill="#faff58"
       d="m 96.096388,143.06796 -1.197948,0.32139 -1.554078,0.86802 0.803087,1.39351 0.80736,-0.37778 c 0.02619,0.25623 0.138925,0.80309 0.138925,0.80309 0.03046,1.55835 -0.09538,3.21662 -0.09538,3.21662 0.954834,0.12584 1.923026,0.13894 1.923026,0.13894 0,0 0.972201,-0.0132 1.922759,-0.13894 0,0 -0.125833,-1.65827 -0.09538,-3.21662 0,0 0.117284,-0.54686 0.1432,-0.80309 l 0.803085,0.37778 0.803086,-1.39351 -1.549801,-0.86802 -1.202225,-0.32139 c 0,0 -0.473143,0.0652 -0.824727,0.0652 -0.351851,0 -0.824995,-0.0652 -0.824995,-0.0652 z"
       fill-rule="evenodd"
       id="path299722"
       style="fill:#000000;fill-opacity:1;stroke-width:0.264583" />
    <path
       fill="#000000"
       d="m 95.042278,149.13491 c 0,0 -0.599241,1.73202 -0.746714,4.1629 -0.0043,0.0564 -0.0085,0.18222 -0.01309,0.23858 0,0 0.0088,0.004 0.02191,0.004 0.177929,0.0259 1.584265,0.23858 2.400442,0.23858 h 0.04328 c 0,0 0.0043,-0.12584 0.01736,-0.22119 0.03046,-0.33878 0.108468,-1.14613 0.130376,-1.57147 0.01736,0.42534 0.09538,1.23269 0.125833,1.57147 0.01283,0.0953 0.01736,0.22119 0.01736,0.22119 0.01468,0 0.02939,0 0.04435,0 0.873349,0 2.421281,-0.24339 2.421281,-0.24339 -0.0046,-0.0564 -0.0088,-0.18219 -0.0088,-0.23858 -0.152013,-2.43088 -0.750988,-4.1629 -0.750988,-4.1629 z"
       fill-rule="evenodd"
       id="path299724"
       style="stroke-width:0.264583" />
    <path
       style="fill:#2e5784;fill-opacity:1;stroke:none;stroke-width:0.202977px;stroke-linecap:butt;stroke-linejoin:miter;stroke-opacity:1"
       d="m 96.663877,143.15035 0.529167,-0.0206 v 6.16733 l -0.528066,-0.003 z"
       id="path299726"
       sodipodi:nodetypes="ccccc" />
    <path
       style="fill:#2e5784;fill-opacity:1;stroke:none;stroke-width:0.325475px;stroke-linecap:butt;stroke-linejoin:miter;stroke-opacity:1"
       d="m 98.270594,149.28914 v -6.0502 l -0.529167,-0.10348 v 6.14947 z"
       id="path299728" />
    <path
       style="fill:#2e5784;fill-opacity:1;stroke:none;stroke-width:0.325477px;stroke-linecap:butt;stroke-linejoin:miter;stroke-opacity:1"
       d="m 95.562539,149.28914 v -6.0502 l 0.529166,-0.10348 v 6.14947 z"
       id="path299730" />
    <path
       style="fill:#2e5784;fill-opacity:1;stroke:none;stroke-width:0.2632px;stroke-linecap:butt;stroke-linejoin:miter;stroke-opacity:1"
       d="m 98.927695,145.46379 v -2.0229 l -0.38503,-0.10345 v 5.95537 h 0.301477 l -0.112697,-1.95688 0.06124,-1.41764 z"
       id="path299732" />
    <path
       style="fill:#2e5784;fill-opacity:1;stroke:none;stroke-width:0.263251px;stroke-linecap:butt;stroke-linejoin:miter;stroke-opacity:1"
       d="m 95.008816,145.46461 v -2.02369 l 0.38503,-0.10348 v 5.9577 h -0.301477 l 0.112699,-1.95765 -0.06124,-1.41819 z"
       id="path299734" />
  </g>
</svg>
