<?xml version="1.0" encoding="UTF-8"?>
<svg id="svg363" width="150.09" height="42.343" fill="none" stroke-linecap="square" stroke-miterlimit="10" version="1.1" viewBox="0 0 150.09 42.343" xmlns="http://www.w3.org/2000/svg">
 <clipPath id="g1f1130f6aa8_0_6014.0">
  <path id="path2" d="m0 0h960v540h-960z"/>
 </clipPath>
 <path id="path311903" d="m48.261 0.762 4.5277 1.2147 5.8737 3.2807-3.0353 5.2668-3.0514-1.4278c-0.099 0.9684-0.52507 3.0353-0.52507 3.0353-0.11511 5.8898 0.36048 12.157 0.36048 12.157-3.6088 0.4756-7.2681 0.5251-7.2681 0.5251s-3.6744-0.05-7.2671-0.5251c0 0 0.47559-6.2675 0.36048-12.157 0 0-0.44328-2.0669-0.54122-3.0353l-3.0353 1.4278-3.0353-5.2668 5.8575-3.2807 4.5438-1.2147s1.7883 0.2464 3.1171 0.2464c1.3298 0 3.1181-0.2464 3.1181-0.2464z" fill="#733449" fill-rule="evenodd" stroke="#000"/>
 <path id="path311905" d="m52.412 24.289s2.2649 6.5462 2.8222 15.734c0.0162 0.2131 0.0323 0.6887 0.0495 0.9017 0 0-0.0333 0.017-0.0828 0.017-0.67248 0.098-5.9878 0.9017-9.0725 0.9017h-0.16358s-0.0162-0.4756-0.0656-0.836c-0.11511-1.2804-0.40995-4.3318-0.49275-5.9394-0.0656 1.6076-0.36048 4.659-0.47559 5.9394-0.0485 0.3604-0.0656 0.836-0.0656 0.836h-0.16762c-3.3008 0-9.1513-0.9199-9.1513-0.9199 0.01717-0.213 0.03332-0.6886 0.03332-0.9017 0.57454-9.1876 2.8384-15.734 2.8384-15.734z" fill="#733449" fill-rule="evenodd" stroke="#000"/>
 <path id="path311907" d="m139 0.762 4.5277 1.2147 5.8737 3.2807-3.0353 5.2668-3.0514-1.4278c-0.099 0.9684-0.52506 3.0353-0.52506 3.0353-0.1151 5.8898 0.36047 12.157 0.36047 12.157-3.6088 0.4756-7.2681 0.5251-7.2681 0.5251s-3.6744-0.05-7.2671-0.5251c0 0 0.47559-6.2675 0.36048-12.157 0 0-0.44328-2.0669-0.54122-3.0353l-3.0353 1.4278-3.0353-5.2668 5.8575-3.2807 4.5438-1.2147s1.7883 0.2464 3.1171 0.2464c1.3298 0 3.1181-0.2464 3.1181-0.2464z" fill="#faff58" fill-opacity="0" fill-rule="evenodd" stroke="#000"/>
 <path id="path311909" d="m143.15 24.289s2.2648 6.5462 2.8222 15.734c0.0162 0.2131 0.0323 0.6887 0.0495 0.9017 0 0-0.0333 0.017-0.0828 0.017-0.67249 0.098-5.9878 0.9017-9.0726 0.9017h-0.16358s-0.0162-0.4756-0.0656-0.836c-0.11511-1.2804-0.40995-4.3318-0.49275-5.9394-0.0656 1.6076-0.36048 4.659-0.47559 5.9394-0.0485 0.3604-0.0656 0.836-0.0656 0.836h-0.16762c-3.3008 0-9.1513-0.9199-9.1513-0.9199 0.0172-0.213 0.0333-0.6886 0.0333-0.9017 0.57454-9.1876 2.8384-15.734 2.8384-15.734z" fill="#000" fill-opacity="0" fill-rule="evenodd" stroke="#000"/>
 <path id="path311911" d="m108.58 0.762 4.5277 1.2147 5.8737 3.2807-3.0353 5.2668-3.0514-1.4278c-0.099 0.9684-0.52507 3.0353-0.52507 3.0353-0.11511 5.8898 0.36048 12.157 0.36048 12.157-3.6088 0.4756-7.2681 0.5251-7.2681 0.5251s-3.6745-0.05-7.2671-0.5251c0 0 0.47559-6.2675 0.36048-12.157 0 0-0.44328-2.0669-0.54123-3.0353l-3.0353 1.4278-3.0353-5.2668 5.8575-3.2807 4.5438-1.2147s1.7883 0.2464 3.1171 0.2464c1.3298 0 3.1181-0.2464 3.1181-0.2464z" fill="#3a915e" fill-rule="evenodd" stroke="#000"/>
 <path id="path311913" d="m112.73 24.289s2.2648 6.5462 2.8222 15.734c0.0162 0.2131 0.0323 0.6887 0.0495 0.9017 0 0-0.0333 0.017-0.0828 0.017-0.67249 0.098-5.9878 0.9017-9.0725 0.9017h-0.16358s-0.0162-0.4756-0.0656-0.836c-0.11511-1.2804-0.40996-4.3318-0.49276-5.9394-0.0656 1.6076-0.36047 4.659-0.47558 5.9394-0.0485 0.3604-0.0656 0.836-0.0656 0.836h-0.16762c-3.3008 0-9.1513-0.9199-9.1513-0.9199 0.0172-0.213 0.0333-0.6886 0.0333-0.9017 0.57454-9.1876 2.8384-15.734 2.8384-15.734z" fill="#3a915e" fill-rule="evenodd" stroke="#000"/>
 <path id="path311915" d="m11.088 0.762-4.5277 1.2147-5.8737 3.2807 3.0353 5.2668 3.0514-1.4278c0.09896 0.9684 0.52507 3.0353 0.52507 3.0353 0.11511 5.8898-0.36048 12.157-0.36048 12.157 3.6088 0.4756 7.2681 0.5251 7.2681 0.5251s3.6745-0.05 7.2671-0.5251c0 0-0.47559-6.2675-0.36048-12.157 0 0 0.44328-2.0669 0.54122-3.0353l3.0353 1.4278 3.0353-5.2668-5.8575-3.2807-4.5438-1.2147s-1.7883 0.2464-3.1171 0.2464c-1.3298 0-3.1181-0.2464-3.1181-0.2464z" fill="#faff58" fill-rule="evenodd" stroke="#000"/>
 <path id="path311917" d="m6.9376 24.289s-2.2649 6.5462-2.8222 15.734c-0.01616 0.2131-0.03231 0.6887-0.04948 0.9017 0 0 0.03332 0.017 0.0828 0.017 0.67249 0.098 5.9878 0.9017 9.0725 0.9017h0.16358s0.01616-0.4756 0.06563-0.836c0.11511-1.2804 0.40996-4.3318 0.49276-5.9394 0.06563 1.6076 0.36048 4.659 0.47559 5.9394 0.04847 0.3604 0.06563 0.836 0.06563 0.836h0.16762c3.3008 0 9.1513-0.9199 9.1513-0.9199-0.01717-0.213-0.03332-0.6886-0.03332-0.9017-0.57454-9.1876-2.8384-15.734-2.8384-15.734z" fill="#000" fill-rule="evenodd"/>
 <path id="path311919" d="m6.5599 1.7063 4.5277-1.7063h6.2352l4.5438 1.7063h-15.307" fill="#000"/>
 <path id="path311921" d="m6.9376 24.289s-2.2649 6.5462-2.8222 15.734c-0.01616 0.2131-0.03231 0.6887-0.04948 0.9017 0 0 0.03332 0.017 0.0828 0.017 0.67249 0.098 5.9878 0.9017 9.0725 0.9017h0.16358s0.01616-0.4756 0.06563-0.836c0.11511-1.2804 0.40996-4.3318 0.49276-5.9394 0.06563 1.6076 0.36048 4.659 0.47559 5.9394 0.04847 0.3604 0.06563 0.836 0.06563 0.836h0.16762c3.3008 0 9.1513-0.9199 9.1513-0.9199-0.01717-0.213-0.03332-0.6886-0.03332-0.9017-0.57454-9.1876-2.8384-15.734-2.8384-15.734z" fill="#000" fill-rule="evenodd"/>
 <path id="path311923" d="m78.846 1.3588 4.5277 1.2147 5.8737 3.2807-3.0353 5.2668-3.0514-1.4278c-0.099 0.9684-0.52507 3.0353-0.52507 3.0353-0.11511 5.8898 0.36048 12.157 0.36048 12.157-3.6088 0.4756-7.2681 0.5251-7.2681 0.5251s-3.6745-0.05-7.2671-0.5251c0 0 0.47559-6.2675 0.36048-12.157 0 0-0.44328-2.0669-0.54123-3.0353l-3.0353 1.4278-3.0353-5.2668 5.8575-3.2807 4.5438-1.2147s1.7883 0.2464 3.1171 0.2464c1.3298 0 3.1181-0.2464 3.1181-0.2464z" fill="#4661a3" fill-rule="evenodd" stroke="#000"/>
 <path id="path311925" d="m82.83 24.289s2.2649 6.5462 2.8222 15.734c0.0162 0.2131 0.0323 0.6887 0.0495 0.9017 0 0-0.0333 0.017-0.0828 0.017-0.67249 0.098-5.9878 0.9017-9.0725 0.9017h-0.16358s-0.0162-0.4756-0.0656-0.836c-0.11511-1.2804-0.40996-4.3318-0.49276-5.9394-0.0656 1.6076-0.36048 4.659-0.47559 5.9394-0.0485 0.3604-0.0656 0.836-0.0656 0.836h-0.16762c-3.3008 0-9.1513-0.9199-9.1513-0.9199 0.0172-0.213 0.0333-0.6886 0.0333-0.9017 0.57455-9.1876 2.8384-15.734 2.8384-15.734z" fill="#4661a3" fill-rule="evenodd" stroke="#000"/>
</svg>
