<?xml version="1.0" encoding="UTF-8"?>
<!-- Created with Inkscape (http://www.inkscape.org/) -->
<svg id="svg4747" width="39.528mm" height="11.146mm" version="1.1" viewBox="0 0 39.528 11.146" xmlns="http://www.w3.org/2000/svg">
 <g id="layer1" transform="translate(-85.249 -142.74)">
  <path id="path3871" d="m96.05 142.88-1.198 0.32139-1.5541 0.86801 0.80309 1.3935 0.80736-0.37777c0.02619 0.25622 0.13892 0.80309 0.13892 0.80309 0.03046 1.5583-0.09538 3.2166-0.09538 3.2166 0.95484 0.12583 1.923 0.13893 1.923 0.13893s0.9722-0.0132 1.9228-0.13893c0 0-0.12583-1.6583-0.09538-3.2166 0 0 0.11728-0.54687 0.1432-0.80309l0.80309 0.37777 0.80308-1.3935-1.5498-0.86801-1.2022-0.32139s-0.47314 0.0652-0.82472 0.0652c-0.35185 0-0.825-0.0652-0.825-0.0652z" fill="#aa092f" fill-rule="evenodd" stroke="#000" stroke-width=".26458"/>
  <path id="path3875" d="m94.951 149.11s-0.59924 1.732-0.74671 4.1629c-0.0043 0.0564-0.0085 0.18222-0.01309 0.23857 0 0 0.0088 5e-3 0.02191 5e-3 0.17793 0.0259 1.5843 0.23858 2.4004 0.23858h0.04328s0.0043-0.12584 0.01736-0.22119c0.03046-0.33878 0.10847-1.1461 0.13038-1.5715 0.01736 0.42534 0.09538 1.2327 0.12583 1.5715 0.01283 0.0954 0.01736 0.22119 0.01736 0.22119h0.04435c0.87335 0 2.4213-0.24339 2.4213-0.24339-0.0046-0.0564-0.0088-0.1822-0.0088-0.23858-0.15201-2.4309-0.75099-4.1629-0.75099-4.1629z" fill="#aa092f" fill-rule="evenodd" stroke="#000" stroke-width=".26458"/>
  <path id="path3881" d="m104.1 142.88-1.198 0.32139-1.5541 0.86801 0.80309 1.3935 0.80736-0.37777c0.0262 0.25622 0.13892 0.80309 0.13892 0.80309 0.0305 1.5583-0.0954 3.2166-0.0954 3.2166 0.95483 0.12583 1.923 0.13893 1.923 0.13893s0.9722-0.0132 1.9228-0.13893c0 0-0.12583-1.6583-0.0954-3.2166 0 0 0.11728-0.54687 0.14319-0.80309l0.80309 0.37777 0.80309-1.3935-1.5498-0.86801-1.2022-0.32139s-0.47314 0.0652-0.82473 0.0652c-0.35185 0-0.82499-0.0652-0.82499-0.0652z" fill-rule="evenodd" stroke="#000" stroke-miterlimit="16.248" stroke-width=".28194"/>
  <path id="path3883" d="m103 149.11s-0.59925 1.732-0.74672 4.1629c-4e-3 0.0564-9e-3 0.18222-0.0131 0.23857 0 0 9e-3 5e-3 0.0219 5e-3 0.17793 0.0259 1.5843 0.23858 2.4004 0.23858h0.0433s4e-3 -0.12584 0.0174-0.22119c0.0305-0.33878 0.10847-1.1461 0.13038-1.5715 0.0173 0.42534 0.0954 1.2327 0.12583 1.5715 0.0128 0.0954 0.0174 0.22119 0.0174 0.22119h0.0443c0.87335 0 2.4213-0.24339 2.4213-0.24339-5e-3 -0.0564-9e-3 -0.1822-9e-3 -0.23858-0.15202-2.4309-0.75099-4.1629-0.75099-4.1629z" fill-opacity="0" fill-rule="evenodd" stroke="#000" stroke-width=".26458"/>
  <path id="path3887" d="m112.15 142.88-1.1979 0.32139-1.5541 0.86801 0.80308 1.3935 0.80736-0.37777c0.0262 0.25622 0.13893 0.80309 0.13893 0.80309 0.0305 1.5583-0.0954 3.2166-0.0954 3.2166 0.95484 0.12583 1.923 0.13893 1.923 0.13893s0.9722-0.0132 1.9228-0.13893c0 0-0.12584-1.6583-0.0954-3.2166 0 0 0.11728-0.54687 0.1432-0.80309l0.80309 0.37777 0.80309-1.3935-1.5498-0.86801-1.2022-0.32139s-0.47315 0.0652-0.82473 0.0652c-0.35185 0-0.82499-0.0652-0.825-0.0652z" fill="#4acc65" fill-rule="evenodd" stroke="#000" stroke-width=".26458"/>
  <path id="path3891" d="m111.05 149.11s-0.59924 1.732-0.74671 4.1629c-4e-3 0.0564-9e-3 0.18222-0.0131 0.23857 0 0 9e-3 5e-3 0.0219 5e-3 0.17793 0.0259 1.5843 0.23858 2.4004 0.23858h0.0433s4e-3 -0.12584 0.0174-0.22119c0.0305-0.33878 0.10846-1.1461 0.13037-1.5715 0.0174 0.42534 0.0954 1.2327 0.12583 1.5715 0.0128 0.0954 0.0174 0.22119 0.0174 0.22119h0.0443c0.87335 0 2.4213-0.24339 2.4213-0.24339-5e-3 -0.0564-9e-3 -0.1822-9e-3 -0.23858-0.15201-2.4309-0.75099-4.1629-0.75099-4.1629z" fill="#4acc65" fill-rule="evenodd" stroke="#000" stroke-width=".26458"/>
  <path id="path3895" d="m120.19 142.88-1.198 0.32139-1.5541 0.86801 0.80309 1.3935 0.80736-0.37777c0.0262 0.25622 0.13892 0.80309 0.13892 0.80309 0.0305 1.5583-0.0954 3.2166-0.0954 3.2166 0.95483 0.12583 1.923 0.13893 1.923 0.13893s0.9722-0.0132 1.9228-0.13893c0 0-0.12583-1.6583-0.0954-3.2166 0 0 0.11729-0.54687 0.14321-0.80309l0.80308 0.37777 0.80309-1.3935-1.5498-0.86801-1.2022-0.32139s-0.47314 0.0652-0.82472 0.0652c-0.35186 0-0.825-0.0652-0.825-0.0652z" fill-rule="evenodd" stroke="#000" stroke-width=".26458"/>
  <path id="path3899" d="m119.1 149.11s-0.59924 1.732-0.74672 4.1629c-4e-3 0.0564-9e-3 0.18222-0.0131 0.23857 0 0 9e-3 5e-3 0.0219 5e-3 0.17793 0.0259 1.5843 0.23858 2.4004 0.23858h0.0433s4e-3 -0.12584 0.0174-0.22119c0.0305-0.33878 0.10847-1.1461 0.13038-1.5715 0.0174 0.42534 0.0954 1.2327 0.12583 1.5715 0.0128 0.0954 0.0174 0.22119 0.0174 0.22119h0.0443c0.87334 0 2.4213-0.24339 2.4213-0.24339-5e-3 -0.0564-9e-3 -0.1822-9e-3 -0.23858-0.15202-2.4309-0.75099-4.1629-0.75099-4.1629z" fill-rule="evenodd"/>
  <path id="path341118" d="m88.001 142.88-1.198 0.32139-1.5541 0.86801 0.80309 1.3935 0.80736-0.37777c0.02618 0.25622 0.13892 0.80309 0.13892 0.80309 0.03046 1.5583-0.09538 3.2166-0.09538 3.2166 0.95483 0.12583 1.923 0.13893 1.923 0.13893s0.9722-0.0132 1.9228-0.13893c0 0-0.12583-1.6583-0.09538-3.2166 0 0 0.11728-0.54687 0.1432-0.80309l0.80309 0.37777 0.80309-1.3935-1.5498-0.86801-1.2022-0.32139s-0.47314 0.0652-0.82473 0.0652c-0.35185 0-0.82499-0.0652-0.82499-0.0652z" fill-rule="evenodd" stroke-width=".26458"/>
  <path id="path341120" d="m86.903 149.11s-0.59924 1.732-0.74672 4.1629c-0.0043 0.0564-0.0085 0.18222-0.01309 0.23857 0 0 0.0088 5e-3 0.02191 5e-3 0.17793 0.0259 1.5843 0.23858 2.4004 0.23858h0.04328s0.0043-0.12584 0.01737-0.22119c0.03046-0.33878 0.10847-1.1461 0.13038-1.5715 0.01736 0.42534 0.09538 1.2327 0.12583 1.5715 0.01283 0.0954 0.01736 0.22119 0.01736 0.22119h0.04435c0.87335 0 2.4213-0.24339 2.4213-0.24339-0.0045-0.0564-0.0088-0.1822-0.0088-0.23858-0.15201-2.4309-0.75099-4.1629-0.75099-4.1629z" fill-rule="evenodd" stroke-width=".26458"/>
  <path id="path341122" d="m86.803 143.33 1.198-0.45145h1.6497l1.2022 0.45145h-4.0499" fill="#faff58"/>
  <path id="path350386" d="m103.15 148.98 2.0582-6.036 0.46771-0.0241 0.74934 0.23604-2.2256 5.8132z" fill="#2379c6"/>
  <rect id="rect356251" x="120.11" y="144.21" width="1.6923" height=".94487" fill="#ff0010"/>
 </g>
</svg>
