<?xml version="1.0" encoding="UTF-8" standalone="no"?>
<!-- Created with Inkscape (http://www.inkscape.org/) -->

<svg
   width="39.710011mm"
   height="11.135908mm"
   viewBox="0 0 39.710011 11.135908"
   version="1.1"
   id="svg5049"
   inkscape:version="1.1.2 (0a00cf5339, 2022-02-04)"
   sodipodi:docname="076.svg"
   xmlns:inkscape="http://www.inkscape.org/namespaces/inkscape"
   xmlns:sodipodi="http://sodipodi.sourceforge.net/DTD/sodipodi-0.dtd"
   xmlns="http://www.w3.org/2000/svg"
   xmlns:svg="http://www.w3.org/2000/svg">
  <sodipodi:namedview
     id="namedview5051"
     pagecolor="#ffffff"
     bordercolor="#666666"
     borderopacity="1.0"
     inkscape:pageshadow="2"
     inkscape:pageopacity="0.0"
     inkscape:pagecheckerboard="0"
     inkscape:document-units="mm"
     showgrid="false"
     inkscape:zoom="0.69664703"
     inkscape:cx="811.74537"
     inkscape:cy="188.7613"
     inkscape:window-width="1920"
     inkscape:window-height="1016"
     inkscape:window-x="0"
     inkscape:window-y="0"
     inkscape:window-maximized="1"
     inkscape:current-layer="layer1" />
  <defs
     id="defs5046" />
  <g
     inkscape:label="Layer 1"
     inkscape:groupmode="layer"
     id="layer1"
     transform="translate(109.86652,-98.495743)">
    <path
       fill="#faff58"
       d="m -106.93292,98.630448 -1.19795,0.321389 -1.55408,0.868018 0.80309,1.393505 0.80736,-0.37777 c 0.0262,0.25622 0.13892,0.80309 0.13892,0.80309 0.0305,1.55834 -0.0954,3.21662 -0.0954,3.21662 0.95483,0.12584 1.92302,0.13893 1.92302,0.13893 0,0 0.9722,-0.0132 1.92276,-0.13893 0,0 -0.12583,-1.65828 -0.0954,-3.21662 0,0 0.11728,-0.54687 0.14319,-0.80309 l 0.80309,0.37777 0.80309,-1.393505 -1.54981,-0.868018 -1.20222,-0.321389 c 0,0 -0.47314,0.06519 -0.82473,0.06519 -0.35185,0 -0.82499,-0.06519 -0.82499,-0.06519 z"
       fill-rule="evenodd"
       id="path3905"
       style="fill:#72f782;fill-opacity:1;stroke:#000000;stroke-width:0.264583;stroke-opacity:1" />
    <path
       fill="#000000"
       d="m -108.03095,104.8553 c 0,0 -0.59925,1.73201 -0.74672,4.1629 -0.004,0.0564 -0.009,0.18222 -0.0131,0.23858 0,0 0.009,0.004 0.0219,0.004 0.17793,0.0259 1.58426,0.23858 2.40044,0.23858 h 0.0433 c 0,0 0.004,-0.12584 0.0174,-0.22119 0.0305,-0.33878 0.10846,-1.14613 0.13037,-1.57147 0.0174,0.42534 0.0954,1.23269 0.12583,1.57147 0.0128,0.0953 0.0174,0.22119 0.0174,0.22119 0.0147,0 0.0294,0 0.0443,0 0.87335,0 2.42128,-0.24339 2.42128,-0.24339 -0.005,-0.0564 -0.009,-0.18219 -0.009,-0.23858 -0.15201,-2.43088 -0.75099,-4.1629 -0.75099,-4.1629 z"
       fill-rule="evenodd"
       id="path3909"
       style="stroke-width:0.264583" />
    <path
       fill="#faff58"
       d="m -98.884625,98.630448 -1.197955,0.321389 -1.55407,0.868018 0.80308,1.393505 0.80737,-0.37777 c 0.0262,0.25622 0.138918,0.80309 0.138918,0.80309 0.03046,1.55834 -0.09538,3.21662 -0.09538,3.21662 0.954836,0.12584 1.923029,0.13893 1.923029,0.13893 0,0 0.972198,-0.0132 1.922758,-0.13893 0,0 -0.125833,-1.65828 -0.09538,-3.21662 0,0 0.117282,-0.54687 0.143198,-0.80309 l 0.803087,0.37777 0.803086,-1.393505 -1.549803,-0.868018 -1.202225,-0.321389 c 0,0 -0.473141,0.06519 -0.824724,0.06519 -0.351854,0 -0.824995,-0.06519 -0.824995,-0.06519 z"
       fill-rule="evenodd"
       id="path3913"
       style="fill:#000000;fill-opacity:0;stroke:#000000;stroke-width:0.264583;stroke-opacity:1" />
    <path
       fill="#000000"
       d="m -99.982659,104.8553 c 0,0 -0.599241,1.73201 -0.746711,4.1629 -0.004,0.0564 -0.009,0.18222 -0.0131,0.23858 0,0 0.009,0.004 0.0219,0.004 0.17793,0.0259 1.584268,0.23858 2.400445,0.23858 h 0.04328 c 0,0 0.0043,-0.12584 0.01736,-0.22119 0.03046,-0.33878 0.108468,-1.14613 0.130376,-1.57147 0.01736,0.42534 0.09538,1.23269 0.125833,1.57147 0.01283,0.0953 0.01736,0.22119 0.01736,0.22119 0.01468,0 0.02939,0 0.04435,0 0.873349,0 2.421281,-0.24339 2.421281,-0.24339 -0.0046,-0.0564 -0.0088,-0.18219 -0.0088,-0.23858 -0.152013,-2.43088 -0.750988,-4.1629 -0.750988,-4.1629 z"
       fill-rule="evenodd"
       id="path3917"
       style="fill:#2532a8;fill-opacity:1;stroke:#000000;stroke-width:0.264583;stroke-opacity:1" />
    <path
       fill="#faff58"
       d="m -90.836332,98.630448 -1.197952,0.321389 -1.554075,0.868018 0.803085,1.393505 0.807363,-0.37777 c 0.02619,0.25622 0.138922,0.80309 0.138922,0.80309 0.03046,1.55834 -0.09538,3.21662 -0.09538,3.21662 0.954834,0.12584 1.923026,0.13893 1.923026,0.13893 0,0 0.972199,-0.0132 1.922759,-0.13893 0,0 -0.125833,-1.65828 -0.09538,-3.21662 0,0 0.117282,-0.54687 0.143198,-0.80309 l 0.803087,0.37777 0.803087,-1.393505 -1.549799,-0.868018 -1.202227,-0.321389 c 0,0 -0.473141,0.06519 -0.824728,0.06519 -0.35185,0 -0.824992,-0.06519 -0.824994,-0.06519 z"
       fill-rule="evenodd"
       id="path3921"
       style="fill:#000000;fill-opacity:0;stroke:#000000;stroke-width:0.264583;stroke-opacity:1" />
    <path
       fill="#000000"
       d="m -91.934366,104.8553 c 0,0 -0.599242,1.73201 -0.746715,4.1629 -0.0043,0.0564 -0.0085,0.18222 -0.0131,0.23858 0,0 0.0088,0.004 0.02191,0.004 0.17793,0.0259 1.584267,0.23858 2.400443,0.23858 h 0.04328 c 0,0 0.0043,-0.12584 0.01736,-0.22119 0.03046,-0.33878 0.108469,-1.14613 0.130376,-1.57147 0.01736,0.42534 0.09538,1.23269 0.125834,1.57147 0.01283,0.0953 0.01736,0.22119 0.01736,0.22119 0.01469,0 0.02939,0 0.04435,0 0.87335,0 2.421281,-0.24339 2.421281,-0.24339 -0.0046,-0.0564 -0.0088,-0.18219 -0.0088,-0.23858 -0.152017,-2.43088 -0.750991,-4.1629 -0.750991,-4.1629 z"
       fill-rule="evenodd"
       id="path3925"
       style="fill:#000000;fill-opacity:0;stroke:#000000;stroke-width:0.264583;stroke-opacity:1" />
    <path
       fill="#000000"
       d="m -83.88607,104.8553 c 0,0 -0.599241,1.73201 -0.746715,4.1629 -0.0043,0.0564 -0.0085,0.18222 -0.0131,0.23858 0,0 0.0088,0.004 0.02191,0.004 0.17793,0.0259 1.584264,0.23858 2.400443,0.23858 h 0.04328 c 0,0 0.0043,-0.12584 0.01736,-0.22119 0.03046,-0.33878 0.108466,-1.14613 0.130374,-1.57147 0.01736,0.42534 0.09538,1.23269 0.125833,1.57147 0.01283,0.0953 0.01736,0.22119 0.01736,0.22119 0.01469,0 0.02939,0 0.04435,0 0.87335,0 2.421281,-0.24339 2.421281,-0.24339 -0.0046,-0.0564 -0.0088,-0.18219 -0.0088,-0.23858 -0.152014,-2.43088 -0.750991,-4.1629 -0.750991,-4.1629 z"
       fill-rule="evenodd"
       id="path3933"
       style="fill:#1c68e2;fill-opacity:1;stroke:#000000;stroke-width:0.264583;stroke-opacity:1" />
    <path
       fill="#faff58"
       d="m -74.739744,98.630448 -1.197949,0.321389 -1.554077,0.868018 0.803087,1.393505 0.80736,-0.37777 c 0.02619,0.25622 0.138925,0.80309 0.138925,0.80309 0.03046,1.55834 -0.09538,3.21662 -0.09538,3.21662 0.954833,0.12584 1.923026,0.13893 1.923026,0.13893 0,0 0.972201,-0.0132 1.922759,-0.13893 0,0 -0.125834,-1.65828 -0.09538,-3.21662 0,0 0.117284,-0.54687 0.143203,-0.80309 l 0.803084,0.37777 0.803087,-1.393505 -1.549802,-0.868018 -1.202224,-0.321389 c 0,0 -0.473144,0.06519 -0.824728,0.06519 -0.351851,0 -0.824994,-0.06519 -0.824997,-0.06519 z"
       fill-rule="evenodd"
       id="path3937"
       style="fill:#e23f2e;fill-opacity:1;stroke:#000000;stroke-width:0.264583;stroke-opacity:1" />
    <path
       fill="#000000"
       d="m -75.837775,104.8553 c 0,0 -0.599242,1.73201 -0.746715,4.1629 -0.0043,0.0564 -0.0085,0.18222 -0.0131,0.23858 0,0 0.0088,0.004 0.02191,0.004 0.17793,0.0259 1.584267,0.23858 2.400443,0.23858 h 0.04328 c 0,0 0.0043,-0.12584 0.01736,-0.22119 0.03046,-0.33878 0.108469,-1.14613 0.130376,-1.57147 0.01736,0.42534 0.09538,1.23269 0.125831,1.57147 0.01283,0.0953 0.01736,0.22119 0.01736,0.22119 0.01468,0 0.02939,0 0.04435,0 0.87335,0 2.421281,-0.24339 2.421281,-0.24339 -0.0046,-0.0564 -0.0088,-0.18219 -0.0088,-0.23858 -0.152014,-2.43088 -0.750991,-4.1629 -0.750991,-4.1629 z"
       fill-rule="evenodd"
       id="path3941"
       style="fill:#e23f2e;fill-opacity:1;stroke:#000000;stroke-width:0.264583;stroke-opacity:1" />
    <path
       style="fill:#2532a8;fill-opacity:1;stroke:none;stroke-width:0.202977px;stroke-linecap:butt;stroke-linejoin:miter;stroke-opacity:1"
       d="m -98.312453,98.645344 0.529167,-0.02064 v 6.167336 l -0.528066,-0.003 z"
       id="path376623"
       sodipodi:nodetypes="ccccc" />
    <path
       style="fill:#2532a8;fill-opacity:1;stroke:none;stroke-width:0.325475px;stroke-linecap:butt;stroke-linejoin:miter;stroke-opacity:1"
       d="m -96.705739,104.78413 v -6.050204 l -0.529167,-0.103478 v 6.149472 z"
       id="path376625" />
    <path
       style="fill:#2532a8;fill-opacity:1;stroke:none;stroke-width:0.325477px;stroke-linecap:butt;stroke-linejoin:miter;stroke-opacity:1"
       d="m -99.413792,104.78413 v -6.050204 l 0.529167,-0.103478 v 6.149472 z"
       id="path376627" />
    <path
       style="fill:#2532a8;fill-opacity:1;stroke:none;stroke-width:0.2632px;stroke-linecap:butt;stroke-linejoin:miter;stroke-opacity:1"
       d="m -96.048636,100.95878 v -2.022897 l -0.385029,-0.103453 v 5.95537 h 0.301476 l -0.112699,-1.95688 0.06124,-1.41764 z"
       id="path376629" />
    <path
       style="fill:#2532a8;fill-opacity:1;stroke:none;stroke-width:0.263251px;stroke-linecap:butt;stroke-linejoin:miter;stroke-opacity:1"
       d="m -99.967514,100.9596 v -2.023691 l 0.385029,-0.103479 v 5.9577 h -0.301477 l 0.1127,-1.95765 -0.06124,-1.41819 z"
       id="path376631" />
    <rect
       style="fill:#2532a8;fill-opacity:1;stroke:none;stroke-width:0.375534;stroke-opacity:1"
       id="rect390812"
       width="0.27225614"
       height="1.8163218"
       x="38.046703"
       y="138.70717"
       transform="matrix(0.55953292,0.82880813,-0.87278708,0.48810113,0,0)" />
    <rect
       style="fill:#2532a8;fill-opacity:1;stroke:none;stroke-width:0.327898;stroke-opacity:1"
       id="rect395617"
       width="0.24048823"
       height="1.5676755"
       x="35.496708"
       y="137.96283"
       transform="matrix(0.53980827,0.84178799,-0.86173755,0.5073543,0,0)" />
    <rect
       style="fill:#2532a8;fill-opacity:1;stroke:none;stroke-width:0.328316;stroke-opacity:1"
       id="rect395619"
       width="0.23942271"
       height="1.5786736"
       x="134.31764"
       y="-25.761292"
       transform="matrix(-0.54952389,0.835478,0.86727602,0.49782758,0,0)" />
    <rect
       style="fill:#2532a8;fill-opacity:1;stroke:none;stroke-width:0.284308;stroke-opacity:1"
       id="rect395621"
       width="0.20835048"
       height="1.3603736"
       x="135.10255"
       y="-26.809687"
       transform="matrix(-0.54117789,0.84090814,0.86252987,0.50600615,0,0)" />
    <rect
       style="fill:#121e50;fill-opacity:1;stroke:none;stroke-width:0.248071;stroke-opacity:1"
       id="rect404771"
       width="3.2907236"
       height="2.6298041"
       x="-83.623253"
       y="98.733582" />
    <rect
       style="fill:#121e50;fill-opacity:1;stroke:none;stroke-width:0.170895;stroke-opacity:1"
       id="rect407174"
       width="2.6666675"
       height="1.5401114"
       x="-123.06874"
       y="47.868629"
       transform="matrix(0.88225544,-0.47077101,0.48252833,0.87588036,0,0)"
       inkscape:transform-center-x="1.5729555"
       inkscape:transform-center-y="2.7590825" />
    <rect
       style="fill:#121e50;fill-opacity:1;stroke:none;stroke-width:0.170895;stroke-opacity:1"
       id="rect407176"
       width="2.6666675"
       height="1.5401114"
       x="20.523924"
       y="125.04735"
       transform="matrix(-0.88225544,-0.47077101,-0.48252833,0.87588036,0,0)"
       inkscape:transform-center-x="-1.5728922"
       inkscape:transform-center-y="2.759151" />
    <rect
       style="fill:#121e50;fill-opacity:1;stroke:none;stroke-width:0.0875927;stroke-opacity:1"
       id="rect407178"
       width="0.74704546"
       height="1.4442831"
       x="-83.862808"
       y="100.19441" />
    <rect
       style="fill:#121e50;fill-opacity:1;stroke:none;stroke-width:0.0875287;stroke-opacity:1"
       id="rect407180"
       width="0.74595505"
       height="1.4442831"
       x="-80.810585"
       y="100.19441" />
    <ellipse
       style="fill:#1c68e2;fill-opacity:1;stroke:none;stroke-width:0.515983;stroke-opacity:1"
       id="path399850"
       cx="-81.982185"
       cy="101.4152"
       rx="1.8638822"
       ry="0.53780544" />
    <rect
       style="fill:#1c68e2;fill-opacity:1;stroke:none;stroke-width:0.470501;stroke-opacity:1"
       id="rect407311"
       width="3.7981839"
       height="3.541162"
       x="-83.862808"
       y="101.31411" />
    <path
       fill="#faff58"
       d="m -82.788038,98.630448 -1.197949,0.321389 -1.554078,0.868018 0.803088,1.393505 0.80736,-0.37777 c 0.02619,0.25622 0.138924,0.80309 0.138924,0.80309 0.03046,1.55834 -0.09538,3.21662 -0.09538,3.21662 0.954834,0.12584 1.923029,0.13893 1.923029,0.13893 0,0 0.972198,-0.0132 1.922759,-0.13893 0,0 -0.125836,-1.65828 -0.09538,-3.21662 0,0 0.117282,-0.54687 0.143198,-0.80309 l 0.803087,0.37777 0.803087,-1.393505 -1.549802,-0.868018 -1.202224,-0.321389 c 0,0 -0.473144,0.06519 -0.824728,0.06519 -0.351851,0 -0.824994,-0.06519 -0.824997,-0.06519 z"
       fill-rule="evenodd"
       id="path3929"
       style="fill:none;fill-opacity:1;stroke:#000000;stroke-width:0.264583;stroke-opacity:1" />
  </g>
</svg>
