<?xml version="1.0" encoding="UTF-8"?>
<!-- Created with Inkscape (http://www.inkscape.org/) -->
<svg id="svg5049" width="39.71mm" height="11.136mm" version="1.1" viewBox="0 0 39.71 11.136" xmlns="http://www.w3.org/2000/svg">
 <g id="layer1" transform="translate(109.87 -98.496)">
  <path id="path3905" d="m-106.93 98.63-1.198 0.32139-1.5541 0.86802 0.80309 1.3935 0.80736-0.37777c0.0262 0.25622 0.13892 0.80309 0.13892 0.80309 0.0305 1.5583-0.0954 3.2166-0.0954 3.2166 0.95483 0.12584 1.923 0.13893 1.923 0.13893s0.9722-0.0132 1.9228-0.13893c0 0-0.12583-1.6583-0.0954-3.2166 0 0 0.11728-0.54687 0.14319-0.80309l0.80309 0.37777 0.80309-1.3935-1.5498-0.86802-1.2022-0.32139s-0.47314 0.06519-0.82473 0.06519c-0.35185 0-0.82499-0.06519-0.82499-0.06519z" fill="#72f782" fill-rule="evenodd" stroke="#000" stroke-width=".26458"/>
  <path id="path3909" d="m-108.03 104.86s-0.59925 1.732-0.74672 4.1629c-4e-3 0.0564-9e-3 0.18222-0.0131 0.23858 0 0 9e-3 4e-3 0.0219 4e-3 0.17793 0.0259 1.5843 0.23858 2.4004 0.23858h0.0433s4e-3 -0.12584 0.0174-0.22119c0.0305-0.33878 0.10846-1.1461 0.13037-1.5715 0.0174 0.42534 0.0954 1.2327 0.12583 1.5715 0.0128 0.0953 0.0174 0.22119 0.0174 0.22119h0.0443c0.87335 0 2.4213-0.24339 2.4213-0.24339-5e-3 -0.0564-9e-3 -0.18219-9e-3 -0.23858-0.15201-2.4309-0.75099-4.1629-0.75099-4.1629z" fill-rule="evenodd" stroke-width=".26458"/>
  <path id="path3913" d="m-98.885 98.63-1.198 0.32139-1.5541 0.86802 0.80308 1.3935 0.80737-0.37777c0.0262 0.25622 0.13892 0.80309 0.13892 0.80309 0.03046 1.5583-0.09538 3.2166-0.09538 3.2166 0.95484 0.12584 1.923 0.13893 1.923 0.13893s0.9722-0.0132 1.9228-0.13893c0 0-0.12583-1.6583-0.09538-3.2166 0 0 0.11728-0.54687 0.1432-0.80309l0.80309 0.37777 0.80309-1.3935-1.5498-0.86802-1.2022-0.32139s-0.47314 0.06519-0.82472 0.06519c-0.35185 0-0.825-0.06519-0.825-0.06519z" fill="#faff58" fill-opacity="0" fill-rule="evenodd" stroke="#000" stroke-width=".26458"/>
  <path id="path3917" d="m-99.983 104.86s-0.59924 1.732-0.74671 4.1629c-4e-3 0.0564-9e-3 0.18222-0.0131 0.23858 0 0 9e-3 4e-3 0.0219 4e-3 0.17793 0.0259 1.5843 0.23858 2.4004 0.23858h0.04328s0.0043-0.12584 0.01736-0.22119c0.03046-0.33878 0.10847-1.1461 0.13038-1.5715 0.01736 0.42534 0.09538 1.2327 0.12583 1.5715 0.01283 0.0953 0.01736 0.22119 0.01736 0.22119h0.04435c0.87335 0 2.4213-0.24339 2.4213-0.24339-0.0046-0.0564-0.0088-0.18219-0.0088-0.23858-0.15201-2.4309-0.75099-4.1629-0.75099-4.1629z" fill="#2532a8" fill-rule="evenodd" stroke="#000" stroke-width=".26458"/>
  <path id="path3921" d="m-90.836 98.63-1.198 0.32139-1.5541 0.86802 0.80308 1.3935 0.80736-0.37777c0.02619 0.25622 0.13892 0.80309 0.13892 0.80309 0.03046 1.5583-0.09538 3.2166-0.09538 3.2166 0.95483 0.12584 1.923 0.13893 1.923 0.13893s0.9722-0.0132 1.9228-0.13893c0 0-0.12583-1.6583-0.09538-3.2166 0 0 0.11728-0.54687 0.1432-0.80309l0.80309 0.37777 0.80309-1.3935-1.5498-0.86802-1.2022-0.32139s-0.47314 0.06519-0.82473 0.06519c-0.35185 0-0.82499-0.06519-0.82499-0.06519z" fill="#faff58" fill-opacity="0" fill-rule="evenodd" stroke="#000" stroke-width=".26458"/>
  <path id="path3925" d="m-91.934 104.86s-0.59924 1.732-0.74672 4.1629c-0.0043 0.0564-0.0085 0.18222-0.0131 0.23858 0 0 0.0088 4e-3 0.02191 4e-3 0.17793 0.0259 1.5843 0.23858 2.4004 0.23858h0.04328s0.0043-0.12584 0.01736-0.22119c0.03046-0.33878 0.10847-1.1461 0.13038-1.5715 0.01736 0.42534 0.09538 1.2327 0.12583 1.5715 0.01283 0.0953 0.01736 0.22119 0.01736 0.22119h0.04435c0.87335 0 2.4213-0.24339 2.4213-0.24339-0.0046-0.0564-0.0088-0.18219-0.0088-0.23858-0.15202-2.4309-0.75099-4.1629-0.75099-4.1629z" fill-opacity="0" fill-rule="evenodd" stroke="#000" stroke-width=".26458"/>
  <path id="path3933" d="m-83.886 104.86s-0.59924 1.732-0.74672 4.1629c-0.0043 0.0564-0.0085 0.18222-0.0131 0.23858 0 0 0.0088 4e-3 0.02191 4e-3 0.17793 0.0259 1.5843 0.23858 2.4004 0.23858h0.04328s0.0043-0.12584 0.01736-0.22119c0.03046-0.33878 0.10847-1.1461 0.13037-1.5715 0.01736 0.42534 0.09538 1.2327 0.12583 1.5715 0.01283 0.0953 0.01736 0.22119 0.01736 0.22119h0.04435c0.87335 0 2.4213-0.24339 2.4213-0.24339-0.0046-0.0564-0.0088-0.18219-0.0088-0.23858-0.15201-2.4309-0.75099-4.1629-0.75099-4.1629z" fill="#1c68e2" fill-rule="evenodd" stroke="#000" stroke-width=".26458"/>
  <path id="path3937" d="m-74.74 98.63-1.1979 0.32139-1.5541 0.86802 0.80309 1.3935 0.80736-0.37777c0.02619 0.25622 0.13892 0.80309 0.13892 0.80309 0.03046 1.5583-0.09538 3.2166-0.09538 3.2166 0.95483 0.12584 1.923 0.13893 1.923 0.13893s0.9722-0.0132 1.9228-0.13893c0 0-0.12583-1.6583-0.09538-3.2166 0 0 0.11728-0.54687 0.1432-0.80309l0.80308 0.37777 0.80309-1.3935-1.5498-0.86802-1.2022-0.32139s-0.47314 0.06519-0.82473 0.06519c-0.35185 0-0.82499-0.06519-0.825-0.06519z" fill="#e23f2e" fill-rule="evenodd" stroke="#000" stroke-width=".26458"/>
  <path id="path3941" d="m-75.838 104.86s-0.59924 1.732-0.74672 4.1629c-0.0043 0.0564-0.0085 0.18222-0.0131 0.23858 0 0 0.0088 4e-3 0.02191 4e-3 0.17793 0.0259 1.5843 0.23858 2.4004 0.23858h0.04328s0.0043-0.12584 0.01736-0.22119c0.03046-0.33878 0.10847-1.1461 0.13038-1.5715 0.01736 0.42534 0.09538 1.2327 0.12583 1.5715 0.01283 0.0953 0.01736 0.22119 0.01736 0.22119h0.04435c0.87335 0 2.4213-0.24339 2.4213-0.24339-0.0046-0.0564-0.0088-0.18219-0.0088-0.23858-0.15201-2.4309-0.75099-4.1629-0.75099-4.1629z" fill="#e23f2e" fill-rule="evenodd" stroke="#000" stroke-width=".26458"/>
  <path id="path376623" d="m-98.312 98.645 0.52917-0.02064v6.1673l-0.52807-3e-3z" fill="#2532a8"/>
  <path id="path376625" d="m-96.706 104.78v-6.0502l-0.52917-0.10348v6.1495z" fill="#2532a8"/>
  <path id="path376627" d="m-99.414 104.78v-6.0502l0.52917-0.10348v6.1495z" fill="#2532a8"/>
  <path id="path376629" d="m-96.049 100.96v-2.0229l-0.38503-0.10345v5.9554h0.30148l-0.1127-1.9569 0.06124-1.4176z" fill="#2532a8"/>
  <path id="path376631" d="m-99.968 100.96v-2.0237l0.38503-0.10348v5.9577h-0.30148l0.1127-1.9576-0.06124-1.4182z" fill="#2532a8"/>
  <rect id="rect390812" transform="matrix(.55953 .82881 -.87279 .4881 0 0)" x="38.047" y="138.71" width=".27226" height="1.8163" fill="#2532a8"/>
  <rect id="rect395617" transform="matrix(.53981 .84179 -.86174 .50735 0 0)" x="35.497" y="137.96" width=".24049" height="1.5677" fill="#2532a8"/>
  <rect id="rect395619" transform="matrix(-.54952 .83548 .86728 .49783 0 0)" x="134.32" y="-25.761" width=".23942" height="1.5787" fill="#2532a8"/>
  <rect id="rect395621" transform="matrix(-.54118 .84091 .86253 .50601 0 0)" x="135.1" y="-26.81" width=".20835" height="1.3604" fill="#2532a8"/>
  <rect id="rect404771" x="-83.623" y="98.734" width="3.2907" height="2.6298" fill="#121e50"/>
  <rect id="rect407174" transform="matrix(.88226 -.47077 .48253 .87588 0 0)" x="-123.07" y="47.869" width="2.6667" height="1.5401" fill="#121e50"/>
  <rect id="rect407176" transform="matrix(-.88226 -.47077 -.48253 .87588 0 0)" x="20.524" y="125.05" width="2.6667" height="1.5401" fill="#121e50"/>
  <rect id="rect407178" x="-83.863" y="100.19" width=".74705" height="1.4443" fill="#121e50"/>
  <rect id="rect407180" x="-80.811" y="100.19" width=".74596" height="1.4443" fill="#121e50"/>
  <ellipse id="path399850" cx="-81.982" cy="101.42" rx="1.8639" ry=".53781" fill="#1c68e2"/>
  <rect id="rect407311" x="-83.863" y="101.31" width="3.7982" height="3.5412" fill="#1c68e2"/>
  <path id="path3929" d="m-82.788 98.63-1.1979 0.32139-1.5541 0.86802 0.80309 1.3935 0.80736-0.37777c0.02619 0.25622 0.13892 0.80309 0.13892 0.80309 0.03046 1.5583-0.09538 3.2166-0.09538 3.2166 0.95483 0.12584 1.923 0.13893 1.923 0.13893s0.9722-0.0132 1.9228-0.13893c0 0-0.12584-1.6583-0.09538-3.2166 0 0 0.11728-0.54687 0.1432-0.80309l0.80309 0.37777 0.80309-1.3935-1.5498-0.86802-1.2022-0.32139s-0.47314 0.06519-0.82473 0.06519c-0.35185 0-0.82499-0.06519-0.825-0.06519z" fill="none" fill-rule="evenodd" stroke="#000" stroke-width=".26458"/>
 </g>
</svg>
