<?xml version="1.0" encoding="UTF-8" standalone="no"?>
<!-- Created with Inkscape (http://www.inkscape.org/) -->

<svg
   width="39.710011mm"
   height="11.136399mm"
   viewBox="0 0 39.710011 11.136399"
   version="1.1"
   id="svg5402"
   inkscape:version="1.1.2 (0a00cf5339, 2022-02-04)"
   sodipodi:docname="077.svg"
   xmlns:inkscape="http://www.inkscape.org/namespaces/inkscape"
   xmlns:sodipodi="http://sodipodi.sourceforge.net/DTD/sodipodi-0.dtd"
   xmlns="http://www.w3.org/2000/svg"
   xmlns:svg="http://www.w3.org/2000/svg">
  <sodipodi:namedview
     id="namedview5404"
     pagecolor="#ffffff"
     bordercolor="#666666"
     borderopacity="1.0"
     inkscape:pageshadow="2"
     inkscape:pageopacity="0.0"
     inkscape:pagecheckerboard="0"
     inkscape:document-units="mm"
     showgrid="false"
     inkscape:zoom="0.69664703"
     inkscape:cx="447.14179"
     inkscape:cy="369.62765"
     inkscape:window-width="1920"
     inkscape:window-height="1016"
     inkscape:window-x="0"
     inkscape:window-y="0"
     inkscape:window-maximized="1"
     inkscape:current-layer="layer1" />
  <defs
     id="defs5399" />
  <g
     inkscape:label="Layer 1"
     inkscape:groupmode="layer"
     id="layer1"
     transform="translate(13.398484,-50.64152)">
    <path
       fill="#faff58"
       d="M 7.2813434,50.776225 8.479292,51.097614 10.03337,51.965633 9.2302827,53.35914 8.4229226,52.981368 c -0.026194,0.256223 -0.1389248,0.80309 -0.1389248,0.80309 -0.030456,1.558343 0.095377,3.216619 0.095377,3.216619 -0.9548336,0.125836 -1.9230261,0.138933 -1.9230261,0.138933 0,0 -0.9721982,-0.01323 -1.9227588,-0.138933 0,0 0.1258332,-1.658276 0.095377,-3.216619 0,0 -0.1172845,-0.546867 -0.1431978,-0.80309 L 3.682682,53.35914 2.8795949,51.965633 4.429397,51.097614 5.6316213,50.776225 c 0,0 0.4731438,0.06519 0.8247274,0.06519 0.3518509,0 0.8249947,-0.06519 0.8249947,-0.06519 z"
       fill-rule="evenodd"
       id="path409132"
       style="fill:#02072c;fill-opacity:1;stroke:#000000;stroke-width:0.264583;stroke-opacity:1" />
    <path
       fill="#faff58"
       d="m -10.464888,50.776225 -1.19795,0.321389 -1.554077,0.868019 0.803087,1.393507 0.807361,-0.377772 c 0.02618,0.256223 0.138924,0.80309 0.138924,0.80309 0.03046,1.558343 -0.09538,3.216619 -0.09538,3.216619 0.954834,0.125836 1.9230265,0.138933 1.9230265,0.138933 0,0 0.9721993,-0.01323 1.9227588,-0.138933 0,0 -0.1258332,-1.658276 -0.095377,-3.216619 0,0 0.1172837,-0.546867 0.1431985,-0.80309 l 0.8030861,0.377772 0.8030872,-1.393507 -1.5498025,-0.868019 -1.2022248,-0.321389 c 0,0 -0.4731427,0.06519 -0.8247266,0.06519 -0.3518514,0 -0.8249942,-0.06519 -0.8249942,-0.06519 z"
       fill-rule="evenodd"
       id="path409128"
       style="fill:#72f782;fill-opacity:1;stroke:#000000;stroke-width:0.264583;stroke-opacity:1" />
    <path
       fill="#000000"
       d="m -11.56292,57.001077 c 0,0 -0.599242,1.732015 -0.746715,4.162901 -0.0043,0.05638 -0.0085,0.182219 -0.01309,0.238575 0,0 0.0088,0.0045 0.02191,0.0045 0.177929,0.02593 1.584265,0.238575 2.4004424,0.238575 h 0.04328 c 0,0 0.00428,-0.125836 0.017365,-0.221192 0.030456,-0.338772 0.1084676,-1.146122 0.1303751,-1.571466 0.017365,0.425344 0.095376,1.232694 0.1258326,1.571466 0.012824,0.09536 0.017365,0.221192 0.017365,0.221192 0.014695,0 0.029388,0 0.044349,0 0.8733498,0 2.4212814,-0.24339 2.4212814,-0.24339 -0.00454,-0.05636 -0.00882,-0.182193 -0.00882,-0.238575 -0.1520145,-2.430886 -0.7509904,-4.162901 -0.7509904,-4.162901 z"
       fill-rule="evenodd"
       id="path409130"
       style="stroke-width:0.264583" />
    <path
       fill="#000000"
       d="m 8.3793748,57.001077 c 0,0 0.5992415,1.732015 0.746715,4.162901 0.00429,0.05638 0.00855,0.182219 0.013097,0.238575 0,0 -0.00881,0.0045 -0.021907,0.0045 -0.1779297,0.02593 -1.5842642,0.238575 -2.4004429,0.238575 h -0.04328 c 0,0 -0.00429,-0.125836 -0.017357,-0.221192 -0.030456,-0.338772 -0.1084659,-1.146122 -0.1303734,-1.571466 -0.017357,0.425344 -0.095377,1.232694 -0.1258332,1.571466 -0.012832,0.09536 -0.017357,0.221192 -0.017357,0.221192 -0.014684,0 -0.029387,0 -0.044349,0 -0.8733499,0 -2.4212815,-0.24339 -2.4212815,-0.24339 0.00455,-0.05636 0.00881,-0.182193 0.00881,-0.238575 0.1520137,-2.430886 0.7509907,-4.162901 0.7509907,-4.162901 z"
       fill-rule="evenodd"
       id="path409134"
       style="fill:#02072c;fill-opacity:1;stroke:#000000;stroke-width:0.264583;stroke-opacity:1" />
    <path
       fill="#faff58"
       d="M -0.76694946,50.776225 0.43099919,51.097614 1.9850757,51.965633 1.1819899,53.35914 0.37462971,52.981368 c -0.0261938,0.256223 -0.13892477,0.80309 -0.13892477,0.80309 -0.0304562,1.558343 0.095377,3.216619 0.095377,3.216619 -0.95483361,0.125836 -1.92302604,0.138933 -1.92302604,0.138933 0,0 -0.9722009,-0.01323 -1.9227588,-0.138933 0,0 0.1258332,-1.658276 0.095377,-3.216619 0,0 -0.1172845,-0.546867 -0.1432004,-0.80309 l -0.8030848,0.377772 -0.8030871,-1.393507 1.5498024,-0.868019 1.2022243,-0.321389 c 0,0 0.4731438,0.06519 0.8247274,0.06519 0.3518509,0 0.82499464,-0.06519 0.82499464,-0.06519 z"
       fill-rule="evenodd"
       id="path409136"
       style="fill:#000000;fill-opacity:0;stroke:#000000;stroke-width:0.264583;stroke-opacity:1" />
    <path
       fill="#000000"
       d="m 0.33108194,57.001077 c 0,0 0.59924156,1.732015 0.74671506,4.162901 0.00429,0.05638 0.00855,0.182219 0.013097,0.238575 0,0 -0.00881,0.0045 -0.021907,0.0045 -0.17792962,0.02593 -1.5842641,0.238575 -2.4004428,0.238575 h -0.043281 c 0,0 -0.00429,-0.125836 -0.017357,-0.221192 -0.030456,-0.338772 -0.108466,-1.146122 -0.1303735,-1.571466 -0.017357,0.425344 -0.095377,1.232694 -0.1258331,1.571466 -0.012832,0.09536 -0.017357,0.221192 -0.017357,0.221192 -0.014684,0 -0.02939,0 -0.04435,0 -0.8733499,0 -2.4212814,-0.24339 -2.4212814,-0.24339 0.00454,-0.05636 0.00882,-0.182193 0.00882,-0.238575 0.1520145,-2.430886 0.7509907,-4.162901 0.7509907,-4.162901 z"
       fill-rule="evenodd"
       id="path409138"
       style="fill:#000000;fill-opacity:0;stroke:#000000;stroke-width:0.264583;stroke-opacity:1" />
    <path
       fill="#000000"
       d="m 24.475966,57.001077 c 0,0 0.599241,1.732015 0.746715,4.162901 0.0043,0.05638 0.0085,0.182219 0.0131,0.238575 0,0 -0.0088,0.0045 -0.02191,0.0045 -0.177929,0.02593 -1.584267,0.238575 -2.400445,0.238575 h -0.04328 c 0,0 -0.0043,-0.125836 -0.01736,-0.221192 -0.03046,-0.338772 -0.108465,-1.146122 -0.130373,-1.571466 -0.01736,0.425344 -0.09538,1.232694 -0.125833,1.571466 -0.01283,0.09536 -0.01736,0.221192 -0.01736,0.221192 -0.01468,0 -0.02939,0 -0.04435,0 -0.87335,0 -2.421282,-0.24339 -2.421282,-0.24339 0.0046,-0.05636 0.0088,-0.182193 0.0088,-0.238575 0.152014,-2.430886 0.750991,-4.162901 0.750991,-4.162901 z"
       fill-rule="evenodd"
       id="path409140"
       style="fill:#730f93;fill-opacity:1;stroke:#000000;stroke-width:0.264583;stroke-opacity:1" />
    <path
       fill="#faff58"
       d="m 15.329638,50.776225 1.197948,0.321389 1.554078,0.868019 -0.803087,1.393507 -0.80736,-0.377772 c -0.02619,0.256223 -0.138925,0.80309 -0.138925,0.80309 -0.03046,1.558343 0.09538,3.216619 0.09538,3.216619 -0.954834,0.125836 -1.923026,0.138933 -1.923026,0.138933 0,0 -0.972201,-0.01323 -1.922756,-0.138933 0,0 0.125833,-1.658276 0.09538,-3.216619 0,0 -0.117285,-0.546867 -0.143201,-0.80309 l -0.803084,0.377772 -0.803087,-1.393507 1.549802,-0.868019 1.202222,-0.321389 c 0,0 0.473143,0.06519 0.824727,0.06519 0.351851,0 0.824995,-0.06519 0.824995,-0.06519 z"
       fill-rule="evenodd"
       id="path409142"
       style="fill:#e23f2e;fill-opacity:1;stroke:#000000;stroke-width:0.264583;stroke-opacity:1" />
    <path
       fill="#000000"
       d="m 16.427669,57.001077 c 0,0 0.599242,1.732015 0.746715,4.162901 0.0043,0.05638 0.0085,0.182219 0.0131,0.238575 0,0 -0.0088,0.0045 -0.02191,0.0045 -0.177929,0.02593 -1.584266,0.238575 -2.400443,0.238575 h -0.04328 c 0,0 -0.0043,-0.125836 -0.01736,-0.221192 -0.03046,-0.338772 -0.108468,-1.146122 -0.130376,-1.571466 -0.01736,0.425344 -0.09537,1.232694 -0.12583,1.571466 -0.01283,0.09536 -0.01736,0.221192 -0.01736,0.221192 -0.01468,0 -0.02939,0 -0.04435,0 -0.87335,0 -2.421279,-0.24339 -2.421279,-0.24339 0.0046,-0.05636 0.0088,-0.182193 0.0088,-0.238575 0.152014,-2.430886 0.750991,-4.162901 0.750991,-4.162901 z"
       fill-rule="evenodd"
       id="path409144"
       style="fill:#e23f2e;fill-opacity:1;stroke:#000000;stroke-width:0.264583;stroke-opacity:1" />
    <path
       style="fill:#485369;fill-opacity:1;stroke:none;stroke-width:0.202977px;stroke-linecap:butt;stroke-linejoin:miter;stroke-opacity:1"
       d="m 6.7091714,50.791121 -0.5291667,-0.02064 v 6.167331 l 0.5280633,-0.0026 z"
       id="path409146"
       sodipodi:nodetypes="ccccc" />
    <path
       style="fill:#485369;fill-opacity:1;stroke:none;stroke-width:0.325475px;stroke-linecap:butt;stroke-linejoin:miter;stroke-opacity:1"
       d="m 5.1024547,56.929904 v -6.0502 l 0.5291666,-0.103479 v 6.149472 z"
       id="path409148" />
    <path
       style="fill:#485369;fill-opacity:1;stroke:none;stroke-width:0.325477px;stroke-linecap:butt;stroke-linejoin:miter;stroke-opacity:1"
       d="m 7.81051,56.929904 v -6.0502 L 7.2813434,50.776225 v 6.149472 z"
       id="path409150" />
    <path
       style="fill:#485369;fill-opacity:1;stroke:none;stroke-width:0.2632px;stroke-linecap:butt;stroke-linejoin:miter;stroke-opacity:1"
       d="M 4.4453514,53.104558 V 51.08166 l 0.3850322,-0.103452 v 5.955374 H 4.5289068 L 4.6416034,54.976697 4.5803603,53.55906 Z"
       id="path409152" />
    <path
       style="fill:#485369;fill-opacity:1;stroke:none;stroke-width:0.263251px;stroke-linecap:butt;stroke-linejoin:miter;stroke-opacity:1"
       d="M 8.3642327,53.105379 V 51.081687 L 7.9792004,50.978208 v 5.957702 h 0.3014769 l -0.1126967,-1.957652 0.061243,-1.418193 z"
       id="path409154" />
    <rect
       style="fill:#485369;fill-opacity:1;stroke:none;stroke-width:0.375534;stroke-opacity:1"
       id="rect409156"
       width="0.27225614"
       height="1.8163218"
       x="41.002159"
       y="35.647106"
       transform="matrix(-0.55953292,0.82880813,0.87278708,0.48810113,0,0)" />
    <rect
       style="fill:#485369;fill-opacity:1;stroke:none;stroke-width:0.327898;stroke-opacity:1"
       id="rect409158"
       width="0.24048823"
       height="1.5676755"
       x="40.738163"
       y="34.945457"
       transform="matrix(-0.53980827,0.84178799,0.86173755,0.5073543,0,0)" />
    <rect
       style="fill:#485369;fill-opacity:1;stroke:none;stroke-width:0.328316;stroke-opacity:1"
       id="rect409160"
       width="0.23942271"
       height="1.5786736"
       x="47.051434"
       y="24.566845"
       transform="matrix(0.54952389,0.835478,-0.86727602,0.49782758,0,0)" />
    <rect
       style="fill:#485369;fill-opacity:1;stroke:none;stroke-width:0.284308;stroke-opacity:1"
       id="rect409162"
       width="0.20835048"
       height="1.3603736"
       x="47.400406"
       y="24.366177"
       transform="matrix(0.54117789,0.84090814,-0.86252987,0.50600615,0,0)" />
    <path
       fill="#faff58"
       d="m 23.377932,50.776225 1.197951,0.321389 1.554075,0.868019 -0.803084,1.393507 -0.807363,-0.377772 c -0.02619,0.256223 -0.138922,0.80309 -0.138922,0.80309 -0.03045,1.558343 0.09537,3.216619 0.09537,3.216619 -0.954833,0.125836 -1.923026,0.138933 -1.923026,0.138933 0,0 -0.972198,-0.01323 -1.922759,-0.138933 0,0 0.125833,-1.658276 0.09538,-3.216619 0,0 -0.117284,-0.546867 -0.143198,-0.80309 l -0.803087,0.377772 -0.803087,-1.393507 1.549802,-0.868019 1.202225,-0.321389 c 0,0 0.473143,0.06519 0.824727,0.06519 0.351851,0 0.824995,-0.06519 0.824995,-0.06519 z"
       fill-rule="evenodd"
       id="path409178"
       style="fill:#730f93;fill-opacity:1;stroke:#000000;stroke-width:0.264583;stroke-opacity:1" />
  </g>
</svg>
