<?xml version="1.0" encoding="UTF-8"?>
<!-- Created with Inkscape (http://www.inkscape.org/) -->
<svg id="svg5402" width="39.71mm" height="11.136mm" version="1.1" viewBox="0 0 39.71 11.136" xmlns="http://www.w3.org/2000/svg">
 <g id="layer1" transform="translate(13.398 -50.642)">
  <path id="path409132" d="m7.2813 50.776 1.1979 0.32139 1.5541 0.86802-0.80309 1.3935-0.80736-0.37777c-0.026194 0.25622-0.13892 0.80309-0.13892 0.80309-0.030456 1.5583 0.095377 3.2166 0.095377 3.2166-0.95483 0.12584-1.923 0.13893-1.923 0.13893s-0.9722-0.01323-1.9228-0.13893c0 0 0.12583-1.6583 0.095377-3.2166 0 0-0.11728-0.54687-0.1432-0.80309l-0.80309 0.37777-0.80309-1.3935 1.5498-0.86802 1.2022-0.32139s0.47314 0.06519 0.82473 0.06519c0.35185 0 0.82499-0.06519 0.82499-0.06519z" fill="#02072c" fill-rule="evenodd" stroke="#000" stroke-width=".26458"/>
  <path id="path409128" d="m-10.465 50.776-1.198 0.32139-1.5541 0.86802 0.80309 1.3935 0.80736-0.37777c0.02618 0.25622 0.13892 0.80309 0.13892 0.80309 0.03046 1.5583-0.09538 3.2166-0.09538 3.2166 0.95483 0.12584 1.923 0.13893 1.923 0.13893s0.9722-0.01323 1.9228-0.13893c0 0-0.12583-1.6583-0.095377-3.2166 0 0 0.11728-0.54687 0.1432-0.80309l0.80309 0.37777 0.80309-1.3935-1.5498-0.86802-1.2022-0.32139s-0.47314 0.06519-0.82473 0.06519c-0.35185 0-0.82499-0.06519-0.82499-0.06519z" fill="#72f782" fill-rule="evenodd" stroke="#000" stroke-width=".26458"/>
  <path id="path409130" d="m-11.563 57.001s-0.59924 1.732-0.74672 4.1629c-0.0043 0.05638-0.0085 0.18222-0.01309 0.23858 0 0 0.0088 0.0045 0.02191 0.0045 0.17793 0.02593 1.5843 0.23858 2.4004 0.23858h0.04328s0.00428-0.12584 0.017365-0.22119c0.030456-0.33877 0.10847-1.1461 0.13038-1.5715 0.017365 0.42534 0.095376 1.2327 0.12583 1.5715 0.012824 0.09536 0.017365 0.22119 0.017365 0.22119h0.044349c0.87335 0 2.4213-0.24339 2.4213-0.24339-0.00454-0.05636-0.00882-0.18219-0.00882-0.23858-0.15201-2.4309-0.75099-4.1629-0.75099-4.1629z" fill-rule="evenodd" stroke-width=".26458"/>
  <path id="path409134" d="m8.3794 57.001s0.59924 1.732 0.74672 4.1629c0.00429 0.05638 0.00855 0.18222 0.013097 0.23858 0 0-0.00881 0.0045-0.021907 0.0045-0.17793 0.02593-1.5843 0.23858-2.4004 0.23858h-0.04328s-0.00429-0.12584-0.017357-0.22119c-0.030456-0.33877-0.10847-1.1461-0.13037-1.5715-0.017357 0.42534-0.095377 1.2327-0.12583 1.5715-0.012832 0.09536-0.017357 0.22119-0.017357 0.22119h-0.044349c-0.87335 0-2.4213-0.24339-2.4213-0.24339 0.00455-0.05636 0.00881-0.18219 0.00881-0.23858 0.15201-2.4309 0.75099-4.1629 0.75099-4.1629z" fill="#02072c" fill-rule="evenodd" stroke="#000" stroke-width=".26458"/>
  <path id="path409136" d="m-0.76695 50.776 1.1979 0.32139 1.5541 0.86802-0.80309 1.3935-0.80736-0.37777c-0.026194 0.25622-0.13892 0.80309-0.13892 0.80309-0.030456 1.5583 0.095377 3.2166 0.095377 3.2166-0.95483 0.12584-1.923 0.13893-1.923 0.13893s-0.9722-0.01323-1.9228-0.13893c0 0 0.12583-1.6583 0.095377-3.2166 0 0-0.11728-0.54687-0.1432-0.80309l-0.80308 0.37777-0.80309-1.3935 1.5498-0.86802 1.2022-0.32139s0.47314 0.06519 0.82473 0.06519c0.35185 0 0.82499-0.06519 0.82499-0.06519z" fill="#faff58" fill-opacity="0" fill-rule="evenodd" stroke="#000" stroke-width=".26458"/>
  <path id="path409138" d="m0.33108 57.001s0.59924 1.732 0.74672 4.1629c0.00429 0.05638 0.00855 0.18222 0.013097 0.23858 0 0-0.00881 0.0045-0.021907 0.0045-0.17793 0.02593-1.5843 0.23858-2.4004 0.23858h-0.043281s-0.00429-0.12584-0.017357-0.22119c-0.030456-0.33877-0.10847-1.1461-0.13037-1.5715-0.017357 0.42534-0.095377 1.2327-0.12583 1.5715-0.012832 0.09536-0.017357 0.22119-0.017357 0.22119h-0.04435c-0.87335 0-2.4213-0.24339-2.4213-0.24339 0.00454-0.05636 0.00882-0.18219 0.00882-0.23858 0.15201-2.4309 0.75099-4.1629 0.75099-4.1629z" fill-opacity="0" fill-rule="evenodd" stroke="#000" stroke-width=".26458"/>
  <path id="path409140" d="m24.476 57.001s0.59924 1.732 0.74672 4.1629c0.0043 0.05638 0.0085 0.18222 0.0131 0.23858 0 0-0.0088 0.0045-0.02191 0.0045-0.17793 0.02593-1.5843 0.23858-2.4004 0.23858h-0.04328s-0.0043-0.12584-0.01736-0.22119c-0.03046-0.33877-0.10846-1.1461-0.13037-1.5715-0.01736 0.42534-0.09538 1.2327-0.12583 1.5715-0.01283 0.09536-0.01736 0.22119-0.01736 0.22119h-0.04435c-0.87335 0-2.4213-0.24339-2.4213-0.24339 0.0046-0.05636 0.0088-0.18219 0.0088-0.23858 0.15201-2.4309 0.75099-4.1629 0.75099-4.1629z" fill="#730f93" fill-rule="evenodd" stroke="#000" stroke-width=".26458"/>
  <path id="path409142" d="m15.33 50.776 1.1979 0.32139 1.5541 0.86802-0.80309 1.3935-0.80736-0.37777c-0.02619 0.25622-0.13892 0.80309-0.13892 0.80309-0.03046 1.5583 0.09538 3.2166 0.09538 3.2166-0.95483 0.12584-1.923 0.13893-1.923 0.13893s-0.9722-0.01323-1.9228-0.13893c0 0 0.12583-1.6583 0.09538-3.2166 0 0-0.11728-0.54687-0.1432-0.80309l-0.80308 0.37777-0.80309-1.3935 1.5498-0.86802 1.2022-0.32139s0.47314 0.06519 0.82473 0.06519c0.35185 0 0.825-0.06519 0.825-0.06519z" fill="#e23f2e" fill-rule="evenodd" stroke="#000" stroke-width=".26458"/>
  <path id="path409144" d="m16.428 57.001s0.59924 1.732 0.74672 4.1629c0.0043 0.05638 0.0085 0.18222 0.0131 0.23858 0 0-0.0088 0.0045-0.02191 0.0045-0.17793 0.02593-1.5843 0.23858-2.4004 0.23858h-0.04328s-0.0043-0.12584-0.01736-0.22119c-0.03046-0.33877-0.10847-1.1461-0.13038-1.5715-0.01736 0.42534-0.09537 1.2327-0.12583 1.5715-0.01283 0.09536-0.01736 0.22119-0.01736 0.22119h-0.04435c-0.87335 0-2.4213-0.24339-2.4213-0.24339 0.0046-0.05636 0.0088-0.18219 0.0088-0.23858 0.15201-2.4309 0.75099-4.1629 0.75099-4.1629z" fill="#e23f2e" fill-rule="evenodd" stroke="#000" stroke-width=".26458"/>
  <path id="path409146" d="m6.7092 50.791-0.52917-0.02064v6.1673l0.52806-0.0026z" fill="#485369"/>
  <path id="path409148" d="m5.1025 56.93v-6.0502l0.52917-0.10348v6.1495z" fill="#485369"/>
  <path id="path409150" d="m7.8105 56.93v-6.0502l-0.52917-0.10348v6.1495z" fill="#485369"/>
  <path id="path409152" d="m4.4454 53.105v-2.0229l0.38503-0.10345v5.9554h-0.30148l0.1127-1.9569-0.061243-1.4176z" fill="#485369"/>
  <path id="path409154" d="m8.3642 53.105v-2.0237l-0.38503-0.10348v5.9577h0.30148l-0.1127-1.9577 0.061243-1.4182z" fill="#485369"/>
  <rect id="rect409156" transform="matrix(-.55953 .82881 .87279 .4881 0 0)" x="41.002" y="35.647" width=".27226" height="1.8163" fill="#485369"/>
  <rect id="rect409158" transform="matrix(-.53981 .84179 .86174 .50735 0 0)" x="40.738" y="34.945" width=".24049" height="1.5677" fill="#485369"/>
  <rect id="rect409160" transform="matrix(.54952 .83548 -.86728 .49783 0 0)" x="47.051" y="24.567" width=".23942" height="1.5787" fill="#485369"/>
  <rect id="rect409162" transform="matrix(.54118 .84091 -.86253 .50601 0 0)" x="47.4" y="24.366" width=".20835" height="1.3604" fill="#485369"/>
  <path id="path409178" d="m23.378 50.776 1.198 0.32139 1.5541 0.86802-0.80308 1.3935-0.80736-0.37777c-0.02619 0.25622-0.13892 0.80309-0.13892 0.80309-0.03045 1.5583 0.09537 3.2166 0.09537 3.2166-0.95483 0.12584-1.923 0.13893-1.923 0.13893s-0.9722-0.01323-1.9228-0.13893c0 0 0.12583-1.6583 0.09538-3.2166 0 0-0.11728-0.54687-0.1432-0.80309l-0.80309 0.37777-0.80309-1.3935 1.5498-0.86802 1.2022-0.32139s0.47314 0.06519 0.82473 0.06519c0.35185 0 0.825-0.06519 0.825-0.06519z" fill="#730f93" fill-rule="evenodd" stroke="#000" stroke-width=".26458"/>
 </g>
</svg>
