<?xml version="1.0" encoding="UTF-8"?>
<!-- Created with Inkscape (http://www.inkscape.org/) -->
<svg id="svg5708" width="39.71mm" height="11.137mm" version="1.1" viewBox="0 0 39.71 11.137" xmlns="http://www.w3.org/2000/svg">
 <g id="layer1" transform="translate(133.41 -200.66)">
  <path id="path456804" d="m-112.73 200.8 1.198 0.32139 1.5541 0.86802-0.80309 1.3935-0.80736-0.37777c-0.0262 0.25622-0.13893 0.80309-0.13893 0.80309-0.0304 1.5583 0.0954 3.2166 0.0954 3.2166-0.95483 0.12584-1.923 0.13894-1.923 0.13894s-0.9722-0.0132-1.9228-0.13894c0 0 0.12583-1.6583 0.0954-3.2166 0 0-0.11728-0.54687-0.14319-0.80309l-0.80309 0.37777-0.80309-1.3935 1.5498-0.86802 1.2022-0.32139s0.47314 0.0652 0.82473 0.0652c0.35185 0 0.82499-0.0652 0.82499-0.0652z" fill="#c3233f" fill-rule="evenodd" stroke="#000" stroke-width=".26458"/>
  <path id="path456806" d="m-130.48 200.8-1.198 0.32139-1.5541 0.86802 0.80309 1.3935 0.80736-0.37777c0.0262 0.25622 0.13892 0.80309 0.13892 0.80309 0.0305 1.5583-0.0954 3.2166-0.0954 3.2166 0.95483 0.12584 1.923 0.13894 1.923 0.13894s0.9722-0.0132 1.9228-0.13894c0 0-0.12583-1.6583-0.0954-3.2166 0 0 0.11728-0.54687 0.14319-0.80309l0.80309 0.37777 0.80309-1.3935-1.5498-0.86802-1.2022-0.32139s-0.47314 0.0652-0.82473 0.0652c-0.35185 0-0.82499-0.0652-0.82499-0.0652z" fill="#72f782" fill-rule="evenodd" stroke="#000" stroke-width=".26458"/>
  <path id="path456808" d="m-131.58 207.02s-0.59925 1.732-0.74672 4.1629c-4e-3 0.0564-9e-3 0.18221-0.0131 0.23857 0 0 9e-3 5e-3 0.0219 5e-3 0.17793 0.0259 1.5843 0.23857 2.4004 0.23857h0.0433s4e-3 -0.12583 0.0174-0.22119c0.0305-0.33877 0.10846-1.1461 0.13037-1.5715 0.0174 0.42534 0.0954 1.2327 0.12583 1.5715 0.0128 0.0954 0.0174 0.22119 0.0174 0.22119h0.0444c0.87335 0 2.4213-0.24339 2.4213-0.24339-5e-3 -0.0564-9e-3 -0.18219-9e-3 -0.23857-0.15201-2.4309-0.75099-4.1629-0.75099-4.1629z" fill-rule="evenodd" stroke-width=".26458"/>
  <path id="path456810" d="m-111.64 207.02s0.59924 1.732 0.74672 4.1629c4e-3 0.0564 9e-3 0.18221 0.0131 0.23857 0 0-9e-3 5e-3 -0.0219 5e-3 -0.17793 0.0259-1.5843 0.23857-2.4004 0.23857h-0.0433s-4e-3 -0.12583-0.0173-0.22119c-0.0305-0.33877-0.10847-1.1461-0.13038-1.5715-0.0174 0.42534-0.0954 1.2327-0.12583 1.5715-0.0128 0.0954-0.0174 0.22119-0.0174 0.22119h-0.0443c-0.87335 0-2.4213-0.24339-2.4213-0.24339 5e-3 -0.0564 9e-3 -0.18219 9e-3 -0.23857 0.15202-2.4309 0.75099-4.1629 0.75099-4.1629z" fill="#c3233f" fill-rule="evenodd" stroke="#000" stroke-width=".26458"/>
  <path id="path456812" d="m-120.64 200.8 1.198 0.32138 1.5541 0.86802-0.80308 1.3935-0.80736-0.37777c-0.0262 0.25622-0.13893 0.80309-0.13893 0.80309-0.0305 1.5583 0.0954 3.2166 0.0954 3.2166-0.95483 0.12583-1.923 0.13893-1.923 0.13893s-0.9722-0.0132-1.9228-0.13893c0 0 0.12584-1.6583 0.0954-3.2166 0 0-0.11728-0.54687-0.1432-0.80309l-0.80308 0.37777-0.80309-1.3935 1.5498-0.86802 1.2022-0.32138s0.47314 0.0652 0.82472 0.0652c0.35185 0 0.825-0.0652 0.825-0.0652z" fill="#faff58" fill-opacity="0" fill-rule="evenodd" stroke="#000" stroke-width=".26458"/>
  <path id="path456814" d="m-119.68 207.02s0.59924 1.732 0.74671 4.1629c4e-3 0.0564 9e-3 0.18221 0.0131 0.23857 0 0-9e-3 5e-3 -0.0219 5e-3 -0.17793 0.0259-1.5843 0.23857-2.4004 0.23857h-0.0433s-4e-3 -0.12583-0.0174-0.22119c-0.0305-0.33877-0.10846-1.1461-0.13037-1.5715-0.0174 0.42534-0.0954 1.2327-0.12583 1.5715-0.0128 0.0954-0.0174 0.22119-0.0174 0.22119h-0.0444c-0.87335 0-2.4213-0.24339-2.4213-0.24339 5e-3 -0.0564 9e-3 -0.18219 9e-3 -0.23857 0.15201-2.4309 0.75099-4.1629 0.75099-4.1629z" fill="#2532a8" fill-rule="evenodd" stroke="#000" stroke-width=".26458"/>
  <path id="path456816" d="m-95.539 207.02s0.59924 1.732 0.74672 4.1629c0.0043 0.0564 0.0085 0.18221 0.0131 0.23857 0 0-0.0088 5e-3 -0.02191 5e-3 -0.17793 0.0259-1.5843 0.23857-2.4004 0.23857h-0.04328s-0.0043-0.12583-0.01736-0.22119c-0.03046-0.33877-0.10846-1.1461-0.13037-1.5715-0.01736 0.42534-0.09538 1.2327-0.12583 1.5715-0.01283 0.0954-0.01736 0.22119-0.01736 0.22119h-0.04435c-0.87335 0-2.4213-0.24339-2.4213-0.24339 0.0046-0.0564 0.0088-0.18219 0.0088-0.23857 0.15201-2.4309 0.75099-4.1629 0.75099-4.1629z" fill="#657484" fill-rule="evenodd" stroke="#000" stroke-width=".26458"/>
  <path id="path456818" d="m-104.69 200.8 1.198 0.32139 1.5541 0.86802-0.80309 1.3935-0.80736-0.37777c-0.0262 0.25622-0.13892 0.80309-0.13892 0.80309-0.0305 1.5583 0.0954 3.2166 0.0954 3.2166-0.95484 0.12584-1.923 0.13894-1.923 0.13894s-0.9722-0.0132-1.9228-0.13894c0 0 0.12584-1.6583 0.0954-3.2166 0 0-0.11728-0.54687-0.1432-0.80309l-0.80308 0.37777-0.80309-1.3935 1.5498-0.86802 1.2022-0.32139s0.47315 0.0652 0.82473 0.0652c0.35185 0 0.82499-0.0652 0.82499-0.0652z" fill="#e8ff8a" fill-rule="evenodd" stroke="#000" stroke-width=".26458"/>
  <path id="path456820" d="m-103.59 207.02s0.59924 1.732 0.74671 4.1629c4e-3 0.0564 9e-3 0.18221 0.0131 0.23857 0 0-9e-3 5e-3 -0.0219 5e-3 -0.17793 0.0259-1.5843 0.23857-2.4004 0.23857h-0.0433s-4e-3 -0.12583-0.0174-0.22119c-0.0305-0.33877-0.10847-1.1461-0.13038-1.5715-0.0173 0.42534-0.0954 1.2327-0.12583 1.5715-0.0128 0.0954-0.0174 0.22119-0.0174 0.22119h-0.0443c-0.87335 0-2.4213-0.24339-2.4213-0.24339 5e-3 -0.0564 9e-3 -0.18219 9e-3 -0.23857 0.15201-2.4309 0.75099-4.1629 0.75099-4.1629z" fill="#e8ff8a" fill-rule="evenodd" stroke="#000" stroke-width=".26458"/>
  <path id="path456840" d="m-96.637 200.8 1.198 0.32139 1.5541 0.86802-0.80308 1.3935-0.80736-0.37777c-0.02619 0.25622-0.13892 0.80309-0.13892 0.80309-0.03045 1.5583 0.09537 3.2166 0.09537 3.2166-0.95483 0.12584-1.923 0.13894-1.923 0.13894s-0.9722-0.0132-1.9228-0.13894c0 0 0.12583-1.6583 0.09538-3.2166 0 0-0.11728-0.54687-0.1432-0.80309l-0.80308 0.37777-0.80309-1.3935 1.5498-0.86802 1.2022-0.32139s0.47314 0.0652 0.82473 0.0652c0.35185 0 0.825-0.0652 0.825-0.0652z" fill="#657484" fill-rule="evenodd" stroke="#000" stroke-width=".26458"/>
  <path id="path474840" d="m-121.99 200.95 1.0538-0.0198v5.9762l-1.0516-3e-3z" fill="#2532a8"/>
  <path id="path475035" d="m-124.87 202.03 1.421-0.78936 1.1569-0.30509 0.31667 0.0172-0.0125 0.278-0.32141-0.0228-1.0736 0.25146-1.3782 0.77526z" fill="#2532a8"/>
  <path id="path482270" d="m-118.07 202.02-1.421-0.78936-1.1569-0.30509-0.31667 0.0172 0.0125 0.278 0.32142-0.0228 1.0736 0.25146 1.3782 0.77526z" fill="#2532a8"/>
 </g>
</svg>
