<?xml version="1.0" encoding="UTF-8" standalone="no"?>
<!-- Created with Inkscape (http://www.inkscape.org/) -->

<svg
   width="39.710014mm"
   height="11.137198mm"
   viewBox="0 0 39.710014 11.137198"
   version="1.1"
   id="svg5708"
   inkscape:version="1.1.2 (0a00cf5339, 2022-02-04)"
   sodipodi:docname="078.svg"
   xmlns:inkscape="http://www.inkscape.org/namespaces/inkscape"
   xmlns:sodipodi="http://sodipodi.sourceforge.net/DTD/sodipodi-0.dtd"
   xmlns="http://www.w3.org/2000/svg"
   xmlns:svg="http://www.w3.org/2000/svg">
  <sodipodi:namedview
     id="namedview5710"
     pagecolor="#ffffff"
     bordercolor="#666666"
     borderopacity="1.0"
     inkscape:pageshadow="2"
     inkscape:pageopacity="0.0"
     inkscape:pagecheckerboard="0"
     inkscape:document-units="mm"
     showgrid="false"
     inkscape:zoom="0.69664703"
     inkscape:cx="900.7431"
     inkscape:cy="-197.37399"
     inkscape:window-width="1920"
     inkscape:window-height="1016"
     inkscape:window-x="0"
     inkscape:window-y="0"
     inkscape:window-maximized="1"
     inkscape:current-layer="layer1" />
  <defs
     id="defs5705" />
  <g
     inkscape:label="Layer 1"
     inkscape:groupmode="layer"
     id="layer1"
     transform="translate(133.41383,-200.66055)">
    <path
       fill="#faff58"
       d="m -112.734,200.79556 1.19795,0.32139 1.55408,0.86802 -0.80309,1.39351 -0.80736,-0.37777 c -0.0262,0.25622 -0.13893,0.80309 -0.13893,0.80309 -0.0304,1.55834 0.0954,3.21661 0.0954,3.21661 -0.95483,0.12584 -1.92302,0.13894 -1.92302,0.13894 0,0 -0.9722,-0.0132 -1.92276,-0.13894 0,0 0.12583,-1.65827 0.0954,-3.21661 0,0 -0.11728,-0.54687 -0.14319,-0.80309 l -0.80309,0.37777 -0.80309,-1.39351 1.5498,-0.86802 1.20223,-0.32139 c 0,0 0.47314,0.0652 0.82473,0.0652 0.35185,0 0.82499,-0.0652 0.82499,-0.0652 z"
       fill-rule="evenodd"
       id="path456804"
       style="fill:#c3233f;fill-opacity:1;stroke:#000000;stroke-width:0.264583;stroke-opacity:1" />
    <path
       fill="#faff58"
       d="m -130.48023,200.79556 -1.19795,0.32139 -1.55408,0.86802 0.80309,1.39351 0.80736,-0.37777 c 0.0262,0.25622 0.13892,0.80309 0.13892,0.80309 0.0305,1.55834 -0.0954,3.21661 -0.0954,3.21661 0.95483,0.12584 1.92302,0.13894 1.92302,0.13894 0,0 0.9722,-0.0132 1.92276,-0.13894 0,0 -0.12583,-1.65827 -0.0954,-3.21661 0,0 0.11728,-0.54687 0.14319,-0.80309 l 0.80309,0.37777 0.80309,-1.39351 -1.54981,-0.86802 -1.20222,-0.32139 c 0,0 -0.47314,0.0652 -0.82473,0.0652 -0.35185,0 -0.82499,-0.0652 -0.82499,-0.0652 z"
       fill-rule="evenodd"
       id="path456806"
       style="fill:#72f782;fill-opacity:1;stroke:#000000;stroke-width:0.264583;stroke-opacity:1" />
    <path
       fill="#000000"
       d="m -131.57826,207.02041 c 0,0 -0.59925,1.73202 -0.74672,4.16291 -0.004,0.0564 -0.009,0.18221 -0.0131,0.23857 0,0 0.009,0.005 0.0219,0.005 0.17793,0.0259 1.58426,0.23857 2.40044,0.23857 h 0.0433 c 0,0 0.004,-0.12583 0.0174,-0.22119 0.0305,-0.33877 0.10846,-1.14612 0.13037,-1.57146 0.0174,0.42534 0.0954,1.23269 0.12583,1.57146 0.0128,0.0954 0.0174,0.22119 0.0174,0.22119 0.0147,0 0.0294,0 0.0444,0 0.87335,0 2.42128,-0.24339 2.42128,-0.24339 -0.005,-0.0564 -0.009,-0.18219 -0.009,-0.23857 -0.15201,-2.43089 -0.75099,-4.1629 -0.75099,-4.1629 z"
       fill-rule="evenodd"
       id="path456808"
       style="stroke-width:0.264583" />
    <path
       fill="#000000"
       d="m -111.63597,207.02041 c 0,0 0.59924,1.73202 0.74672,4.16291 0.004,0.0564 0.009,0.18221 0.0131,0.23857 0,0 -0.009,0.005 -0.0219,0.005 -0.17793,0.0259 -1.58427,0.23857 -2.40045,0.23857 h -0.0433 c 0,0 -0.004,-0.12583 -0.0173,-0.22119 -0.0305,-0.33877 -0.10847,-1.14612 -0.13038,-1.57146 -0.0174,0.42534 -0.0954,1.23269 -0.12583,1.57146 -0.0128,0.0954 -0.0174,0.22119 -0.0174,0.22119 -0.0147,0 -0.0294,0 -0.0443,0 -0.87335,0 -2.42128,-0.24339 -2.42128,-0.24339 0.005,-0.0564 0.009,-0.18219 0.009,-0.23857 0.15202,-2.43089 0.75099,-4.1629 0.75099,-4.1629 z"
       fill-rule="evenodd"
       id="path456810"
       style="fill:#c3233f;fill-opacity:1;stroke:#000000;stroke-width:0.264583;stroke-opacity:1" />
    <path
       fill="#faff58"
       d="m -120.63909,200.79525 1.19795,0.32138 1.55407,0.86802 -0.80308,1.39351 -0.80736,-0.37777 c -0.0262,0.25622 -0.13893,0.80309 -0.13893,0.80309 -0.0305,1.55834 0.0954,3.21662 0.0954,3.21662 -0.95483,0.12583 -1.92303,0.13893 -1.92303,0.13893 0,0 -0.9722,-0.0132 -1.92276,-0.13893 0,0 0.12584,-1.65828 0.0954,-3.21662 0,0 -0.11728,-0.54687 -0.1432,-0.80309 l -0.80308,0.37777 -0.80309,-1.39351 1.5498,-0.86802 1.20223,-0.32138 c 0,0 0.47314,0.0652 0.82472,0.0652 0.35185,0 0.825,-0.0652 0.825,-0.0652 z"
       fill-rule="evenodd"
       id="path456812"
       style="fill:#000000;fill-opacity:0;stroke:#000000;stroke-width:0.264583;stroke-opacity:1" />
    <path
       fill="#000000"
       d="m -119.68426,207.02041 c 0,0 0.59924,1.73202 0.74671,4.16291 0.004,0.0564 0.009,0.18221 0.0131,0.23857 0,0 -0.009,0.005 -0.0219,0.005 -0.17793,0.0259 -1.58426,0.23857 -2.40044,0.23857 h -0.0433 c 0,0 -0.004,-0.12583 -0.0174,-0.22119 -0.0305,-0.33877 -0.10846,-1.14612 -0.13037,-1.57146 -0.0174,0.42534 -0.0954,1.23269 -0.12583,1.57146 -0.0128,0.0954 -0.0174,0.22119 -0.0174,0.22119 -0.0147,0 -0.0294,0 -0.0444,0 -0.87335,0 -2.42128,-0.24339 -2.42128,-0.24339 0.005,-0.0564 0.009,-0.18219 0.009,-0.23857 0.15201,-2.43089 0.75099,-4.1629 0.75099,-4.1629 z"
       fill-rule="evenodd"
       id="path456814"
       style="fill:#2532a8;fill-opacity:1;stroke:#000000;stroke-width:0.264583;stroke-opacity:1" />
    <path
       fill="#000000"
       d="m -95.539377,207.02041 c 0,0 0.599241,1.73202 0.746715,4.16291 0.0043,0.0564 0.0085,0.18221 0.0131,0.23857 0,0 -0.0088,0.005 -0.02191,0.005 -0.177929,0.0259 -1.584267,0.23857 -2.400445,0.23857 h -0.04328 c 0,0 -0.0043,-0.12583 -0.01736,-0.22119 -0.03046,-0.33877 -0.108465,-1.14612 -0.130373,-1.57146 -0.01736,0.42534 -0.09538,1.23269 -0.125833,1.57146 -0.01283,0.0954 -0.01736,0.22119 -0.01736,0.22119 -0.01468,0 -0.02939,0 -0.04435,0 -0.87335,0 -2.421287,-0.24339 -2.421287,-0.24339 0.0046,-0.0564 0.0088,-0.18219 0.0088,-0.23857 0.152014,-2.43089 0.750991,-4.1629 0.750991,-4.1629 z"
       fill-rule="evenodd"
       id="path456816"
       style="fill:#657484;fill-opacity:1;stroke:#000000;stroke-width:0.264583;stroke-opacity:1" />
    <path
       fill="#faff58"
       d="m -104.68571,200.79556 1.19795,0.32139 1.55408,0.86802 -0.80309,1.39351 -0.80736,-0.37777 c -0.0262,0.25622 -0.13892,0.80309 -0.13892,0.80309 -0.0305,1.55834 0.0954,3.21661 0.0954,3.21661 -0.95484,0.12584 -1.92303,0.13894 -1.92303,0.13894 0,0 -0.9722,-0.0132 -1.92276,-0.13894 0,0 0.12584,-1.65827 0.0954,-3.21661 0,0 -0.11728,-0.54687 -0.1432,-0.80309 l -0.80308,0.37777 -0.80309,-1.39351 1.5498,-0.86802 1.20222,-0.32139 c 0,0 0.47315,0.0652 0.82473,0.0652 0.35185,0 0.82499,-0.0652 0.82499,-0.0652 z"
       fill-rule="evenodd"
       id="path456818"
       style="fill:#e8ff8a;fill-opacity:1;stroke:#000000;stroke-width:0.264583;stroke-opacity:1" />
    <path
       fill="#000000"
       d="m -103.58767,207.02041 c 0,0 0.59924,1.73202 0.74671,4.16291 0.004,0.0564 0.009,0.18221 0.0131,0.23857 0,0 -0.009,0.005 -0.0219,0.005 -0.17793,0.0259 -1.58427,0.23857 -2.40044,0.23857 h -0.0433 c 0,0 -0.004,-0.12583 -0.0174,-0.22119 -0.0305,-0.33877 -0.10847,-1.14612 -0.13038,-1.57146 -0.0173,0.42534 -0.0954,1.23269 -0.12583,1.57146 -0.0128,0.0954 -0.0174,0.22119 -0.0174,0.22119 -0.0147,0 -0.0294,0 -0.0443,0 -0.87335,0 -2.42128,-0.24339 -2.42128,-0.24339 0.005,-0.0564 0.009,-0.18219 0.009,-0.23857 0.15201,-2.43089 0.75099,-4.1629 0.75099,-4.1629 z"
       fill-rule="evenodd"
       id="path456820"
       style="fill:#e8ff8a;fill-opacity:1;stroke:#000000;stroke-width:0.264583;stroke-opacity:1" />
    <path
       fill="#faff58"
       d="m -96.637411,200.79556 1.197951,0.32139 1.554075,0.86802 -0.803084,1.39351 -0.807363,-0.37777 c -0.02619,0.25622 -0.138922,0.80309 -0.138922,0.80309 -0.03045,1.55834 0.09537,3.21661 0.09537,3.21661 -0.954833,0.12584 -1.923026,0.13894 -1.923026,0.13894 0,0 -0.972198,-0.0132 -1.922759,-0.13894 0,0 0.125833,-1.65827 0.09538,-3.21661 0,0 -0.117284,-0.54687 -0.143198,-0.80309 l -0.803083,0.37777 -0.80309,-1.39351 1.549801,-0.86802 1.202225,-0.32139 c 0,0 0.473143,0.0652 0.824727,0.0652 0.351851,0 0.824995,-0.0652 0.824996,-0.0652 z"
       fill-rule="evenodd"
       id="path456840"
       style="fill:#657484;fill-opacity:1;stroke:#000000;stroke-width:0.264583;stroke-opacity:1" />
    <path
       style="fill:#2532a8;fill-opacity:1;stroke:none;stroke-width:0.281959px;stroke-linecap:butt;stroke-linejoin:miter;stroke-opacity:1"
       d="m -121.9908,200.94915 1.05377,-0.0198 v 5.97617 l -1.05158,-0.003 z"
       id="path474840"
       sodipodi:nodetypes="ccccc" />
    <path
       style="fill:#2532a8;fill-opacity:1;stroke:none;stroke-width:0.264583px;stroke-linecap:butt;stroke-linejoin:miter;stroke-opacity:1"
       d="m -124.86914,202.02635 1.42096,-0.78936 1.15691,-0.30509 0.31667,0.0172 -0.0125,0.278 -0.32141,-0.0228 -1.07363,0.25146 -1.37824,0.77526 z"
       id="path475035"
       sodipodi:nodetypes="ccccccccc" />
    <path
       style="fill:#2532a8;fill-opacity:1;stroke:none;stroke-width:0.264583px;stroke-linecap:butt;stroke-linejoin:miter;stroke-opacity:1"
       d="m -118.06601,202.02204 -1.42095,-0.78936 -1.15692,-0.30509 -0.31667,0.0172 0.0125,0.278 0.32142,-0.0228 1.07362,0.25146 1.37824,0.77526 z"
       id="path482270"
       sodipodi:nodetypes="ccccccccc" />
  </g>
</svg>
