<?xml version="1.0" encoding="UTF-8" standalone="no"?>
<!-- Created with Inkscape (http://www.inkscape.org/) -->

<svg
   width="39.710011mm"
   height="11.145996mm"
   viewBox="0 0 39.710011 11.145996"
   version="1.1"
   id="svg5998"
   inkscape:version="1.1.2 (0a00cf5339, 2022-02-04)"
   sodipodi:docname="081.svg"
   xmlns:inkscape="http://www.inkscape.org/namespaces/inkscape"
   xmlns:sodipodi="http://sodipodi.sourceforge.net/DTD/sodipodi-0.dtd"
   xmlns="http://www.w3.org/2000/svg"
   xmlns:svg="http://www.w3.org/2000/svg">
  <sodipodi:namedview
     id="namedview6000"
     pagecolor="#ffffff"
     bordercolor="#666666"
     borderopacity="1.0"
     inkscape:pageshadow="2"
     inkscape:pageopacity="0.0"
     inkscape:pagecheckerboard="0"
     inkscape:document-units="mm"
     showgrid="false"
     inkscape:zoom="0.69664703"
     inkscape:cx="450.01269"
     inkscape:cy="92.586342"
     inkscape:window-width="1920"
     inkscape:window-height="1016"
     inkscape:window-x="0"
     inkscape:window-y="0"
     inkscape:window-maximized="1"
     inkscape:current-layer="layer1" />
  <defs
     id="defs5995" />
  <g
     inkscape:label="Layer 1"
     inkscape:groupmode="layer"
     id="layer1"
     transform="translate(14.158076,-123.93749)">
    <path
       fill="#faff58"
       d="m 4.8721087,124.08103 -1.1979513,0.32139 -1.5540751,0.86802 0.8030844,1.3935 0.8073628,-0.37777 c 0.026194,0.25622 0.1389222,0.80309 0.1389222,0.80309 0.030456,1.55834 -0.095374,3.21662 -0.095374,3.21662 0.9548336,0.12584 1.9230261,0.13893 1.9230261,0.13893 0,0 0.9721982,-0.0132 1.9227588,-0.13893 0,0 -0.1258332,-1.65828 -0.095377,-3.21662 0,0 0.1172818,-0.54687 0.1431978,-0.80309 l 0.8030871,0.37777 0.8030871,-1.3935 -1.5497995,-0.86802 -1.2022269,-0.32139 c 0,0 -0.4731412,0.0652 -0.8247274,0.0652 -0.3518509,0 -0.824992,-0.0652 -0.8249951,-0.0652 z"
       fill-rule="evenodd"
       id="path4131"
       style="fill:none;fill-opacity:0;stroke:#000000;stroke-width:0.264583;stroke-opacity:1" />
    <path
       fill="#000000"
       d="m 3.7740747,130.30588 c 0,0 -0.5992416,1.73202 -0.746715,4.1629 -0.00429,0.0564 -0.00855,0.18222 -0.013097,0.23858 0,0 0.00881,0.004 0.021908,0.004 0.1779296,0.0259 1.5842668,0.23858 2.4004428,0.23858 h 0.043281 c 0,0 0.00429,-0.12584 0.017357,-0.22119 0.030456,-0.33877 0.1084686,-1.14612 0.1303761,-1.57147 0.017357,0.42535 0.095377,1.2327 0.1258332,1.57147 0.012832,0.0953 0.017357,0.22119 0.017357,0.22119 0.014684,0 0.029387,0 0.044349,0 0.8733499,0 2.4212815,-0.24339 2.4212815,-0.24339 -0.00455,-0.0564 -0.00881,-0.18219 -0.00881,-0.23858 -0.1520163,-2.43088 -0.7509906,-4.1629 -0.7509906,-4.1629 z"
       fill-rule="evenodd"
       id="path4135"
       style="fill:#000000;fill-opacity:0;stroke:#000000;stroke-width:0.264583;stroke-opacity:1" />
    <path
       fill="#faff58"
       d="m 20.968697,124.08103 -1.197949,0.32139 -1.554077,0.86802 0.803087,1.3935 0.80736,-0.37777 c 0.02619,0.25622 0.138925,0.80309 0.138925,0.80309 0.03046,1.55834 -0.09538,3.21662 -0.09538,3.21662 0.954833,0.12584 1.923026,0.13893 1.923026,0.13893 0,0 0.972201,-0.0132 1.922759,-0.13893 0,0 -0.125834,-1.65828 -0.09538,-3.21662 0,0 0.117284,-0.54687 0.143203,-0.80309 l 0.803084,0.37777 0.803087,-1.3935 -1.549802,-0.86802 -1.202224,-0.32139 c 0,0 -0.473144,0.0652 -0.824728,0.0652 -0.351851,0 -0.824994,-0.0652 -0.824997,-0.0652 z"
       fill-rule="evenodd"
       id="path4147"
       style="fill:#7ad034;fill-opacity:1;stroke:#000000;stroke-width:0.264583;stroke-opacity:1" />
    <path
       fill="#000000"
       d="m 19.870666,130.30588 c 0,0 -0.599242,1.73202 -0.746715,4.1629 -0.0043,0.0564 -0.0085,0.18222 -0.0131,0.23858 0,0 0.0088,0.004 0.02191,0.004 0.17793,0.0259 1.584267,0.23858 2.400443,0.23858 h 0.04328 c 0,0 0.0043,-0.12584 0.01736,-0.22119 0.03046,-0.33877 0.108469,-1.14612 0.130376,-1.57147 0.01736,0.42535 0.09538,1.2327 0.125831,1.57147 0.01283,0.0953 0.01736,0.22119 0.01736,0.22119 0.01468,0 0.02939,0 0.04435,0 0.87335,0 2.421281,-0.24339 2.421281,-0.24339 -0.0045,-0.0564 -0.0088,-0.18219 -0.0088,-0.23858 -0.152014,-2.43088 -0.750991,-4.1629 -0.750991,-4.1629 z"
       fill-rule="evenodd"
       id="path4151"
       style="fill:#7ad034;fill-opacity:1;stroke:#000000;stroke-width:0.264583;stroke-opacity:1" />
    <path
       fill="#faff58"
       d="m -11.22448,124.08103 -1.19795,0.32139 -1.554077,0.86802 0.803087,1.3935 0.807361,-0.37777 c 0.02618,0.25622 0.138924,0.80309 0.138924,0.80309 0.03046,1.55834 -0.09538,3.21662 -0.09538,3.21662 0.954834,0.12584 1.923026,0.13893 1.923026,0.13893 0,0 0.9721998,-0.0132 1.9227593,-0.13893 0,0 -0.1258332,-1.65828 -0.095377,-3.21662 0,0 0.1172837,-0.54687 0.1431985,-0.80309 l 0.8030861,0.37777 0.8030872,-1.3935 -1.5498025,-0.86802 -1.2022248,-0.32139 c 0,0 -0.4731428,0.0652 -0.8247268,0.0652 -0.351851,0 -0.824994,-0.0652 -0.824994,-0.0652 z"
       fill-rule="evenodd"
       id="path566014"
       style="stroke:#000000;stroke-width:0.264583;stroke-opacity:1" />
    <path
       fill="#000000"
       d="m -12.322512,130.30588 c 0,0 -0.599242,1.73202 -0.746715,4.1629 -0.0043,0.0564 -0.0085,0.18222 -0.01309,0.23858 0,0 0.0088,0.004 0.02191,0.004 0.177929,0.0259 1.584265,0.23858 2.400442,0.23858 h 0.04328 c 0,0 0.0043,-0.12584 0.01736,-0.22119 0.03046,-0.33877 0.108467,-1.14612 0.130375,-1.57147 0.01736,0.42535 0.09538,1.2327 0.125832,1.57147 0.01282,0.0953 0.01736,0.22119 0.01736,0.22119 0.01469,0 0.02939,0 0.04435,0 0.8733496,0 2.4212812,-0.24339 2.4212812,-0.24339 -0.00454,-0.0564 -0.00882,-0.18219 -0.00882,-0.23858 -0.1520145,-2.43088 -0.7509904,-4.1629 -0.7509904,-4.1629 z"
       fill-rule="evenodd"
       id="path566016"
       style="stroke-width:0.264583" />
    <path
       stroke="#000000"
       stroke-width="0.281945"
       stroke-miterlimit="16.2479"
       stroke-linecap="butt"
       d="m 12.920403,124.08103 -1.197949,0.32139 -1.554078,0.86802 0.803088,1.3935 0.80736,-0.37777 c 0.02619,0.25622 0.138924,0.80309 0.138924,0.80309 0.03046,1.55834 -0.09538,3.21662 -0.09538,3.21662 0.954834,0.12584 1.923029,0.13893 1.923029,0.13893 0,0 0.972198,-0.0132 1.922759,-0.13893 0,0 -0.125836,-1.65828 -0.09538,-3.21662 0,0 0.117282,-0.54687 0.143198,-0.80309 l 0.803087,0.37777 0.803087,-1.3935 -1.549802,-0.86802 -1.202224,-0.32139 c 0,0 -0.473144,0.0652 -0.824728,0.0652 -0.351851,0 -0.824994,-0.0652 -0.824997,-0.0652 z"
       fill-rule="evenodd"
       id="path577566"
       style="fill:#94817b;fill-opacity:1;stroke:#000000;stroke-opacity:1" />
    <path
       fill="#000000"
       d="m 11.822371,130.30588 c 0,0 -0.599241,1.73202 -0.746715,4.1629 -0.0043,0.0564 -0.0085,0.18222 -0.0131,0.23858 0,0 0.0088,0.004 0.02191,0.004 0.17793,0.0259 1.584264,0.23858 2.400443,0.23858 h 0.04328 c 0,0 0.0043,-0.12584 0.01736,-0.22119 0.03046,-0.33877 0.108466,-1.14612 0.130374,-1.57147 0.01736,0.42535 0.09538,1.2327 0.125833,1.57147 0.01283,0.0953 0.01736,0.22119 0.01736,0.22119 0.01469,0 0.02939,0 0.04435,0 0.87335,0 2.421281,-0.24339 2.421281,-0.24339 -0.0046,-0.0564 -0.0088,-0.18219 -0.0088,-0.23858 -0.152014,-2.43088 -0.750991,-4.1629 -0.750991,-4.1629 z"
       fill-rule="evenodd"
       id="path577568"
       style="fill:#94817b;fill-opacity:1;stroke:#000000;stroke-width:0.264583;stroke-opacity:1" />
    <path
       fill="#faff58"
       d="m -3.1761841,124.08129 -1.1979513,0.32139 -1.5540763,0.86802 0.8030867,1.39351 0.8073617,-0.37777 c 0.026194,0.25622 0.1389221,0.80309 0.1389221,0.80309 0.030456,1.55834 -0.095377,3.21662 -0.095377,3.21662 0.9548363,0.12583 1.9230287,0.13893 1.9230287,0.13893 0,0 0.9721982,-0.013 1.92275882,-0.13893 0,0 -0.12583319,-1.65828 -0.095377,-3.21662 0,0 0.11728185,-0.54687 0.14319779,-0.80309 l 0.80308713,0.37777 0.80308586,-1.39351 -1.54980351,-0.86802 -1.20222429,-0.32139 c 0,0 -0.4731412,0.0652 -0.8247248,0.0652 -0.3518535,0 -0.8249946,-0.0652 -0.8249946,-0.0652 z"
       fill-rule="evenodd"
       id="path577570"
       style="fill:#584f86;fill-opacity:1;stroke:#000000;stroke-width:0.264583;stroke-opacity:1" />
    <path
       fill="#faff58"
       d="m -3.1761841,124.08129 -1.1979513,0.32139 -1.5540763,0.86802 0.8030867,1.39351 0.8073617,-0.37777 c 0.026194,0.25622 0.1389221,0.80309 0.1389221,0.80309 0.030456,1.55834 -0.095377,3.21662 -0.095377,3.21662 0.9548363,0.12583 1.9230287,0.13893 1.9230287,0.13893 0,0 0.9721982,-0.013 1.92275882,-0.13893 0,0 -0.12583319,-1.65828 -0.095377,-3.21662 0,0 0.11728185,-0.54687 0.14319779,-0.80309 l 0.80308713,0.37777 0.80308586,-1.39351 -1.54980351,-0.86802 -1.20222429,-0.32139 c 0,0 -0.4731412,0.0652 -0.8247248,0.0652 -0.3518535,0 -0.8249946,-0.0652 -0.8249946,-0.0652 z"
       fill-rule="evenodd"
       id="path577572"
       style="fill:#5255b5;fill-opacity:1;stroke:#000000;stroke-width:0.264583;stroke-opacity:1" />
    <path
       style="fill:#8f0537;fill-opacity:1;stroke:none;stroke-width:0.27096px;stroke-linecap:butt;stroke-linejoin:miter;stroke-opacity:1"
       d="m -4.1307055,124.21581 v 6.0969 h 0.7672916 v -6.17289 l -0.3629845,-0.0558 z"
       id="path577574" />
    <path
       style="fill:#8f0537;fill-opacity:1;stroke:none;stroke-width:0.27096px;stroke-linecap:butt;stroke-linejoin:miter;stroke-opacity:1"
       d="m -0.57844943,124.23457 v 6.0969 H -1.3457411 v -6.17289 l 0.36298453,-0.0558 z"
       id="path577576" />
    <rect
       style="fill:#8f0537;fill-opacity:1;stroke:none;stroke-width:0.648835;stroke-opacity:1"
       id="rect577578"
       width="0.83348179"
       height="6.1679711"
       x="-2.7108524"
       y="124.13046" />
    <path
       fill="#000000"
       d="m -4.2742182,130.30615 c 0,0 -0.5992413,1.73201 -0.7467142,4.1629 -0.00428,0.0564 -0.00855,0.18222 -0.013092,0.23857 0,0 0.00882,0.005 0.021907,0.005 0.1779291,0.0259 1.584266,0.23857 2.4004421,0.23857 h 0.043281 c 0,0 0.00429,-0.12583 0.017357,-0.22119 0.030456,-0.33877 0.1084686,-1.14612 0.1303761,-1.57144 0.017357,0.42532 0.095377,1.23267 0.1258331,1.57144 0.012832,0.0954 0.017357,0.22119 0.017357,0.22119 0.014684,0 0.029387,0 0.044347,0 0.8733499,0 2.42128145,-0.24339 2.42128145,-0.24339 -0.004551,-0.0564 -0.008811,-0.18219 -0.008811,-0.23857 -0.15201371,-2.43089 -0.75098803,-4.1629 -0.75098803,-4.1629 z"
       fill-rule="evenodd"
       id="path577580"
       style="fill:#5255b5;fill-opacity:1;stroke:#000000;stroke-width:0.264583;stroke-opacity:1" />
    <path
       fill="#faff58"
       d="m -3.1761841,124.08129 -1.1979513,0.32139 -1.5540763,0.86802 0.8030867,1.39351 0.8073617,-0.37777 c 0.026194,0.25622 0.1389221,0.80309 0.1389221,0.80309 0.030456,1.55834 -0.095377,3.21662 -0.095377,3.21662 0.9548363,0.12583 1.9230287,0.13893 1.9230287,0.13893 0,0 0.9721982,-0.013 1.92275882,-0.13893 0,0 -0.12583319,-1.65828 -0.095377,-3.21662 0,0 0.11728185,-0.54687 0.14319779,-0.80309 l 0.80308713,0.37777 0.80308586,-1.39351 -1.54980351,-0.86802 -1.20222429,-0.32139 c 0,0 -0.4731412,0.0652 -0.8247248,0.0652 -0.3518535,0 -0.8249946,-0.0652 -0.8249946,-0.0652 z"
       fill-rule="evenodd"
       id="path577582"
       style="fill:none;fill-opacity:1;stroke:#000000;stroke-width:0.264583;stroke-opacity:1" />
    <path
       style="fill:#2532a8;fill-opacity:1;stroke:none;stroke-width:0.398624px;stroke-linecap:butt;stroke-linejoin:miter;stroke-opacity:1"
       d="M 6.7985055,130.3022 V 124.252 L 6.0047556,124.14852 V 130.298 Z"
       id="path584382" />
    <path
       style="fill:#2532a8;fill-opacity:1;stroke:none;stroke-width:0.398627px;stroke-linecap:butt;stroke-linejoin:miter;stroke-opacity:1"
       d="m 4.612616,130.3022 v -6.0502 l 0.79375,-0.10348 v 6.14948 z"
       id="path584384" />
    <path
       style="fill:#2532a8;fill-opacity:1;stroke:none;stroke-width:0.2632px;stroke-linecap:butt;stroke-linejoin:miter;stroke-opacity:1"
       d="m 7.7034149,126.47686 v -2.0229 l -0.3850296,-0.10345 v 5.95537 H 7.6198622 L 7.5071629,128.349 7.568406,126.93136 Z"
       id="path584386" />
    <path
       style="fill:#2532a8;fill-opacity:1;stroke:none;stroke-width:0.263251px;stroke-linecap:butt;stroke-linejoin:miter;stroke-opacity:1"
       d="m 3.7845363,126.47768 v -2.02369 l 0.3850296,-0.10348 v 5.9577 H 3.8680891 l 0.1126992,-1.95765 -0.061246,-1.4182 z"
       id="path584388" />
    <path
       style="fill:#2532a8;fill-opacity:1;stroke:none;stroke-width:0.340289px;stroke-linecap:butt;stroke-linejoin:miter;stroke-opacity:1"
       d="m 3.6741574,124.61266 1.1979513,-0.53163 0.5424117,0.0818 h 0.5291667 l 0.578141,-0.0818 1.202227,0.53163 z"
       id="path584718" />
  </g>
</svg>
