<?xml version="1.0" encoding="UTF-8"?>
<!-- Created with Inkscape (http://www.inkscape.org/) -->
<svg id="svg5998" width="39.71mm" height="11.146mm" version="1.1" viewBox="0 0 39.71 11.146" xmlns="http://www.w3.org/2000/svg">
 <g id="layer1" transform="translate(14.158 -123.94)">
  <path id="path4131" d="m4.8721 124.08-1.198 0.32139-1.5541 0.86802 0.80308 1.3935 0.80736-0.37777c0.026194 0.25622 0.13892 0.80309 0.13892 0.80309 0.030456 1.5583-0.095374 3.2166-0.095374 3.2166 0.95483 0.12584 1.923 0.13893 1.923 0.13893s0.9722-0.0132 1.9228-0.13893c0 0-0.12583-1.6583-0.095377-3.2166 0 0 0.11728-0.54687 0.1432-0.80309l0.80309 0.37777 0.80309-1.3935-1.5498-0.86802-1.2022-0.32139s-0.47314 0.0652-0.82473 0.0652c-0.35185 0-0.82499-0.0652-0.825-0.0652z" fill="none" fill-rule="evenodd" stroke="#000" stroke-width=".26458"/>
  <path id="path4135" d="m3.7741 130.31s-0.59924 1.732-0.74672 4.1629c-0.00429 0.0564-0.00855 0.18222-0.013097 0.23858 0 0 0.00881 4e-3 0.021908 4e-3 0.17793 0.0259 1.5843 0.23858 2.4004 0.23858h0.043281s0.00429-0.12584 0.017357-0.22119c0.030456-0.33877 0.10847-1.1461 0.13038-1.5715 0.017357 0.42535 0.095377 1.2327 0.12583 1.5715 0.012832 0.0953 0.017357 0.22119 0.017357 0.22119h0.044349c0.87335 0 2.4213-0.24339 2.4213-0.24339-0.00455-0.0564-0.00881-0.18219-0.00881-0.23858-0.15202-2.4309-0.75099-4.1629-0.75099-4.1629z" fill-opacity="0" fill-rule="evenodd" stroke="#000" stroke-width=".26458"/>
  <path id="path4147" d="m20.969 124.08-1.1979 0.32139-1.5541 0.86802 0.80309 1.3935 0.80736-0.37777c0.02619 0.25622 0.13892 0.80309 0.13892 0.80309 0.03046 1.5583-0.09538 3.2166-0.09538 3.2166 0.95483 0.12584 1.923 0.13893 1.923 0.13893s0.9722-0.0132 1.9228-0.13893c0 0-0.12583-1.6583-0.09538-3.2166 0 0 0.11728-0.54687 0.1432-0.80309l0.80308 0.37777 0.80309-1.3935-1.5498-0.86802-1.2022-0.32139s-0.47314 0.0652-0.82473 0.0652c-0.35185 0-0.82499-0.0652-0.825-0.0652z" fill="#7ad034" fill-rule="evenodd" stroke="#000" stroke-width=".26458"/>
  <path id="path4151" d="m19.871 130.31s-0.59924 1.732-0.74672 4.1629c-0.0043 0.0564-0.0085 0.18222-0.0131 0.23858 0 0 0.0088 4e-3 0.02191 4e-3 0.17793 0.0259 1.5843 0.23858 2.4004 0.23858h0.04328s0.0043-0.12584 0.01736-0.22119c0.03046-0.33877 0.10847-1.1461 0.13038-1.5715 0.01736 0.42535 0.09538 1.2327 0.12583 1.5715 0.01283 0.0953 0.01736 0.22119 0.01736 0.22119h0.04435c0.87335 0 2.4213-0.24339 2.4213-0.24339-0.0045-0.0564-0.0088-0.18219-0.0088-0.23858-0.15201-2.4309-0.75099-4.1629-0.75099-4.1629z" fill="#7ad034" fill-rule="evenodd" stroke="#000" stroke-width=".26458"/>
  <path id="path566014" d="m-11.224 124.08-1.198 0.32139-1.5541 0.86802 0.80309 1.3935 0.80736-0.37777c0.02618 0.25622 0.13892 0.80309 0.13892 0.80309 0.03046 1.5583-0.09538 3.2166-0.09538 3.2166 0.95483 0.12584 1.923 0.13893 1.923 0.13893s0.9722-0.0132 1.9228-0.13893c0 0-0.12583-1.6583-0.095377-3.2166 0 0 0.11728-0.54687 0.1432-0.80309l0.80309 0.37777 0.80309-1.3935-1.5498-0.86802-1.2022-0.32139s-0.47314 0.0652-0.82473 0.0652c-0.35185 0-0.82499-0.0652-0.82499-0.0652z" fill="#faff58" fill-rule="evenodd" stroke="#000" stroke-width=".26458"/>
  <path id="path566016" d="m-12.323 130.31s-0.59924 1.732-0.74672 4.1629c-0.0043 0.0564-0.0085 0.18222-0.01309 0.23858 0 0 0.0088 4e-3 0.02191 4e-3 0.17793 0.0259 1.5843 0.23858 2.4004 0.23858h0.04328s0.0043-0.12584 0.01736-0.22119c0.03046-0.33877 0.10847-1.1461 0.13038-1.5715 0.01736 0.42535 0.09538 1.2327 0.12583 1.5715 0.01282 0.0953 0.01736 0.22119 0.01736 0.22119h0.04435c0.87335 0 2.4213-0.24339 2.4213-0.24339-0.00454-0.0564-0.00882-0.18219-0.00882-0.23858-0.15201-2.4309-0.75099-4.1629-0.75099-4.1629z" fill-rule="evenodd" stroke-width=".26458"/>
  <path id="path577566" d="m12.92 124.08-1.1979 0.32139-1.5541 0.86802 0.80309 1.3935 0.80736-0.37777c0.02619 0.25622 0.13892 0.80309 0.13892 0.80309 0.03046 1.5583-0.09538 3.2166-0.09538 3.2166 0.95483 0.12584 1.923 0.13893 1.923 0.13893s0.9722-0.0132 1.9228-0.13893c0 0-0.12584-1.6583-0.09538-3.2166 0 0 0.11728-0.54687 0.1432-0.80309l0.80309 0.37777 0.80309-1.3935-1.5498-0.86802-1.2022-0.32139s-0.47314 0.0652-0.82473 0.0652c-0.35185 0-0.82499-0.0652-0.825-0.0652z" fill="#94817b" fill-rule="evenodd" stroke="#000" stroke-miterlimit="16.248" stroke-width=".28194"/>
  <path id="path577568" d="m11.822 130.31s-0.59924 1.732-0.74672 4.1629c-0.0043 0.0564-0.0085 0.18222-0.0131 0.23858 0 0 0.0088 4e-3 0.02191 4e-3 0.17793 0.0259 1.5843 0.23858 2.4004 0.23858h0.04328s0.0043-0.12584 0.01736-0.22119c0.03046-0.33877 0.10847-1.1461 0.13037-1.5715 0.01736 0.42535 0.09538 1.2327 0.12583 1.5715 0.01283 0.0953 0.01736 0.22119 0.01736 0.22119h0.04435c0.87335 0 2.4213-0.24339 2.4213-0.24339-0.0046-0.0564-0.0088-0.18219-0.0088-0.23858-0.15201-2.4309-0.75099-4.1629-0.75099-4.1629z" fill="#94817b" fill-rule="evenodd" stroke="#000" stroke-width=".26458"/>
  <path id="path577570" d="m-3.1762 124.08-1.198 0.32139-1.5541 0.86802 0.80309 1.3935 0.80736-0.37777c0.026194 0.25622 0.13892 0.80309 0.13892 0.80309 0.030456 1.5583-0.095377 3.2166-0.095377 3.2166 0.95484 0.12583 1.923 0.13893 1.923 0.13893s0.9722-0.013 1.9228-0.13893c0 0-0.12583-1.6583-0.095377-3.2166 0 0 0.11728-0.54687 0.1432-0.80309l0.80309 0.37777 0.80309-1.3935-1.5498-0.86802-1.2022-0.32139s-0.47314 0.0652-0.82472 0.0652c-0.35185 0-0.82499-0.0652-0.82499-0.0652z" fill="#584f86" fill-rule="evenodd" stroke="#000" stroke-width=".26458"/>
  <path id="path577572" d="m-3.1762 124.08-1.198 0.32139-1.5541 0.86802 0.80309 1.3935 0.80736-0.37777c0.026194 0.25622 0.13892 0.80309 0.13892 0.80309 0.030456 1.5583-0.095377 3.2166-0.095377 3.2166 0.95484 0.12583 1.923 0.13893 1.923 0.13893s0.9722-0.013 1.9228-0.13893c0 0-0.12583-1.6583-0.095377-3.2166 0 0 0.11728-0.54687 0.1432-0.80309l0.80309 0.37777 0.80309-1.3935-1.5498-0.86802-1.2022-0.32139s-0.47314 0.0652-0.82472 0.0652c-0.35185 0-0.82499-0.0652-0.82499-0.0652z" fill="#5255b5" fill-rule="evenodd" stroke="#000" stroke-width=".26458"/>
  <path id="path577574" d="m-4.1307 124.22v6.0969h0.76729v-6.1729l-0.36298-0.0558z" fill="#8f0537"/>
  <path id="path577576" d="m-0.57845 124.23v6.0969h-0.76729v-6.1729l0.36298-0.0558z" fill="#8f0537"/>
  <rect id="rect577578" x="-2.7109" y="124.13" width=".83348" height="6.168" fill="#8f0537"/>
  <path id="path577580" d="m-4.2742 130.31s-0.59924 1.732-0.74671 4.1629c-0.00428 0.0564-0.00855 0.18222-0.013092 0.23857 0 0 0.00882 5e-3 0.021907 5e-3 0.17793 0.0259 1.5843 0.23857 2.4004 0.23857h0.043281s0.00429-0.12583 0.017357-0.22119c0.030456-0.33877 0.10847-1.1461 0.13038-1.5714 0.017357 0.42532 0.095377 1.2327 0.12583 1.5714 0.012832 0.0954 0.017357 0.22119 0.017357 0.22119h0.044347c0.87335 0 2.4213-0.24339 2.4213-0.24339-0.004551-0.0564-0.008811-0.18219-0.008811-0.23857-0.15201-2.4309-0.75099-4.1629-0.75099-4.1629z" fill="#5255b5" fill-rule="evenodd" stroke="#000" stroke-width=".26458"/>
  <path id="path577582" d="m-3.1762 124.08-1.198 0.32139-1.5541 0.86802 0.80309 1.3935 0.80736-0.37777c0.026194 0.25622 0.13892 0.80309 0.13892 0.80309 0.030456 1.5583-0.095377 3.2166-0.095377 3.2166 0.95484 0.12583 1.923 0.13893 1.923 0.13893s0.9722-0.013 1.9228-0.13893c0 0-0.12583-1.6583-0.095377-3.2166 0 0 0.11728-0.54687 0.1432-0.80309l0.80309 0.37777 0.80309-1.3935-1.5498-0.86802-1.2022-0.32139s-0.47314 0.0652-0.82472 0.0652c-0.35185 0-0.82499-0.0652-0.82499-0.0652z" fill="none" fill-rule="evenodd" stroke="#000" stroke-width=".26458"/>
  <path id="path584382" d="m6.7985 130.3v-6.0502l-0.79375-0.10348v6.1495z" fill="#2532a8"/>
  <path id="path584384" d="m4.6126 130.3v-6.0502l0.79375-0.10348v6.1495z" fill="#2532a8"/>
  <path id="path584386" d="m7.7034 126.48v-2.0229l-0.38503-0.10345v5.9554h0.30148l-0.1127-1.9569 0.061243-1.4176z" fill="#2532a8"/>
  <path id="path584388" d="m3.7845 126.48v-2.0237l0.38503-0.10348v5.9577h-0.30148l0.1127-1.9576-0.061246-1.4182z" fill="#2532a8"/>
  <path id="path584718" d="m3.6742 124.61 1.198-0.53163 0.54241 0.0818h0.52917l0.57814-0.0818 1.2022 0.53163z" fill="#2532a8"/>
 </g>
</svg>
