<?xml version="1.0" encoding="UTF-8"?>
<!-- Created with Inkscape (http://www.inkscape.org/) -->
<svg id="svg6313" width="39.71mm" height="11.137mm" version="1.1" viewBox="0 0 39.71 11.137" xmlns="http://www.w3.org/2000/svg">
 <g id="layer1" transform="translate(-85.158 -142.74)">
  <path id="path4157" d="m88.092 142.88-1.198 0.32139-1.5541 0.86802 0.80309 1.3935 0.80736-0.37777c0.02618 0.25623 0.13892 0.80309 0.13892 0.80309 0.03046 1.5584-0.09538 3.2166-0.09538 3.2166 0.95483 0.12584 1.923 0.13893 1.923 0.13893s0.9722-0.0132 1.9228-0.13893c0 0-0.12583-1.6583-0.09538-3.2166 0 0 0.11728-0.54686 0.1432-0.80309l0.80309 0.37777 0.80309-1.3935-1.5498-0.86802-1.2022-0.32139s-0.47314 0.0652-0.82473 0.0652c-0.35185 0-0.82499-0.0652-0.82499-0.0652z" fill="#ba0f45" fill-rule="evenodd" stroke="#000" stroke-width=".26458"/>
  <path id="path4161" d="m86.994 149.1s-0.59924 1.732-0.74672 4.1629c-0.0043 0.0564-0.0085 0.18222-0.01309 0.23858 0 0 0.0088 5e-3 0.02191 5e-3 0.17793 0.0259 1.5843 0.23857 2.4004 0.23857h0.04328s0.0043-0.12584 0.01736-0.22119c0.03046-0.33877 0.10847-1.1461 0.13038-1.5714 0.01736 0.42532 0.09538 1.2327 0.12583 1.5714 0.01282 0.0953 0.01736 0.22119 0.01736 0.22119h0.04435c0.87335 0 2.4213-0.24339 2.4213-0.24339-0.0045-0.0564-0.0088-0.18219-0.0088-0.23858-0.15201-2.4309-0.75099-4.1629-0.75099-4.1629z" fill-rule="evenodd" stroke-width=".26458"/>
  <path id="path4165" d="m96.14 142.88-1.198 0.32139-1.5541 0.86802 0.80309 1.3935 0.80736-0.37777c0.02619 0.25623 0.13892 0.80309 0.13892 0.80309 0.03046 1.5584-0.09538 3.2166-0.09538 3.2166 0.95484 0.12584 1.923 0.13893 1.923 0.13893s0.9722-0.0132 1.9228-0.13893c0 0-0.12583-1.6583-0.09538-3.2166 0 0 0.11728-0.54686 0.1432-0.80309l0.80309 0.37777 0.80308-1.3935-1.5498-0.86802-1.2022-0.32139s-0.47314 0.0652-0.82472 0.0652c-0.35185 0-0.825-0.0652-0.825-0.0652z" fill="#faff58" fill-opacity="0" fill-rule="evenodd" stroke="#000" stroke-width=".26458"/>
  <path id="path4169" d="m95.042 149.1s-0.59924 1.732-0.74671 4.1629c-0.0043 0.0564-0.0085 0.18222-0.01309 0.23858 0 0 0.0088 5e-3 0.02191 5e-3 0.17793 0.0259 1.5843 0.23857 2.4004 0.23857h0.04328s0.0043-0.12584 0.01736-0.22119c0.03046-0.33877 0.10847-1.1461 0.13038-1.5714 0.01736 0.42532 0.09538 1.2327 0.12583 1.5714 0.01283 0.0953 0.01736 0.22119 0.01736 0.22119h0.04435c0.87335 0 2.4213-0.24339 2.4213-0.24339-0.0046-0.0564-0.0088-0.18219-0.0088-0.23858-0.15201-2.4309-0.75099-4.1629-0.75099-4.1629z" fill-opacity="0" fill-rule="evenodd" stroke="#000" stroke-width=".26458"/>
  <path id="path4177" d="m103.09 149.1s-0.59924 1.732-0.74671 4.1629c-4e-3 0.0564-9e-3 0.18222-0.0131 0.23858 0 0 9e-3 5e-3 0.0219 5e-3 0.17793 0.0259 1.5843 0.23857 2.4004 0.23857h0.0433s4e-3 -0.12584 0.0174-0.22119c0.0305-0.33877 0.10846-1.1461 0.13037-1.5714 0.0174 0.42532 0.0954 1.2327 0.12584 1.5714 0.0128 0.0953 0.0174 0.22119 0.0174 0.22119h0.0443c0.87335 0 2.4213-0.24339 2.4213-0.24339-5e-3 -0.0564-9e-3 -0.18219-9e-3 -0.23858-0.15201-2.4309-0.75099-4.1629-0.75099-4.1629z" fill-rule="evenodd" stroke-width=".26458"/>
  <path id="path4181" d="m112.24 142.88-1.198 0.32139-1.5541 0.86802 0.80309 1.3935 0.80736-0.37777c0.0262 0.25623 0.13892 0.80309 0.13892 0.80309 0.0305 1.5584-0.0954 3.2166-0.0954 3.2166 0.95483 0.12584 1.923 0.13893 1.923 0.13893s0.97219-0.0132 1.9228-0.13893c0 0-0.12583-1.6583-0.0954-3.2166 0 0 0.11728-0.54686 0.1432-0.80309l0.80308 0.37777 0.80309-1.3935-1.5498-0.86802-1.2022-0.32139s-0.47314 0.0652-0.82472 0.0652c-0.35185 0-0.825-0.0652-0.825-0.0652z" fill-rule="evenodd" stroke-width=".26458"/>
  <path id="path4185" d="m111.14 149.1s-0.59924 1.732-0.74672 4.1629c-4e-3 0.0564-9e-3 0.18222-0.0131 0.23858 0 0 9e-3 5e-3 0.0219 5e-3 0.17793 0.0259 1.5843 0.23857 2.4004 0.23857h0.0433s4e-3 -0.12584 0.0173-0.22119c0.0305-0.33877 0.10847-1.1461 0.13038-1.5714 0.0174 0.42532 0.0954 1.2327 0.12583 1.5714 0.0128 0.0953 0.0174 0.22119 0.0174 0.22119h0.0443c0.87335 0 2.4213-0.24339 2.4213-0.24339-5e-3 -0.0564-9e-3 -0.18219-9e-3 -0.23858-0.15202-2.4309-0.75099-4.1629-0.75099-4.1629z" fill-rule="evenodd" stroke-width=".26458"/>
  <path id="path4189" d="m120.29 142.88-1.198 0.32139-1.5541 0.86802 0.80308 1.3935 0.80736-0.37777c0.0262 0.25623 0.13893 0.80309 0.13893 0.80309 0.0305 1.5584-0.0954 3.2166-0.0954 3.2166 0.95484 0.12584 1.923 0.13893 1.923 0.13893s0.9722-0.0132 1.9228-0.13893c0 0-0.12584-1.6583-0.0954-3.2166 0 0 0.11728-0.54686 0.1432-0.80309l0.80309 0.37777 0.80308-1.3935-1.5498-0.86802-1.2022-0.32139s-0.47315 0.0652-0.82473 0.0652c-0.35185 0-0.82499-0.0652-0.825-0.0652z" fill="#1e0da7" fill-rule="evenodd" stroke="#000" stroke-width=".26458"/>
  <path id="path4193" d="m119.19 149.1s-0.59924 1.732-0.74671 4.1629c-4e-3 0.0564-9e-3 0.18222-0.0131 0.23858 0 0 9e-3 5e-3 0.0219 5e-3 0.17793 0.0259 1.5843 0.23857 2.4004 0.23857h0.0433s4e-3 -0.12584 0.0174-0.22119c0.0305-0.33877 0.10847-1.1461 0.13037-1.5714 0.0174 0.42532 0.0954 1.2327 0.12583 1.5714 0.0128 0.0953 0.0174 0.22119 0.0174 0.22119h0.0444c0.87335 0 2.4213-0.24339 2.4213-0.24339-5e-3 -0.0564-9e-3 -0.18219-9e-3 -0.23858-0.15201-2.4309-0.75099-4.1629-0.75099-4.1629z" fill="#1e0da7" fill-rule="evenodd" stroke="#000" stroke-width=".26458"/>
  <path id="path607856" d="m104.66 142.96 0.52917-0.0206v6.1673l-0.52807-3e-3z" fill="#377d7b"/>
  <path id="path607858" d="m106.27 149.1v-6.0502l-0.52917-0.10347v6.1495z" fill="#377d7b"/>
  <path id="path607860" d="m103.56 149.1v-6.0502l0.52917-0.10347v6.1495z" fill="#377d7b"/>
  <path id="path607862" d="m106.93 145.27v-2.0229l-0.38503-0.10345v5.9554h0.30147l-0.11269-1.9569 0.0612-1.4176z" fill="#37827e"/>
  <path id="path607864" d="m103.01 145.27v-2.0237l0.38503-0.10348v5.9577h-0.30148l0.1127-1.9576-0.0612-1.4182z" fill="#37827e"/>
  <path id="path4173" d="m104.19 142.88-1.198 0.32139-1.5541 0.86802 0.80308 1.3935 0.80737-0.37777c0.0262 0.25623 0.13892 0.80309 0.13892 0.80309 0.0304 1.5584-0.0954 3.2166-0.0954 3.2166 0.95484 0.12584 1.923 0.13893 1.923 0.13893s0.9722-0.0132 1.9228-0.13893c0 0-0.12584-1.6583-0.0954-3.2166 0 0 0.11728-0.54686 0.1432-0.80309l0.80309 0.37777 0.80308-1.3935-1.5498-0.86802-1.2022-0.32139s-0.47314 0.0652-0.82473 0.0652c-0.35185 0-0.82499-0.0652-0.825-0.0652z" fill="none" fill-rule="evenodd" stroke="#000" stroke-width=".26458"/>
 </g>
</svg>
