<?xml version="1.0" encoding="UTF-8"?>
<!-- Created with Inkscape (http://www.inkscape.org/) -->
<svg id="svg6869" width="39.722mm" height="11.146mm" version="1.1" viewBox="0 0 39.722 11.146" xmlns="http://www.w3.org/2000/svg">
 <g id="layer1" transform="translate(130.76 -204.45)" fill-rule="evenodd">
  <path id="path4283" d="m-127.83 204.6-1.198 0.32139-1.5541 0.86802 0.80309 1.3935 0.80736-0.37777c0.0262 0.25622 0.13892 0.80309 0.13892 0.80309 0.0305 1.5583-0.0954 3.2166-0.0954 3.2166 0.95483 0.12583 1.923 0.13893 1.923 0.13893s0.9722-0.0132 1.9228-0.13893c0 0-0.12583-1.6583-0.0954-3.2166 0 0 0.11728-0.54687 0.14319-0.80309l0.80309 0.37777 0.80309-1.3935-1.5498-0.86802-1.2022-0.32139s-0.47314 0.0652-0.82473 0.0652c-0.35185 0-0.82499-0.0652-0.82499-0.0652z" fill="#ba0f45" stroke="#000" stroke-width=".26458"/>
  <path id="path4287" d="m-128.93 210.82s-0.59925 1.732-0.74672 4.1629c-4e-3 0.0564-9e-3 0.18222-0.0131 0.23857 0 0 9e-3 5e-3 0.0219 5e-3 0.17793 0.0259 1.5843 0.23858 2.4004 0.23858h0.0433s4e-3 -0.12584 0.0174-0.2212c0.0305-0.33877 0.10846-1.1461 0.13037-1.5714 0.0174 0.42532 0.0954 1.2327 0.12583 1.5714 0.0128 0.0954 0.0174 0.2212 0.0174 0.2212h0.0443c0.87335 0 2.4213-0.24339 2.4213-0.24339-5e-3 -0.0564-9e-3 -0.1822-9e-3 -0.23858-0.15201-2.4309-0.75099-4.1629-0.75099-4.1629z" stroke-width=".26458"/>
  <path id="path4291" d="m-119.78 204.6-1.198 0.32139-1.5541 0.86802 0.80308 1.3935 0.80737-0.37777c0.0262 0.25622 0.13892 0.80309 0.13892 0.80309 0.0305 1.5583-0.0954 3.2166-0.0954 3.2166 0.95484 0.12583 1.923 0.13893 1.923 0.13893s0.9722-0.0132 1.9228-0.13893c0 0-0.12583-1.6583-0.0954-3.2166 0 0 0.11728-0.54687 0.1432-0.80309l0.80309 0.37777 0.80308-1.3935-1.5498-0.86802-1.2022-0.32139s-0.47314 0.0652-0.82472 0.0652c-0.35185 0-0.825-0.0652-0.825-0.0652z" fill="#faff58" fill-opacity="0" stroke="#000" stroke-width=".26458"/>
  <path id="path4295" d="m-120.88 210.82s-0.59924 1.732-0.74671 4.1629c-4e-3 0.0564-9e-3 0.18222-0.0131 0.23857 0 0 9e-3 5e-3 0.0219 5e-3 0.17793 0.0259 1.5843 0.23858 2.4004 0.23858h0.0433s4e-3 -0.12584 0.0174-0.2212c0.0305-0.33877 0.10847-1.1461 0.13038-1.5714 0.0173 0.42532 0.0954 1.2327 0.12583 1.5714 0.0128 0.0954 0.0174 0.2212 0.0174 0.2212h0.0443c0.87335 0 2.4213-0.24339 2.4213-0.24339-5e-3 -0.0564-9e-3 -0.1822-9e-3 -0.23858-0.15202-2.4309-0.75099-4.1629-0.75099-4.1629z" fill-opacity="0" stroke="#000" stroke-width=".26458"/>
  <path id="path4299" d="m-111.73 204.6-1.198 0.32139-1.5541 0.86802 0.80309 1.3935 0.80736-0.37777c0.0262 0.25622 0.13892 0.80309 0.13892 0.80309 0.0305 1.5583-0.0954 3.2166-0.0954 3.2166 0.95483 0.12583 1.923 0.13893 1.923 0.13893s0.9722-0.0132 1.9228-0.13893c0 0-0.12583-1.6583-0.0954-3.2166 0 0 0.11729-0.54687 0.1432-0.80309l0.80309 0.37777 0.80309-1.3935-1.5498-0.86802-1.2022-0.32139s-0.47314 0.0652-0.82473 0.0652c-0.35185 0-0.82499-0.0652-0.82499-0.0652z" fill="#2e50ad" stroke="#000" stroke-width=".26458"/>
  <path id="path4303" d="m-112.83 210.82s-0.59924 1.732-0.74671 4.1629c-4e-3 0.0564-9e-3 0.18222-0.0131 0.23857 0 0 9e-3 5e-3 0.0219 5e-3 0.17793 0.0259 1.5843 0.23858 2.4004 0.23858h0.0433s4e-3 -0.12584 0.0174-0.2212c0.0305-0.33877 0.10847-1.1461 0.13038-1.5714 0.0173 0.42532 0.0954 1.2327 0.12583 1.5714 0.0128 0.0954 0.0174 0.2212 0.0174 0.2212h0.0443c0.87335 0 2.4213-0.24339 2.4213-0.24339-5e-3 -0.0564-9e-3 -0.1822-9e-3 -0.23858-0.15202-2.4309-0.751-4.1629-0.751-4.1629z" fill="#2e50ad" stroke="#000" stroke-width=".26458"/>
  <path id="path4307" d="m-103.68 204.6-1.198 0.32139-1.5541 0.86802 0.80308 1.3935 0.80736-0.37777c0.0262 0.25622 0.13893 0.80309 0.13893 0.80309 0.0305 1.5583-0.0954 3.2166-0.0954 3.2166 0.95483 0.12583 1.923 0.13893 1.923 0.13893s0.9722-0.0132 1.9228-0.13893c0 0-0.12584-1.6583-0.0954-3.2166 0 0 0.11728-0.54687 0.1432-0.80309l0.80309 0.37777 0.80308-1.3935-1.5498-0.86802-1.2022-0.32139s-0.47315 0.0652-0.82473 0.0652c-0.35185 0-0.825-0.0652-0.825-0.0652z" stroke="#000" stroke-width=".26458"/>
  <path id="path4311" d="m-104.78 210.82s-0.59924 1.732-0.74671 4.1629c-4e-3 0.0564-9e-3 0.18222-0.0131 0.23857 0 0 9e-3 5e-3 0.0219 5e-3 0.17793 0.0259 1.5843 0.23858 2.4004 0.23858h0.0433s4e-3 -0.12584 0.0174-0.2212c0.0305-0.33877 0.10846-1.1461 0.13037-1.5714 0.0174 0.42532 0.0954 1.2327 0.12583 1.5714 0.0128 0.0954 0.0174 0.2212 0.0174 0.2212h0.0443c0.87335 0 2.4213-0.24339 2.4213-0.24339-5e-3 -0.0564-9e-3 -0.1822-9e-3 -0.23858-0.15201-2.4309-0.75099-4.1629-0.75099-4.1629z" stroke-width=".26458"/>
  <path id="path4317" d="m-95.634 204.6-1.1979 0.32139-1.5541 0.86802 0.80309 1.3935 0.80736-0.37777c0.02619 0.25622 0.13892 0.80309 0.13892 0.80309 0.03046 1.5583-0.09538 3.2166-0.09538 3.2166 0.95483 0.12583 1.923 0.13893 1.923 0.13893s0.9722-0.0132 1.9228-0.13893c0 0-0.12583-1.6583-0.09538-3.2166 0 0 0.11728-0.54687 0.1432-0.80309l0.80308 0.37777 0.80309-1.3935-1.5498-0.86802-1.2022-0.32139s-0.47314 0.0652-0.82473 0.0652c-0.35185 0-0.82499-0.0652-0.825-0.0652z" fill="#fffe61" stroke="#000" stroke-miterlimit="16.248" stroke-width=".28194"/>
  <path id="path4319" d="m-96.732 210.82s-0.59924 1.732-0.74672 4.1629c-0.0043 0.0564-0.0085 0.18222-0.0131 0.23857 0 0 0.0088 5e-3 0.02191 5e-3 0.17793 0.0259 1.5843 0.23858 2.4004 0.23858h0.04328s0.0043-0.12584 0.01736-0.2212c0.03046-0.33877 0.10847-1.1461 0.13038-1.5714 0.01736 0.42532 0.09538 1.2327 0.12583 1.5714 0.01283 0.0954 0.01736 0.2212 0.01736 0.2212h0.04435c0.87335 0 2.4213-0.24339 2.4213-0.24339-0.0045-0.0564-0.0088-0.1822-0.0088-0.23858-0.15201-2.4309-0.75099-4.1629-0.75099-4.1629z" fill="#fffe61" stroke="#000" stroke-width=".26458"/>
 </g>
</svg>
