<?xml version="1.0" encoding="UTF-8"?>
<!-- Created with Inkscape (http://www.inkscape.org/) -->
<svg id="svg7134" width="39.71mm" height="11.136mm" version="1.1" viewBox="0 0 39.71 11.136" xmlns="http://www.w3.org/2000/svg">
 <g id="layer1" transform="translate(-28.379 -56.338)">
  <path id="path4493" d="m31.313 56.473-1.198 0.32139-1.5541 0.86802 0.80309 1.3935 0.80736-0.37777c0.02618 0.25622 0.13892 0.80309 0.13892 0.80309 0.03046 1.5583-0.09538 3.2166-0.09538 3.2166 0.95483 0.12584 1.923 0.13893 1.923 0.13893s0.9722-0.01296 1.9228-0.13893c0 0-0.12583-1.6583-0.09538-3.2166 0 0 0.11728-0.54687 0.1432-0.80309l0.80309 0.37777 0.80309-1.3935-1.5498-0.86802-1.2022-0.32139s-0.47314 0.06519-0.82473 0.06519c-0.35185 0-0.82499-0.06519-0.82499-0.06519z" fill="#ba0f45" fill-rule="evenodd" stroke="#000" stroke-width=".26458"/>
  <path id="path4497" d="m30.215 62.698s-0.59924 1.732-0.74672 4.1629c-0.0043 0.05638-0.0085 0.18222-0.01309 0.23858 0 0 0.0088 0.0045 0.02191 0.0045 0.17793 0.02593 1.5843 0.23858 2.4004 0.23858h0.04328s0.0043-0.12584 0.01736-0.22119c0.03046-0.33877 0.10847-1.1461 0.13038-1.5715 0.01736 0.42534 0.09538 1.2327 0.12583 1.5715 0.01282 0.09536 0.01737 0.22119 0.01737 0.22119h0.04435c0.87335 0 2.4213-0.24339 2.4213-0.24339-0.0045-0.05636-0.0088-0.18219-0.0088-0.23858-0.15201-2.4309-0.75099-4.1629-0.75099-4.1629z" fill-rule="evenodd" stroke-width=".26458"/>
  <path id="path4501" d="m39.361 56.473-1.198 0.32139-1.5541 0.86802 0.80309 1.3935 0.80736-0.37777c0.02619 0.25622 0.13892 0.80309 0.13892 0.80309 0.03046 1.5583-0.09538 3.2166-0.09538 3.2166 0.95484 0.12584 1.923 0.13893 1.923 0.13893s0.9722-0.01296 1.9228-0.13893c0 0-0.12583-1.6583-0.09538-3.2166 0 0 0.11728-0.54687 0.1432-0.80309l0.80309 0.37777 0.80309-1.3935-1.5498-0.86802-1.2022-0.32139s-0.47314 0.06519-0.82472 0.06519c-0.35185 0-0.825-0.06519-0.825-0.06519z" fill="#faff58" fill-opacity="0" fill-rule="evenodd" stroke="#000" stroke-width=".26458"/>
  <path id="path4505" d="m38.263 62.698s-0.59924 1.732-0.74671 4.1629c-0.0043 0.05638-0.0085 0.18222-0.01309 0.23858 0 0 0.0088 0.0045 0.02191 0.0045 0.17793 0.02593 1.5843 0.23858 2.4004 0.23858h0.04328s0.0043-0.12584 0.01736-0.22119c0.03046-0.33877 0.10847-1.1461 0.13038-1.5715 0.01736 0.42534 0.09538 1.2327 0.12583 1.5715 0.01283 0.09536 0.01736 0.22119 0.01736 0.22119h0.04435c0.87335 0 2.4213-0.24339 2.4213-0.24339-0.0046-0.05636-0.0088-0.18219-0.0088-0.23858-0.15201-2.4309-0.75099-4.1629-0.75099-4.1629z" fill-opacity="0" fill-rule="evenodd" stroke="#000" stroke-width=".26458"/>
  <path id="path4509" d="m47.409 56.473-1.198 0.32139-1.5541 0.86802 0.80308 1.3935 0.80736-0.37777c0.02619 0.25622 0.13892 0.80309 0.13892 0.80309 0.03046 1.5583-0.09538 3.2166-0.09538 3.2166 0.95483 0.12584 1.923 0.13893 1.923 0.13893s0.9722-0.01296 1.9228-0.13893c0 0-0.12583-1.6583-0.09538-3.2166 0 0 0.11728-0.54687 0.1432-0.80309l0.80309 0.37777 0.80309-1.3935-1.5498-0.86802-1.2022-0.32139s-0.47314 0.06519-0.82473 0.06519c-0.35185 0-0.82499-0.06519-0.82499-0.06519z" fill="none" fill-rule="evenodd" stroke="#000" stroke-width=".26458"/>
  <path id="path4513" d="m46.311 62.698s-0.59924 1.732-0.74672 4.1629c-0.0043 0.05638-0.0085 0.18222-0.0131 0.23858 0 0 0.0088 0.0045 0.02191 0.0045 0.17793 0.02593 1.5843 0.23858 2.4004 0.23858h0.04328s0.0043-0.12584 0.01736-0.22119c0.03046-0.33877 0.10847-1.1461 0.13038-1.5715 0.01736 0.42534 0.09538 1.2327 0.12583 1.5715 0.01283 0.09536 0.01736 0.22119 0.01736 0.22119h0.04435c0.87335 0 2.4213-0.24339 2.4213-0.24339-0.0046-0.05636-0.0088-0.18219-0.0088-0.23858-0.15202-2.4309-0.75099-4.1629-0.75099-4.1629z" fill="#3045c3" fill-rule="evenodd" stroke="#000" stroke-width=".26458"/>
  <path id="path4517" d="m55.457 56.473-1.1979 0.32139-1.5541 0.86802 0.80309 1.3935 0.80736-0.37777c0.02619 0.25622 0.13892 0.80309 0.13892 0.80309 0.03046 1.5583-0.09538 3.2166-0.09538 3.2166 0.95483 0.12584 1.923 0.13893 1.923 0.13893s0.9722-0.01296 1.9228-0.13893c0 0-0.12584-1.6583-0.09538-3.2166 0 0 0.11728-0.54687 0.1432-0.80309l0.80309 0.37777 0.80309-1.3935-1.5498-0.86802-1.2022-0.32139s-0.47314 0.06519-0.82473 0.06519c-0.35185 0-0.82499-0.06519-0.825-0.06519z" fill="#ddf961" fill-rule="evenodd" stroke="#000" stroke-width=".26458"/>
  <path id="path4521" d="m54.359 62.698s-0.59924 1.732-0.74672 4.1629c-0.0043 0.05638-0.0085 0.18222-0.0131 0.23858 0 0 0.0088 0.0045 0.02191 0.0045 0.17793 0.02593 1.5843 0.23858 2.4004 0.23858h0.04328s0.0043-0.12584 0.01736-0.22119c0.03046-0.33877 0.10847-1.1461 0.13037-1.5715 0.01736 0.42534 0.09538 1.2327 0.12583 1.5715 0.01283 0.09536 0.01736 0.22119 0.01736 0.22119h0.04435c0.87335 0 2.4213-0.24339 2.4213-0.24339-0.0046-0.05636-0.0088-0.18219-0.0088-0.23858-0.15201-2.4309-0.75099-4.1629-0.75099-4.1629z" fill="#ddf961" fill-rule="evenodd" stroke="#000" stroke-width=".26458"/>
  <path id="path4525" d="m63.506 56.473-1.1979 0.32139-1.5541 0.86802 0.80309 1.3935 0.80736-0.37777c0.02619 0.25622 0.13892 0.80309 0.13892 0.80309 0.03046 1.5583-0.09538 3.2166-0.09538 3.2166 0.95483 0.12584 1.923 0.13893 1.923 0.13893s0.9722-0.01296 1.9228-0.13893c0 0-0.12583-1.6583-0.09538-3.2166 0 0 0.11728-0.54687 0.1432-0.80309l0.80308 0.37777 0.80309-1.3935-1.5498-0.86802-1.2022-0.32139s-0.47314 0.06519-0.82473 0.06519c-0.35185 0-0.82499-0.06519-0.825-0.06519z" fill="#5ccc56" fill-rule="evenodd" stroke="#000" stroke-width=".26458"/>
  <path id="path4529" d="m62.408 62.698s-0.59924 1.732-0.74672 4.1629c-0.0043 0.05638-0.0085 0.18222-0.0131 0.23858 0 0 0.0088 0.0045 0.02191 0.0045 0.17793 0.02593 1.5843 0.23858 2.4004 0.23858h0.04328s0.0043-0.12584 0.01736-0.22119c0.03046-0.33877 0.10847-1.1461 0.13038-1.5715 0.01736 0.42534 0.09537 1.2327 0.12583 1.5715 0.01283 0.09536 0.01736 0.22119 0.01736 0.22119h0.04435c0.87335 0 2.4213-0.24339 2.4213-0.24339-0.0046-0.05636-0.0088-0.18219-0.0088-0.23858-0.15201-2.4309-0.75099-4.1629-0.75099-4.1629z" fill="#5ccc56" fill-rule="evenodd" stroke="#000" stroke-width=".26458"/>
  <path id="path165505-9" d="m46.211 56.795c0.92886 0.55562 0.15169 1.6192 0.0568 1.8838l-0.80751 0.37888-0.80363-1.3945z" fill="#3045c3" fill-rule="evenodd" stroke="#000" stroke-miterlimit="16.248" stroke-width=".28194"/>
  <path id="path165511-0" d="m50.261 56.795c-0.92886 0.55562-0.15169 1.6192-0.0568 1.8838l0.80751 0.37888 0.80363-1.3945z" fill="#3045c3" fill-rule="evenodd" stroke="#000" stroke-miterlimit="16.248" stroke-width=".28194"/>
  <path id="path873965" d="m47.981 56.488 0.52917-0.02064v6.1673l-0.52807-0.0026z" fill="#3045c3"/>
  <path id="path873967" d="m49.588 62.627v-6.0502l-0.52917-0.10348v6.1495z" fill="#3045c3"/>
  <path id="path873969" d="m46.88 62.627v-6.0502l0.52917-0.10348v6.1495z" fill="#3045c3"/>
 </g>
</svg>
