<?xml version="1.0" encoding="UTF-8" standalone="no"?>
<!-- Created with Inkscape (http://www.inkscape.org/) -->

<svg
   width="39.710011mm"
   height="11.136399mm"
   viewBox="0 0 39.710011 11.136399"
   version="1.1"
   id="svg7134"
   inkscape:version="1.1.2 (0a00cf5339, 2022-02-04)"
   sodipodi:docname="090.svg"
   xmlns:inkscape="http://www.inkscape.org/namespaces/inkscape"
   xmlns:sodipodi="http://sodipodi.sourceforge.net/DTD/sodipodi-0.dtd"
   xmlns="http://www.w3.org/2000/svg"
   xmlns:svg="http://www.w3.org/2000/svg">
  <sodipodi:namedview
     id="namedview7136"
     pagecolor="#ffffff"
     bordercolor="#666666"
     borderopacity="1.0"
     inkscape:pageshadow="2"
     inkscape:pageopacity="0.0"
     inkscape:pagecheckerboard="0"
     inkscape:document-units="mm"
     showgrid="false"
     inkscape:zoom="0.69664703"
     inkscape:cx="289.2426"
     inkscape:cy="348.09594"
     inkscape:window-width="1920"
     inkscape:window-height="1016"
     inkscape:window-x="0"
     inkscape:window-y="0"
     inkscape:window-maximized="1"
     inkscape:current-layer="layer1" />
  <defs
     id="defs7131" />
  <g
     inkscape:label="Layer 1"
     inkscape:groupmode="layer"
     id="layer1"
     transform="translate(-28.379008,-56.338458)">
    <path
       fill="#faff58"
       d="m 31.312604,56.473163 -1.19795,0.321389 -1.554077,0.868018 0.803087,1.393508 0.807361,-0.377772 c 0.02618,0.256222 0.138924,0.80309 0.138924,0.80309 0.03046,1.558343 -0.09538,3.216619 -0.09538,3.216619 0.954834,0.125835 1.923026,0.138932 1.923026,0.138932 0,0 0.9722,-0.01296 1.922759,-0.138932 0,0 -0.125833,-1.658276 -0.09538,-3.216619 0,0 0.117283,-0.546868 0.143198,-0.80309 l 0.803086,0.377772 0.803087,-1.393508 -1.549802,-0.868018 -1.202225,-0.321389 c 0,0 -0.473143,0.06519 -0.824727,0.06519 -0.351851,0 -0.824994,-0.06519 -0.824994,-0.06519 z"
       fill-rule="evenodd"
       id="path4493"
       style="fill:#ba0f45;fill-opacity:1;stroke:#000000;stroke-width:0.264583;stroke-opacity:1" />
    <path
       fill="#000000"
       d="m 30.214572,62.698015 c 0,0 -0.599242,1.732015 -0.746715,4.162901 -0.0043,0.05638 -0.0085,0.182218 -0.01309,0.238575 0,0 0.0088,0.0045 0.02191,0.0045 0.177929,0.02593 1.584265,0.238575 2.400442,0.238575 h 0.04328 c 0,0 0.0043,-0.125836 0.01736,-0.221191 0.03046,-0.338773 0.108467,-1.146122 0.130375,-1.571467 0.01736,0.425345 0.09538,1.232694 0.125832,1.571467 0.01282,0.09536 0.01737,0.221191 0.01737,0.221191 0.01469,0 0.02939,0 0.04435,0 0.87335,0 2.421281,-0.24339 2.421281,-0.24339 -0.0045,-0.05636 -0.0088,-0.182192 -0.0088,-0.238575 -0.152014,-2.430886 -0.75099,-4.162901 -0.75099,-4.162901 z"
       fill-rule="evenodd"
       id="path4497"
       style="stroke-width:0.264583" />
    <path
       fill="#faff58"
       d="m 39.3609,56.473163 -1.197951,0.321389 -1.554077,0.868018 0.803087,1.393508 0.807362,-0.377772 c 0.02619,0.256222 0.138922,0.80309 0.138922,0.80309 0.03046,1.558343 -0.09538,3.216619 -0.09538,3.216619 0.954836,0.125835 1.923029,0.138932 1.923029,0.138932 0,0 0.972198,-0.01296 1.922758,-0.138932 0,0 -0.125833,-1.658276 -0.09538,-3.216619 0,0 0.117282,-0.546868 0.143198,-0.80309 l 0.803087,0.377772 0.803086,-1.393508 -1.549803,-0.868018 -1.202225,-0.321389 c 0,0 -0.473141,0.06519 -0.824724,0.06519 -0.351854,0 -0.824995,-0.06519 -0.824995,-0.06519 z"
       fill-rule="evenodd"
       id="path4501"
       style="fill:#000000;fill-opacity:0;stroke:#000000;stroke-width:0.264583;stroke-opacity:1" />
    <path
       fill="#000000"
       d="m 38.262866,62.698015 c 0,0 -0.599241,1.732015 -0.746714,4.162901 -0.0043,0.05638 -0.0085,0.182218 -0.01309,0.238575 0,0 0.0088,0.0045 0.02191,0.0045 0.177929,0.02593 1.584265,0.238575 2.400442,0.238575 h 0.04328 c 0,0 0.0043,-0.125836 0.01736,-0.221191 0.03046,-0.338773 0.108468,-1.146122 0.130376,-1.571467 0.01736,0.425345 0.09538,1.232694 0.125833,1.571467 0.01283,0.09536 0.01736,0.221191 0.01736,0.221191 0.01468,0 0.02939,0 0.04435,0 0.873349,0 2.421281,-0.24339 2.421281,-0.24339 -0.0046,-0.05636 -0.0088,-0.182192 -0.0088,-0.238575 C 42.564441,64.429715 41.965466,62.6977 41.965466,62.6977 Z"
       fill-rule="evenodd"
       id="path4505"
       style="fill:#000000;fill-opacity:0;stroke:#000000;stroke-width:0.264583;stroke-opacity:1" />
    <path
       fill="#faff58"
       d="m 47.409193,56.473163 -1.197952,0.321389 -1.554075,0.868018 0.803085,1.393508 0.807363,-0.377772 c 0.02619,0.256222 0.138922,0.80309 0.138922,0.80309 0.03046,1.558343 -0.09538,3.216619 -0.09538,3.216619 0.954834,0.125835 1.923026,0.138932 1.923026,0.138932 0,0 0.972199,-0.01296 1.922759,-0.138932 0,0 -0.125833,-1.658276 -0.09538,-3.216619 0,0 0.117282,-0.546868 0.143198,-0.80309 l 0.803087,0.377772 0.803087,-1.393508 -1.549799,-0.868018 -1.202227,-0.321389 c 0,0 -0.473141,0.06519 -0.824728,0.06519 -0.35185,0 -0.824992,-0.06519 -0.824994,-0.06519 z"
       fill-rule="evenodd"
       id="path4509"
       style="fill:none;stroke:#000000;stroke-width:0.264583;stroke-opacity:1" />
    <path
       fill="#000000"
       d="m 46.311159,62.698015 c 0,0 -0.599242,1.732015 -0.746715,4.162901 -0.0043,0.05638 -0.0085,0.182218 -0.0131,0.238575 0,0 0.0088,0.0045 0.02191,0.0045 0.17793,0.02593 1.584267,0.238575 2.400443,0.238575 h 0.04328 c 0,0 0.0043,-0.125836 0.01736,-0.221191 0.03046,-0.338773 0.108469,-1.146122 0.130376,-1.571467 0.01736,0.425345 0.09538,1.232694 0.125834,1.571467 0.01283,0.09536 0.01736,0.221191 0.01736,0.221191 0.01469,0 0.02939,0 0.04435,0 0.87335,0 2.421281,-0.24339 2.421281,-0.24339 -0.0046,-0.05636 -0.0088,-0.182192 -0.0088,-0.238575 C 50.612721,64.429715 50.013747,62.6977 50.013747,62.6977 Z"
       fill-rule="evenodd"
       id="path4513"
       style="fill:#3045c3;fill-opacity:1;stroke:#000000;stroke-width:0.264583;stroke-opacity:1" />
    <path
       fill="#faff58"
       d="m 55.457487,56.473163 -1.197949,0.321389 -1.554078,0.868018 0.803088,1.393508 0.80736,-0.377772 c 0.02619,0.256222 0.138924,0.80309 0.138924,0.80309 0.03046,1.558343 -0.09538,3.216619 -0.09538,3.216619 0.954834,0.125835 1.923029,0.138932 1.923029,0.138932 0,0 0.972198,-0.01296 1.922759,-0.138932 0,0 -0.125836,-1.658276 -0.09538,-3.216619 0,0 0.117282,-0.546868 0.143198,-0.80309 l 0.803087,0.377772 0.803087,-1.393508 -1.549802,-0.868018 -1.202224,-0.321389 c 0,0 -0.473144,0.06519 -0.824728,0.06519 -0.351851,0 -0.824994,-0.06519 -0.824997,-0.06519 z"
       fill-rule="evenodd"
       id="path4517"
       style="fill:#ddf961;fill-opacity:1;stroke:#000000;stroke-width:0.264583;stroke-opacity:1" />
    <path
       fill="#000000"
       d="m 54.359455,62.698015 c 0,0 -0.599241,1.732015 -0.746715,4.162901 -0.0043,0.05638 -0.0085,0.182218 -0.0131,0.238575 0,0 0.0088,0.0045 0.02191,0.0045 0.17793,0.02593 1.584264,0.238575 2.400443,0.238575 h 0.04328 c 0,0 0.0043,-0.125836 0.01736,-0.221191 0.03046,-0.338773 0.108466,-1.146122 0.130374,-1.571467 0.01736,0.425345 0.09538,1.232694 0.125833,1.571467 0.01283,0.09536 0.01736,0.221191 0.01736,0.221191 0.01469,0 0.02939,0 0.04435,0 0.87335,0 2.421281,-0.24339 2.421281,-0.24339 -0.0046,-0.05636 -0.0088,-0.182192 -0.0088,-0.238575 C 58.661017,64.429715 58.06204,62.6977 58.06204,62.6977 Z"
       fill-rule="evenodd"
       id="path4521"
       style="fill:#ddf961;fill-opacity:1;stroke:#000000;stroke-width:0.264583;stroke-opacity:1" />
    <path
       fill="#faff58"
       d="m 63.505781,56.473163 -1.197949,0.321389 -1.554077,0.868018 0.803087,1.393508 0.80736,-0.377772 c 0.02619,0.256222 0.138925,0.80309 0.138925,0.80309 0.03046,1.558343 -0.09538,3.216619 -0.09538,3.216619 0.954833,0.125835 1.923026,0.138932 1.923026,0.138932 0,0 0.972201,-0.01296 1.922759,-0.138932 0,0 -0.125834,-1.658276 -0.09538,-3.216619 0,0 0.117284,-0.546868 0.143203,-0.80309 l 0.803084,0.377772 0.803087,-1.393508 -1.549802,-0.868018 -1.202224,-0.321389 c 0,0 -0.473144,0.06519 -0.824728,0.06519 -0.351851,0 -0.824994,-0.06519 -0.824997,-0.06519 z"
       fill-rule="evenodd"
       id="path4525"
       style="fill:#5ccc56;fill-opacity:1;stroke:#000000;stroke-width:0.264583;stroke-opacity:1" />
    <path
       fill="#000000"
       d="m 62.40775,62.698015 c 0,0 -0.599242,1.732015 -0.746715,4.162901 -0.0043,0.05638 -0.0085,0.182218 -0.0131,0.238575 0,0 0.0088,0.0045 0.02191,0.0045 0.17793,0.02593 1.584267,0.238575 2.400443,0.238575 h 0.04328 c 0,0 0.0043,-0.125836 0.01736,-0.221191 0.03046,-0.338773 0.108469,-1.146122 0.130376,-1.571467 0.01736,0.425345 0.09537,1.232694 0.125831,1.571467 0.01283,0.09536 0.01736,0.221191 0.01736,0.221191 0.01468,0 0.02939,0 0.04435,0 0.87335,0 2.421281,-0.24339 2.421281,-0.24339 -0.0046,-0.05636 -0.0088,-0.182192 -0.0088,-0.238575 C 66.709312,64.429715 66.110335,62.6977 66.110335,62.6977 Z"
       fill-rule="evenodd"
       id="path4529"
       style="fill:#5ccc56;fill-opacity:1;stroke:#000000;stroke-width:0.264583;stroke-opacity:1" />
    <path
       d="m 46.210815,56.794631 c 0.928865,0.555625 0.151694,1.61925 0.0568,1.883834 l -0.807509,0.378883 -0.803629,-1.394539 z"
       style="fill:#3045c3;fill-opacity:1;fill-rule:evenodd;stroke:#000000;stroke-width:0.281945;stroke-linecap:butt;stroke-linejoin:miter;stroke-miterlimit:16.2479;stroke-dasharray:none;stroke-opacity:1"
       id="path165505-9" />
    <path
       d="m 50.261139,56.794552 c -0.928865,0.555625 -0.151693,1.61925 -0.0568,1.883833 l 0.807508,0.378884 0.80363,-1.39454 z"
       style="fill:#3045c3;fill-opacity:1;fill-rule:evenodd;stroke:#000000;stroke-width:0.281945;stroke-linecap:butt;stroke-linejoin:miter;stroke-miterlimit:16.2479;stroke-dasharray:none;stroke-opacity:1"
       id="path165511-0" />
    <path
       style="fill:#3045c3;fill-opacity:1;stroke:none;stroke-width:0.202977px;stroke-linecap:butt;stroke-linejoin:miter;stroke-opacity:1"
       d="m 47.981365,56.488059 0.529166,-0.02064 v 6.167332 l -0.528066,-0.0026 z"
       id="path873965"
       sodipodi:nodetypes="ccccc" />
    <path
       style="fill:#3045c3;fill-opacity:1;stroke:none;stroke-width:0.325475px;stroke-linecap:butt;stroke-linejoin:miter;stroke-opacity:1"
       d="m 49.588079,62.626842 v -6.050201 l -0.529167,-0.103478 v 6.149472 z"
       id="path873967" />
    <path
       style="fill:#3045c3;fill-opacity:1;stroke:none;stroke-width:0.325477px;stroke-linecap:butt;stroke-linejoin:miter;stroke-opacity:1"
       d="m 46.880026,62.626842 v -6.050201 l 0.529167,-0.103478 v 6.149472 z"
       id="path873969" />
  </g>
</svg>
