<?xml version="1.0" encoding="UTF-8" standalone="no"?>
<svg
   version="1.1"
   viewBox="0 0 150.0851 42.090722"
   fill="none"
   stroke="none"
   stroke-linecap="square"
   stroke-miterlimit="10"
   id="svg363"
   width="150.0851"
   height="42.090721"
   sodipodi:docname="out.svg"
   inkscape:version="1.1.2 (0a00cf5339, 2022-02-04)"
   xmlns:inkscape="http://www.inkscape.org/namespaces/inkscape"
   xmlns:sodipodi="http://sodipodi.sourceforge.net/DTD/sodipodi-0.dtd"
   xmlns="http://www.w3.org/2000/svg"
   xmlns:svg="http://www.w3.org/2000/svg">
  <sodipodi:namedview
     id="namedview2106"
     pagecolor="#ffffff"
     bordercolor="#666666"
     borderopacity="1.0"
     inkscape:pageshadow="2"
     inkscape:pageopacity="0.0"
     inkscape:pagecheckerboard="0"
     showgrid="false"
     inkscape:zoom="3.6203867"
     inkscape:cx="88.112134"
     inkscape:cy="95.431795"
     inkscape:window-width="1920"
     inkscape:window-height="1016"
     inkscape:window-x="0"
     inkscape:window-y="0"
     inkscape:window-maximized="1"
     inkscape:current-layer="svg363" />
  <defs
     id="defs367">
    <rect
       x="-303.37631"
       y="20.480339"
       width="207.87022"
       height="233.52013"
       id="rect390031" />
    <rect
       x="-303.37631"
       y="20.480339"
       width="207.87022"
       height="233.52013"
       id="rect398229" />
    <rect
       x="-303.37631"
       y="20.480339"
       width="207.87022"
       height="233.52013"
       id="rect398337" />
    <rect
       x="-303.37631"
       y="20.480339"
       width="207.87022"
       height="233.52013"
       id="rect398445" />
    <rect
       x="-303.37631"
       y="20.480339"
       width="207.87022"
       height="233.52013"
       id="rect398553" />
    <rect
       x="-303.37631"
       y="20.480339"
       width="207.87022"
       height="233.52013"
       id="rect398661" />
    <rect
       x="-303.37631"
       y="20.480339"
       width="207.87022"
       height="233.52013"
       id="rect398769" />
    <rect
       x="-303.37631"
       y="20.480339"
       width="207.87022"
       height="233.52013"
       id="rect398877" />
    <rect
       x="-303.37631"
       y="20.480339"
       width="207.87022"
       height="233.52013"
       id="rect398985" />
    <rect
       x="-303.37631"
       y="20.480339"
       width="207.87022"
       height="233.52013"
       id="rect400281" />
    <rect
       x="-303.37631"
       y="20.480339"
       width="207.87022"
       height="233.52013"
       id="rect401151" />
    <rect
       x="-303.37631"
       y="20.480339"
       width="207.87022"
       height="233.52013"
       id="rect401153" />
    <rect
       x="-303.37631"
       y="20.480339"
       width="207.87022"
       height="233.52013"
       id="rect401155" />
    <rect
       x="-303.37631"
       y="20.480339"
       width="207.87022"
       height="233.52013"
       id="rect401157" />
    <rect
       x="-303.37631"
       y="20.480339"
       width="207.87022"
       height="233.52013"
       id="rect401159" />
    <rect
       x="-303.37631"
       y="20.480339"
       width="207.87022"
       height="233.52013"
       id="rect401161" />
    <rect
       x="-303.37631"
       y="20.480339"
       width="207.87022"
       height="233.52013"
       id="rect401163" />
    <rect
       x="-303.37631"
       y="20.480339"
       width="207.87022"
       height="233.52013"
       id="rect401165" />
    <rect
       x="-303.37631"
       y="20.480339"
       width="207.87022"
       height="233.52013"
       id="rect401167" />
    <rect
       x="-303.37631"
       y="20.480339"
       width="207.87022"
       height="233.52013"
       id="rect401169" />
    <rect
       x="-303.37631"
       y="20.480339"
       width="207.87022"
       height="233.52013"
       id="rect418629" />
    <rect
       x="-303.37631"
       y="20.480339"
       width="207.87022"
       height="233.52013"
       id="rect418631" />
    <rect
       x="-303.37631"
       y="20.480339"
       width="207.87022"
       height="233.52013"
       id="rect418633" />
    <rect
       x="-303.37631"
       y="20.480339"
       width="207.87022"
       height="233.52013"
       id="rect418635" />
    <rect
       x="-303.37631"
       y="20.480339"
       width="207.87022"
       height="233.52013"
       id="rect418637" />
    <rect
       x="-303.37631"
       y="20.480339"
       width="207.87022"
       height="233.52013"
       id="rect418639" />
    <rect
       x="-303.37631"
       y="20.480339"
       width="207.87022"
       height="233.52013"
       id="rect418641" />
    <rect
       x="-303.37631"
       y="20.480339"
       width="207.87022"
       height="233.52013"
       id="rect418643" />
    <rect
       x="-303.37631"
       y="20.480339"
       width="207.87022"
       height="233.52013"
       id="rect418645" />
    <rect
       x="-303.37631"
       y="20.480339"
       width="207.87022"
       height="233.52013"
       id="rect418647" />
    <rect
       x="-303.37631"
       y="20.480339"
       width="207.87022"
       height="233.52013"
       id="rect418649" />
    <rect
       x="-303.37631"
       y="20.480339"
       width="207.87022"
       height="233.52013"
       id="rect418651" />
    <rect
       x="-303.37631"
       y="20.480339"
       width="207.87022"
       height="233.52013"
       id="rect418653" />
    <rect
       x="-303.37631"
       y="20.480339"
       width="207.87022"
       height="233.52013"
       id="rect418655" />
    <rect
       x="-303.37631"
       y="20.480339"
       width="207.87022"
       height="233.52013"
       id="rect418657" />
    <rect
       x="-303.37631"
       y="20.480339"
       width="207.87022"
       height="233.52013"
       id="rect418659" />
    <rect
       x="-303.37631"
       y="20.480339"
       width="207.87022"
       height="233.52013"
       id="rect418661" />
    <rect
       x="-303.37631"
       y="20.480339"
       width="207.87022"
       height="233.52013"
       id="rect418663" />
    <rect
       x="-303.37631"
       y="20.480339"
       width="207.87022"
       height="233.52013"
       id="rect418665" />
    <rect
       x="-303.37631"
       y="20.480339"
       width="207.87022"
       height="233.52013"
       id="rect418667" />
    <rect
       x="-303.37631"
       y="20.480339"
       width="207.87022"
       height="233.52013"
       id="rect390031-3" />
    <rect
       x="-303.37631"
       y="20.480339"
       width="207.87022"
       height="233.52013"
       id="rect398229-6" />
    <rect
       x="-303.37631"
       y="20.480339"
       width="207.87022"
       height="233.52013"
       id="rect398337-7" />
    <rect
       x="-303.37631"
       y="20.480339"
       width="207.87022"
       height="233.52013"
       id="rect398445-5" />
    <rect
       x="-303.37631"
       y="20.480339"
       width="207.87022"
       height="233.52013"
       id="rect398553-3" />
    <rect
       x="-303.37631"
       y="20.480339"
       width="207.87022"
       height="233.52013"
       id="rect398661-5" />
    <rect
       x="-303.37631"
       y="20.480339"
       width="207.87022"
       height="233.52013"
       id="rect398769-6" />
    <rect
       x="-303.37631"
       y="20.480339"
       width="207.87022"
       height="233.52013"
       id="rect398877-2" />
    <rect
       x="-303.37631"
       y="20.480339"
       width="207.87022"
       height="233.52013"
       id="rect398985-9" />
    <rect
       x="-303.37631"
       y="20.480339"
       width="207.87022"
       height="233.52013"
       id="rect400281-1" />
    <rect
       x="-303.37631"
       y="20.480339"
       width="207.87022"
       height="233.52013"
       id="rect401151-2" />
    <rect
       x="-303.37631"
       y="20.480339"
       width="207.87022"
       height="233.52013"
       id="rect401153-7" />
    <rect
       x="-303.37631"
       y="20.480339"
       width="207.87022"
       height="233.52013"
       id="rect401155-0" />
    <rect
       x="-303.37631"
       y="20.480339"
       width="207.87022"
       height="233.52013"
       id="rect401157-9" />
    <rect
       x="-303.37631"
       y="20.480339"
       width="207.87022"
       height="233.52013"
       id="rect401159-3" />
    <rect
       x="-303.37631"
       y="20.480339"
       width="207.87022"
       height="233.52013"
       id="rect401161-6" />
    <rect
       x="-303.37631"
       y="20.480339"
       width="207.87022"
       height="233.52013"
       id="rect401163-0" />
    <rect
       x="-303.37631"
       y="20.480339"
       width="207.87022"
       height="233.52013"
       id="rect401165-6" />
    <rect
       x="-303.37631"
       y="20.480339"
       width="207.87022"
       height="233.52013"
       id="rect401167-2" />
    <rect
       x="-303.37631"
       y="20.480339"
       width="207.87022"
       height="233.52013"
       id="rect401169-6" />
    <rect
       x="-303.37631"
       y="20.480339"
       width="207.87022"
       height="233.52013"
       id="rect418629-1" />
    <rect
       x="-303.37631"
       y="20.480339"
       width="207.87022"
       height="233.52013"
       id="rect418631-8" />
    <rect
       x="-303.37631"
       y="20.480339"
       width="207.87022"
       height="233.52013"
       id="rect418633-7" />
    <rect
       x="-303.37631"
       y="20.480339"
       width="207.87022"
       height="233.52013"
       id="rect418635-9" />
    <rect
       x="-303.37631"
       y="20.480339"
       width="207.87022"
       height="233.52013"
       id="rect418637-2" />
    <rect
       x="-303.37631"
       y="20.480339"
       width="207.87022"
       height="233.52013"
       id="rect418639-0" />
    <rect
       x="-303.37631"
       y="20.480339"
       width="207.87022"
       height="233.52013"
       id="rect418641-2" />
    <rect
       x="-303.37631"
       y="20.480339"
       width="207.87022"
       height="233.52013"
       id="rect418643-3" />
    <rect
       x="-303.37631"
       y="20.480339"
       width="207.87022"
       height="233.52013"
       id="rect418645-7" />
    <rect
       x="-303.37631"
       y="20.480339"
       width="207.87022"
       height="233.52013"
       id="rect418647-5" />
    <rect
       x="-303.37631"
       y="20.480339"
       width="207.87022"
       height="233.52013"
       id="rect418649-9" />
    <rect
       x="-303.37631"
       y="20.480339"
       width="207.87022"
       height="233.52013"
       id="rect418651-2" />
    <rect
       x="-303.37631"
       y="20.480339"
       width="207.87022"
       height="233.52013"
       id="rect418653-2" />
    <rect
       x="-303.37631"
       y="20.480339"
       width="207.87022"
       height="233.52013"
       id="rect418655-8" />
    <rect
       x="-303.37631"
       y="20.480339"
       width="207.87022"
       height="233.52013"
       id="rect418657-9" />
    <rect
       x="-303.37631"
       y="20.480339"
       width="207.87022"
       height="233.52013"
       id="rect418659-7" />
    <rect
       x="-303.37631"
       y="20.480339"
       width="207.87022"
       height="233.52013"
       id="rect418661-3" />
    <rect
       x="-303.37631"
       y="20.480339"
       width="207.87022"
       height="233.52013"
       id="rect418663-6" />
    <rect
       x="-303.37631"
       y="20.480339"
       width="207.87022"
       height="233.52013"
       id="rect418665-1" />
    <rect
       x="-303.37631"
       y="20.480339"
       width="207.87022"
       height="233.52013"
       id="rect418667-2" />
    <rect
       x="-303.37631"
       y="20.480339"
       width="207.87022"
       height="233.52013"
       id="rect390031-7" />
    <rect
       x="-303.37631"
       y="20.480339"
       width="207.87022"
       height="233.52013"
       id="rect398229-8" />
    <rect
       x="-303.37631"
       y="20.480339"
       width="207.87022"
       height="233.52013"
       id="rect398337-6" />
    <rect
       x="-303.37631"
       y="20.480339"
       width="207.87022"
       height="233.52013"
       id="rect398445-8" />
    <rect
       x="-303.37631"
       y="20.480339"
       width="207.87022"
       height="233.52013"
       id="rect398553-8" />
    <rect
       x="-303.37631"
       y="20.480339"
       width="207.87022"
       height="233.52013"
       id="rect398661-4" />
    <rect
       x="-303.37631"
       y="20.480339"
       width="207.87022"
       height="233.52013"
       id="rect398769-3" />
    <rect
       x="-303.37631"
       y="20.480339"
       width="207.87022"
       height="233.52013"
       id="rect398877-1" />
    <rect
       x="-303.37631"
       y="20.480339"
       width="207.87022"
       height="233.52013"
       id="rect398985-4" />
    <rect
       x="-303.37631"
       y="20.480339"
       width="207.87022"
       height="233.52013"
       id="rect400281-9" />
    <rect
       x="-303.37631"
       y="20.480339"
       width="207.87022"
       height="233.52013"
       id="rect401151-20" />
    <rect
       x="-303.37631"
       y="20.480339"
       width="207.87022"
       height="233.52013"
       id="rect401153-6" />
    <rect
       x="-303.37631"
       y="20.480339"
       width="207.87022"
       height="233.52013"
       id="rect401155-8" />
    <rect
       x="-303.37631"
       y="20.480339"
       width="207.87022"
       height="233.52013"
       id="rect401157-92" />
    <rect
       x="-303.37631"
       y="20.480339"
       width="207.87022"
       height="233.52013"
       id="rect401159-6" />
    <rect
       x="-303.37631"
       y="20.480339"
       width="207.87022"
       height="233.52013"
       id="rect401161-64" />
    <rect
       x="-303.37631"
       y="20.480339"
       width="207.87022"
       height="233.52013"
       id="rect401163-9" />
    <rect
       x="-303.37631"
       y="20.480339"
       width="207.87022"
       height="233.52013"
       id="rect401165-5" />
    <rect
       x="-303.37631"
       y="20.480339"
       width="207.87022"
       height="233.52013"
       id="rect401167-0" />
    <rect
       x="-303.37631"
       y="20.480339"
       width="207.87022"
       height="233.52013"
       id="rect401169-4" />
    <rect
       x="-303.37631"
       y="20.480339"
       width="207.87022"
       height="233.52013"
       id="rect418629-8" />
    <rect
       x="-303.37631"
       y="20.480339"
       width="207.87022"
       height="233.52013"
       id="rect418631-7" />
    <rect
       x="-303.37631"
       y="20.480339"
       width="207.87022"
       height="233.52013"
       id="rect418633-1" />
    <rect
       x="-303.37631"
       y="20.480339"
       width="207.87022"
       height="233.52013"
       id="rect418635-7" />
    <rect
       x="-303.37631"
       y="20.480339"
       width="207.87022"
       height="233.52013"
       id="rect418637-27" />
    <rect
       x="-303.37631"
       y="20.480339"
       width="207.87022"
       height="233.52013"
       id="rect418639-2" />
    <rect
       x="-303.37631"
       y="20.480339"
       width="207.87022"
       height="233.52013"
       id="rect418641-26" />
    <rect
       x="-303.37631"
       y="20.480339"
       width="207.87022"
       height="233.52013"
       id="rect418643-1" />
    <rect
       x="-303.37631"
       y="20.480339"
       width="207.87022"
       height="233.52013"
       id="rect418645-0" />
    <rect
       x="-303.37631"
       y="20.480339"
       width="207.87022"
       height="233.52013"
       id="rect418647-6" />
    <rect
       x="-303.37631"
       y="20.480339"
       width="207.87022"
       height="233.52013"
       id="rect418649-1" />
    <rect
       x="-303.37631"
       y="20.480339"
       width="207.87022"
       height="233.52013"
       id="rect418651-5" />
    <rect
       x="-303.37631"
       y="20.480339"
       width="207.87022"
       height="233.52013"
       id="rect418653-9" />
    <rect
       x="-303.37631"
       y="20.480339"
       width="207.87022"
       height="233.52013"
       id="rect418655-4" />
    <rect
       x="-303.37631"
       y="20.480339"
       width="207.87022"
       height="233.52013"
       id="rect418657-90" />
    <rect
       x="-303.37631"
       y="20.480339"
       width="207.87022"
       height="233.52013"
       id="rect418659-9" />
    <rect
       x="-303.37631"
       y="20.480339"
       width="207.87022"
       height="233.52013"
       id="rect418661-1" />
    <rect
       x="-303.37631"
       y="20.480339"
       width="207.87022"
       height="233.52013"
       id="rect418663-7" />
    <rect
       x="-303.37631"
       y="20.480339"
       width="207.87022"
       height="233.52013"
       id="rect418665-7" />
    <rect
       x="-303.37631"
       y="20.480339"
       width="207.87022"
       height="233.52013"
       id="rect418667-1" />
  </defs>
  <clipPath
     id="g1f1130f6aa8_0_6014.0">
    <path
       d="M 0,0 H 960 V 540 H 0 Z"
       clip-rule="nonzero"
       id="path2" />
  </clipPath>
  <path
     fill="#faff58"
     d="M 11.08761,0.50912074 6.5599225,1.7238207 0.68624652,5.0045207 3.7215355,10.271321 6.7729785,8.8435207 c 0.09896,0.9684 0.525067,3.0353003 0.525067,3.0353003 0.11511,5.8898 -0.360479,12.1573 -0.360479,12.1573 3.6088215,0.4756 7.2681315,0.5251 7.2681315,0.5251 0,0 3.674454,-0.05 7.26712,-0.5251 0,0 -0.47559,-6.2675 -0.360479,-12.1573 0,0 0.443277,-2.0669003 0.541223,-3.0353003 l 3.035286,1.4278003 3.03529,-5.2668003 -5.857521,-3.2807 -4.543842,-1.21469996 c 0,0 -1.788256,0.2464 -3.117077,0.2464 -1.329832,0 -3.118088,-0.2464 -3.118088,-0.2464 z"
     fill-rule="evenodd"
     id="path4535"
     style="stroke:#000000;stroke-opacity:1" />
  <path
     fill="#000000"
     d="m 6.9375655,24.036121 c 0,0 -2.264853,6.5462 -2.822231,15.7338 -0.01616,0.2131 -0.03231,0.6887 -0.04948,0.9017 0,0 0.03332,0.017 0.0828,0.017 0.672488,0.098 5.9877765,0.9017 9.0725405,0.9017 h 0.16358 c 0,0 0.01616,-0.4756 0.06563,-0.836 0.11511,-1.2804 0.409956,-4.3318 0.492756,-5.9393 0.06563,1.6075 0.360477,4.6589 0.475588,5.9393 0.04847,0.3604 0.06563,0.836 0.06563,0.836 0.05554,0 0.111073,0 0.167618,0 3.30085,0 9.1513,-0.9199 9.1513,-0.9199 -0.01717,-0.213 -0.03332,-0.6886 -0.03332,-0.9017 -0.574543,-9.1876 -2.838389,-15.7338 -2.838389,-15.7338 z"
     fill-rule="evenodd"
     id="path4539" />
  <path
     fill="#faff58"
     d="m 41.506365,0.50912074 -4.52769,1.21469996 -5.873674,3.2807 3.035288,5.2668003 3.051446,-1.4278003 c 0.099,0.9684 0.52506,3.0353003 0.52506,3.0353003 0.11511,5.8898 -0.36048,12.1573 -0.36048,12.1573 3.60883,0.4756 7.26814,0.5251 7.26814,0.5251 0,0 3.67445,-0.05 7.26712,-0.5251 0,0 -0.47559,-6.2675 -0.36048,-12.1573 0,0 0.44327,-2.0669003 0.54122,-3.0353003 l 3.03529,1.4278003 3.035285,-5.2668003 -5.857525,-3.2807 -4.54384,-1.21469996 c 0,0 -1.78825,0.2464 -3.11707,0.2464 -1.32984,0 -3.11809,-0.2464 -3.11809,-0.2464 z"
     fill-rule="evenodd"
     id="path4543"
     style="fill:#1635b2;fill-opacity:1;stroke:#000000;stroke-opacity:1" />
  <path
     fill="#000000"
     d="m 37.356315,24.036121 c 0,0 -2.264849,6.5462 -2.822227,15.7338 -0.01616,0.2131 -0.03231,0.6887 -0.04948,0.9017 0,0 0.03332,0.017 0.0828,0.017 0.672488,0.098 5.987777,0.9017 9.072537,0.9017 h 0.16358 c 0,0 0.0162,-0.4756 0.0656,-0.836 0.11511,-1.2804 0.40996,-4.3318 0.49276,-5.9393 0.0656,1.6075 0.36048,4.6589 0.47559,5.9393 0.0485,0.3604 0.0656,0.836 0.0656,0.836 0.0555,0 0.11107,0 0.16761,0 3.30085,0 9.1513,-0.9199 9.1513,-0.9199 -0.0172,-0.213 -0.0333,-0.6886 -0.0333,-0.9017 -0.57454,-9.1876 -2.83838,-15.7338 -2.83838,-15.7338 z"
     fill-rule="evenodd"
     id="path4547"
     style="fill:#1635b2;fill-opacity:1;stroke:#000000;stroke-opacity:1" />
  <path
     fill="#faff58"
     d="m 71.92511,0.50912074 -4.52769,1.21469996 -5.87367,3.2807 3.03528,5.2668003 3.05145,-1.4278003 c 0.099,0.9684 0.52506,3.0353003 0.52506,3.0353003 0.11511,5.8898 -0.36047,12.1573 -0.36047,12.1573 3.60882,0.4756 7.26813,0.5251 7.26813,0.5251 0,0 3.67445,-0.05 7.26712,-0.5251 0,0 -0.47559,-6.2675 -0.36048,-12.1573 0,0 0.44327,-2.0669003 0.54122,-3.0353003 l 3.03529,1.4278003 3.03529,-5.2668003 -5.85751,-3.2807 -4.54385,-1.21469996 c 0,0 -1.78825,0.2464 -3.11708,0.2464 -1.32983,0 -3.11808,-0.2464 -3.11809,-0.2464 z"
     fill-rule="evenodd"
     id="path4551" />
  <path
     fill="#000000"
     d="m 67.77506,24.036121 c 0,0 -2.26485,6.5462 -2.82223,15.7338 -0.0162,0.2131 -0.0323,0.6887 -0.0495,0.9017 0,0 0.0333,0.017 0.0828,0.017 0.67249,0.098 5.98778,0.9017 9.07254,0.9017 h 0.16358 c 0,0 0.0162,-0.4756 0.0656,-0.836 0.11511,-1.2804 0.40996,-4.3318 0.49276,-5.9393 0.0656,1.6075 0.36048,4.6589 0.47559,5.9393 0.0485,0.3604 0.0656,0.836 0.0656,0.836 0.0555,0 0.11107,0 0.16762,0 3.30085,0 9.1513,-0.9199 9.1513,-0.9199 -0.0172,-0.213 -0.0333,-0.6886 -0.0333,-0.9017 -0.57455,-9.1876 -2.83839,-15.7338 -2.83839,-15.7338 z"
     fill-rule="evenodd"
     id="path4555" />
  <path
     fill="#faff58"
     d="m 102.34386,0.50912074 -4.52768,1.21469996 -5.87368,3.2807 3.03529,5.2668003 3.05144,-1.4278003 c 0.099,0.9684 0.52507,3.0353003 0.52507,3.0353003 0.11511,5.8898 -0.36048,12.1573 -0.36048,12.1573 3.60882,0.4756 7.26814,0.5251 7.26814,0.5251 0,0 3.67445,-0.05 7.26712,-0.5251 0,0 -0.4756,-6.2675 -0.36048,-12.1573 0,0 0.44327,-2.0669003 0.54122,-3.0353003 l 3.03529,1.4278003 3.03529,-5.2668003 -5.85752,-3.2807 -4.54384,-1.21469996 c 0,0 -1.78826,0.2464 -3.11708,0.2464 -1.32983,0 -3.11809,-0.2464 -3.1181,-0.2464 z"
     fill-rule="evenodd"
     id="path4559"
     style="fill:#000000;fill-opacity:1" />
  <path
     fill="#000000"
     d="m 98.19382,24.036121 c 0,0 -2.26485,6.5462 -2.82223,15.7338 -0.0162,0.2131 -0.0323,0.6887 -0.0495,0.9017 0,0 0.0333,0.017 0.0828,0.017 0.67249,0.098 5.98777,0.9017 9.07254,0.9017 h 0.16358 c 0,0 0.0162,-0.4756 0.0656,-0.836 0.11511,-1.2804 0.40995,-4.3318 0.49275,-5.9393 0.0656,1.6075 0.36048,4.6589 0.47559,5.9393 0.0485,0.3604 0.0656,0.836 0.0656,0.836 0.0555,0 0.11107,0 0.16762,0 3.30085,0 9.1513,-0.9199 9.1513,-0.9199 -0.0172,-0.213 -0.0333,-0.6886 -0.0333,-0.9017 -0.57454,-9.1876 -2.83839,-15.7338 -2.83839,-15.7338 z"
     fill-rule="evenodd"
     id="path4563"
     style="fill:#000000;fill-opacity:1" />
  <path
     fill="#faff58"
     d="m 132.76261,0.50912074 -4.52768,1.21469996 -5.87368,3.2807 3.03529,5.2668003 3.05144,-1.4278003 c 0.099,0.9684 0.52507,3.0353003 0.52507,3.0353003 0.11511,5.8898 -0.36048,12.1573 -0.36048,12.1573 3.60882,0.4756 7.26813,0.5251 7.26813,0.5251 0,0 3.67446,-0.05 7.26712,-0.5251 0,0 -0.47559,-6.2675 -0.36048,-12.1573 0,0 0.44328,-2.0669003 0.54124,-3.0353003 l 3.03528,1.4278003 3.03529,-5.2668003 -5.85752,-3.2807 -4.54384,-1.21469996 c 0,0 -1.78826,0.2464 -3.11708,0.2464 -1.32983,0 -3.11809,-0.2464 -3.1181,-0.2464 z"
     fill-rule="evenodd"
     id="path4567"
     style="fill:#406e62;fill-opacity:1;stroke:#000000;stroke-opacity:1" />
  <path
     fill="#000000"
     d="m 128.61257,24.036121 c 0,0 -2.26485,6.5462 -2.82223,15.7338 -0.0162,0.2131 -0.0323,0.6887 -0.0495,0.9017 0,0 0.0333,0.017 0.0828,0.017 0.67249,0.098 5.98778,0.9017 9.07254,0.9017 h 0.16358 c 0,0 0.0162,-0.4756 0.0656,-0.836 0.11511,-1.2804 0.40996,-4.3318 0.49276,-5.9393 0.0656,1.6075 0.36047,4.6589 0.47558,5.9393 0.0485,0.3604 0.0656,0.836 0.0656,0.836 0.0555,0 0.11108,0 0.16762,0 3.30085,0 9.1513,-0.9199 9.1513,-0.9199 -0.0172,-0.213 -0.0333,-0.6886 -0.0333,-0.9017 -0.57454,-9.1876 -2.83839,-15.7338 -2.83839,-15.7338 z"
     fill-rule="evenodd"
     id="path4571"
     style="fill:#406e62;fill-opacity:1;stroke:#000000;stroke-opacity:1" />
  <path
     fill="#faff58"
     d="m 71.92511,0.50952074 -4.52769,1.21469996 -5.87367,3.2807 3.03528,5.2668003 3.05145,-1.4278003 c 0.099,0.9684 0.52506,3.0353003 0.52506,3.0353003 0.11511,5.8898 -0.36047,12.1573 -0.36047,12.1573 3.60882,0.4756 7.26813,0.5251 7.26813,0.5251 0,0 3.67445,-0.05 7.26712,-0.5251 0,0 -0.47559,-6.2675 -0.36048,-12.1573 0,0 0.44327,-2.0669003 0.54122,-3.0353003 l 3.03529,1.4278003 3.03529,-5.2668003 -5.85751,-3.2807 -4.54385,-1.21469996 c 0,0 -1.78825,0.2464 -3.11708,0.2464 -1.32983,0 -3.11808,-0.2464 -3.11809,-0.2464 z"
     fill-rule="evenodd"
     id="path763399"
     style="fill:#aa0035;fill-opacity:1;stroke:#000000;stroke-opacity:1" />
  <path
     fill="#000000"
     d="m 67.77506,24.036521 c 0,0 -2.26485,6.5462 -2.82223,15.7338 -0.0162,0.2131 -0.0323,0.6887 -0.0495,0.9017 0,0 0.0333,0.017 0.0828,0.017 0.67249,0.098 5.98778,0.9017 9.07254,0.9017 h 0.16358 c 0,0 0.0162,-0.4756 0.0656,-0.836 0.11511,-1.2804 0.40996,-4.3318 0.49276,-5.9394 0.0656,1.6076 0.36048,4.659 0.47559,5.9394 0.0485,0.3604 0.0656,0.836 0.0656,0.836 0.0555,0 0.11107,0 0.16762,0 3.30085,0 9.1513,-0.9199 9.1513,-0.9199 -0.0172,-0.213 -0.0333,-0.6886 -0.0333,-0.9017 -0.57455,-9.1876 -2.83839,-15.7338 -2.83839,-15.7338 z"
     fill-rule="evenodd"
     id="path763401"
     style="fill:#fffffd;fill-opacity:1;stroke:#000000;stroke-opacity:1" />
  <path
     style="fill:#971a45;fill-opacity:1;stroke:none;stroke-width:1px;stroke-linecap:butt;stroke-linejoin:miter;stroke-opacity:1"
     d="M 40.198255,1.0071207 V 24.050521 h 2.76513 V 0.71992074 l -1.30811,-0.2108 z"
     id="path25974" />
  <path
     style="fill:#971a45;fill-opacity:1;stroke:none;stroke-width:1px;stroke-linecap:butt;stroke-linejoin:miter;stroke-opacity:1"
     d="M 49.198545,1.0071207 V 24.050521 h -2.76513 V 0.71992074 l 1.30811,-0.2108 z"
     id="path25976" />
</svg>
