<?xml version="1.0" encoding="UTF-8"?>
<!-- Created with Inkscape (http://www.inkscape.org/) -->
<svg id="svg7414" width="39.529mm" height="11.137mm" version="1.1" viewBox="0 0 39.529 11.137" xmlns="http://www.w3.org/2000/svg">
 <g id="layer1" transform="translate(120.79 -204.08)" fill-rule="evenodd" stroke-width=".26458">
  <path id="path4577" d="m-117.86 204.21-1.198 0.32139-1.5541 0.86802 0.80309 1.3935 0.80736-0.37778c0.0262 0.25623 0.13892 0.80309 0.13892 0.80309 0.0305 1.5584-0.0954 3.2166-0.0954 3.2166 0.95483 0.12584 1.923 0.13894 1.923 0.13894s0.9722-0.0132 1.9228-0.13894c0 0-0.12583-1.6583-0.0954-3.2166 0 0 0.11728-0.54686 0.14319-0.80309l0.80309 0.37778 0.80309-1.3935-1.5498-0.86802-1.2022-0.32139s-0.47314 0.0652-0.82473 0.0652c-0.35185 0-0.82499-0.0652-0.82499-0.0652z" fill="#ba0f45" stroke="#000"/>
  <path id="path4581" d="m-118.95 210.44s-0.59925 1.732-0.74672 4.1629c-4e-3 0.0564-9e-3 0.18222-0.0131 0.23858 0 0 9e-3 5e-3 0.0219 5e-3 0.17793 0.0259 1.5843 0.23857 2.4004 0.23857h0.0433s4e-3 -0.12583 0.0174-0.22119c0.0305-0.33877 0.10846-1.1461 0.13037-1.5714 0.0174 0.42532 0.0954 1.2327 0.12583 1.5714 0.0128 0.0954 0.0174 0.22119 0.0174 0.22119h0.0443c0.87335 0 2.4213-0.24339 2.4213-0.24339-5e-3 -0.0564-9e-3 -0.18219-9e-3 -0.23857-0.15201-2.4309-0.75099-4.1629-0.75099-4.1629z"/>
  <path id="path4585" d="m-109.81 204.21-1.198 0.32139-1.5541 0.86802 0.80308 1.3935 0.80737-0.37778c0.0262 0.25623 0.13892 0.80309 0.13892 0.80309 0.0304 1.5584-0.0954 3.2166-0.0954 3.2166 0.95484 0.12584 1.923 0.13894 1.923 0.13894s0.9722-0.0132 1.9228-0.13894c0 0-0.12583-1.6583-0.0954-3.2166 0 0 0.11728-0.54686 0.1432-0.80309l0.80309 0.37778 0.80308-1.3935-1.5498-0.86802-1.2022-0.32139s-0.47314 0.0652-0.82472 0.0652c-0.35185 0-0.825-0.0652-0.825-0.0652z" fill="#fff" stroke="#000"/>
  <path id="path4589" d="m-110.91 210.44s-0.59924 1.732-0.74671 4.1629c-4e-3 0.0564-9e-3 0.18222-0.0131 0.23858 0 0 9e-3 5e-3 0.0219 5e-3 0.17793 0.0259 1.5843 0.23857 2.4004 0.23857h0.0433s4e-3 -0.12583 0.0173-0.22119c0.0305-0.33877 0.10847-1.1461 0.13038-1.5714 0.0173 0.42532 0.0954 1.2327 0.12583 1.5714 0.0128 0.0954 0.0174 0.22119 0.0174 0.22119h0.0443c0.87335 0 2.4213-0.24339 2.4213-0.24339-5e-3 -0.0564-9e-3 -0.18219-9e-3 -0.23857-0.15202-2.4309-0.75099-4.1629-0.75099-4.1629z" fill="#fff" stroke="#000"/>
  <path id="path4593" d="m-101.76 204.21-1.198 0.32139-1.5541 0.86802 0.80309 1.3935 0.80736-0.37778c0.0262 0.25623 0.13892 0.80309 0.13892 0.80309 0.0305 1.5584-0.0954 3.2166-0.0954 3.2166 0.95483 0.12584 1.923 0.13894 1.923 0.13894s0.9722-0.0132 1.9228-0.13894c0 0-0.12583-1.6583-0.09538-3.2166 0 0 0.11728-0.54686 0.1432-0.80309l0.80309 0.37778 0.80309-1.3935-1.5498-0.86802-1.2022-0.32139s-0.47314 0.0652-0.82473 0.0652c-0.35185 0-0.82499-0.0652-0.82499-0.0652z" fill="#fcfe6a" stroke="#000"/>
  <path id="path4597" d="m-102.86 210.44s-0.59924 1.732-0.74671 4.1629c-4e-3 0.0564-9e-3 0.18222-0.0131 0.23858 0 0 9e-3 5e-3 0.0219 5e-3 0.17793 0.0259 1.5843 0.23857 2.4004 0.23857h0.0433s4e-3 -0.12583 0.0174-0.22119c0.0305-0.33877 0.10847-1.1461 0.13038-1.5714 0.0174 0.42532 0.0954 1.2327 0.12583 1.5714 0.0128 0.0954 0.0174 0.22119 0.0174 0.22119h0.0443c0.87336 0 2.4213-0.24339 2.4213-0.24339-0.0046-0.0564-0.0088-0.18219-0.0088-0.23857-0.15202-2.4309-0.75099-4.1629-0.75099-4.1629z" fill="#fcfe6a" stroke="#000"/>
  <path id="path4601" d="m-93.711 204.21-1.1979 0.32139-1.5541 0.86802 0.80309 1.3935 0.80736-0.37778c0.02619 0.25623 0.13892 0.80309 0.13892 0.80309 0.03046 1.5584-0.09538 3.2166-0.09538 3.2166 0.95483 0.12584 1.923 0.13894 1.923 0.13894s0.9722-0.0132 1.9228-0.13894c0 0-0.12584-1.6583-0.09538-3.2166 0 0 0.11728-0.54686 0.1432-0.80309l0.80309 0.37778 0.80309-1.3935-1.5498-0.86802-1.2022-0.32139s-0.47314 0.0652-0.82473 0.0652c-0.35185 0-0.82499-0.0652-0.825-0.0652z" fill="#85d2ed" stroke="#000"/>
  <path id="path4605" d="m-94.809 210.44s-0.59924 1.732-0.74672 4.1629c-0.0043 0.0564-0.0085 0.18222-0.0131 0.23858 0 0 0.0088 5e-3 0.02191 5e-3 0.17793 0.0259 1.5843 0.23857 2.4004 0.23857h0.04328s0.0043-0.12583 0.01736-0.22119c0.03046-0.33877 0.10847-1.1461 0.13037-1.5714 0.01736 0.42532 0.09538 1.2327 0.12583 1.5714 0.01283 0.0954 0.01736 0.22119 0.01736 0.22119h0.04435c0.87335 0 2.4213-0.24339 2.4213-0.24339-0.0046-0.0564-0.0088-0.18219-0.0088-0.23857-0.15201-2.4309-0.75099-4.1629-0.75099-4.1629z" fill="#85d2ed" stroke="#000"/>
  <path id="path4609" d="m-85.663 204.21-1.1979 0.32139-1.5541 0.86802 0.80309 1.3935 0.80736-0.37778c0.02619 0.25623 0.13892 0.80309 0.13892 0.80309 0.03046 1.5584-0.09538 3.2166-0.09538 3.2166 0.95483 0.12584 1.923 0.13894 1.923 0.13894s0.9722-0.0132 1.9228-0.13894c0 0-0.12583-1.6583-0.09538-3.2166 0 0 0.11728-0.54686 0.1432-0.80309l0.80308 0.37778 0.80309-1.3935-1.5498-0.86802-1.2022-0.32139s-0.47314 0.0652-0.82473 0.0652c-0.35185 0-0.82499-0.0652-0.825-0.0652z"/>
  <path id="path4613" d="m-86.761 210.44s-0.59924 1.732-0.74672 4.1629c-0.0043 0.0564-0.0085 0.18222-0.0131 0.23858 0 0 0.0088 5e-3 0.02191 5e-3 0.17793 0.0259 1.5843 0.23857 2.4004 0.23857h0.04328s0.0043-0.12583 0.01736-0.22119c0.03046-0.33877 0.10847-1.1461 0.13038-1.5714 0.01736 0.42532 0.09538 1.2327 0.12583 1.5714 0.01283 0.0954 0.01736 0.22119 0.01736 0.22119h0.04435c0.87335 0 2.4213-0.24339 2.4213-0.24339-0.0045-0.0564-0.0088-0.18219-0.0088-0.23857-0.15201-2.4309-0.75099-4.1629-0.75099-4.1629z"/>
 </g>
</svg>
