<?xml version="1.0" encoding="UTF-8" standalone="no"?>
<!-- Created with Inkscape (http://www.inkscape.org/) -->

<svg
   width="39.710011mm"
   height="11.136399mm"
   viewBox="0 0 39.710011 11.136399"
   version="1.1"
   id="svg8518"
   inkscape:version="1.1.2 (0a00cf5339, 2022-02-04)"
   sodipodi:docname="096.svg"
   xmlns:inkscape="http://www.inkscape.org/namespaces/inkscape"
   xmlns:sodipodi="http://sodipodi.sourceforge.net/DTD/sodipodi-0.dtd"
   xmlns="http://www.w3.org/2000/svg"
   xmlns:svg="http://www.w3.org/2000/svg">
  <sodipodi:namedview
     id="namedview8520"
     pagecolor="#ffffff"
     bordercolor="#666666"
     borderopacity="1.0"
     inkscape:pageshadow="2"
     inkscape:pageopacity="0.0"
     inkscape:pagecheckerboard="0"
     inkscape:document-units="mm"
     showgrid="false"
     inkscape:zoom="0.69664703"
     inkscape:cx="886.38863"
     inkscape:cy="435.65822"
     inkscape:window-width="1920"
     inkscape:window-height="1016"
     inkscape:window-x="0"
     inkscape:window-y="0"
     inkscape:window-maximized="1"
     inkscape:current-layer="layer1" />
  <defs
     id="defs8515" />
  <g
     inkscape:label="Layer 1"
     inkscape:groupmode="layer"
     id="layer1"
     transform="translate(129.61588,-33.170949)">
    <path
       fill="#faff58"
       d="m -126.68228,33.305654 -1.19795,0.32139 -1.55408,0.868018 0.80309,1.393508 0.80736,-0.377772 c 0.0262,0.256222 0.13892,0.803089 0.13892,0.803089 0.0305,1.558343 -0.0954,3.216619 -0.0954,3.216619 0.95483,0.125836 1.92302,0.138933 1.92302,0.138933 0,0 0.9722,-0.01323 1.92276,-0.138933 0,0 -0.12583,-1.658276 -0.0954,-3.216619 0,0 0.11728,-0.546867 0.14319,-0.803089 l 0.80309,0.377772 0.80309,-1.393508 -1.54981,-0.868018 -1.20222,-0.32139 c 0,0 -0.47314,0.06519 -0.82473,0.06519 -0.35185,0 -0.82499,-0.06519 -0.82499,-0.06519 z"
       fill-rule="evenodd"
       id="path4745"
       style="fill:#61dbf9;fill-opacity:1;stroke:#000000;stroke-width:0.264583;stroke-opacity:1" />
    <path
       fill="#000000"
       d="m -127.78031,39.530506 c 0,0 -0.59925,1.732016 -0.74672,4.162902 -0.004,0.05638 -0.009,0.182218 -0.0131,0.238574 0,0 0.009,0.0045 0.0219,0.0045 0.17793,0.02593 1.58426,0.238575 2.40044,0.238575 h 0.0433 c 0,0 0.004,-0.125836 0.0174,-0.221192 0.0305,-0.338772 0.10846,-1.146122 0.13037,-1.571466 0.0174,0.425344 0.0954,1.232694 0.12583,1.571466 0.0128,0.09536 0.0174,0.221192 0.0174,0.221192 0.0147,0 0.0294,0 0.0444,0 0.87335,0 2.42128,-0.24339 2.42128,-0.24339 -0.005,-0.05636 -0.009,-0.182192 -0.009,-0.238575 -0.15201,-2.430886 -0.75099,-4.162901 -0.75099,-4.162901 z"
       fill-rule="evenodd"
       id="path4749"
       style="stroke-width:0.264583" />
    <path
       fill="#faff58"
       d="m -118.63399,33.305654 -1.19795,0.32139 -1.55407,0.868018 0.80308,1.393508 0.80737,-0.377772 c 0.0262,0.256222 0.13892,0.803089 0.13892,0.803089 0.0305,1.558343 -0.0954,3.216619 -0.0954,3.216619 0.95484,0.125836 1.92303,0.138933 1.92303,0.138933 0,0 0.9722,-0.01323 1.92276,-0.138933 0,0 -0.12583,-1.658276 -0.0954,-3.216619 0,0 0.11728,-0.546867 0.1432,-0.803089 l 0.80309,0.377772 0.80308,-1.393508 -1.5498,-0.868018 -1.20223,-0.32139 c 0,0 -0.47314,0.06519 -0.82472,0.06519 -0.35185,0 -0.825,-0.06519 -0.825,-0.06519 z"
       fill-rule="evenodd"
       id="path4753"
       style="fill:#b4274a;fill-opacity:1;stroke:#000000;stroke-width:0.264583;stroke-opacity:1" />
    <path
       fill="#000000"
       d="m -119.73202,39.530506 c 0,0 -0.59924,1.732016 -0.74671,4.162902 -0.004,0.05638 -0.009,0.182218 -0.0131,0.238574 0,0 0.009,0.0045 0.0219,0.0045 0.17793,0.02593 1.58427,0.238575 2.40044,0.238575 h 0.0433 c 0,0 0.004,-0.125836 0.0173,-0.221192 0.0305,-0.338772 0.10847,-1.146122 0.13038,-1.571466 0.0174,0.425344 0.0954,1.232694 0.12583,1.571466 0.0128,0.09536 0.0174,0.221192 0.0174,0.221192 0.0147,0 0.0294,0 0.0443,0 0.87335,0 2.42129,-0.24339 2.42129,-0.24339 -0.005,-0.05636 -0.009,-0.182192 -0.009,-0.238575 -0.15202,-2.430886 -0.75099,-4.162901 -0.75099,-4.162901 z"
       fill-rule="evenodd"
       id="path4757"
       style="fill:#2d53d7;fill-opacity:1;stroke:#000000;stroke-width:0.264583;stroke-opacity:1" />
    <path
       fill="#faff58"
       d="m -110.58569,33.305654 -1.19795,0.32139 -1.55408,0.868018 0.80309,1.393508 0.80736,-0.377772 c 0.0262,0.256222 0.13892,0.803089 0.13892,0.803089 0.0305,1.558343 -0.0954,3.216619 -0.0954,3.216619 0.95483,0.125836 1.92302,0.138933 1.92302,0.138933 0,0 0.9722,-0.01323 1.92276,-0.138933 0,0 -0.12583,-1.658276 -0.0954,-3.216619 0,0 0.11729,-0.546867 0.1432,-0.803089 l 0.80309,0.377772 0.80309,-1.393508 -1.5498,-0.868018 -1.20223,-0.32139 c 0,0 -0.47314,0.06519 -0.82473,0.06519 -0.35185,0 -0.82499,-0.06519 -0.82499,-0.06519 z"
       fill-rule="evenodd"
       id="path4761"
       style="fill:#000000;fill-opacity:0;stroke:#000000;stroke-width:0.264583;stroke-opacity:1" />
    <path
       fill="#000000"
       d="m -111.68373,39.530506 c 0,0 -0.59924,1.732016 -0.74671,4.162902 -0.004,0.05638 -0.009,0.182218 -0.0131,0.238574 0,0 0.009,0.0045 0.0219,0.0045 0.17793,0.02593 1.58427,0.238575 2.40044,0.238575 h 0.0433 c 0,0 0.004,-0.125836 0.0174,-0.221192 0.0305,-0.338772 0.10847,-1.146122 0.13038,-1.571466 0.0173,0.425344 0.0954,1.232694 0.12583,1.571466 0.0128,0.09536 0.0174,0.221192 0.0174,0.221192 0.0147,0 0.0294,0 0.0443,0 0.87335,0 2.42129,-0.24339 2.42129,-0.24339 -0.005,-0.05636 -0.009,-0.182192 -0.009,-0.238575 -0.15202,-2.430886 -0.751,-4.162901 -0.751,-4.162901 z"
       fill-rule="evenodd"
       id="path4765"
       style="fill:#000000;fill-opacity:0;stroke:#000000;stroke-width:0.264583;stroke-opacity:1" />
    <path
       fill="#faff58"
       d="m -102.5374,33.305654 -1.19795,0.32139 -1.55407,0.868018 0.80308,1.393508 0.80736,-0.377772 c 0.0262,0.256222 0.13893,0.803089 0.13893,0.803089 0.0304,1.558343 -0.0954,3.216619 -0.0954,3.216619 0.95483,0.125836 1.92303,0.138933 1.92303,0.138933 0,0 0.9722,-0.01323 1.922758,-0.138933 0,0 -0.125836,-1.658276 -0.09538,-3.216619 0,0 0.117282,-0.546867 0.143198,-0.803089 l 0.803087,0.377772 0.803087,-1.393508 -1.549802,-0.868018 -1.202218,-0.32139 c 0,0 -0.47315,0.06519 -0.82473,0.06519 -0.35185,0 -0.825,-0.06519 -0.825,-0.06519 z"
       fill-rule="evenodd"
       id="path4769"
       style="fill:#e2fe31;fill-opacity:1;stroke:#000000;stroke-width:0.264583;stroke-opacity:1" />
    <path
       fill="#000000"
       d="m -103.63543,39.530506 c 0,0 -0.59924,1.732016 -0.74671,4.162902 -0.004,0.05638 -0.009,0.182218 -0.0131,0.238574 0,0 0.009,0.0045 0.0219,0.0045 0.17793,0.02593 1.58426,0.238575 2.40044,0.238575 h 0.0433 c 0,0 0.004,-0.125836 0.0174,-0.221192 0.0305,-0.338772 0.10846,-1.146122 0.13037,-1.571466 0.0174,0.425344 0.0954,1.232694 0.12583,1.571466 0.0128,0.09536 0.0174,0.221192 0.0174,0.221192 0.0147,0 0.0294,0 0.0443,0 0.87335,0 2.42128,-0.24339 2.42128,-0.24339 -0.0046,-0.05636 -0.0088,-0.182192 -0.0088,-0.238575 -0.152014,-2.430886 -0.750991,-4.162901 -0.750991,-4.162901 z"
       fill-rule="evenodd"
       id="path4773"
       style="fill:#e2fe31;fill-opacity:1;stroke:#000000;stroke-width:0.264583;stroke-opacity:1" />
    <path
       fill="#faff58"
       d="m -94.489104,33.305654 -1.197949,0.32139 -1.554077,0.868018 0.803087,1.393508 0.80736,-0.377772 c 0.02619,0.256222 0.138925,0.803089 0.138925,0.803089 0.03046,1.558343 -0.09538,3.216619 -0.09538,3.216619 0.954833,0.125836 1.923026,0.138933 1.923026,0.138933 0,0 0.972201,-0.01323 1.922759,-0.138933 0,0 -0.125834,-1.658276 -0.09538,-3.216619 0,0 0.117284,-0.546867 0.143203,-0.803089 l 0.803084,0.377772 0.803087,-1.393508 -1.549802,-0.868018 -1.202224,-0.32139 c 0,0 -0.473144,0.06519 -0.824728,0.06519 -0.351851,0 -0.824994,-0.06519 -0.824997,-0.06519 z"
       fill-rule="evenodd"
       id="path4777"
       style="fill:#74fe71;fill-opacity:1;stroke:#000000;stroke-width:0.264583;stroke-opacity:1" />
    <path
       fill="#000000"
       d="m -95.587135,39.530506 c 0,0 -0.599242,1.732016 -0.746715,4.162902 -0.0043,0.05638 -0.0085,0.182218 -0.0131,0.238574 0,0 0.0088,0.0045 0.02191,0.0045 0.17793,0.02593 1.584267,0.238575 2.400443,0.238575 h 0.04328 c 0,0 0.0043,-0.125836 0.01736,-0.221192 0.03046,-0.338772 0.108469,-1.146122 0.130376,-1.571466 0.01736,0.425344 0.09537,1.232694 0.125831,1.571466 0.01283,0.09536 0.01736,0.221192 0.01736,0.221192 0.01468,0 0.02939,0 0.04435,0 0.87335,0 2.421281,-0.24339 2.421281,-0.24339 -0.0046,-0.05636 -0.0088,-0.182192 -0.0088,-0.238575 -0.152014,-2.430886 -0.750991,-4.162901 -0.750991,-4.162901 z"
       fill-rule="evenodd"
       id="path4781"
       style="fill:#74fe71;fill-opacity:1;stroke:#000000;stroke-width:0.264583;stroke-opacity:1" />
  </g>
</svg>
