<?xml version="1.0" encoding="UTF-8"?>
<!-- Created with Inkscape (http://www.inkscape.org/) -->
<svg id="svg8518" width="39.71mm" height="11.136mm" version="1.1" viewBox="0 0 39.71 11.136" xmlns="http://www.w3.org/2000/svg">
 <g id="layer1" transform="translate(129.62 -33.171)" fill-rule="evenodd" stroke-width=".26458">
  <path id="path4745" d="m-126.68 33.306-1.198 0.32139-1.5541 0.86802 0.80309 1.3935 0.80736-0.37777c0.0262 0.25622 0.13892 0.80309 0.13892 0.80309 0.0305 1.5583-0.0954 3.2166-0.0954 3.2166 0.95483 0.12584 1.923 0.13893 1.923 0.13893s0.9722-0.01323 1.9228-0.13893c0 0-0.12583-1.6583-0.0954-3.2166 0 0 0.11728-0.54687 0.14319-0.80309l0.80309 0.37777 0.80309-1.3935-1.5498-0.86802-1.2022-0.32139s-0.47314 0.06519-0.82473 0.06519c-0.35185 0-0.82499-0.06519-0.82499-0.06519z" fill="#61dbf9" stroke="#000"/>
  <path id="path4749" d="m-127.78 39.531s-0.59925 1.732-0.74672 4.1629c-4e-3 0.05638-9e-3 0.18222-0.0131 0.23857 0 0 9e-3 0.0045 0.0219 0.0045 0.17793 0.02593 1.5843 0.23858 2.4004 0.23858h0.0433s4e-3 -0.12584 0.0174-0.22119c0.0305-0.33877 0.10846-1.1461 0.13037-1.5715 0.0174 0.42534 0.0954 1.2327 0.12583 1.5715 0.0128 0.09536 0.0174 0.22119 0.0174 0.22119h0.0444c0.87335 0 2.4213-0.24339 2.4213-0.24339-5e-3 -0.05636-9e-3 -0.18219-9e-3 -0.23858-0.15201-2.4309-0.75099-4.1629-0.75099-4.1629z"/>
  <path id="path4753" d="m-118.63 33.306-1.198 0.32139-1.5541 0.86802 0.80308 1.3935 0.80737-0.37777c0.0262 0.25622 0.13892 0.80309 0.13892 0.80309 0.0305 1.5583-0.0954 3.2166-0.0954 3.2166 0.95484 0.12584 1.923 0.13893 1.923 0.13893s0.9722-0.01323 1.9228-0.13893c0 0-0.12583-1.6583-0.0954-3.2166 0 0 0.11728-0.54687 0.1432-0.80309l0.80309 0.37777 0.80308-1.3935-1.5498-0.86802-1.2022-0.32139s-0.47314 0.06519-0.82472 0.06519c-0.35185 0-0.825-0.06519-0.825-0.06519z" fill="#b4274a" stroke="#000"/>
  <path id="path4757" d="m-119.73 39.531s-0.59924 1.732-0.74671 4.1629c-4e-3 0.05638-9e-3 0.18222-0.0131 0.23857 0 0 9e-3 0.0045 0.0219 0.0045 0.17793 0.02593 1.5843 0.23858 2.4004 0.23858h0.0433s4e-3 -0.12584 0.0173-0.22119c0.0305-0.33877 0.10847-1.1461 0.13038-1.5715 0.0174 0.42534 0.0954 1.2327 0.12583 1.5715 0.0128 0.09536 0.0174 0.22119 0.0174 0.22119h0.0443c0.87335 0 2.4213-0.24339 2.4213-0.24339-5e-3 -0.05636-9e-3 -0.18219-9e-3 -0.23858-0.15202-2.4309-0.75099-4.1629-0.75099-4.1629z" fill="#2d53d7" stroke="#000"/>
  <path id="path4761" d="m-110.59 33.306-1.198 0.32139-1.5541 0.86802 0.80309 1.3935 0.80736-0.37777c0.0262 0.25622 0.13892 0.80309 0.13892 0.80309 0.0305 1.5583-0.0954 3.2166-0.0954 3.2166 0.95483 0.12584 1.923 0.13893 1.923 0.13893s0.9722-0.01323 1.9228-0.13893c0 0-0.12583-1.6583-0.0954-3.2166 0 0 0.11729-0.54687 0.1432-0.80309l0.80309 0.37777 0.80309-1.3935-1.5498-0.86802-1.2022-0.32139s-0.47314 0.06519-0.82473 0.06519c-0.35185 0-0.82499-0.06519-0.82499-0.06519z" fill="#faff58" fill-opacity="0" stroke="#000"/>
  <path id="path4765" d="m-111.68 39.531s-0.59924 1.732-0.74671 4.1629c-4e-3 0.05638-9e-3 0.18222-0.0131 0.23857 0 0 9e-3 0.0045 0.0219 0.0045 0.17793 0.02593 1.5843 0.23858 2.4004 0.23858h0.0433s4e-3 -0.12584 0.0174-0.22119c0.0305-0.33877 0.10847-1.1461 0.13038-1.5715 0.0173 0.42534 0.0954 1.2327 0.12583 1.5715 0.0128 0.09536 0.0174 0.22119 0.0174 0.22119h0.0443c0.87335 0 2.4213-0.24339 2.4213-0.24339-5e-3 -0.05636-9e-3 -0.18219-9e-3 -0.23858-0.15202-2.4309-0.751-4.1629-0.751-4.1629z" fill-opacity="0" stroke="#000"/>
  <path id="path4769" d="m-102.54 33.306-1.198 0.32139-1.5541 0.86802 0.80308 1.3935 0.80736-0.37777c0.0262 0.25622 0.13893 0.80309 0.13893 0.80309 0.0304 1.5583-0.0954 3.2166-0.0954 3.2166 0.95483 0.12584 1.923 0.13893 1.923 0.13893s0.9722-0.01323 1.9228-0.13893c0 0-0.12584-1.6583-0.09538-3.2166 0 0 0.11728-0.54687 0.1432-0.80309l0.80309 0.37777 0.80309-1.3935-1.5498-0.86802-1.2022-0.32139s-0.47315 0.06519-0.82473 0.06519c-0.35185 0-0.825-0.06519-0.825-0.06519z" fill="#e2fe31" stroke="#000"/>
  <path id="path4773" d="m-103.64 39.531s-0.59924 1.732-0.74671 4.1629c-4e-3 0.05638-9e-3 0.18222-0.0131 0.23857 0 0 9e-3 0.0045 0.0219 0.0045 0.17793 0.02593 1.5843 0.23858 2.4004 0.23858h0.0433s4e-3 -0.12584 0.0174-0.22119c0.0305-0.33877 0.10846-1.1461 0.13037-1.5715 0.0174 0.42534 0.0954 1.2327 0.12583 1.5715 0.0128 0.09536 0.0174 0.22119 0.0174 0.22119h0.0443c0.87335 0 2.4213-0.24339 2.4213-0.24339-0.0046-0.05636-0.0088-0.18219-0.0088-0.23858-0.15201-2.4309-0.75099-4.1629-0.75099-4.1629z" fill="#e2fe31" stroke="#000"/>
  <path id="path4777" d="m-94.489 33.306-1.1979 0.32139-1.5541 0.86802 0.80309 1.3935 0.80736-0.37777c0.02619 0.25622 0.13892 0.80309 0.13892 0.80309 0.03046 1.5583-0.09538 3.2166-0.09538 3.2166 0.95483 0.12584 1.923 0.13893 1.923 0.13893s0.9722-0.01323 1.9228-0.13893c0 0-0.12583-1.6583-0.09538-3.2166 0 0 0.11728-0.54687 0.1432-0.80309l0.80308 0.37777 0.80309-1.3935-1.5498-0.86802-1.2022-0.32139s-0.47314 0.06519-0.82473 0.06519c-0.35185 0-0.82499-0.06519-0.825-0.06519z" fill="#74fe71" stroke="#000"/>
  <path id="path4781" d="m-95.587 39.531s-0.59924 1.732-0.74672 4.1629c-0.0043 0.05638-0.0085 0.18222-0.0131 0.23857 0 0 0.0088 0.0045 0.02191 0.0045 0.17793 0.02593 1.5843 0.23858 2.4004 0.23858h0.04328s0.0043-0.12584 0.01736-0.22119c0.03046-0.33877 0.10847-1.1461 0.13038-1.5715 0.01736 0.42534 0.09537 1.2327 0.12583 1.5715 0.01283 0.09536 0.01736 0.22119 0.01736 0.22119h0.04435c0.87335 0 2.4213-0.24339 2.4213-0.24339-0.0046-0.05636-0.0088-0.18219-0.0088-0.23858-0.15201-2.4309-0.75099-4.1629-0.75099-4.1629z" fill="#74fe71" stroke="#000"/>
 </g>
</svg>
