<?xml version="1.0" encoding="UTF-8" standalone="no"?>
<!-- Created with Inkscape (http://www.inkscape.org/) -->

<svg
   width="39.528519mm"
   height="11.135897mm"
   viewBox="0 0 39.528519 11.135897"
   version="1.1"
   id="svg8785"
   inkscape:version="1.1.2 (0a00cf5339, 2022-02-04)"
   sodipodi:docname="097.svg"
   xmlns:inkscape="http://www.inkscape.org/namespaces/inkscape"
   xmlns:sodipodi="http://sodipodi.sourceforge.net/DTD/sodipodi-0.dtd"
   xmlns="http://www.w3.org/2000/svg"
   xmlns:svg="http://www.w3.org/2000/svg">
  <sodipodi:namedview
     id="namedview8787"
     pagecolor="#ffffff"
     bordercolor="#666666"
     borderopacity="1.0"
     inkscape:pageshadow="2"
     inkscape:pageopacity="0.0"
     inkscape:pagecheckerboard="0"
     inkscape:document-units="mm"
     showgrid="false"
     inkscape:zoom="0.69664703"
     inkscape:cx="702.65139"
     inkscape:cy="161.48781"
     inkscape:window-width="1920"
     inkscape:window-height="1016"
     inkscape:window-x="0"
     inkscape:window-y="0"
     inkscape:window-maximized="1"
     inkscape:current-layer="layer1" />
  <defs
     id="defs8782" />
  <g
     inkscape:label="Layer 1"
     inkscape:groupmode="layer"
     id="layer1"
     transform="translate(80.911321,-105.71191)">
    <path
       fill="#faff58"
       d="m -77.977725,105.84661 -1.19795,0.32138 -1.554077,0.86802 0.803087,1.39351 0.807361,-0.37777 c 0.02618,0.25622 0.138924,0.80309 0.138924,0.80309 0.03046,1.55834 -0.09538,3.21662 -0.09538,3.21662 0.954834,0.12583 1.923026,0.13893 1.923026,0.13893 0,0 0.9722,-0.0132 1.922759,-0.13893 0,0 -0.125833,-1.65828 -0.09538,-3.21662 0,0 0.117283,-0.54687 0.143198,-0.80309 l 0.803086,0.37777 0.803087,-1.39351 -1.549802,-0.86802 -1.202225,-0.32138 c 0,0 -0.473143,0.0652 -0.824727,0.0652 -0.351851,0 -0.824994,-0.0652 -0.824994,-0.0652 z"
       fill-rule="evenodd"
       id="path4787"
       style="fill:#ba0f45;fill-opacity:1;stroke:#000000;stroke-width:0.264583;stroke-opacity:1" />
    <path
       fill="#000000"
       d="m -79.075757,112.07146 c 0,0 -0.599242,1.73201 -0.746715,4.1629 -0.0043,0.0564 -0.0085,0.18222 -0.01309,0.23857 0,0 0.0088,0.004 0.02191,0.004 0.177929,0.0259 1.584265,0.23858 2.400442,0.23858 h 0.04328 c 0,0 0.0043,-0.12584 0.01736,-0.2212 0.03046,-0.33877 0.108467,-1.14612 0.130375,-1.57144 0.01736,0.42532 0.09538,1.23267 0.125832,1.57144 0.01283,0.0954 0.01736,0.2212 0.01736,0.2212 0.0147,0 0.02939,0 0.04435,0 0.87335,0 2.421281,-0.24339 2.421281,-0.24339 -0.0045,-0.0564 -0.0088,-0.1822 -0.0088,-0.23858 -0.152014,-2.43088 -0.75099,-4.1629 -0.75099,-4.1629 z"
       fill-rule="evenodd"
       id="path4791"
       style="stroke-width:0.264583" />
    <path
       fill="#faff58"
       d="m -69.929429,105.84661 -1.197951,0.32138 -1.554077,0.86802 0.803087,1.39351 0.807362,-0.37777 c 0.02619,0.25622 0.138922,0.80309 0.138922,0.80309 0.03046,1.55834 -0.09538,3.21662 -0.09538,3.21662 0.954836,0.12583 1.923029,0.13893 1.923029,0.13893 0,0 0.972198,-0.0132 1.922758,-0.13893 0,0 -0.125833,-1.65828 -0.09538,-3.21662 0,0 0.117282,-0.54687 0.143198,-0.80309 l 0.803087,0.37777 0.803086,-1.39351 -1.549803,-0.86802 -1.202225,-0.32138 c 0,0 -0.473141,0.0652 -0.824724,0.0652 -0.351854,0 -0.824995,-0.0652 -0.824995,-0.0652 z"
       fill-rule="evenodd"
       id="path4795"
       style="fill:#000000;fill-opacity:0;stroke:#000000;stroke-width:0.264583;stroke-opacity:1" />
    <path
       fill="#000000"
       d="m -71.027463,112.07146 c 0,0 -0.599241,1.73201 -0.746714,4.1629 -0.0043,0.0564 -0.0085,0.18222 -0.01309,0.23857 0,0 0.0088,0.004 0.02191,0.004 0.177929,0.0259 1.584265,0.23858 2.400442,0.23858 h 0.04328 c 0,0 0.0043,-0.12584 0.01736,-0.2212 0.03046,-0.33877 0.108468,-1.14612 0.130376,-1.57144 0.01736,0.42532 0.09538,1.23267 0.125833,1.57144 0.01283,0.0954 0.01736,0.2212 0.01736,0.2212 0.01468,0 0.02939,0 0.04435,0 0.873349,0 2.421281,-0.24339 2.421281,-0.24339 -0.0046,-0.0564 -0.0088,-0.1822 -0.0088,-0.23858 -0.152013,-2.43088 -0.750988,-4.1629 -0.750988,-4.1629 z"
       fill-rule="evenodd"
       id="path4799"
       style="fill:#000000;fill-opacity:0;stroke:#000000;stroke-width:0.264583;stroke-opacity:1" />
    <path
       fill="#000000"
       d="m -62.97917,112.07146 c 0,0 -0.599242,1.73201 -0.746715,4.1629 -0.0043,0.0564 -0.0085,0.18222 -0.0131,0.23857 0,0 0.0088,0.004 0.02191,0.004 0.17793,0.0259 1.584267,0.23858 2.400443,0.23858 h 0.04328 c 0,0 0.0043,-0.12584 0.01736,-0.2212 0.03046,-0.33877 0.108469,-1.14612 0.130376,-1.57144 0.01736,0.42532 0.09538,1.23267 0.125834,1.57144 0.01283,0.0954 0.01736,0.2212 0.01736,0.2212 0.01469,0 0.02939,0 0.04435,0 0.87335,0 2.421281,-0.24339 2.421281,-0.24339 -0.0046,-0.0564 -0.0088,-0.1822 -0.0088,-0.23858 -0.152017,-2.43088 -0.750991,-4.1629 -0.750991,-4.1629 z"
       fill-rule="evenodd"
       id="path4807"
       style="stroke-width:0.264583" />
    <path
       fill="#faff58"
       d="m -53.832842,105.84661 -1.197949,0.32138 -1.554078,0.86802 0.803088,1.39351 0.80736,-0.37777 c 0.02619,0.25622 0.138924,0.80309 0.138924,0.80309 0.03046,1.55834 -0.09538,3.21662 -0.09538,3.21662 0.954834,0.12583 1.923029,0.13893 1.923029,0.13893 0,0 0.972198,-0.0132 1.922759,-0.13893 0,0 -0.125836,-1.65828 -0.09538,-3.21662 0,0 0.117282,-0.54687 0.143198,-0.80309 l 0.803087,0.37777 0.803087,-1.39351 -1.549802,-0.86802 -1.202224,-0.32138 c 0,0 -0.473144,0.0652 -0.824728,0.0652 -0.351851,0 -0.824994,-0.0652 -0.824997,-0.0652 z"
       fill-rule="evenodd"
       id="path4811"
       style="fill:#37cff3;fill-opacity:1;stroke:#000000;stroke-width:0.264583;stroke-opacity:1" />
    <path
       fill="#000000"
       d="m -54.930874,112.07146 c 0,0 -0.599241,1.73201 -0.746715,4.1629 -0.0043,0.0564 -0.0085,0.18222 -0.0131,0.23857 0,0 0.0088,0.004 0.02191,0.004 0.17793,0.0259 1.584264,0.23858 2.400443,0.23858 h 0.04328 c 0,0 0.0043,-0.12584 0.01736,-0.2212 0.03046,-0.33877 0.108466,-1.14612 0.130374,-1.57144 0.01736,0.42532 0.09538,1.23267 0.125833,1.57144 0.01283,0.0954 0.01736,0.2212 0.01736,0.2212 0.01469,0 0.02939,0 0.04435,0 0.87335,0 2.421281,-0.24339 2.421281,-0.24339 -0.0046,-0.0564 -0.0088,-0.1822 -0.0088,-0.23858 -0.152014,-2.43088 -0.750991,-4.1629 -0.750991,-4.1629 z"
       fill-rule="evenodd"
       id="path4815"
       style="fill:#37cff3;fill-opacity:1;stroke:#000000;stroke-width:0.264583;stroke-opacity:1" />
    <path
       fill="#faff58"
       d="m -45.784548,105.84661 -1.197949,0.32138 -1.554077,0.86802 0.803087,1.39351 0.80736,-0.37777 c 0.02619,0.25622 0.138925,0.80309 0.138925,0.80309 0.03046,1.55834 -0.09538,3.21662 -0.09538,3.21662 0.954833,0.12583 1.923026,0.13893 1.923026,0.13893 0,0 0.972201,-0.0132 1.922759,-0.13893 0,0 -0.125834,-1.65828 -0.09538,-3.21662 0,0 0.117284,-0.54687 0.143203,-0.80309 l 0.803084,0.37777 0.803087,-1.39351 -1.549802,-0.86802 -1.202224,-0.32138 c 0,0 -0.473144,0.0652 -0.824728,0.0652 -0.351851,0 -0.824994,-0.0652 -0.824997,-0.0652 z"
       fill-rule="evenodd"
       id="path4819"
       style="fill:#000000;fill-opacity:1;stroke-width:0.264583" />
    <path
       fill="#000000"
       d="m -46.882579,112.07146 c 0,0 -0.599242,1.73201 -0.746715,4.1629 -0.0043,0.0564 -0.0085,0.18222 -0.0131,0.23857 0,0 0.0088,0.004 0.02191,0.004 0.17793,0.0259 1.584267,0.23858 2.400443,0.23858 h 0.04328 c 0,0 0.0043,-0.12584 0.01736,-0.2212 0.03046,-0.33877 0.108469,-1.14612 0.130376,-1.57144 0.01736,0.42532 0.09537,1.23267 0.125831,1.57144 0.01283,0.0954 0.01736,0.2212 0.01736,0.2212 0.01468,0 0.02939,0 0.04435,0 0.87335,0 2.421281,-0.24339 2.421281,-0.24339 -0.0046,-0.0564 -0.0088,-0.1822 -0.0088,-0.23858 -0.152014,-2.43088 -0.750991,-4.1629 -0.750991,-4.1629 z"
       fill-rule="evenodd"
       id="path4823"
       style="stroke-width:0.264583" />
    <path
       style="fill:#2e7a4a;fill-opacity:1;stroke:none;stroke-width:0.264583px;stroke-linecap:butt;stroke-linejoin:miter;stroke-opacity:1"
       d="m -59.846408,106.65017 v 5.43666 h -0.731608 v -5.51265 l 0.346104,-0.0557 z"
       id="path224226"
       sodipodi:nodetypes="cccccc" />
    <path
       style="fill:#2e7a4a;fill-opacity:1;stroke:none;stroke-width:0.264583px;stroke-linecap:butt;stroke-linejoin:miter;stroke-opacity:1"
       d="m -62.208082,106.65017 v 5.43666 h 0.731607 v -5.51265 l -0.346104,-0.0557 z"
       id="path224594"
       sodipodi:nodetypes="cccccc" />
    <rect
       style="fill:#2e7a4a;fill-opacity:1;stroke:none;stroke-width:0.127365;stroke-miterlimit:10;stroke-dasharray:none;stroke-opacity:1"
       id="rect234522"
       width="0.95872128"
       height="1.5547246"
       x="104.79329"
       y="58.611996"
       transform="matrix(-0.85696136,0.51538066,0.44346422,0.89629207,0,0)" />
    <path
       style="fill:#2e7a4a;fill-opacity:1;stroke:#2e7a4a;stroke-width:0.228876;stroke-linecap:butt;stroke-linejoin:miter;stroke-miterlimit:10;stroke-dasharray:none;stroke-opacity:1"
       d="m -62.169141,106.75923 -1.366861,0.4245 v 0"
       id="path234557"
       sodipodi:nodetypes="ccc" />
    <rect
       style="fill:#2e7a4a;fill-opacity:1;stroke:none;stroke-width:0.127365;stroke-miterlimit:10;stroke-dasharray:none;stroke-opacity:1"
       id="rect236699"
       width="0.95872128"
       height="1.5547246"
       x="-5.0317888"
       y="121.74117"
       transform="matrix(0.85696136,0.51538066,-0.44346422,0.89629207,0,0)" />
    <path
       style="fill:#2e7a4a;fill-opacity:1;stroke:#2e7a4a;stroke-width:0.228876;stroke-linecap:butt;stroke-linejoin:miter;stroke-miterlimit:10;stroke-dasharray:none;stroke-opacity:1"
       d="m -59.942254,106.73968 1.366862,0.4245 v 0"
       id="path236701"
       sodipodi:nodetypes="ccc" />
    <path
       fill="#faff58"
       d="m -61.881136,105.84661 -1.197952,0.32138 -1.554075,0.86802 0.803085,1.39351 0.807363,-0.37777 c 0.02619,0.25622 0.138922,0.80309 0.138922,0.80309 0.03046,1.55834 -0.09538,3.21662 -0.09538,3.21662 0.954834,0.12583 1.923026,0.13893 1.923026,0.13893 0,0 0.972199,-0.0132 1.922759,-0.13893 0,0 -0.125833,-1.65828 -0.09538,-3.21662 0,0 0.117282,-0.54687 0.143198,-0.80309 l 0.803087,0.37777 0.803087,-1.39351 -1.549799,-0.86802 -1.202227,-0.32138 c 0,0 -0.473141,0.0652 -0.824728,0.0652 -0.35185,0 -0.824992,-0.0652 -0.824994,-0.0652 z"
       fill-rule="evenodd"
       id="path4803"
       style="fill:none;fill-opacity:0;stroke:#000000;stroke-width:0.264583;stroke-opacity:1" />
  </g>
</svg>
