<?xml version="1.0" encoding="UTF-8"?>
<!-- Created with Inkscape (http://www.inkscape.org/) -->
<svg id="svg8785" width="39.529mm" height="11.136mm" version="1.1" viewBox="0 0 39.529 11.136" xmlns="http://www.w3.org/2000/svg">
 <g id="layer1" transform="translate(80.911 -105.71)">
  <path id="path4787" d="m-77.978 105.85-1.198 0.32138-1.5541 0.86802 0.80309 1.3935 0.80736-0.37777c0.02618 0.25622 0.13892 0.80309 0.13892 0.80309 0.03046 1.5583-0.09538 3.2166-0.09538 3.2166 0.95483 0.12583 1.923 0.13893 1.923 0.13893s0.9722-0.0132 1.9228-0.13893c0 0-0.12583-1.6583-0.09538-3.2166 0 0 0.11728-0.54687 0.1432-0.80309l0.80309 0.37777 0.80309-1.3935-1.5498-0.86802-1.2022-0.32138s-0.47314 0.0652-0.82473 0.0652c-0.35185 0-0.82499-0.0652-0.82499-0.0652z" fill="#ba0f45" fill-rule="evenodd" stroke="#000" stroke-width=".26458"/>
  <path id="path4791" d="m-79.076 112.07s-0.59924 1.732-0.74672 4.1629c-0.0043 0.0564-0.0085 0.18222-0.01309 0.23857 0 0 0.0088 4e-3 0.02191 4e-3 0.17793 0.0259 1.5843 0.23858 2.4004 0.23858h0.04328s0.0043-0.12584 0.01736-0.2212c0.03046-0.33877 0.10847-1.1461 0.13038-1.5714 0.01736 0.42532 0.09538 1.2327 0.12583 1.5714 0.01283 0.0954 0.01736 0.2212 0.01736 0.2212h0.04435c0.87335 0 2.4213-0.24339 2.4213-0.24339-0.0045-0.0564-0.0088-0.1822-0.0088-0.23858-0.15201-2.4309-0.75099-4.1629-0.75099-4.1629z" fill-rule="evenodd" stroke-width=".26458"/>
  <path id="path4795" d="m-69.929 105.85-1.198 0.32138-1.5541 0.86802 0.80309 1.3935 0.80736-0.37777c0.02619 0.25622 0.13892 0.80309 0.13892 0.80309 0.03046 1.5583-0.09538 3.2166-0.09538 3.2166 0.95484 0.12583 1.923 0.13893 1.923 0.13893s0.9722-0.0132 1.9228-0.13893c0 0-0.12583-1.6583-0.09538-3.2166 0 0 0.11728-0.54687 0.1432-0.80309l0.80309 0.37777 0.80309-1.3935-1.5498-0.86802-1.2022-0.32138s-0.47314 0.0652-0.82472 0.0652c-0.35185 0-0.825-0.0652-0.825-0.0652z" fill="#faff58" fill-opacity="0" fill-rule="evenodd" stroke="#000" stroke-width=".26458"/>
  <path id="path4799" d="m-71.027 112.07s-0.59924 1.732-0.74671 4.1629c-0.0043 0.0564-0.0085 0.18222-0.01309 0.23857 0 0 0.0088 4e-3 0.02191 4e-3 0.17793 0.0259 1.5843 0.23858 2.4004 0.23858h0.04328s0.0043-0.12584 0.01736-0.2212c0.03046-0.33877 0.10847-1.1461 0.13038-1.5714 0.01736 0.42532 0.09538 1.2327 0.12583 1.5714 0.01283 0.0954 0.01736 0.2212 0.01736 0.2212h0.04435c0.87335 0 2.4213-0.24339 2.4213-0.24339-0.0046-0.0564-0.0088-0.1822-0.0088-0.23858-0.15201-2.4309-0.75099-4.1629-0.75099-4.1629z" fill-opacity="0" fill-rule="evenodd" stroke="#000" stroke-width=".26458"/>
  <path id="path4807" d="m-62.979 112.07s-0.59924 1.732-0.74672 4.1629c-0.0043 0.0564-0.0085 0.18222-0.0131 0.23857 0 0 0.0088 4e-3 0.02191 4e-3 0.17793 0.0259 1.5843 0.23858 2.4004 0.23858h0.04328s0.0043-0.12584 0.01736-0.2212c0.03046-0.33877 0.10847-1.1461 0.13038-1.5714 0.01736 0.42532 0.09538 1.2327 0.12583 1.5714 0.01283 0.0954 0.01736 0.2212 0.01736 0.2212h0.04435c0.87335 0 2.4213-0.24339 2.4213-0.24339-0.0046-0.0564-0.0088-0.1822-0.0088-0.23858-0.15202-2.4309-0.75099-4.1629-0.75099-4.1629z" fill-rule="evenodd" stroke-width=".26458"/>
  <path id="path4811" d="m-53.833 105.85-1.1979 0.32138-1.5541 0.86802 0.80309 1.3935 0.80736-0.37777c0.02619 0.25622 0.13892 0.80309 0.13892 0.80309 0.03046 1.5583-0.09538 3.2166-0.09538 3.2166 0.95483 0.12583 1.923 0.13893 1.923 0.13893s0.9722-0.0132 1.9228-0.13893c0 0-0.12584-1.6583-0.09538-3.2166 0 0 0.11728-0.54687 0.1432-0.80309l0.80309 0.37777 0.80309-1.3935-1.5498-0.86802-1.2022-0.32138s-0.47314 0.0652-0.82473 0.0652c-0.35185 0-0.82499-0.0652-0.825-0.0652z" fill="#37cff3" fill-rule="evenodd" stroke="#000" stroke-width=".26458"/>
  <path id="path4815" d="m-54.931 112.07s-0.59924 1.732-0.74672 4.1629c-0.0043 0.0564-0.0085 0.18222-0.0131 0.23857 0 0 0.0088 4e-3 0.02191 4e-3 0.17793 0.0259 1.5843 0.23858 2.4004 0.23858h0.04328s0.0043-0.12584 0.01736-0.2212c0.03046-0.33877 0.10847-1.1461 0.13037-1.5714 0.01736 0.42532 0.09538 1.2327 0.12583 1.5714 0.01283 0.0954 0.01736 0.2212 0.01736 0.2212h0.04435c0.87335 0 2.4213-0.24339 2.4213-0.24339-0.0046-0.0564-0.0088-0.1822-0.0088-0.23858-0.15201-2.4309-0.75099-4.1629-0.75099-4.1629z" fill="#37cff3" fill-rule="evenodd" stroke="#000" stroke-width=".26458"/>
  <path id="path4819" d="m-45.785 105.85-1.1979 0.32138-1.5541 0.86802 0.80309 1.3935 0.80736-0.37777c0.02619 0.25622 0.13892 0.80309 0.13892 0.80309 0.03046 1.5583-0.09538 3.2166-0.09538 3.2166 0.95483 0.12583 1.923 0.13893 1.923 0.13893s0.9722-0.0132 1.9228-0.13893c0 0-0.12583-1.6583-0.09538-3.2166 0 0 0.11728-0.54687 0.1432-0.80309l0.80308 0.37777 0.80309-1.3935-1.5498-0.86802-1.2022-0.32138s-0.47314 0.0652-0.82473 0.0652c-0.35185 0-0.82499-0.0652-0.825-0.0652z" fill-rule="evenodd" stroke-width=".26458"/>
  <path id="path4823" d="m-46.883 112.07s-0.59924 1.732-0.74672 4.1629c-0.0043 0.0564-0.0085 0.18222-0.0131 0.23857 0 0 0.0088 4e-3 0.02191 4e-3 0.17793 0.0259 1.5843 0.23858 2.4004 0.23858h0.04328s0.0043-0.12584 0.01736-0.2212c0.03046-0.33877 0.10847-1.1461 0.13038-1.5714 0.01736 0.42532 0.09537 1.2327 0.12583 1.5714 0.01283 0.0954 0.01736 0.2212 0.01736 0.2212h0.04435c0.87335 0 2.4213-0.24339 2.4213-0.24339-0.0046-0.0564-0.0088-0.1822-0.0088-0.23858-0.15201-2.4309-0.75099-4.1629-0.75099-4.1629z" fill-rule="evenodd" stroke-width=".26458"/>
  <path id="path224226" d="m-59.846 106.65v5.4367h-0.73161v-5.5126l0.3461-0.0557z" fill="#2e7a4a"/>
  <path id="path224594" d="m-62.208 106.65v5.4367h0.73161v-5.5126l-0.3461-0.0557z" fill="#2e7a4a"/>
  <rect id="rect234522" transform="matrix(-.85696 .51538 .44346 .89629 0 0)" x="104.79" y="58.612" width=".95872" height="1.5547" fill="#2e7a4a"/>
  <path id="path234557" d="m-62.169 106.76-1.3669 0.4245" fill="#2e7a4a" stroke="#2e7a4a" stroke-miterlimit="10" stroke-width=".22888"/>
  <rect id="rect236699" transform="matrix(.85696 .51538 -.44346 .89629 0 0)" x="-5.0318" y="121.74" width=".95872" height="1.5547" fill="#2e7a4a"/>
  <path id="path236701" d="m-59.942 106.74 1.3669 0.4245" fill="#2e7a4a" stroke="#2e7a4a" stroke-miterlimit="10" stroke-width=".22888"/>
  <path id="path4803" d="m-61.881 105.85-1.198 0.32138-1.5541 0.86802 0.80308 1.3935 0.80736-0.37777c0.02619 0.25622 0.13892 0.80309 0.13892 0.80309 0.03046 1.5583-0.09538 3.2166-0.09538 3.2166 0.95483 0.12583 1.923 0.13893 1.923 0.13893s0.9722-0.0132 1.9228-0.13893c0 0-0.12583-1.6583-0.09538-3.2166 0 0 0.11728-0.54687 0.1432-0.80309l0.80309 0.37777 0.80309-1.3935-1.5498-0.86802-1.2022-0.32138s-0.47314 0.0652-0.82473 0.0652c-0.35185 0-0.82499-0.0652-0.82499-0.0652z" fill="none" fill-rule="evenodd" stroke="#000" stroke-width=".26458"/>
 </g>
</svg>
