<?xml version="1.0" encoding="UTF-8" standalone="no"?>
<!-- Created with Inkscape (http://www.inkscape.org/) -->

<svg
   width="39.528477mm"
   height="11.136896mm"
   viewBox="0 0 39.528477 11.136896"
   version="1.1"
   id="svg9080"
   inkscape:version="1.1.2 (0a00cf5339, 2022-02-04)"
   sodipodi:docname="098.svg"
   xmlns:inkscape="http://www.inkscape.org/namespaces/inkscape"
   xmlns:sodipodi="http://sodipodi.sourceforge.net/DTD/sodipodi-0.dtd"
   xmlns="http://www.w3.org/2000/svg"
   xmlns:svg="http://www.w3.org/2000/svg">
  <sodipodi:namedview
     id="namedview9082"
     pagecolor="#ffffff"
     bordercolor="#666666"
     borderopacity="1.0"
     inkscape:pageshadow="2"
     inkscape:pageopacity="0.0"
     inkscape:pagecheckerboard="0"
     inkscape:document-units="mm"
     showgrid="false"
     inkscape:zoom="0.69664703"
     inkscape:cx="75.360976"
     inkscape:cy="20.813984"
     inkscape:window-width="1920"
     inkscape:window-height="1016"
     inkscape:window-x="0"
     inkscape:window-y="0"
     inkscape:window-maximized="1"
     inkscape:current-layer="layer1" />
  <defs
     id="defs9077" />
  <g
     inkscape:label="Layer 1"
     inkscape:groupmode="layer"
     id="layer1"
     transform="translate(-85.249165,-142.74194)">
    <path
       fill="#faff58"
       d="m 88.182761,142.87664 -1.19795,0.32139 -1.554077,0.86801 0.803087,1.39351 0.807361,-0.37777 c 0.02618,0.25622 0.138924,0.80309 0.138924,0.80309 0.03046,1.55834 -0.09538,3.21662 -0.09538,3.21662 0.954834,0.12583 1.923026,0.13893 1.923026,0.13893 0,0 0.9722,-0.0132 1.922759,-0.13893 0,0 -0.125833,-1.65828 -0.09538,-3.21662 0,0 0.117283,-0.54687 0.143198,-0.80309 l 0.803086,0.37777 0.803087,-1.39351 -1.549802,-0.86801 -1.202225,-0.32139 c 0,0 -0.473143,0.0652 -0.824727,0.0652 -0.351851,0 -0.824994,-0.0652 -0.824994,-0.0652 z"
       fill-rule="evenodd"
       id="path4829"
       style="fill:#ba0f45;fill-opacity:1;stroke:#000000;stroke-width:0.264583;stroke-opacity:1" />
    <path
       fill="#000000"
       d="m 87.084729,149.10149 c 0,0 -0.599242,1.73201 -0.746715,4.1629 -0.0043,0.0564 -0.0085,0.18222 -0.01309,0.23857 0,0 0.0088,0.005 0.02191,0.005 0.177929,0.0259 1.584265,0.23858 2.400442,0.23858 h 0.04328 c 0,0 0.0043,-0.12584 0.01736,-0.2212 0.03046,-0.33877 0.108467,-1.14612 0.130375,-1.57143 0.01736,0.42531 0.09538,1.23266 0.125832,1.57143 0.01282,0.0954 0.01736,0.2212 0.01736,0.2212 0.0147,0 0.02939,0 0.04435,0 0.87335,0 2.421281,-0.24339 2.421281,-0.24339 -0.0045,-0.0564 -0.0088,-0.1822 -0.0088,-0.23858 -0.152014,-2.43088 -0.75099,-4.1629 -0.75099,-4.1629 z"
       fill-rule="evenodd"
       id="path4833"
       style="stroke-width:0.264583" />
    <path
       fill="#faff58"
       d="m 96.231057,142.87664 -1.197951,0.32139 -1.554077,0.86801 0.803087,1.39351 0.807362,-0.37777 c 0.02619,0.25622 0.138922,0.80309 0.138922,0.80309 0.03046,1.55834 -0.09538,3.21662 -0.09538,3.21662 0.954836,0.12583 1.923029,0.13893 1.923029,0.13893 0,0 0.972198,-0.0132 1.922758,-0.13893 0,0 -0.125833,-1.65828 -0.09538,-3.21662 0,0 0.117282,-0.54687 0.143198,-0.80309 l 0.803087,0.37777 0.803078,-1.39351 -1.549795,-0.86801 -1.202225,-0.32139 c 0,0 -0.473141,0.0652 -0.824724,0.0652 -0.351854,0 -0.824995,-0.0652 -0.824995,-0.0652 z"
       fill-rule="evenodd"
       id="path4837"
       style="fill:#000000;fill-opacity:0;stroke:#000000;stroke-width:0.264583;stroke-opacity:1" />
    <path
       fill="#000000"
       d="m 95.133023,149.10149 c 0,0 -0.599241,1.73201 -0.746714,4.1629 -0.0043,0.0564 -0.0085,0.18222 -0.01309,0.23857 0,0 0.0088,0.005 0.02191,0.005 0.177929,0.0259 1.584265,0.23858 2.400442,0.23858 h 0.04328 c 0,0 0.0043,-0.12584 0.01736,-0.2212 0.03046,-0.33877 0.108468,-1.14612 0.130376,-1.57143 0.01736,0.42531 0.09538,1.23266 0.125833,1.57143 0.01283,0.0954 0.01736,0.2212 0.01736,0.2212 0.01468,0 0.02939,0 0.04435,0 0.873349,0 2.421281,-0.24339 2.421281,-0.24339 -0.0046,-0.0564 -0.0088,-0.1822 -0.0088,-0.23858 -0.152013,-2.43088 -0.750988,-4.1629 -0.750988,-4.1629 z"
       fill-rule="evenodd"
       id="path4841"
       style="fill:#000000;fill-opacity:0;stroke:#000000;stroke-width:0.264583;stroke-opacity:1" />
    <path
       fill="#faff58"
       d="m 112.32764,142.87664 -1.19794,0.32139 -1.55408,0.86801 0.80308,1.39351 0.80736,-0.37777 c 0.0262,0.25622 0.13893,0.80309 0.13893,0.80309 0.0305,1.55834 -0.0954,3.21662 -0.0954,3.21662 0.95484,0.12583 1.92303,0.13893 1.92303,0.13893 0,0 0.9722,-0.0132 1.92276,-0.13893 0,0 -0.12584,-1.65828 -0.0954,-3.21662 0,0 0.11728,-0.54687 0.1432,-0.80309 l 0.80309,0.37777 0.80309,-1.39351 -1.54981,-0.86801 -1.20222,-0.32139 c 0,0 -0.47315,0.0652 -0.82473,0.0652 -0.35185,0 -0.82499,-0.0652 -0.825,-0.0652 z"
       fill-rule="evenodd"
       id="path4853"
       style="fill:#e2fe31;fill-opacity:1;stroke:#000000;stroke-width:0.264583;stroke-opacity:1" />
    <path
       fill="#000000"
       d="m 111.22961,149.10149 c 0,0 -0.59924,1.73201 -0.74671,4.1629 -0.004,0.0564 -0.009,0.18222 -0.0131,0.23857 0,0 0.009,0.005 0.0219,0.005 0.17793,0.0259 1.58426,0.23858 2.40044,0.23858 h 0.0433 c 0,0 0.004,-0.12584 0.0174,-0.2212 0.0305,-0.33877 0.10846,-1.14612 0.13037,-1.57143 0.0174,0.42531 0.0954,1.23266 0.12583,1.57143 0.0128,0.0954 0.0174,0.2212 0.0174,0.2212 0.0147,0 0.0294,0 0.0444,0 0.87335,0 2.42128,-0.24339 2.42128,-0.24339 -0.005,-0.0564 -0.009,-0.1822 -0.009,-0.23858 -0.15201,-2.43088 -0.75099,-4.1629 -0.75099,-4.1629 z"
       fill-rule="evenodd"
       id="path4857"
       style="fill:#e2fe31;fill-opacity:1;stroke:#000000;stroke-width:0.264583;stroke-opacity:1" />
    <path
       fill="#faff58"
       d="m 120.37594,142.87664 -1.19795,0.32139 -1.55408,0.86801 0.80309,1.39351 0.80736,-0.37777 c 0.0262,0.25622 0.13892,0.80309 0.13892,0.80309 0.0305,1.55834 -0.0954,3.21662 -0.0954,3.21662 0.95483,0.12583 1.92302,0.13893 1.92302,0.13893 0,0 0.9722,-0.0132 1.92276,-0.13893 0,0 -0.12583,-1.65828 -0.0954,-3.21662 0,0 0.11729,-0.54687 0.14321,-0.80309 l 0.80308,0.37777 0.80309,-1.39351 -1.5498,-0.86801 -1.20223,-0.32139 c 0,0 -0.47314,0.0652 -0.82472,0.0652 -0.35186,0 -0.825,-0.0652 -0.825,-0.0652 z"
       fill-rule="evenodd"
       id="path4861"
       style="fill:#000000;fill-opacity:1;stroke:none;stroke-width:0.264583;stroke-opacity:1" />
    <path
       fill="#000000"
       d="m 119.27791,149.10149 c 0,0 -0.59924,1.73201 -0.74672,4.1629 -0.004,0.0564 -0.009,0.18222 -0.0131,0.23857 0,0 0.009,0.005 0.0219,0.005 0.17793,0.0259 1.58427,0.23858 2.40045,0.23858 h 0.0433 c 0,0 0.004,-0.12584 0.0174,-0.2212 0.0305,-0.33877 0.10847,-1.14612 0.13038,-1.57143 0.0174,0.42531 0.0954,1.23266 0.12583,1.57143 0.0128,0.0954 0.0174,0.2212 0.0174,0.2212 0.0147,0 0.0294,0 0.0444,0 0.87334,0 2.42128,-0.24339 2.42128,-0.24339 -0.005,-0.0564 -0.009,-0.1822 -0.009,-0.23858 -0.15202,-2.43088 -0.75099,-4.1629 -0.75099,-4.1629 z"
       fill-rule="evenodd"
       id="path4865"
       style="stroke-width:0.264583" />
    <path
       fill="#000000"
       d="m 103.18132,149.10149 c 0,0 -0.59925,1.73201 -0.74672,4.1629 -0.004,0.0564 -0.009,0.18222 -0.0131,0.23857 0,0 0.009,0.005 0.0219,0.005 0.17793,0.0259 1.58427,0.23858 2.40044,0.23858 h 0.0433 c 0,0 0.004,-0.12584 0.0174,-0.2212 0.0305,-0.33877 0.10847,-1.14612 0.13038,-1.57146 0.0174,0.42534 0.0954,1.23269 0.12583,1.57146 0.0128,0.0954 0.0174,0.2212 0.0174,0.2212 0.0147,0 0.0294,0 0.0443,0 0.87335,0 2.42128,-0.24339 2.42128,-0.24339 -0.005,-0.0564 -0.009,-0.1822 -0.009,-0.23858 -0.15202,-2.43088 -0.75099,-4.1629 -0.75099,-4.1629 z"
       fill-rule="evenodd"
       id="path261340"
       style="fill:#3045c3;fill-opacity:1;stroke:#000000;stroke-width:0.264583;stroke-opacity:1" />
    <path
       d="m 103.08097,143.1981 c 0.92887,0.55563 0.1517,1.61925 0.0568,1.88384 l -0.80751,0.37888 -0.80363,-1.39454 z"
       style="fill:#3045c3;fill-opacity:1;fill-rule:evenodd;stroke:#000000;stroke-width:0.0881063;stroke-linecap:butt;stroke-linejoin:miter;stroke-miterlimit:10;stroke-dasharray:none;stroke-opacity:1"
       id="path261342" />
    <path
       d="m 107.1313,143.19803 c -0.92887,0.55562 -0.1517,1.61925 -0.0568,1.88383 l 0.80751,0.37888 0.80363,-1.39454 z"
       style="fill:#3045c3;fill-opacity:1;fill-rule:evenodd;stroke:#000000;stroke-width:0.0881063;stroke-linecap:butt;stroke-linejoin:miter;stroke-miterlimit:10;stroke-dasharray:none;stroke-opacity:1"
       id="path261346" />
    <path
       style="fill:#3045c3;fill-opacity:1;stroke:none;stroke-width:0.202977px;stroke-linecap:butt;stroke-linejoin:miter;stroke-opacity:1"
       d="m 104.85152,142.89153 0.52917,-0.0206 v 6.16734 l -0.52807,-0.003 z"
       id="path261350"
       sodipodi:nodetypes="ccccc" />
    <path
       style="fill:#3045c3;fill-opacity:1;stroke:none;stroke-width:0.325475px;stroke-linecap:butt;stroke-linejoin:miter;stroke-opacity:1"
       d="m 106.45824,149.03031 v -6.0502 l -0.52917,-0.10347 v 6.14947 z"
       id="path261352" />
    <path
       style="fill:#3045c3;fill-opacity:1;stroke:none;stroke-width:0.325477px;stroke-linecap:butt;stroke-linejoin:miter;stroke-opacity:1"
       d="m 103.75018,149.03031 v -6.0502 l 0.52917,-0.10347 v 6.14947 z"
       id="path261354" />
    <path
       fill="#faff58"
       d="m 104.27935,142.87664 -1.19795,0.32139 -1.55408,0.86801 0.80309,1.39351 0.80736,-0.37777 c 0.0262,0.25622 0.13892,0.80309 0.13892,0.80309 0.0305,1.55834 -0.0954,3.21662 -0.0954,3.21662 0.95483,0.12583 1.92302,0.13893 1.92302,0.13893 0,0 0.9722,-0.013 1.92276,-0.13893 0,0 -0.12583,-1.65828 -0.0954,-3.21662 0,0 0.11728,-0.54687 0.14319,-0.80309 l 0.80309,0.37777 0.80309,-1.39351 -1.5498,-0.86801 -1.20223,-0.32139 c 0,0 -0.47314,0.0652 -0.82473,0.0652 -0.35185,0 -0.82499,-0.0652 -0.82499,-0.0652 z"
       fill-rule="evenodd"
       id="path261338"
       style="fill:none;stroke:#000000;stroke-width:0.264583;stroke-opacity:1" />
  </g>
</svg>
