<?xml version="1.0" encoding="UTF-8"?>
<!-- Created with Inkscape (http://www.inkscape.org/) -->
<svg id="svg9080" width="39.528mm" height="11.137mm" version="1.1" viewBox="0 0 39.528 11.137" xmlns="http://www.w3.org/2000/svg">
 <g id="layer1" transform="translate(-85.249 -142.74)">
  <path id="path4829" d="m88.183 142.88-1.198 0.32139-1.5541 0.86801 0.80309 1.3935 0.80736-0.37777c0.02618 0.25622 0.13892 0.80309 0.13892 0.80309 0.03046 1.5583-0.09538 3.2166-0.09538 3.2166 0.95483 0.12583 1.923 0.13893 1.923 0.13893s0.9722-0.0132 1.9228-0.13893c0 0-0.12583-1.6583-0.09538-3.2166 0 0 0.11728-0.54687 0.1432-0.80309l0.80309 0.37777 0.80309-1.3935-1.5498-0.86801-1.2022-0.32139s-0.47314 0.0652-0.82473 0.0652c-0.35185 0-0.82499-0.0652-0.82499-0.0652z" fill="#ba0f45" fill-rule="evenodd" stroke="#000" stroke-width=".26458"/>
  <path id="path4833" d="m87.085 149.1s-0.59924 1.732-0.74672 4.1629c-0.0043 0.0564-0.0085 0.18222-0.01309 0.23857 0 0 0.0088 5e-3 0.02191 5e-3 0.17793 0.0259 1.5843 0.23858 2.4004 0.23858h0.04328s0.0043-0.12584 0.01736-0.2212c0.03046-0.33877 0.10847-1.1461 0.13038-1.5714 0.01736 0.42531 0.09538 1.2327 0.12583 1.5714 0.01282 0.0954 0.01736 0.2212 0.01736 0.2212h0.04435c0.87335 0 2.4213-0.24339 2.4213-0.24339-0.0045-0.0564-0.0088-0.1822-0.0088-0.23858-0.15201-2.4309-0.75099-4.1629-0.75099-4.1629z" fill-rule="evenodd" stroke-width=".26458"/>
  <path id="path4837" d="m96.231 142.88-1.198 0.32139-1.5541 0.86801 0.80309 1.3935 0.80736-0.37777c0.02619 0.25622 0.13892 0.80309 0.13892 0.80309 0.03046 1.5583-0.09538 3.2166-0.09538 3.2166 0.95484 0.12583 1.923 0.13893 1.923 0.13893s0.9722-0.0132 1.9228-0.13893c0 0-0.12583-1.6583-0.09538-3.2166 0 0 0.11728-0.54687 0.1432-0.80309l0.80309 0.37777 0.80308-1.3935-1.5498-0.86801-1.2022-0.32139s-0.47314 0.0652-0.82472 0.0652c-0.35185 0-0.825-0.0652-0.825-0.0652z" fill="#faff58" fill-opacity="0" fill-rule="evenodd" stroke="#000" stroke-width=".26458"/>
  <path id="path4841" d="m95.133 149.1s-0.59924 1.732-0.74671 4.1629c-0.0043 0.0564-0.0085 0.18222-0.01309 0.23857 0 0 0.0088 5e-3 0.02191 5e-3 0.17793 0.0259 1.5843 0.23858 2.4004 0.23858h0.04328s0.0043-0.12584 0.01736-0.2212c0.03046-0.33877 0.10847-1.1461 0.13038-1.5714 0.01736 0.42531 0.09538 1.2327 0.12583 1.5714 0.01283 0.0954 0.01736 0.2212 0.01736 0.2212h0.04435c0.87335 0 2.4213-0.24339 2.4213-0.24339-0.0046-0.0564-0.0088-0.1822-0.0088-0.23858-0.15201-2.4309-0.75099-4.1629-0.75099-4.1629z" fill-opacity="0" fill-rule="evenodd" stroke="#000" stroke-width=".26458"/>
  <path id="path4853" d="m112.33 142.88-1.1979 0.32139-1.5541 0.86801 0.80308 1.3935 0.80736-0.37777c0.0262 0.25622 0.13893 0.80309 0.13893 0.80309 0.0305 1.5583-0.0954 3.2166-0.0954 3.2166 0.95484 0.12583 1.923 0.13893 1.923 0.13893s0.9722-0.0132 1.9228-0.13893c0 0-0.12584-1.6583-0.0954-3.2166 0 0 0.11728-0.54687 0.1432-0.80309l0.80309 0.37777 0.80309-1.3935-1.5498-0.86801-1.2022-0.32139s-0.47315 0.0652-0.82473 0.0652c-0.35185 0-0.82499-0.0652-0.825-0.0652z" fill="#e2fe31" fill-rule="evenodd" stroke="#000" stroke-width=".26458"/>
  <path id="path4857" d="m111.23 149.1s-0.59924 1.732-0.74671 4.1629c-4e-3 0.0564-9e-3 0.18222-0.0131 0.23857 0 0 9e-3 5e-3 0.0219 5e-3 0.17793 0.0259 1.5843 0.23858 2.4004 0.23858h0.0433s4e-3 -0.12584 0.0174-0.2212c0.0305-0.33877 0.10846-1.1461 0.13037-1.5714 0.0174 0.42531 0.0954 1.2327 0.12583 1.5714 0.0128 0.0954 0.0174 0.2212 0.0174 0.2212h0.0444c0.87335 0 2.4213-0.24339 2.4213-0.24339-5e-3 -0.0564-9e-3 -0.1822-9e-3 -0.23858-0.15201-2.4309-0.75099-4.1629-0.75099-4.1629z" fill="#e2fe31" fill-rule="evenodd" stroke="#000" stroke-width=".26458"/>
  <path id="path4861" d="m120.38 142.88-1.198 0.32139-1.5541 0.86801 0.80309 1.3935 0.80736-0.37777c0.0262 0.25622 0.13892 0.80309 0.13892 0.80309 0.0305 1.5583-0.0954 3.2166-0.0954 3.2166 0.95483 0.12583 1.923 0.13893 1.923 0.13893s0.9722-0.0132 1.9228-0.13893c0 0-0.12583-1.6583-0.0954-3.2166 0 0 0.11729-0.54687 0.14321-0.80309l0.80308 0.37777 0.80309-1.3935-1.5498-0.86801-1.2022-0.32139s-0.47314 0.0652-0.82472 0.0652c-0.35186 0-0.825-0.0652-0.825-0.0652z" fill-rule="evenodd"/>
  <path id="path4865" d="m119.28 149.1s-0.59924 1.732-0.74672 4.1629c-4e-3 0.0564-9e-3 0.18222-0.0131 0.23857 0 0 9e-3 5e-3 0.0219 5e-3 0.17793 0.0259 1.5843 0.23858 2.4004 0.23858h0.0433s4e-3 -0.12584 0.0174-0.2212c0.0305-0.33877 0.10847-1.1461 0.13038-1.5714 0.0174 0.42531 0.0954 1.2327 0.12583 1.5714 0.0128 0.0954 0.0174 0.2212 0.0174 0.2212h0.0444c0.87334 0 2.4213-0.24339 2.4213-0.24339-5e-3 -0.0564-9e-3 -0.1822-9e-3 -0.23858-0.15202-2.4309-0.75099-4.1629-0.75099-4.1629z" fill-rule="evenodd" stroke-width=".26458"/>
  <path id="path261340" d="m103.18 149.1s-0.59925 1.732-0.74672 4.1629c-4e-3 0.0564-9e-3 0.18222-0.0131 0.23857 0 0 9e-3 5e-3 0.0219 5e-3 0.17793 0.0259 1.5843 0.23858 2.4004 0.23858h0.0433s4e-3 -0.12584 0.0174-0.2212c0.0305-0.33877 0.10847-1.1461 0.13038-1.5715 0.0174 0.42534 0.0954 1.2327 0.12583 1.5715 0.0128 0.0954 0.0174 0.2212 0.0174 0.2212h0.0443c0.87335 0 2.4213-0.24339 2.4213-0.24339-5e-3 -0.0564-9e-3 -0.1822-9e-3 -0.23858-0.15202-2.4309-0.75099-4.1629-0.75099-4.1629z" fill="#3045c3" fill-rule="evenodd" stroke="#000" stroke-width=".26458"/>
  <path id="path261342" d="m103.08 143.2c0.92887 0.55563 0.1517 1.6192 0.0568 1.8838l-0.80751 0.37888-0.80363-1.3945z" fill="#3045c3" fill-rule="evenodd" stroke="#000" stroke-miterlimit="10" stroke-width=".088106"/>
  <path id="path261346" d="m107.13 143.2c-0.92887 0.55562-0.1517 1.6192-0.0568 1.8838l0.80751 0.37888 0.80363-1.3945z" fill="#3045c3" fill-rule="evenodd" stroke="#000" stroke-miterlimit="10" stroke-width=".088106"/>
  <path id="path261350" d="m104.85 142.89 0.52917-0.0206v6.1673l-0.52807-3e-3z" fill="#3045c3"/>
  <path id="path261352" d="m106.46 149.03v-6.0502l-0.52917-0.10347v6.1495z" fill="#3045c3"/>
  <path id="path261354" d="m103.75 149.03v-6.0502l0.52917-0.10347v6.1495z" fill="#3045c3"/>
  <path id="path261338" d="m104.28 142.88-1.198 0.32139-1.5541 0.86801 0.80309 1.3935 0.80736-0.37777c0.0262 0.25622 0.13892 0.80309 0.13892 0.80309 0.0305 1.5583-0.0954 3.2166-0.0954 3.2166 0.95483 0.12583 1.923 0.13893 1.923 0.13893s0.9722-0.013 1.9228-0.13893c0 0-0.12583-1.6583-0.0954-3.2166 0 0 0.11728-0.54687 0.14319-0.80309l0.80309 0.37777 0.80309-1.3935-1.5498-0.86801-1.2022-0.32139s-0.47314 0.0652-0.82473 0.0652c-0.35185 0-0.82499-0.0652-0.82499-0.0652z" fill="none" fill-rule="evenodd" stroke="#000" stroke-width=".26458"/>
 </g>
</svg>
