<?xml version="1.0" encoding="UTF-8" standalone="no"?>
<!-- Created with Inkscape (http://www.inkscape.org/) -->

<svg
   width="39.710011mm"
   height="11.136896mm"
   viewBox="0 0 39.710011 11.136896"
   version="1.1"
   id="svg9422"
   inkscape:version="1.1.2 (0a00cf5339, 2022-02-04)"
   sodipodi:docname="099.svg"
   xmlns:inkscape="http://www.inkscape.org/namespaces/inkscape"
   xmlns:sodipodi="http://sodipodi.sourceforge.net/DTD/sodipodi-0.dtd"
   xmlns:xlink="http://www.w3.org/1999/xlink"
   xmlns="http://www.w3.org/2000/svg"
   xmlns:svg="http://www.w3.org/2000/svg">
  <sodipodi:namedview
     id="namedview9424"
     pagecolor="#ffffff"
     bordercolor="#666666"
     borderopacity="1.0"
     inkscape:pageshadow="2"
     inkscape:pageopacity="0.0"
     inkscape:pagecheckerboard="0"
     inkscape:document-units="mm"
     showgrid="false"
     inkscape:zoom="0.69664703"
     inkscape:cx="893.56586"
     inkscape:cy="-200.24488"
     inkscape:window-width="1920"
     inkscape:window-height="1016"
     inkscape:window-x="0"
     inkscape:window-y="0"
     inkscape:window-maximized="1"
     inkscape:current-layer="layer1" />
  <defs
     id="defs9419">
    <linearGradient
       inkscape:collect="always"
       xlink:href="#linearGradient305076"
       id="linearGradient305078"
       x1="39.157494"
       y1="4752.8911"
       x2="39.157494"
       y2="4730.2329"
       gradientUnits="userSpaceOnUse"
       gradientTransform="matrix(0.26458333,0,0,0.27186652,-131.51108,-1084.363)" />
    <linearGradient
       inkscape:collect="always"
       id="linearGradient305076">
      <stop
         style="stop-color:#5394f5;stop-opacity:1;"
         offset="0"
         id="stop305072" />
      <stop
         style="stop-color:#5394f5;stop-opacity:0;"
         offset="1"
         id="stop305074" />
    </linearGradient>
    <linearGradient
       inkscape:collect="always"
       xlink:href="#linearGradient305076"
       id="linearGradient305448"
       gradientUnits="userSpaceOnUse"
       x1="39.157494"
       y1="4752.8911"
       x2="39.157494"
       y2="4730.2329"
       gradientTransform="matrix(0.26458333,0,0,0.27186652,-130.89044,-1084.363)" />
    <linearGradient
       inkscape:collect="always"
       xlink:href="#linearGradient305076"
       id="linearGradient305452"
       gradientUnits="userSpaceOnUse"
       gradientTransform="matrix(0.26458333,0,0,0.27186652,-130.2698,-1084.3631)"
       x1="39.157494"
       y1="4752.8911"
       x2="39.157494"
       y2="4730.2329" />
    <linearGradient
       inkscape:collect="always"
       xlink:href="#linearGradient305076"
       id="linearGradient305456"
       gradientUnits="userSpaceOnUse"
       gradientTransform="matrix(0.26458333,0,0,0.27186652,-129.64916,-1084.363)"
       x1="39.157494"
       y1="4752.8911"
       x2="39.157494"
       y2="4730.2329" />
    <linearGradient
       inkscape:collect="always"
       xlink:href="#linearGradient305076"
       id="linearGradient305460"
       gradientUnits="userSpaceOnUse"
       gradientTransform="matrix(0.26458333,0,0,0.27186652,-129.02853,-1084.363)"
       x1="39.157494"
       y1="4752.8911"
       x2="39.157494"
       y2="4730.2329" />
  </defs>
  <g
     inkscape:label="Layer 1"
     inkscape:groupmode="layer"
     id="layer1"
     transform="translate(131.51486,-201.42026)">
    <path
       fill="#faff58"
       d="m -128.58126,201.55496 -1.19795,0.32139 -1.55408,0.86802 0.80309,1.39351 0.80736,-0.37778 c 0.0262,0.25623 0.13892,0.80309 0.13892,0.80309 0.0305,1.55835 -0.0954,3.21662 -0.0954,3.21662 0.95483,0.12584 1.92302,0.13894 1.92302,0.13894 0,0 0.9722,-0.0132 1.92276,-0.13894 0,0 -0.12583,-1.65827 -0.0954,-3.21662 0,0 0.11728,-0.54686 0.14319,-0.80309 l 0.80309,0.37778 0.80309,-1.39351 -1.54981,-0.86802 -1.20222,-0.32139 c 0,0 -0.47314,0.0652 -0.82473,0.0652 -0.35185,0 -0.82499,-0.0652 -0.82499,-0.0652 z"
       fill-rule="evenodd"
       id="path4871"
       style="fill:#ba0f45;fill-opacity:1;stroke:#000000;stroke-width:0.264583;stroke-opacity:1" />
    <path
       fill="#000000"
       d="m -129.67929,207.77981 c 0,0 -0.59925,1.73202 -0.74672,4.1629 -0.004,0.0564 -0.009,0.18222 -0.0131,0.23858 0,0 0.009,0.005 0.0219,0.005 0.17793,0.0259 1.58426,0.23857 2.40044,0.23857 h 0.0433 c 0,0 0.004,-0.12583 0.0174,-0.22119 0.0305,-0.33877 0.10846,-1.14612 0.13037,-1.57147 0.0174,0.42535 0.0954,1.2327 0.12583,1.57147 0.0128,0.0954 0.0174,0.22119 0.0174,0.22119 0.0147,0 0.0294,0 0.0443,0 0.87335,0 2.42128,-0.24339 2.42128,-0.24339 -0.005,-0.0564 -0.009,-0.18219 -0.009,-0.23857 -0.15201,-2.43089 -0.75099,-4.16291 -0.75099,-4.16291 z"
       fill-rule="evenodd"
       id="path4875"
       style="stroke-width:0.264583" />
    <path
       fill="#faff58"
       d="m -112.48467,201.55496 -1.19795,0.32139 -1.55408,0.86802 0.80309,1.39351 0.80736,-0.37778 c 0.0262,0.25623 0.13892,0.80309 0.13892,0.80309 0.0305,1.55835 -0.0954,3.21662 -0.0954,3.21662 0.95483,0.12584 1.92302,0.13894 1.92302,0.13894 0,0 0.9722,-0.0132 1.92276,-0.13894 0,0 -0.12583,-1.65827 -0.0954,-3.21662 0,0 0.11729,-0.54686 0.1432,-0.80309 l 0.80309,0.37778 0.80309,-1.39351 -1.5498,-0.86802 -1.20223,-0.32139 c 0,0 -0.47314,0.0652 -0.82473,0.0652 -0.35185,0 -0.82499,-0.0652 -0.82499,-0.0652 z"
       fill-rule="evenodd"
       id="path4887"
       style="fill:#39255e;fill-opacity:1;stroke:#000000;stroke-width:0.264583;stroke-opacity:1" />
    <path
       fill="#000000"
       d="m -113.58271,207.77981 c 0,0 -0.59924,1.73202 -0.74671,4.1629 -0.004,0.0564 -0.009,0.18222 -0.0131,0.23858 0,0 0.009,0.005 0.0219,0.005 0.17793,0.0259 1.58427,0.23857 2.40044,0.23857 h 0.0433 c 0,0 0.004,-0.12583 0.0174,-0.22119 0.0305,-0.33877 0.10847,-1.14612 0.13038,-1.57147 0.0174,0.42535 0.0954,1.2327 0.12583,1.57147 0.0128,0.0954 0.0174,0.22119 0.0174,0.22119 0.0147,0 0.0294,0 0.0443,0 0.87335,0 2.42129,-0.24339 2.42129,-0.24339 -0.005,-0.0564 -0.009,-0.18219 -0.009,-0.23857 -0.15202,-2.43089 -0.751,-4.16291 -0.751,-4.16291 z"
       fill-rule="evenodd"
       id="path4891"
       style="fill:#39255e;fill-opacity:1;stroke:#000000;stroke-width:0.264583;stroke-opacity:1" />
    <path
       fill="#faff58"
       d="m -104.43638,201.55496 -1.19795,0.32139 -1.55407,0.86802 0.80308,1.39351 0.80736,-0.37778 c 0.0262,0.25623 0.13893,0.80309 0.13893,0.80309 0.0305,1.55835 -0.0954,3.21662 -0.0954,3.21662 0.95483,0.12584 1.92303,0.13894 1.92303,0.13894 0,0 0.9722,-0.0132 1.92276,-0.13894 0,0 -0.12584,-1.65827 -0.0954,-3.21662 0,0 0.11728,-0.54686 0.1432,-0.80309 l 0.80309,0.37778 0.80308,-1.39351 -1.5498,-0.86802 -1.20222,-0.32139 c 0,0 -0.47315,0.0652 -0.82473,0.0652 -0.35185,0 -0.825,-0.0652 -0.825,-0.0652 z"
       fill-rule="evenodd"
       id="path4895"
       style="fill:#e7fe4b;fill-opacity:1;stroke:#000000;stroke-width:0.264583;stroke-opacity:1" />
    <path
       fill="#000000"
       d="m -105.53441,207.77981 c 0,0 -0.59924,1.73202 -0.74671,4.1629 -0.004,0.0564 -0.009,0.18222 -0.0131,0.23858 0,0 0.009,0.005 0.0219,0.005 0.17793,0.0259 1.58426,0.23857 2.40044,0.23857 h 0.0433 c 0,0 0.004,-0.12583 0.0174,-0.22119 0.0305,-0.33877 0.10846,-1.14612 0.13037,-1.57147 0.0174,0.42535 0.0954,1.2327 0.12583,1.57147 0.0128,0.0954 0.0174,0.22119 0.0174,0.22119 0.0147,0 0.0294,0 0.0444,0 0.87335,0 2.42128,-0.24339 2.42128,-0.24339 -0.005,-0.0564 -0.009,-0.18219 -0.009,-0.23857 -0.15201,-2.43089 -0.75099,-4.16291 -0.75099,-4.16291 z"
       fill-rule="evenodd"
       id="path4899"
       style="fill:#e7fe4b;fill-opacity:1;stroke:#000000;stroke-width:0.264583;stroke-opacity:1" />
    <path
       fill="#faff58"
       d="m -96.388084,201.55496 -1.197949,0.32139 -1.554077,0.86802 0.803087,1.39351 0.80736,-0.37778 c 0.02619,0.25623 0.138925,0.80309 0.138925,0.80309 0.03046,1.55835 -0.09538,3.21662 -0.09538,3.21662 0.954833,0.12584 1.923026,0.13894 1.923026,0.13894 0,0 0.972201,-0.0132 1.922759,-0.13894 0,0 -0.125834,-1.65827 -0.09538,-3.21662 0,0 0.117284,-0.54686 0.143203,-0.80309 l 0.803084,0.37778 0.803087,-1.39351 -1.549802,-0.86802 -1.202224,-0.32139 c 0,0 -0.473144,0.0652 -0.824728,0.0652 -0.351851,0 -0.824994,-0.0652 -0.824997,-0.0652 z"
       fill-rule="evenodd"
       id="path4903"
       style="fill:#45ad56;fill-opacity:1;stroke:#000000;stroke-width:0.264583;stroke-opacity:1" />
    <path
       fill="#000000"
       d="m -97.486115,207.77981 c 0,0 -0.599242,1.73202 -0.746715,4.1629 -0.0043,0.0564 -0.0085,0.18222 -0.0131,0.23858 0,0 0.0088,0.005 0.02191,0.005 0.17793,0.0259 1.584267,0.23857 2.400443,0.23857 h 0.04328 c 0,0 0.0043,-0.12583 0.01736,-0.22119 0.03046,-0.33877 0.108469,-1.14612 0.130376,-1.57147 0.01736,0.42535 0.09538,1.2327 0.125831,1.57147 0.01283,0.0954 0.01736,0.22119 0.01736,0.22119 0.01468,0 0.02939,0 0.04435,0 0.87335,0 2.421281,-0.24339 2.421281,-0.24339 -0.0045,-0.0564 -0.0088,-0.18219 -0.0088,-0.23857 -0.152014,-2.43089 -0.750991,-4.16291 -0.750991,-4.16291 z"
       fill-rule="evenodd"
       id="path4907"
       style="fill:#45ad56;fill-opacity:1;stroke:#000000;stroke-width:0.264583;stroke-opacity:1" />
    <rect
       style="fill:url(#linearGradient305078);fill-opacity:1;stroke:none;stroke-width:0.0893106;stroke-miterlimit:10;stroke-dasharray:none;stroke-opacity:1"
       id="rect301657"
       width="0.34929141"
       height="6.159997"
       x="-121.15066"
       y="201.62906" />
    <rect
       style="fill:url(#linearGradient305448);fill-opacity:1;stroke:none;stroke-width:0.0893106;stroke-miterlimit:10;stroke-dasharray:none;stroke-opacity:1"
       id="rect305446"
       width="0.34929141"
       height="6.159997"
       x="-120.53002"
       y="201.62906" />
    <rect
       style="fill:url(#linearGradient305452);fill-opacity:1;stroke:none;stroke-width:0.0893106;stroke-miterlimit:10;stroke-dasharray:none;stroke-opacity:1"
       id="rect305450"
       width="0.34929141"
       height="6.159997"
       x="-119.90939"
       y="201.62906" />
    <rect
       style="fill:url(#linearGradient305456);fill-opacity:1;stroke:none;stroke-width:0.0893106;stroke-miterlimit:10;stroke-dasharray:none;stroke-opacity:1"
       id="rect305454"
       width="0.34929141"
       height="6.159997"
       x="-119.28874"
       y="201.62906" />
    <rect
       style="fill:url(#linearGradient305460);fill-opacity:1;stroke:none;stroke-width:0.0893106;stroke-miterlimit:10;stroke-dasharray:none;stroke-opacity:1"
       id="rect305458"
       width="0.34929141"
       height="6.159997"
       x="-118.66811"
       y="201.62906" />
    <path
       fill="#faff58"
       d="m -120.53297,201.55496 -1.19795,0.32139 -1.55407,0.86802 0.80308,1.39351 0.80737,-0.37778 c 0.0262,0.25623 0.13892,0.80309 0.13892,0.80309 0.0304,1.55835 -0.0954,3.21662 -0.0954,3.21662 0.95484,0.12584 1.92303,0.13894 1.92303,0.13894 0,0 0.9722,-0.0132 1.92276,-0.13894 0,0 -0.12583,-1.65827 -0.0954,-3.21662 0,0 0.11728,-0.54686 0.1432,-0.80309 l 0.80309,0.37778 0.80308,-1.39351 -1.5498,-0.86802 -1.20223,-0.32139 c 0,0 -0.47314,0.0652 -0.82472,0.0652 -0.35185,0 -0.825,-0.0652 -0.825,-0.0652 z"
       fill-rule="evenodd"
       id="path4879"
       style="fill:#000000;fill-opacity:0;stroke:#000000;stroke-width:0.264583;stroke-opacity:1" />
    <path
       fill="#000000"
       d="m -121.631,207.77981 c 0,0 -0.59924,1.73202 -0.74671,4.1629 -0.004,0.0564 -0.009,0.18222 -0.0131,0.23858 0,0 0.009,0.005 0.0219,0.005 0.17793,0.0259 1.58427,0.23857 2.40044,0.23857 h 0.0433 c 0,0 0.004,-0.12583 0.0173,-0.22119 0.0305,-0.33877 0.10847,-1.14612 0.13038,-1.57147 0.0173,0.42535 0.0954,1.2327 0.12583,1.57147 0.0128,0.0954 0.0174,0.22119 0.0174,0.22119 0.0147,0 0.0294,0 0.0443,0 0.87335,0 2.42129,-0.24339 2.42129,-0.24339 -0.005,-0.0564 -0.009,-0.18219 -0.009,-0.23857 -0.15202,-2.43089 -0.75099,-4.16291 -0.75099,-4.16291 z"
       fill-rule="evenodd"
       id="path4883"
       style="fill:#214fc8;fill-opacity:1;stroke:#000000;stroke-width:0.264583;stroke-opacity:1" />
  </g>
</svg>
