<?xml version="1.0" encoding="UTF-8"?>
<!-- Created with Inkscape (http://www.inkscape.org/) -->
<svg id="svg9422" width="39.71mm" height="11.137mm" version="1.1" viewBox="0 0 39.71 11.137" xmlns="http://www.w3.org/2000/svg" xmlns:xlink="http://www.w3.org/1999/xlink">
 <defs id="defs9419">
  <linearGradient id="linearGradient305078" x1="39.157" x2="39.157" y1="4752.9" y2="4730.2" gradientTransform="matrix(.26458 0 0 .27187 -131.51 -1084.4)" gradientUnits="userSpaceOnUse" xlink:href="#linearGradient305076"/>
  <linearGradient id="linearGradient305076">
   <stop id="stop305072" stop-color="#5394f5" offset="0"/>
   <stop id="stop305074" stop-color="#5394f5" stop-opacity="0" offset="1"/>
  </linearGradient>
  <linearGradient id="linearGradient305448" x1="39.157" x2="39.157" y1="4752.9" y2="4730.2" gradientTransform="matrix(.26458 0 0 .27187 -130.89 -1084.4)" gradientUnits="userSpaceOnUse" xlink:href="#linearGradient305076"/>
  <linearGradient id="linearGradient305452" x1="39.157" x2="39.157" y1="4752.9" y2="4730.2" gradientTransform="matrix(.26458 0 0 .27187 -130.27 -1084.4)" gradientUnits="userSpaceOnUse" xlink:href="#linearGradient305076"/>
  <linearGradient id="linearGradient305456" x1="39.157" x2="39.157" y1="4752.9" y2="4730.2" gradientTransform="matrix(.26458 0 0 .27187 -129.65 -1084.4)" gradientUnits="userSpaceOnUse" xlink:href="#linearGradient305076"/>
  <linearGradient id="linearGradient305460" x1="39.157" x2="39.157" y1="4752.9" y2="4730.2" gradientTransform="matrix(.26458 0 0 .27187 -129.03 -1084.4)" gradientUnits="userSpaceOnUse" xlink:href="#linearGradient305076"/>
 </defs>
 <g id="layer1" transform="translate(131.51 -201.42)">
  <path id="path4871" d="m-128.58 201.55-1.198 0.32139-1.5541 0.86802 0.80309 1.3935 0.80736-0.37778c0.0262 0.25623 0.13892 0.80309 0.13892 0.80309 0.0305 1.5584-0.0954 3.2166-0.0954 3.2166 0.95483 0.12584 1.923 0.13894 1.923 0.13894s0.9722-0.0132 1.9228-0.13894c0 0-0.12583-1.6583-0.0954-3.2166 0 0 0.11728-0.54686 0.14319-0.80309l0.80309 0.37778 0.80309-1.3935-1.5498-0.86802-1.2022-0.32139s-0.47314 0.0652-0.82473 0.0652c-0.35185 0-0.82499-0.0652-0.82499-0.0652z" fill="#ba0f45" fill-rule="evenodd" stroke="#000" stroke-width=".26458"/>
  <path id="path4875" d="m-129.68 207.78s-0.59925 1.732-0.74672 4.1629c-4e-3 0.0564-9e-3 0.18222-0.0131 0.23858 0 0 9e-3 5e-3 0.0219 5e-3 0.17793 0.0259 1.5843 0.23857 2.4004 0.23857h0.0433s4e-3 -0.12583 0.0174-0.22119c0.0305-0.33877 0.10846-1.1461 0.13037-1.5715 0.0174 0.42535 0.0954 1.2327 0.12583 1.5715 0.0128 0.0954 0.0174 0.22119 0.0174 0.22119h0.0443c0.87335 0 2.4213-0.24339 2.4213-0.24339-5e-3 -0.0564-9e-3 -0.18219-9e-3 -0.23857-0.15201-2.4309-0.75099-4.1629-0.75099-4.1629z" fill-rule="evenodd" stroke-width=".26458"/>
  <path id="path4887" d="m-112.48 201.55-1.198 0.32139-1.5541 0.86802 0.80309 1.3935 0.80736-0.37778c0.0262 0.25623 0.13892 0.80309 0.13892 0.80309 0.0305 1.5584-0.0954 3.2166-0.0954 3.2166 0.95483 0.12584 1.923 0.13894 1.923 0.13894s0.9722-0.0132 1.9228-0.13894c0 0-0.12583-1.6583-0.0954-3.2166 0 0 0.11729-0.54686 0.1432-0.80309l0.80309 0.37778 0.80309-1.3935-1.5498-0.86802-1.2022-0.32139s-0.47314 0.0652-0.82473 0.0652c-0.35185 0-0.82499-0.0652-0.82499-0.0652z" fill="#39255e" fill-rule="evenodd" stroke="#000" stroke-width=".26458"/>
  <path id="path4891" d="m-113.58 207.78s-0.59924 1.732-0.74671 4.1629c-4e-3 0.0564-9e-3 0.18222-0.0131 0.23858 0 0 9e-3 5e-3 0.0219 5e-3 0.17793 0.0259 1.5843 0.23857 2.4004 0.23857h0.0433s4e-3 -0.12583 0.0174-0.22119c0.0305-0.33877 0.10847-1.1461 0.13038-1.5715 0.0174 0.42535 0.0954 1.2327 0.12583 1.5715 0.0128 0.0954 0.0174 0.22119 0.0174 0.22119h0.0443c0.87335 0 2.4213-0.24339 2.4213-0.24339-5e-3 -0.0564-9e-3 -0.18219-9e-3 -0.23857-0.15202-2.4309-0.751-4.1629-0.751-4.1629z" fill="#39255e" fill-rule="evenodd" stroke="#000" stroke-width=".26458"/>
  <path id="path4895" d="m-104.44 201.55-1.198 0.32139-1.5541 0.86802 0.80308 1.3935 0.80736-0.37778c0.0262 0.25623 0.13893 0.80309 0.13893 0.80309 0.0305 1.5584-0.0954 3.2166-0.0954 3.2166 0.95483 0.12584 1.923 0.13894 1.923 0.13894s0.9722-0.0132 1.9228-0.13894c0 0-0.12584-1.6583-0.0954-3.2166 0 0 0.11728-0.54686 0.1432-0.80309l0.80309 0.37778 0.80308-1.3935-1.5498-0.86802-1.2022-0.32139s-0.47315 0.0652-0.82473 0.0652c-0.35185 0-0.825-0.0652-0.825-0.0652z" fill="#e7fe4b" fill-rule="evenodd" stroke="#000" stroke-width=".26458"/>
  <path id="path4899" d="m-105.53 207.78s-0.59924 1.732-0.74671 4.1629c-4e-3 0.0564-9e-3 0.18222-0.0131 0.23858 0 0 9e-3 5e-3 0.0219 5e-3 0.17793 0.0259 1.5843 0.23857 2.4004 0.23857h0.0433s4e-3 -0.12583 0.0174-0.22119c0.0305-0.33877 0.10846-1.1461 0.13037-1.5715 0.0174 0.42535 0.0954 1.2327 0.12583 1.5715 0.0128 0.0954 0.0174 0.22119 0.0174 0.22119h0.0444c0.87335 0 2.4213-0.24339 2.4213-0.24339-5e-3 -0.0564-9e-3 -0.18219-9e-3 -0.23857-0.15201-2.4309-0.75099-4.1629-0.75099-4.1629z" fill="#e7fe4b" fill-rule="evenodd" stroke="#000" stroke-width=".26458"/>
  <path id="path4903" d="m-96.388 201.55-1.1979 0.32139-1.5541 0.86802 0.80309 1.3935 0.80736-0.37778c0.02619 0.25623 0.13892 0.80309 0.13892 0.80309 0.03046 1.5584-0.09538 3.2166-0.09538 3.2166 0.95483 0.12584 1.923 0.13894 1.923 0.13894s0.9722-0.0132 1.9228-0.13894c0 0-0.12583-1.6583-0.09538-3.2166 0 0 0.11728-0.54686 0.1432-0.80309l0.80308 0.37778 0.80309-1.3935-1.5498-0.86802-1.2022-0.32139s-0.47314 0.0652-0.82473 0.0652c-0.35185 0-0.82499-0.0652-0.825-0.0652z" fill="#45ad56" fill-rule="evenodd" stroke="#000" stroke-width=".26458"/>
  <path id="path4907" d="m-97.486 207.78s-0.59924 1.732-0.74672 4.1629c-0.0043 0.0564-0.0085 0.18222-0.0131 0.23858 0 0 0.0088 5e-3 0.02191 5e-3 0.17793 0.0259 1.5843 0.23857 2.4004 0.23857h0.04328s0.0043-0.12583 0.01736-0.22119c0.03046-0.33877 0.10847-1.1461 0.13038-1.5715 0.01736 0.42535 0.09538 1.2327 0.12583 1.5715 0.01283 0.0954 0.01736 0.22119 0.01736 0.22119h0.04435c0.87335 0 2.4213-0.24339 2.4213-0.24339-0.0045-0.0564-0.0088-0.18219-0.0088-0.23857-0.15201-2.4309-0.75099-4.1629-0.75099-4.1629z" fill="#45ad56" fill-rule="evenodd" stroke="#000" stroke-width=".26458"/>
  <rect id="rect301657" x="-121.15" y="201.63" width=".34929" height="6.16" fill="url(#linearGradient305078)"/>
  <rect id="rect305446" x="-120.53" y="201.63" width=".34929" height="6.16" fill="url(#linearGradient305448)"/>
  <rect id="rect305450" x="-119.91" y="201.63" width=".34929" height="6.16" fill="url(#linearGradient305452)"/>
  <rect id="rect305454" x="-119.29" y="201.63" width=".34929" height="6.16" fill="url(#linearGradient305456)"/>
  <rect id="rect305458" x="-118.67" y="201.63" width=".34929" height="6.16" fill="url(#linearGradient305460)"/>
  <path id="path4879" d="m-120.53 201.55-1.198 0.32139-1.5541 0.86802 0.80308 1.3935 0.80737-0.37778c0.0262 0.25623 0.13892 0.80309 0.13892 0.80309 0.0304 1.5584-0.0954 3.2166-0.0954 3.2166 0.95484 0.12584 1.923 0.13894 1.923 0.13894s0.9722-0.0132 1.9228-0.13894c0 0-0.12583-1.6583-0.0954-3.2166 0 0 0.11728-0.54686 0.1432-0.80309l0.80309 0.37778 0.80308-1.3935-1.5498-0.86802-1.2022-0.32139s-0.47314 0.0652-0.82472 0.0652c-0.35185 0-0.825-0.0652-0.825-0.0652z" fill="#faff58" fill-opacity="0" fill-rule="evenodd" stroke="#000" stroke-width=".26458"/>
  <path id="path4883" d="m-121.63 207.78s-0.59924 1.732-0.74671 4.1629c-4e-3 0.0564-9e-3 0.18222-0.0131 0.23858 0 0 9e-3 5e-3 0.0219 5e-3 0.17793 0.0259 1.5843 0.23857 2.4004 0.23857h0.0433s4e-3 -0.12583 0.0173-0.22119c0.0305-0.33877 0.10847-1.1461 0.13038-1.5715 0.0173 0.42535 0.0954 1.2327 0.12583 1.5715 0.0128 0.0954 0.0174 0.22119 0.0174 0.22119h0.0443c0.87335 0 2.4213-0.24339 2.4213-0.24339-5e-3 -0.0564-9e-3 -0.18219-9e-3 -0.23857-0.15202-2.4309-0.75099-4.1629-0.75099-4.1629z" fill="#214fc8" fill-rule="evenodd" stroke="#000" stroke-width=".26458"/>
 </g>
</svg>
