<?xml version="1.0" encoding="UTF-8"?>
<svg id="svg363" width="149.4" height="42.092" fill="none" stroke-linecap="square" stroke-miterlimit="10" version="1.1" viewBox="0 0 149.4 42.092" xmlns="http://www.w3.org/2000/svg">
 <clipPath id="g1f1130f6aa8_0_6014.0">
  <path id="path2" d="m0 0h960v540h-960z"/>
 </clipPath>
 <path id="path4913" d="m10.401 0.50912-4.5277 1.2147-5.8737 3.2807 3.0353 5.2668 3.0514-1.4278c0.09896 0.9684 0.52507 3.0353 0.52507 3.0353 0.11511 5.8898-0.36048 12.157-0.36048 12.157 3.6088 0.4756 7.2681 0.5251 7.2681 0.5251s3.6745-0.05 7.2671-0.5251c0 0-0.47559-6.2675-0.36048-12.157 0 0 0.44328-2.0669 0.54122-3.0353l3.0353 1.4278 3.0353-5.2668-5.8575-3.2807-4.5438-1.2147s-1.7883 0.2464-3.1171 0.2464c-1.3298 0-3.1181-0.2464-3.1181-0.2464z" fill="#000" fill-rule="evenodd"/>
 <path id="path4917" d="m6.2513 24.036s-2.2649 6.5462-2.8222 15.734c-0.01616 0.2131-0.03231 0.6887-0.04948 0.9017 0 0 0.03332 0.017 0.0828 0.017 0.67249 0.098 5.9878 0.9017 9.0725 0.9017h0.16358s0.01616-0.4756 0.06563-0.836c0.11511-1.2804 0.40996-4.3318 0.49276-5.9394 0.06563 1.6076 0.36048 4.659 0.47559 5.9394 0.04847 0.3604 0.06563 0.836 0.06563 0.836h0.16762c3.3008 0 9.1513-0.9199 9.1513-0.9199-0.01717-0.213-0.03332-0.6886-0.03332-0.9017-0.57454-9.1876-2.8384-15.734-2.8384-15.734z" fill="#000" fill-rule="evenodd"/>
 <path id="path4929" d="m71.239 0.50912-4.5277 1.2147-5.8737 3.2807 3.0353 5.2668 3.0514-1.4278c0.099 0.9684 0.52506 3.0353 0.52506 3.0353 0.11511 5.8898-0.36047 12.157-0.36047 12.157 3.6088 0.4756 7.2681 0.5251 7.2681 0.5251s3.6744-0.05 7.2671-0.5251c0 0-0.47559-6.2675-0.36048-12.157 0 0 0.44327-2.0669 0.54122-3.0353l3.0353 1.4278 3.0353-5.2668-5.8575-3.2807-4.5438-1.2147s-1.7882 0.2464-3.1171 0.2464c-1.3298 0-3.1181-0.2464-3.1181-0.2464z" fill="#cc301d" fill-rule="evenodd" stroke="#000"/>
 <path id="path4933" d="m67.089 24.036s-2.2648 6.5462-2.8222 15.734c-0.0162 0.2131-0.0323 0.6887-0.0495 0.9017 0 0 0.0333 0.017 0.0828 0.017 0.67249 0.098 5.9878 0.9017 9.0725 0.9017h0.16358s0.0162-0.4756 0.0656-0.836c0.11511-1.2804 0.40996-4.3318 0.49276-5.9394 0.0656 1.6076 0.36048 4.659 0.47559 5.9394 0.0485 0.3604 0.0656 0.836 0.0656 0.836h0.16762c3.3008 0 9.1513-0.9199 9.1513-0.9199-0.0172-0.213-0.0333-0.6886-0.0333-0.9017-0.57455-9.1876-2.8384-15.734-2.8384-15.734z" fill="#000" fill-opacity="0" fill-rule="evenodd" stroke="#000"/>
 <path id="path4937" d="m101.66 0.50912-4.5277 1.2147-5.8737 3.2807 3.0353 5.2668 3.0514-1.4278c0.099 0.9684 0.52507 3.0353 0.52507 3.0353 0.11511 5.8898-0.36048 12.157-0.36048 12.157 3.6088 0.4756 7.2681 0.5251 7.2681 0.5251s3.6744-0.05 7.2671-0.5251c0 0-0.4756-6.2675-0.36048-12.157 0 0 0.44327-2.0669 0.54122-3.0353l3.0353 1.4278 3.0353-5.2668-5.8575-3.2807-4.5438-1.2147s-1.7883 0.2464-3.1171 0.2464c-1.3298 0-3.1181-0.2464-3.1181-0.2464z" fill="#45ad56" fill-rule="evenodd" stroke="#000"/>
 <path id="path4941" d="m97.508 24.036s-2.2648 6.5462-2.8222 15.734c-0.0162 0.2131-0.0323 0.6887-0.0495 0.9017 0 0 0.0333 0.017 0.0828 0.017 0.67249 0.098 5.9878 0.9017 9.0725 0.9017h0.16358s0.0162-0.4756 0.0656-0.836c0.11511-1.2804 0.40995-4.3318 0.49275-5.9394 0.0656 1.6076 0.36048 4.659 0.47559 5.9394 0.0485 0.3604 0.0656 0.836 0.0656 0.836h0.16762c3.3008 0 9.1513-0.9199 9.1513-0.9199-0.0172-0.213-0.0333-0.6886-0.0333-0.9017-0.57454-9.1876-2.8384-15.734-2.8384-15.734z" fill="#45ad56" fill-rule="evenodd" stroke="#000"/>
 <path id="path4945" d="m132.08 0.50912-4.5277 1.2147-5.8737 3.2807 3.0353 5.2668 3.0514-1.4278c0.099 0.9684 0.52507 3.0353 0.52507 3.0353 0.11511 5.8898-0.36048 12.157-0.36048 12.157 3.6088 0.4756 7.2681 0.5251 7.2681 0.5251s3.6745-0.05 7.2671-0.5251c0 0-0.47559-6.2675-0.36048-12.157 0 0 0.44328-2.0669 0.54124-3.0353l3.0353 1.4278 3.0353-5.2668-5.8575-3.2807-4.5438-1.2147s-1.7883 0.2464-3.1171 0.2464c-1.3298 0-3.1181-0.2464-3.1181-0.2464z" fill="#e7fe4b" fill-rule="evenodd" stroke="#000"/>
 <path id="path4949" d="m127.93 24.036s-2.2648 6.5462-2.8222 15.734c-0.0162 0.2131-0.0323 0.6887-0.0495 0.9017 0 0 0.0333 0.017 0.0828 0.017 0.67249 0.098 5.9878 0.9017 9.0725 0.9017h0.16358s0.0162-0.4756 0.0656-0.836c0.11511-1.2804 0.40996-4.3318 0.49276-5.9394 0.0656 1.6076 0.36047 4.659 0.47558 5.9394 0.0485 0.3604 0.0656 0.836 0.0656 0.836h0.16762c3.3008 0 9.1513-0.9199 9.1513-0.9199-0.0172-0.213-0.0333-0.6886-0.0333-0.9017-0.57454-9.1876-2.8384-15.734-2.8384-15.734z" fill="#e7fe4b" fill-rule="evenodd" stroke="#000"/>
 <path id="path338891" d="m41.361 0.51032-4.5277 1.2147-5.8737 3.2807 3.0353 5.2668 3.0514-1.4278c0.099 0.9684 0.52506 3.0353 0.52506 3.0353 0.11511 5.8898-0.36048 12.157-0.36048 12.157 3.6088 0.4756 7.2681 0.5251 7.2681 0.5251s3.6744-0.05 7.2671-0.5251c0 0-0.47559-6.2675-0.36048-12.157 0 0 0.44327-2.0669 0.54122-3.0353l3.0353 1.4278 3.0353-5.2668-5.8575-3.2807-4.5438-1.2147s-1.7882 0.2464-3.1171 0.2464c-1.3298 0-3.1181-0.2464-3.1181-0.2464z" fill="#1635b2" fill-rule="evenodd" stroke="#000"/>
 <path id="path338893" d="m37.211 24.037s-2.2648 6.5462-2.8222 15.734c-0.01616 0.2131-0.03231 0.6887-0.04948 0.9017 0 0 0.03332 0.017 0.0828 0.017 0.67249 0.098 5.9878 0.9017 9.0725 0.9017h0.16358s0.0162-0.4756 0.0656-0.836c0.11511-1.2804 0.40996-4.3318 0.49276-5.9393 0.0656 1.6075 0.36048 4.6589 0.47559 5.9393 0.0485 0.3604 0.0656 0.836 0.0656 0.836h0.16761c3.3008 0 9.1513-0.9199 9.1513-0.9199-0.0172-0.213-0.0333-0.6886-0.0333-0.9017-0.57454-9.1876-2.8384-15.734-2.8384-15.734z" fill="#1635b2" fill-rule="evenodd" stroke="#000"/>
 <path id="path338895" d="m40.053 1.0083v23.043h2.7651v-23.331l-1.3081-0.2108z" fill="#971a45"/>
 <path id="path338897" d="m49.054 1.0083v23.043h-2.7651v-23.331l1.3081-0.2108z" fill="#971a45"/>
</svg>
